<svg width="48" height="48" viewBox="0 0 48 48" fill="none" xmlns="http://www.w3.org/2000/svg">
<path d="M30 8H10C8.89543 8 8 8.89543 8 10V38C8 39.1046 8.89543 40 10 40H30C31.1046 40 32 39.1046 32 38V10C32 8.89543 31.1046 8 30 8Z" stroke="#8A63D2" stroke-width="3"/>
<path d="M14 16H26" stroke="#8A63D2" stroke-width="2"/>
<path d="M14 24H26" stroke="#8A63D2" stroke-width="2"/>
<path d="M30 38C34.4183 38 38 34.4183 38 30C38 25.5817 34.4183 22 30 22C25.5817 22 22 25.5817 22 30C22 34.4183 25.5817 38 30 38Z" stroke="#48D1CC" stroke-width="3"/>
<path d="M36 36L42 42" stroke="#48D1CC" stroke-width="3" stroke-linecap="round"/>
</svg>
