<svg width="135" height="40" viewBox="0 0 135 40" fill="none" xmlns="http://www.w3.org/2000/svg">
<path fill-rule="evenodd" clip-rule="evenodd" d="M10.7566 1.72057e-06H124.249C124.655 1.72057e-06 125.067 -0.000128279 125.472 0.00187172C125.753 0.00346346 126.039 0.00766047 126.322 0.0118031C126.386 0.0127355 126.449 0.0136652 126.512 0.0145617C127.269 0.0220095 128.023 0.0811045 128.769 0.191322C129.518 0.304242 130.243 0.515569 130.921 0.818322C132.278 1.43603 133.383 2.4152 134.079 3.61812C134.419 4.2175 134.655 4.85928 134.777 5.52144C134.903 6.18324 134.973 6.85242 134.987 7.52344C134.991 7.83008 134.991 8.1377 134.991 8.44434C135 8.80664 135 9.16992 135 9.53613V30.4648C135 30.834 135 31.1953 134.991 31.5586C134.991 31.8691 134.991 32.1699 134.987 32.4805C134.973 33.1515 134.903 33.8206 134.777 34.4824C134.655 35.1449 134.42 35.7871 134.079 36.3867C133.733 36.9835 133.283 37.5282 132.746 38.001C132.213 38.4778 131.597 38.8758 130.921 39.1797C130.243 39.4833 129.518 39.6958 128.769 39.8105C128.023 39.9198 127.268 39.9789 126.512 39.9873C126.169 39.9941 125.816 39.998 125.472 39.998C125.067 40 124.655 40 124.249 40H10.7566C10.343 40 9.93419 40 9.5216 39.998C9.17621 39.998 8.83358 39.9941 8.48488 39.9873C7.72738 39.9785 6.9717 39.9194 6.22416 39.8105C5.47772 39.6966 4.75481 39.484 4.07967 39.1797C3.40371 38.876 2.78717 38.478 2.25357 38.001C1.71505 37.5301 1.26616 36.9849 0.924356 36.3867C0.581124 35.7875 0.343339 35.1453 0.219258 34.4824C0.0936522 33.8207 0.0260614 33.1514 0.0170916 32.4805C0.00993901 32.2683 0.00715699 32.0607 0.00435296 31.8514C0.0030527 31.7544 0.00174771 31.657 0 31.5586V8.44434C0.00176842 8.34604 0.00308357 8.24765 0.00439918 8.14922C0.0071877 7.94059 0.00997831 7.7318 0.0170916 7.52348C0.0260586 6.85252 0.0936495 6.18319 0.219258 5.52148C0.343683 4.85894 0.581453 4.21711 0.924356 3.61816C1.26632 3.01802 1.71514 2.47064 2.25357 1.99707C2.7892 1.52217 3.40534 1.12447 4.07967 0.818412C4.75482 0.514917 5.4778 0.303534 6.22416 0.191412C6.97157 0.081678 7.72733 0.0226035 8.48488 0.0147017C8.55727 0.0136865 8.6294 0.0126317 8.70135 0.0115795C8.97596 0.00756356 9.24792 0.00358651 9.5216 0.00200172C9.9342 1.72062e-06 10.3429 1.72057e-06 10.7566 1.72057e-06ZM8.40804 39.1173C8.74966 39.1241 9.08566 39.128 9.42998 39.128L124.35 39.13L125.576 39.128C125.912 39.128 126.259 39.1241 126.59 39.1173C127.297 39.1097 128.004 39.0551 128.702 38.9542C129.358 38.8557 129.993 38.6703 130.587 38.4043C131.173 38.1407 131.707 37.7954 132.169 37.3815C132.631 36.9758 133.018 36.5081 133.316 35.9956C133.615 35.4698 133.821 34.9064 133.927 34.3252C134.042 33.7122 134.106 33.0926 134.12 32.4713C134.124 32.1646 134.124 31.8667 134.124 31.5414C134.133 31.1839 134.133 30.8294 134.133 30.466V9.53295C134.133 9.17301 134.133 8.81601 134.124 8.44093C134.124 8.13813 134.124 7.83386 134.121 7.55061C134.107 6.91801 134.042 6.28713 133.924 5.663C133.818 5.0894 133.614 4.53335 133.32 4.01374C132.718 2.97461 131.763 2.12826 130.59 1.5933C129.995 1.32872 129.359 1.14404 128.702 1.04533C128.008 0.944474 127.306 0.890111 126.602 0.882711L125.57 0.870008H9.43053L8.41082 0.882221C7.70067 0.890008 6.99218 0.94486 6.29129 1.04631C5.6412 1.1438 5.01136 1.3272 4.42286 1.59037C3.83742 1.85582 3.30266 2.20091 2.83807 2.61305C2.37296 3.02132 1.98554 3.4935 1.69085 4.01129C1.39165 4.53452 1.18454 5.09514 1.07668 5.67374C0.960772 6.2928 0.898236 6.91875 0.889618 7.5462C0.883007 7.74938 0.873016 8.44093 0.873016 8.44093V31.5463C0.873016 31.5463 0.882396 32.2487 0.889561 32.4596C0.898562 33.0881 0.961463 33.715 1.07772 34.335C1.18538 34.912 1.39233 35.471 1.69137 35.9925C1.98715 36.5107 2.37673 36.9825 2.84466 37.3893C3.30591 37.801 3.83897 38.1443 4.42342 38.4062C5.01327 38.6702 5.6443 38.8549 6.29571 38.9542C6.9943 39.0546 7.70034 39.1091 8.40804 39.1173Z" fill="#A6A6A6"/>
<path d="M9.43001 39.1281C9.08569 39.1281 8.74969 39.1242 8.40807 39.1174C7.70037 39.1093 6.99433 39.0547 6.29574 38.9543C5.64433 38.855 5.0133 38.6703 4.42345 38.4063C3.839 38.1444 3.30594 37.8011 2.84469 37.3895C2.37676 36.9826 1.98718 36.5108 1.6914 35.9927C1.39236 35.4711 1.18541 34.9121 1.07775 34.3351C0.961494 33.7151 0.898592 33.0882 0.889592 32.4597C0.882427 32.2488 0.873047 31.5464 0.873047 31.5464V8.44104C0.873047 8.44104 0.883037 7.74949 0.889648 7.54631C0.898266 6.91886 0.960802 6.2929 1.07671 5.67385C1.18457 5.09525 1.39168 4.53463 1.69088 4.0114C1.98557 3.49361 2.37299 3.02143 2.8381 2.61316C3.30269 2.20102 3.83745 1.85593 4.42289 1.59048C5.01139 1.32731 5.64123 1.14391 6.29132 1.04642C6.99221 0.944969 7.7007 0.890117 8.41085 0.88233L9.43056 0.870117H125.57L126.602 0.88282C127.306 0.890221 128.008 0.944583 128.702 1.04544C129.359 1.14415 129.995 1.32883 130.59 1.59341C131.763 2.12837 132.718 2.97472 133.32 4.01384C133.614 4.53346 133.818 5.08951 133.924 5.66311C134.042 6.28724 134.107 6.91812 134.121 7.55071C134.124 7.83397 134.124 8.13824 134.124 8.44104C134.133 8.81612 134.133 9.17312 134.133 9.53306V30.4661C134.133 30.8295 134.133 31.1841 134.124 31.5415C134.124 31.8668 134.124 32.1648 134.12 32.4714C134.107 33.0927 134.042 33.7123 133.927 34.3253C133.821 34.9065 133.615 35.4699 133.316 35.9957C133.018 36.5082 132.631 36.9759 132.169 37.3817C131.707 37.7955 131.173 38.1409 130.587 38.4044C129.994 38.6704 129.358 38.8558 128.702 38.9543C128.004 39.0553 127.297 39.1098 126.59 39.1174C126.259 39.1242 125.912 39.1281 125.576 39.1281L124.35 39.1301L9.43001 39.1281Z" fill="black"/>
</svg>
