<svg width="33" height="32" viewBox="0 0 33 32" fill="none" xmlns="http://www.w3.org/2000/svg">
<g clip-path="url(#clip0_101_2475)">
<path d="M13.0022 12.206C13.6042 12.206 14.0632 11.745 14.0632 11.144C14.066 11.0034 14.0406 10.8637 13.9884 10.7332C13.9362 10.6026 13.8583 10.4839 13.7593 10.384C13.6604 10.2841 13.5424 10.2051 13.4123 10.1517C13.2823 10.0982 13.1428 10.0715 13.0022 10.073C12.4002 10.073 11.9322 10.542 11.9322 11.144C11.9306 11.2846 11.9572 11.4241 12.0105 11.5542C12.0638 11.6843 12.1427 11.8024 12.2425 11.9014C12.3423 12.0005 12.4609 12.0785 12.5914 12.1308C12.7219 12.1831 12.8616 12.2087 13.0022 12.206Z" fill="url(#paint0_linear_101_2475)"/>
<path d="M21.9728 19.046C21.3728 19.046 20.9038 19.506 20.9038 20.107C20.9038 20.709 21.3718 21.178 21.9728 21.178C22.1136 21.1798 22.2533 21.1532 22.3836 21.0999C22.5138 21.0466 22.6321 20.9677 22.7313 20.8677C22.8304 20.7678 22.9085 20.649 22.9608 20.5183C23.0131 20.3876 23.0386 20.2477 23.0358 20.107C23.0358 19.506 22.5748 19.046 21.9728 19.046Z" fill="url(#paint1_linear_101_2475)"/>
<path d="M31.4481 13.48L28.8601 10.884V7.225C28.8601 5.263 27.2411 3.652 25.2791 3.652H21.6201L19.0301 1.061C18.3351 0.367996 17.4071 0.00799561 16.4961 0.00799561C15.5851 0.00799561 14.6651 0.366996 13.9721 1.061L11.3801 3.652H7.71309C6.76651 3.65568 5.85974 4.03327 5.19031 4.70251C4.52088 5.37176 4.14304 6.27842 4.13909 7.225V10.884L1.55109 13.48C0.884668 14.152 0.510742 15.0601 0.510742 16.0065C0.510742 16.9529 0.884668 17.861 1.55109 18.533L4.13909 21.123V24.791C4.14304 25.7375 4.52092 26.644 5.19037 27.3131C5.85983 27.9822 6.7666 28.3596 7.71309 28.363H11.3791L13.9711 30.951C14.6441 31.6178 15.5532 31.9919 16.5006 31.9919C17.448 31.9919 18.3571 31.6178 19.0301 30.951L21.6201 28.363H25.2791C27.2411 28.363 28.8601 26.753 28.8601 24.791V21.123L31.4481 18.533C32.1145 17.861 32.4884 16.9529 32.4884 16.0065C32.4884 15.0601 32.1145 14.152 31.4481 13.48ZM13.0021 7.942C14.7561 7.942 16.1951 9.39 16.1951 11.145C16.1917 11.9908 15.8542 12.8009 15.2561 13.399C14.658 13.9971 13.8479 14.3346 13.0021 14.338C12.1561 14.3346 11.3457 13.9971 10.7474 13.3991C10.149 12.8011 9.81104 11.991 9.80709 11.145C9.80709 9.39 11.2491 7.942 13.0021 7.942ZM12.0421 22.443C11.945 22.5443 11.8289 22.6255 11.7004 22.6819C11.5719 22.7384 11.4335 22.769 11.2932 22.7719C11.1529 22.7749 11.0134 22.7502 10.8826 22.6993C10.7519 22.6483 10.6324 22.5721 10.5311 22.475C10.4298 22.3779 10.3486 22.2618 10.2921 22.1333C10.2357 22.0048 10.2051 21.8664 10.2021 21.7261C10.1992 21.5858 10.2239 21.4463 10.2748 21.3155C10.3258 21.1848 10.402 21.0653 10.4991 20.964C10.5131 20.951 10.5191 20.94 10.5311 20.932L21.8391 9.62199C22.0325 9.42347 22.296 9.30859 22.5731 9.302L22.5851 9.299V9.3C22.7251 9.29627 22.8644 9.32022 22.9951 9.37046C23.1258 9.42071 23.2453 9.49626 23.3468 9.59278C23.4482 9.68931 23.5296 9.80491 23.5863 9.93297C23.643 10.061 23.6738 10.199 23.6771 10.339C23.6808 10.487 23.6537 10.6342 23.5976 10.7712C23.5415 10.9082 23.4575 11.0321 23.3511 11.135L12.0421 22.443ZM21.9731 23.309C21.1251 23.3045 20.3132 22.9658 19.7135 22.3663C19.1138 21.7668 18.7748 20.9549 18.7701 20.107C18.7701 18.354 20.2191 16.912 21.9731 16.912C22.8193 16.9157 23.6298 17.2535 24.2282 17.8519C24.8266 18.4502 25.1644 19.2608 25.1681 20.107C25.1681 21.861 23.7271 23.309 21.9731 23.309Z" fill="url(#paint2_linear_101_2475)"/>
</g>
<defs>
<linearGradient id="paint0_linear_101_2475" x1="12.1902" y1="11.846" x2="13.8102" y2="10.44" gradientUnits="userSpaceOnUse">
<stop offset="0.006" stop-color="#0056E0"/>
<stop offset="1" stop-color="#00E5B8"/>
</linearGradient>
<linearGradient id="paint1_linear_101_2475" x1="21.1618" y1="20.814" x2="22.7818" y2="19.408" gradientUnits="userSpaceOnUse">
<stop offset="0.006" stop-color="#0056E0"/>
<stop offset="1" stop-color="#00E5B8"/>
</linearGradient>
<linearGradient id="paint2_linear_101_2475" x1="4.44309" y1="26.465" x2="28.5531" y2="5.55" gradientUnits="userSpaceOnUse">
<stop offset="0.006" stop-color="#0056E0"/>
<stop offset="1" stop-color="#00E5B8"/>
</linearGradient>
<clipPath id="clip0_101_2475">
<rect width="32" height="32" fill="white" transform="translate(0.5)"/>
</clipPath>
</defs>
</svg>
