<svg width="25" height="26" viewBox="0 0 25 26" fill="none" xmlns="http://www.w3.org/2000/svg">
<path d="M1.43518 0.53842C1.10727 0.930493 0.941696 1.43312 0.972384 1.94332V24.0594C0.941607 24.5696 1.10719 25.0723 1.43518 25.4643L1.50918 25.5364L13.8982 13.1475V12.8552L1.50918 0.46582L1.43518 0.53842Z" fill="url(#paint0_linear_402_1448)"/>
<path d="M18.0278 17.2787L13.8984 13.1473V12.855L18.0288 8.72461L18.1219 8.77771L23.0147 11.5578C24.4123 12.3518 24.4123 13.651 23.0147 14.4455L18.1219 17.2256L18.0278 17.2787Z" fill="url(#paint1_linear_402_1448)"/>
<path d="M18.122 17.2259L13.8985 13.002L1.43555 25.4649C1.72032 25.716 2.08397 25.8596 2.46351 25.8709C2.84304 25.8821 3.21455 25.7602 3.51365 25.5263L18.122 17.2259Z" fill="url(#paint2_linear_402_1448)"/>
<path d="M18.122 8.77754L3.51365 0.477145C3.21455 0.243239 2.84304 0.121332 2.46351 0.132546C2.08397 0.14376 1.72032 0.287388 1.43555 0.538545L13.8985 13.0015L18.122 8.77754Z" fill="url(#paint3_linear_402_1448)"/>
<path opacity="0.2" d="M18.0289 17.1328L3.51365 25.3801C3.22606 25.599 2.87507 25.7185 2.51364 25.7204C2.1522 25.7224 1.79995 25.6067 1.51005 25.3908L1.43555 25.4653L1.50955 25.5374L1.51005 25.5369C1.7999 25.7529 2.15218 25.8686 2.51364 25.8667C2.8751 25.8648 3.22611 25.7453 3.51365 25.5262L18.122 17.2258L18.0289 17.1328Z" fill="black"/>
<path opacity="0.12" d="M1.43516 25.319C1.10728 24.9269 0.941709 24.4243 0.972361 23.9141V24.0602C0.941691 24.5704 1.10726 25.073 1.43516 25.4651L1.50966 25.3906L1.43516 25.319Z" fill="black"/>
<path opacity="0.12" d="M23.0142 14.2993L18.0283 17.1325L18.1214 17.2255L23.0142 14.4454C23.302 14.3204 23.5511 14.1207 23.7355 13.8668C23.9198 13.6129 24.0328 13.3143 24.0625 13.002C24.0007 13.2848 23.8737 13.5493 23.6917 13.7745C23.5098 13.9997 23.2778 14.1794 23.0142 14.2993Z" fill="black"/>
<path opacity="0.25" d="M3.51356 0.623343L23.0148 11.7033C23.2784 11.8232 23.5105 12.0029 23.6925 12.2282C23.8744 12.4535 24.0013 12.7182 24.0631 13.0011C24.0335 12.6887 23.9207 12.3899 23.7363 12.1359C23.5519 11.8819 23.3027 11.6821 23.0148 11.5572L3.51356 0.477243C2.11596 -0.316857 0.972656 0.342743 0.972656 1.94354V2.08964C0.972656 0.488943 2.11596 -0.170657 3.51356 0.623343Z" fill="white"/>
<defs>
<linearGradient id="paint0_linear_402_1448" x1="12.7995" y1="1.71013" x2="-3.98289" y2="18.4925" gradientUnits="userSpaceOnUse">
<stop stop-color="#00A0FF"/>
<stop offset="0.00657" stop-color="#00A1FF"/>
<stop offset="0.2601" stop-color="#00BEFF"/>
<stop offset="0.5122" stop-color="#00D2FF"/>
<stop offset="0.7604" stop-color="#00DFFF"/>
<stop offset="1" stop-color="#00E3FF"/>
</linearGradient>
<linearGradient id="paint1_linear_402_1448" x1="24.8344" y1="13.0017" x2="0.637519" y2="13.0017" gradientUnits="userSpaceOnUse">
<stop stop-color="#FFE000"/>
<stop offset="0.4087" stop-color="#FFBD00"/>
<stop offset="0.7754" stop-color="#FFA500"/>
<stop offset="1" stop-color="#FF9C00"/>
</linearGradient>
<linearGradient id="paint2_linear_402_1448" x1="15.8271" y1="15.2971" x2="-6.93118" y2="38.0553" gradientUnits="userSpaceOnUse">
<stop stop-color="#FF3A44"/>
<stop offset="1" stop-color="#C31162"/>
</linearGradient>
<linearGradient id="paint3_linear_402_1448" x1="-1.70252" y1="-6.82327" x2="8.46" y2="3.33925" gradientUnits="userSpaceOnUse">
<stop stop-color="#32A071"/>
<stop offset="0.0685" stop-color="#2DA771"/>
<stop offset="0.4762" stop-color="#15CF74"/>
<stop offset="0.8009" stop-color="#06E775"/>
<stop offset="1" stop-color="#00F076"/>
</linearGradient>
</defs>
</svg>
