<svg width="30" height="31" viewBox="0 0 30 31" fill="none" xmlns="http://www.w3.org/2000/svg">
<path d="M5.66683 0.833008H1.66683C1.31321 0.833008 0.974068 0.973483 0.724019 1.22353C0.473971 1.47358 0.333496 1.81272 0.333496 2.16634V28.833C0.333496 29.1866 0.473971 29.5258 0.724019 29.7758C0.974068 30.0259 1.31321 30.1663 1.66683 30.1663H5.66683V0.833008Z" fill="#C4B5FD"/>
<path d="M8.3335 30.1663H21.6668V0.833008H8.3335V30.1663ZM15.0002 24.833C14.6465 24.833 14.3074 24.6925 14.0574 24.4425C13.8073 24.1924 13.6668 23.8533 13.6668 23.4997C13.6668 23.1461 13.8073 22.8069 14.0574 22.5569C14.3074 22.3068 14.6465 22.1663 15.0002 22.1663C15.3538 22.1663 15.6929 22.3068 15.943 22.5569C16.193 22.8069 16.3335 23.1461 16.3335 23.4997C16.3335 23.8533 16.193 24.1924 15.943 24.4425C15.6929 24.6925 15.3538 24.833 15.0002 24.833ZM15.0002 6.16634C15.3538 6.16634 15.6929 6.30682 15.943 6.55686C16.193 6.80691 16.3335 7.14605 16.3335 7.49967C16.3335 7.8533 16.193 8.19244 15.943 8.44248C15.6929 8.69253 15.3538 8.83301 15.0002 8.83301C14.6465 8.83301 14.3074 8.69253 14.0574 8.44248C13.8073 8.19244 13.6668 7.8533 13.6668 7.49967C13.6668 7.14605 13.8073 6.80691 14.0574 6.55686C14.3074 6.30682 14.6465 6.16634 15.0002 6.16634ZM15.0002 14.1663C15.3538 14.1663 15.6929 14.3068 15.943 14.5569C16.193 14.8069 16.3335 15.1461 16.3335 15.4997C16.3335 15.8533 16.193 16.1924 15.943 16.4425C15.6929 16.6925 15.3538 16.833 15.0002 16.833C14.6465 16.833 14.3074 16.6925 14.0574 16.4425C13.8073 16.1924 13.6668 15.8533 13.6668 15.4997C13.6668 15.1461 13.8073 14.8069 14.0574 14.5569C14.3074 14.3068 14.6465 14.1663 15.0002 14.1663Z" fill="#7C3AED"/>
<path d="M28.334 0.833008H24.334V30.1663H28.334C28.6876 30.1663 29.0267 30.0259 29.2768 29.7758C29.5268 29.5258 29.6673 29.1866 29.6673 28.833V2.16634C29.6673 1.81272 29.5268 1.47358 29.2768 1.22353C29.0267 0.973483 28.6876 0.833008 28.334 0.833008Z" fill="#1DB5BE"/>
</svg>
