<svg width="30" height="31" viewBox="0 0 30 31" fill="none" xmlns="http://www.w3.org/2000/svg">
<path d="M10.9997 12.833H1.66634C1.31272 12.833 0.97358 12.6925 0.723531 12.4425C0.473483 12.1924 0.333008 11.8533 0.333008 11.4997V2.16634C0.333008 1.81272 0.473483 1.47358 0.723531 1.22353C0.97358 0.973483 1.31272 0.833008 1.66634 0.833008H10.9997C11.3533 0.833008 11.6924 0.973483 11.9425 1.22353C12.1925 1.47358 12.333 1.81272 12.333 2.16634V11.4997C12.333 11.8533 12.1925 12.1924 11.9425 12.4425C11.6924 12.6925 11.3533 12.833 10.9997 12.833Z" fill="#7C3AED"/>
<path d="M10.9997 30.166H1.66634C1.31272 30.166 0.97358 30.0255 0.723531 29.7755C0.473483 29.5254 0.333008 29.1863 0.333008 28.8327V19.4993C0.333008 19.1457 0.473483 18.8066 0.723531 18.5565C0.97358 18.3065 1.31272 18.166 1.66634 18.166H10.9997C11.3533 18.166 11.6924 18.3065 11.9425 18.5565C12.1925 18.8066 12.333 19.1457 12.333 19.4993V28.8327C12.333 29.1863 12.1925 29.5254 11.9425 29.7755C11.6924 30.0255 11.3533 30.166 10.9997 30.166Z" fill="#7C3AED"/>
<path d="M16.333 2.16602H29.6663V4.83268H16.333V2.16602Z" fill="#1DB5BE"/>
<path d="M29.6663 19.5H16.333V22.1667H29.6663V19.5Z" fill="#1DB5BE"/>
<path d="M29.6663 26.166H16.333V28.8327H29.6663V26.166Z" fill="#C4B5FD"/>
<path d="M29.6663 8.83301H16.333V11.4997H29.6663V8.83301Z" fill="#C4B5FD"/>
</svg>
