<svg width="18" height="23" viewBox="0 0 18 23" fill="none" xmlns="http://www.w3.org/2000/svg">
<path d="M14.7973 12.3013C14.8081 11.4666 15.0298 10.6483 15.4418 9.92231C15.8538 9.19636 16.4428 8.58642 17.1539 8.14925C16.7021 7.50409 16.1062 6.97314 15.4134 6.59859C14.7205 6.22404 13.9499 6.0162 13.1627 5.99157C11.4835 5.81531 9.85552 6.9964 8.99981 6.9964C8.12754 6.9964 6.81004 6.00907 5.39131 6.03826C4.47364 6.0679 3.57929 6.33476 2.79541 6.81282C2.01154 7.29087 1.36486 7.96383 0.918393 8.76613C-1.01561 12.1145 0.426982 17.0356 2.27959 19.7422C3.20649 21.0676 4.28977 22.548 5.70722 22.4955C7.09428 22.438 7.61232 21.611 9.28662 21.611C10.9454 21.611 11.4314 22.4955 12.8776 22.4621C14.366 22.438 15.3038 21.1309 16.1981 19.793C16.8641 18.8486 17.3766 17.8049 17.7166 16.7005C16.8518 16.3347 16.1139 15.7226 15.5948 14.9403C15.0757 14.158 14.7983 13.2402 14.7973 12.3013Z" fill="white"/>
<path d="M12.0659 4.21132C12.8774 3.23711 13.2772 1.98494 13.1804 0.720703C11.9406 0.850924 10.7953 1.44348 9.97283 2.38031C9.57069 2.83798 9.26269 3.37041 9.06645 3.94718C8.8702 4.52395 8.78956 5.13375 8.82912 5.7417C9.44926 5.74809 10.0628 5.61368 10.6234 5.34859C11.1841 5.0835 11.6773 4.69465 12.0659 4.21132Z" fill="white"/>
</svg>
