<svg width="40" height="40" viewBox="0 0 40 40" fill="none" xmlns="http://www.w3.org/2000/svg">
<path d="M20 3.33301C29.2047 3.33301 36.667 10.7953 36.667 20C36.667 29.2047 29.2047 36.667 20 36.667C10.7953 36.667 3.33301 29.2047 3.33301 20C3.33301 10.7953 10.7953 3.33301 20 3.33301ZM19.8037 5.89062C19.6075 5.8476 19.42 6.25247 19.0459 7.06055L12.9814 20.1602C12.39 21.4376 12.0942 22.0766 12.3887 22.5381C12.6836 22.9996 13.3884 23 14.7969 23H19.5C19.7357 23 19.8535 23 19.9268 23.0732C20 23.1465 20 23.2643 20 23.5V32.7295C20 33.6202 20.0001 34.0662 20.1963 34.1094C20.3925 34.1524 20.58 33.7475 20.9541 32.9395L27.0186 19.8398C27.61 18.5624 27.9058 17.9234 27.6113 17.4619C27.3164 17.0004 26.6116 17 25.2031 17H20.5C20.2643 17 20.1465 17 20.0732 16.9268C20 16.8535 20 16.7357 20 16.5V7.27051C20 6.37985 19.9999 5.93384 19.8037 5.89062Z" fill="white"/>
</svg>
