<svg width="48" height="48" viewBox="0 0 48 48" fill="none" xmlns="http://www.w3.org/2000/svg">
<path d="M38 28H10C8.89543 28 8 28.8954 8 30V34C8 35.1046 8.89543 36 10 36H38C39.1046 36 40 35.1046 40 34V30C40 28.8954 39.1046 28 38 28Z" fill="#8A63D2"/>
<path d="M38 18H10C8.89543 18 8 18.8954 8 20V24C8 25.1046 8.89543 26 10 26H38C39.1046 26 40 25.1046 40 24V20C40 18.8954 39.1046 18 38 18Z" fill="#48D1CC"/>
<path d="M38 8H10C8.89543 8 8 8.89543 8 10V14C8 15.1046 8.89543 16 10 16H38C39.1046 16 40 15.1046 40 14V10C40 8.89543 39.1046 8 38 8Z" fill="#8A63D2" fill-opacity="0.7"/>
</svg>
