<svg width="40" height="40" viewBox="0 0 40 40" fill="none" xmlns="http://www.w3.org/2000/svg">
<path d="M20 6.66699C27.3638 6.66701 33.333 12.6362 33.333 20C33.333 27.3638 27.3638 33.333 20 33.333C14.358 33.333 9.53509 29.8287 7.58789 24.8779L19.4219 21.708C19.6085 21.658 19.8953 21.5851 20.1367 21.4844C20.4183 21.3668 20.8374 21.1351 21.1191 20.6475C21.4008 20.1597 21.3915 19.6806 21.3525 19.3779C21.3191 19.1184 21.2395 18.8332 21.1895 18.6465L18.0186 6.8125C18.665 6.71619 19.3267 6.66699 20 6.66699ZM18.1621 18.9395L6.8125 21.9795C6.71637 21.3336 6.66699 20.6726 6.66699 20C6.66699 14.3586 10.1702 9.53551 15.1201 7.58789L18.1621 18.9395Z" fill="white"/>
<path d="M16.2042 5.83325C15.9552 4.90421 15.8307 4.43969 15.4284 4.23855C15.0261 4.03741 14.6142 4.20279 13.7903 4.53357C12.3851 5.09777 11.0604 5.85201 9.85414 6.77761C8.11773 8.11 6.66076 9.77136 5.56641 11.6668C4.47206 13.5623 3.76176 15.6548 3.47608 17.8247C3.27762 19.3322 3.28677 20.8565 3.50077 22.3556C3.62623 23.2344 3.68897 23.6739 4.06433 23.9217C4.43969 24.1696 4.90421 24.0451 5.83325 23.7962L18.0683 20.5178C18.979 20.2738 19.4343 20.1518 19.6414 19.7931C19.8486 19.4343 19.7265 18.979 19.4825 18.0683L16.2042 5.83325Z" fill="white"/>
</svg>
