<svg width="30" height="30" viewBox="0 0 30 30" fill="none" xmlns="http://www.w3.org/2000/svg">
<path d="M15 2.5C21.9036 2.5 27.5 8.09644 27.5 15C27.5 21.9036 21.9036 27.5 15 27.5C8.09644 27.5 2.5 21.9036 2.5 15C2.5 8.09644 8.09644 2.5 15 2.5ZM15 5C13.4902 5.0001 12.1375 6.33908 11.2207 8.45508C8.93009 8.19115 7.0948 8.69265 6.33984 10C5.58504 11.3075 6.06757 13.1482 7.44141 15C6.0676 16.8518 5.58505 18.6926 6.33984 20C7.0948 21.3074 8.93006 21.8079 11.2207 21.5439C12.1375 23.6604 13.49 24.9999 15 25C16.5099 24.9999 17.8616 23.6602 18.7783 21.5439C21.0692 21.808 22.9052 21.3075 23.6602 20C24.415 18.6924 23.9308 16.852 22.5566 15C23.9308 13.148 24.415 11.3076 23.6602 10C22.9052 8.69248 21.0692 8.19103 18.7783 8.45508C17.8616 6.33925 16.5097 5.00012 15 5ZM14.999 20.5459C15.9461 20.9248 16.8745 21.2054 17.7549 21.3828C17.7169 21.4645 17.6799 21.5455 17.6406 21.624C16.7891 23.3269 15.7978 23.9999 15 24C14.2022 23.9999 13.2109 23.3269 12.3594 21.624C12.32 21.5453 12.2812 21.4647 12.2432 21.3828C13.1235 21.2055 14.0519 20.9248 14.999 20.5459ZM8.09375 15.8047C8.68733 16.4782 9.39403 17.1419 10.1953 17.7725C10.3407 18.7819 10.5622 19.7261 10.8486 20.5771C10.7592 20.5851 10.6704 20.5934 10.583 20.5986C8.68261 20.7125 7.60396 20.1909 7.20508 19.5C6.80634 18.8091 6.89365 17.6141 7.94238 16.0254C7.99082 15.952 8.04192 15.8785 8.09375 15.8047ZM22.0566 16.0254C23.1056 17.6143 23.1928 18.8091 22.7939 19.5C22.395 20.1909 21.3166 20.7126 19.416 20.5986C19.3282 20.5934 19.2393 20.5851 19.1494 20.5771C19.4359 19.726 19.6583 18.7821 19.8037 17.7725C20.605 17.1419 21.3117 16.4782 21.9053 15.8047C21.9571 15.8785 22.0082 15.952 22.0566 16.0254ZM11.3574 18.6162C11.7239 18.862 12.1047 19.1018 12.5 19.3301C12.8948 19.558 13.2919 19.7677 13.6875 19.9619C13.0561 20.1708 12.4433 20.3284 11.8604 20.4365C11.6625 19.8774 11.4922 19.2677 11.3574 18.6162ZM18.6406 18.6172C18.5059 19.2683 18.3365 19.8777 18.1387 20.4365C17.5559 20.3284 16.9428 20.1717 16.3115 19.9629C16.7074 19.7685 17.1049 19.5582 17.5 19.3301C17.8948 19.1021 18.2746 18.8626 18.6406 18.6172ZM15 10.5352C15.6593 10.8167 16.3305 11.1496 17 11.5361C17.6694 11.9226 18.2928 12.3374 18.8662 12.7676C18.9521 13.4794 19 14.2268 19 15C19 15.7729 18.952 16.5199 18.8662 17.2314C18.2927 17.6617 17.6696 18.0773 17 18.4639C16.3307 18.8503 15.6592 19.1824 15 19.4639C14.3407 19.1823 13.6695 18.8504 13 18.4639C12.3302 18.0772 11.7065 17.6619 11.1328 17.2314C11.047 16.5199 11 15.7728 11 15C11 14.2268 11.0469 13.4794 11.1328 12.7676C11.7064 12.3373 12.3304 11.9227 13 11.5361C13.6696 11.1495 14.3406 10.8167 15 10.5352ZM10.0459 13.6533C10.0163 14.0938 10 14.5433 10 15C10 15.4564 10.0163 15.9055 10.0459 16.3457C9.54911 15.9032 9.10591 15.451 8.7207 15C9.10603 14.5489 9.54892 14.096 10.0459 13.6533ZM19.9531 13.6543C20.4499 14.0968 20.8931 14.549 21.2783 15C20.8932 15.4508 20.4497 15.9024 19.9531 16.3447C19.9827 15.9049 20 15.4561 20 15C20 14.5436 19.9827 14.0945 19.9531 13.6543ZM15 13.75C14.3097 13.7501 13.75 14.3097 13.75 15C13.75 15.6903 14.3097 16.2499 15 16.25C15.6903 16.2499 16.25 15.6903 16.25 15C16.25 14.3097 15.6903 13.7501 15 13.75ZM7.20508 10.5C7.60396 9.80912 8.68258 9.28748 10.583 9.40137C10.6704 9.40661 10.7592 9.41393 10.8486 9.42188C10.5622 10.2729 10.3407 11.2171 10.1953 12.2266C9.39405 12.8571 8.68734 13.5209 8.09375 14.1943C8.04208 14.1208 7.99068 14.0478 7.94238 13.9746C6.89363 12.3859 6.80634 11.1909 7.20508 10.5ZM19.416 9.40137C21.3166 9.28738 22.395 9.8091 22.7939 10.5C23.1928 11.1909 23.1056 12.3856 22.0566 13.9746C22.0083 14.0478 21.957 14.1207 21.9053 14.1943C21.3117 13.5209 20.605 12.8571 19.8037 12.2266C19.6583 11.2169 19.436 10.273 19.1494 9.42188C19.2392 9.41388 19.3283 9.40664 19.416 9.40137ZM11.8604 9.5625C12.4432 9.67058 13.0562 9.82826 13.6875 10.0371C13.2918 10.2314 12.8949 10.4419 12.5 10.6699C12.1048 10.8981 11.7238 11.1371 11.3574 11.3828C11.4922 10.7314 11.6624 10.1216 11.8604 9.5625ZM18.1387 9.5625C18.3365 10.1213 18.5058 10.7308 18.6406 11.3818C18.2748 11.1365 17.8946 10.8978 17.5 10.6699C17.1048 10.4418 16.7075 10.2306 16.3115 10.0361C16.9427 9.82732 17.5559 9.67059 18.1387 9.5625ZM15 6C15.7978 6.00011 16.7891 6.67308 17.6406 8.37598C17.6798 8.45427 17.7171 8.5348 17.7549 8.61621C16.8746 8.79364 15.946 9.07425 14.999 9.45312C14.052 9.07431 13.1235 8.79355 12.2432 8.61621C12.2811 8.53457 12.3201 8.45448 12.3594 8.37598C13.2109 6.67306 14.2022 6.0001 15 6Z" fill="#222222"/>
</svg>
