<svg width="26" height="26" viewBox="0 0 26 26" fill="none" xmlns="http://www.w3.org/2000/svg">
<path d="M15.5498 10.75L13.0508 22.168C13.034 22.1691 13.0171 22.1709 13 22.1709C12.9826 22.1709 12.9654 22.1692 12.9482 22.168L10.4512 10.75H15.5498ZM3.36133 10.6514C3.49187 10.7139 3.63762 10.75 3.79199 10.75H8.40332L10.3086 19.4609L3.91309 11.6436C3.58859 11.2469 3.42577 11.0482 3.37598 10.8076C3.36545 10.7567 3.36156 10.7051 3.36133 10.6514ZM22.6387 10.6514C22.6384 10.7051 22.6346 10.7567 22.624 10.8076C22.5742 11.0482 22.4124 11.247 22.0879 11.6436L15.6914 19.46L17.5967 10.75H22.209C22.3631 10.7499 22.5083 10.7137 22.6387 10.6514ZM17.5664 3.25C19.0185 3.25 19.7446 3.25003 20.2793 3.65332C20.8139 4.05663 21.0132 4.75508 21.4121 6.15137L22.1553 8.75H17.6211L16.5898 3.25H17.5664ZM9.41016 3.25L8.37891 8.75H3.84473L4.58789 6.15137C4.9868 4.75518 5.18617 4.05664 5.7207 3.65332C6.25533 3.25005 6.98163 3.25 8.43359 3.25H9.41016ZM14.5566 3.25L15.5879 8.75H10.4131L11.4443 3.25H14.5566Z" fill="#222222"/>
</svg>
