<svg width="34" height="40" viewBox="0 0 34 40" fill="none" xmlns="http://www.w3.org/2000/svg">
<path d="M33.75 10.3295V29.6707L17 39.3412L0.25 29.6707V10.3295L17 0.658936L33.75 10.3295ZM2.2169 11.4647V28.5348L17 37.0702L31.7831 28.5348V11.4647L17 2.92932L2.2169 11.4647Z" fill="url(#paint0_linear_173_7307)"/>
<path d="M17.719 29.5061L20.0006 11.1484H22.9378L20.6824 29.5061H17.719ZM8.01562 25.3101V22.4515H24.9572V25.3101H8.01562ZM10.9266 29.5061L13.2082 11.1484H16.1455L13.8639 29.5061H10.9266ZM8.90729 18.203V15.3445H25.8226L25.8488 18.203H8.90729Z" fill="url(#paint1_linear_173_7307)"/>
<defs>
<linearGradient id="paint0_linear_173_7307" x1="-4.89195e-08" y1="37" x2="37" y2="10.5" gradientUnits="userSpaceOnUse">
<stop stop-color="#156DAE"/>
<stop offset="0.576923" stop-color="#77B5FD"/>
<stop offset="1" stop-color="#CAE3FF"/>
</linearGradient>
<linearGradient id="paint1_linear_173_7307" x1="27.8157" y1="11.1484" x2="7.49112" y2="28.1949" gradientUnits="userSpaceOnUse">
<stop offset="0.0262936" stop-color="#E3F3FF"/>
<stop offset="0.380813" stop-color="#90C4EA"/>
<stop offset="0.801772" stop-color="#037EBC"/>
</linearGradient>
</defs>
</svg>
