<svg width="21" height="27" viewBox="0 0 21 27" fill="none" xmlns="http://www.w3.org/2000/svg">
<path d="M11.8067 25.65V4.60894L18.7503 11.7545C18.8716 11.8821 19.0163 11.9837 19.1761 12.0534C19.3358 12.1231 19.5074 12.1595 19.6809 12.1605C19.8544 12.1615 20.0264 12.1271 20.1869 12.0592C20.3474 11.9913 20.4932 11.8913 20.6158 11.765C20.7385 11.6388 20.8356 11.4887 20.9016 11.3236C20.9675 11.1584 21.001 10.9814 21 10.8029C20.999 10.6243 20.9636 10.4477 20.8958 10.2834C20.8281 10.119 20.7293 9.97007 20.6052 9.84524L11.4223 0.395261C11.1763 0.142176 10.8427 0 10.4948 0C10.147 0 9.81334 0.142176 9.56733 0.395261L0.384374 9.84524C0.262321 9.97047 0.165528 10.1193 0.0995627 10.2831C0.0335978 10.447 -0.000237925 10.6227 1.25927e-06 10.8C5.66513e-05 11.067 0.0770251 11.3279 0.221177 11.5499C0.365329 11.7718 0.570191 11.9448 0.809866 12.047C1.04954 12.1491 1.31327 12.1759 1.5677 12.1238C1.82214 12.0717 2.05587 11.9432 2.23933 11.7545L9.18296 4.60894V25.65C9.18296 26.008 9.32117 26.3514 9.56719 26.6046C9.81321 26.8578 10.1469 27 10.4948 27C10.8427 27 11.1764 26.8578 11.4224 26.6046C11.6684 26.3514 11.8067 26.008 11.8067 25.65Z" fill="black"/>
</svg>
