<svg width="86" height="45" viewBox="0 0 86 45" fill="none" xmlns="http://www.w3.org/2000/svg">
<path fill-rule="evenodd" clip-rule="evenodd" d="M0 0H85.5V3.46875H0V0ZM0 6.92813H85.5V10.3969H0V6.92813ZM0 13.8469H85.5V17.3156H0V13.8469ZM0 20.7656H85.5V24.2344H0V20.7656ZM0 27.7031H85.5V31.1531H0V27.7031ZM0 34.6125H85.5V38.0813H0V34.6125ZM0 41.5312H85.5V45H0V41.5312Z" fill="#BD3D44"/>
<path fill-rule="evenodd" clip-rule="evenodd" d="M0 3.46875H85.5V6.92813H0V3.46875ZM0 10.3875H85.5V13.8469H0V10.3875ZM0 17.3063H85.5V20.775H0V17.3063ZM0 24.2344H85.5V27.7031H0V24.2344ZM0 31.1531H85.5V34.6219H0V31.1531ZM0 38.0719H85.5V41.5406H0V38.0719Z" fill="white"/>
<path fill-rule="evenodd" clip-rule="evenodd" d="M0 0H34.2V24.2344H0V0Z" fill="#192F5D"/>
<path fill-rule="evenodd" clip-rule="evenodd" d="M2.84922 1.03125L3.16797 1.99688H4.16172L3.35547 2.5875L3.66484 3.55313L2.84922 2.95313L2.04297 3.54375L2.34297 2.5875L1.52734 1.99688H2.54922L2.84922 1.03125ZM8.54922 1.03125L8.85859 1.99688H9.87109L9.05547 2.5875L9.35547 3.55313L8.54922 2.95313L7.73359 3.54375L8.04297 2.5875L7.23672 1.99688H8.23047L8.54922 1.03125ZM14.2492 1.03125L14.5586 1.99688H15.5617L14.7555 2.5875L15.0648 3.55313L14.2492 2.95313L13.4336 3.54375L13.743 2.5875L12.9273 1.99688H13.9398L14.2492 1.03125ZM19.9492 1.03125L20.2586 1.99688H21.2711L20.4555 2.5875L20.7648 3.55313L19.9492 2.95313L19.1336 3.54375L19.4523 2.5875L18.6273 1.99688H19.6305L19.9492 1.03125ZM25.6492 1.03125L25.9586 1.99688H26.9617L26.1555 2.5875L26.4648 3.55313L25.6492 2.95313L24.8336 3.54375L25.143 2.5875L24.3367 1.99688H25.3398L25.6492 1.03125ZM31.3492 1.03125L31.6586 1.99688H32.6711L31.8461 2.5875L32.1648 3.55313L31.3492 2.95313L30.5336 3.54375L30.8523 2.5875L30.0273 1.99688H31.0398L31.3492 1.03125ZM5.69922 3.46875L6.00859 4.425H7.03047L6.21484 5.00625L6.51484 5.97188L5.71797 5.38125L4.90234 5.97188L5.19297 5.00625L4.40547 4.425H5.40859L5.69922 3.46875ZM11.3992 3.46875L11.718 4.425H12.7211L11.8961 5.00625L12.2148 5.97188L11.3992 5.38125L10.5836 5.97188L10.893 5.00625L10.0773 4.425H11.0898L11.3992 3.46875ZM17.0992 3.46875L17.4086 4.425H18.4211L17.6055 5.00625L17.9148 5.97188L17.0992 5.38125L16.2836 5.97188L16.593 5.00625L15.7867 4.425H16.7805L17.0992 3.46875ZM22.7992 3.46875L23.118 4.425H24.1211L23.2961 5.00625L23.6148 5.97188L22.7992 5.38125L21.993 5.97188L22.293 5.00625L21.4773 4.425H22.4992L22.7992 3.46875ZM28.4992 3.46875L28.8086 4.425H29.8211L29.0055 5.00625L29.3148 5.97188L28.4992 5.38125L27.6836 5.97188L27.993 5.00625L27.1867 4.425H28.1898L28.4992 3.46875ZM2.84922 5.86875L3.16797 6.84375H4.16172L3.35547 7.43438L3.66484 8.39063L2.84922 7.8L2.04297 8.39063L2.34297 7.43438L1.52734 6.84375H2.54922L2.84922 5.86875ZM8.54922 5.86875L8.85859 6.84375H9.87109L9.05547 7.43438L9.35547 8.39063L8.54922 7.8L7.73359 8.39063L8.04297 7.425L7.23672 6.83438H8.23047L8.54922 5.86875ZM14.2492 5.86875L14.5586 6.83438H15.5617L14.7555 7.425L15.0648 8.38125L14.2492 7.79063L13.4336 8.38125L13.743 7.41563L12.9273 6.825H13.9398L14.2492 5.86875ZM19.9492 5.86875L20.2586 6.83438H21.2711L20.4555 7.425L20.7648 8.38125L19.9492 7.79063L19.1336 8.38125L19.4523 7.41563L18.6273 6.825H19.6305L19.9492 5.86875ZM25.6492 5.86875L25.9586 6.83438H26.9617L26.1555 7.425L26.4648 8.38125L25.6492 7.79063L24.8336 8.38125L25.143 7.41563L24.3367 6.825H25.3398L25.6492 5.86875ZM31.3492 5.86875L31.6586 6.83438H32.6711L31.8461 7.425L32.1648 8.38125L31.3492 7.79063L30.5336 8.38125L30.8523 7.41563L30.0273 6.825H31.0398L31.3492 5.86875ZM5.69922 8.30625L6.00859 9.2625H7.03047L6.21484 9.85313L6.52422 10.8188L5.70859 10.2188L4.89297 10.8094L5.20234 9.85313L4.39609 9.2625H5.39922L5.69922 8.30625ZM11.3992 8.30625L11.718 9.2625H12.7211L11.8961 9.85313L12.2148 10.8188L11.3992 10.2188L10.5836 10.8094L10.893 9.85313L10.0773 9.2625H11.0898L11.3992 8.30625ZM17.0992 8.30625L17.4086 9.2625H18.4211L17.6055 9.85313L17.9148 10.8188L17.0992 10.2188L16.2836 10.8094L16.593 9.85313L15.7867 9.2625H16.7805L17.0992 8.30625ZM22.7992 8.30625L23.118 9.2625H24.1211L23.3055 9.85313L23.6148 10.8188L22.7992 10.2188L21.993 10.8094L22.293 9.85313L21.4773 9.2625H22.4992L22.7992 8.30625ZM28.4992 8.30625L28.8086 9.2625H29.8211L29.0055 9.85313L29.3148 10.8188L28.4992 10.2188L27.6836 10.8094L27.993 9.85313L27.1867 9.2625H28.1898L28.4992 8.30625ZM2.84922 10.7344L3.16797 11.6906H4.16172L3.35547 12.2813L3.66484 13.2469L2.84922 12.6469L2.04297 13.2375L2.34297 12.2813L1.52734 11.6906H2.54922L2.84922 10.7344ZM8.54922 10.7344L8.85859 11.6906H9.87109L9.05547 12.2813L9.35547 13.2375L8.54922 12.6469L7.73359 13.2375L8.04297 12.2813L7.23672 11.6906H8.23047L8.54922 10.7344ZM14.2492 10.7344L14.5586 11.6906H15.5617L14.7555 12.2813L15.0648 13.2469L14.2492 12.6469L13.4336 13.2375L13.743 12.2813L12.9273 11.6906H13.9398L14.2492 10.7344ZM19.9492 10.7344L20.2586 11.6906H21.2711L20.4555 12.2813L20.7648 13.2469L19.9492 12.6469L19.1336 13.2375L19.4523 12.2813L18.6273 11.6906H19.6305L19.9492 10.7344ZM25.6492 10.7344L25.9586 11.6906H26.9617L26.1555 12.2813L26.4648 13.2469L25.6492 12.6469L24.8336 13.2375L25.143 12.2813L24.3367 11.6906H25.3398L25.6492 10.7344ZM31.3492 10.7344L31.6586 11.6906H32.6711L31.8461 12.2813L32.1648 13.2469L31.3492 12.6469L30.5336 13.2375L30.843 12.2813L30.018 11.6906H31.0305L31.3492 10.7344ZM5.69922 13.1531L6.00859 14.1188H7.03047L6.21484 14.7L6.52422 15.6656L5.70859 15.0656L4.89297 15.6656L5.20234 14.7L4.39609 14.1094H5.39922L5.69922 13.1531ZM11.3992 13.1531L11.718 14.1188H12.7211L11.8961 14.7L12.2148 15.6656L11.3992 15.0656L10.5836 15.6656L10.893 14.7L10.0773 14.1094H11.0898L11.3992 13.1531ZM17.0992 13.1531L17.4086 14.1188H18.4211L17.6055 14.7L17.9148 15.6656L17.0992 15.0656L16.2836 15.6656L16.593 14.7L15.7867 14.1094H16.7805L17.0992 13.1531ZM22.7992 13.1531L23.118 14.1188H24.1211L23.3055 14.7L23.6148 15.6656L22.7992 15.0656L21.993 15.6656L22.293 14.7L21.4773 14.1094H22.4992L22.7992 13.1531ZM28.4992 13.1531L28.8086 14.1188H29.8211L29.0055 14.7L29.3148 15.6656L28.4992 15.0656L27.6836 15.6656L27.993 14.7L27.1867 14.1094H28.1898L28.4992 13.1531ZM2.84922 15.5719L3.16797 16.5375H4.16172L3.35547 17.1281L3.66484 18.075L2.84922 17.4938L2.04297 18.075L2.34297 17.1188L1.52734 16.5281H2.54922L2.84922 15.5719ZM8.54922 15.5719L8.85859 16.5375H9.87109L9.05547 17.1281L9.36484 18.075L8.54922 17.4938L7.73359 18.075L8.05234 17.1188L7.23672 16.5281H8.23047L8.54922 15.5719ZM14.2492 15.5719L14.5586 16.5375H15.5617L14.7555 17.1281L15.0648 18.075L14.2492 17.4938L13.4336 18.075L13.743 17.1188L12.9273 16.5281H13.9398L14.2492 15.5719ZM19.9492 15.5719L20.2586 16.5375H21.2711L20.4555 17.1281L20.7648 18.075L19.9492 17.4938L19.1336 18.075L19.4523 17.1188L18.6273 16.5281H19.6305L19.9492 15.5719ZM25.6492 15.5719L25.9586 16.5375H26.9617L26.1555 17.1281L26.4648 18.075L25.6492 17.4938L24.8336 18.075L25.143 17.1188L24.3367 16.5281H25.3398L25.6492 15.5719ZM31.3492 15.5719L31.6586 16.5375H32.6711L31.8461 17.1281L32.1648 18.075L31.3492 17.4938L30.5336 18.075L30.8523 17.1188L30.0273 16.5281H31.0398L31.3492 15.5719ZM5.69922 18L6.00859 18.9563H7.03047L6.21484 19.5469L6.52422 20.5125L5.70859 19.9125L4.89297 20.5031L5.20234 19.5469L4.39609 18.9563H5.39922L5.69922 18ZM11.3992 18L11.718 18.9563H12.7211L11.8961 19.5469L12.2148 20.5125L11.3992 19.9125L10.5836 20.5031L10.893 19.5469L10.0773 18.9563H11.0898L11.3992 18ZM17.0992 18L17.4086 18.9563H18.4211L17.6055 19.5469L17.9148 20.5125L17.0992 19.9125L16.2836 20.5031L16.593 19.5469L15.7867 18.9563H16.7805L17.0992 18ZM22.7992 18L23.118 18.9563H24.1211L23.3055 19.5469L23.6148 20.5125L22.7992 19.9125L21.993 20.5031L22.293 19.5469L21.4773 18.9563H22.4992L22.7992 18ZM28.4992 18L28.8086 18.9563H29.8211L29.0055 19.5469L29.3148 20.5125L28.4992 19.9125L27.6836 20.5031L27.993 19.5469L27.1867 18.9563H28.1898L28.4992 18ZM2.84922 20.4281L3.16797 21.3844H4.16172L3.35547 21.975L3.66484 22.9313L2.84922 22.3406L2.04297 22.9313L2.34297 21.9656L1.52734 21.375H2.54922L2.84922 20.4281ZM8.54922 20.4281L8.85859 21.3844H9.87109L9.05547 21.975L9.36484 22.9313L8.54922 22.3406L7.73359 22.9313L8.05234 21.9656L7.23672 21.375H8.23047L8.54922 20.4281ZM14.2492 20.4281L14.5586 21.3844H15.5617L14.7742 21.975L15.0836 22.9313L14.268 22.3406L13.4523 22.9313L13.7617 21.9656L12.9461 21.375H13.9586L14.2492 20.4281ZM19.9492 20.4281L20.2586 21.3844H21.2711L20.4555 21.975L20.7648 22.9313L19.9492 22.3406L19.1336 22.9313L19.4523 21.9656L18.6273 21.375H19.6305L19.9492 20.4281ZM25.6492 20.4281L25.9586 21.3844H26.9617L26.1555 21.975L26.4648 22.9313L25.6492 22.3406L24.8336 22.9313L25.143 21.9656L24.3367 21.375H25.3398L25.6492 20.4281ZM31.3492 20.4281L31.6586 21.3844H32.6711L31.8461 21.975L32.1648 22.9313L31.3492 22.3406L30.5336 22.9313L30.8523 21.9656L30.0273 21.375H31.0398L31.3492 20.4281Z" fill="white"/>
</svg>