<svg width="190" height="180" viewBox="0 0 190 180" fill="none" xmlns="http://www.w3.org/2000/svg">
<path d="M104.018 121.5C109.887 124.738 116.55 126.439 123.332 126.432C126.692 126.432 130.046 126.013 133.297 125.189C143.093 122.715 151.638 116.476 156.738 108.079C160.14 102.504 161.93 96.1688 161.923 89.7202C161.923 86.5027 161.483 83.3021 160.615 80.2041C157.99 70.861 151.428 62.7427 142.628 57.9404C136.767 54.6985 130.109 52.9917 123.332 52.9932C119.95 52.9932 116.585 53.4108 113.33 54.2377C103.53 56.7282 94.9951 62.9691 89.9246 71.3461C86.5152 76.925 84.7202 83.2652 84.7227 89.7202C84.7227 92.9166 85.1627 96.1074 86.0294 99.2011C88.6341 108.532 95.1944 116.661 104.018 121.5ZM90.6289 89.7216C90.6289 84.2527 92.1498 78.8794 95.0335 74.1685C99.3347 67.0655 106.558 61.7808 114.85 59.6729C117.617 58.9717 120.469 58.6172 123.332 58.6182C129.073 58.6174 134.711 60.0643 139.674 62.8116C147.135 66.8827 152.687 73.7522 154.908 81.6568C155.643 84.2794 156.016 86.9921 156.016 89.7202C156.016 95.1961 154.501 100.564 151.629 105.252C147.304 112.372 140.07 117.657 131.778 119.751C123.431 121.867 114.343 120.713 106.977 116.632C99.4957 112.528 93.9408 105.647 91.7378 97.7527C91.0019 95.1332 90.6291 92.4332 90.6289 89.7216Z" fill="#5277A3"/>
<path d="M119.288 96.0468C117.651 100.723 114.274 104.667 109.794 107.135C109.458 107.32 109.164 107.565 108.928 107.858C108.691 108.151 108.518 108.485 108.418 108.842C108.317 109.198 108.291 109.57 108.342 109.937C108.392 110.303 108.518 110.656 108.712 110.976C108.905 111.295 109.163 111.576 109.471 111.801C109.778 112.026 110.129 112.191 110.504 112.286C110.878 112.382 111.269 112.407 111.653 112.359C112.038 112.311 112.408 112.191 112.744 112.006C118.77 108.685 123.223 103.282 125.18 96.9187C127.494 101.323 128.037 106.382 126.705 111.141C126.502 111.862 126.608 112.63 126.999 113.276C127.391 113.922 128.035 114.394 128.792 114.588C129.549 114.781 130.355 114.68 131.034 114.307C131.712 113.935 132.207 113.32 132.41 112.6C134.234 106.125 133.285 99.3023 129.993 93.5662C134.903 95.1191 139.047 98.3274 141.646 102.587C141.84 102.907 142.099 103.187 142.407 103.412C142.715 103.637 143.066 103.801 143.441 103.896C143.816 103.992 144.207 104.016 144.591 103.967C144.976 103.918 145.346 103.798 145.682 103.612C146.017 103.427 146.312 103.181 146.547 102.888C146.783 102.595 146.956 102.26 147.056 101.903C147.156 101.546 147.181 101.174 147.13 100.808C147.079 100.442 146.952 100.089 146.758 99.7692C143.235 93.9726 137.491 89.7918 130.901 87.9538C135.535 85.7485 140.854 85.2286 145.862 86.4913C146.238 86.5921 146.632 86.6205 147.021 86.575C147.409 86.5296 147.784 86.4111 148.124 86.2265C148.463 86.0419 148.761 85.7948 149 85.4997C149.239 85.2045 149.413 84.8672 149.514 84.5071C149.615 84.1471 149.639 83.7717 149.586 83.4026C149.533 83.0335 149.404 82.678 149.205 82.357C149.007 82.0359 148.743 81.7556 148.43 81.5323C148.117 81.309 147.761 81.1472 147.381 81.0562C140.646 79.3598 133.485 80.1899 127.374 83.3751C129.008 78.7057 132.38 74.7674 136.853 72.3037C137.521 71.9262 138.006 71.3135 138.202 70.5982C138.399 69.8829 138.292 69.1225 137.905 68.4818C137.517 67.841 136.881 67.3713 136.132 67.1744C135.384 66.9775 134.584 67.0692 133.906 67.4296C127.808 70.7737 123.409 76.2384 121.478 82.5173C119.158 78.1091 118.609 73.0455 119.935 68.279C120.124 67.5621 120.01 66.8029 119.616 66.1657C119.222 65.5285 118.581 65.0647 117.831 64.8745C117.081 64.6843 116.282 64.783 115.608 65.1494C114.934 65.5157 114.438 66.1202 114.228 66.832C112.416 73.3092 113.373 80.1365 116.669 85.8726C111.758 84.3208 107.614 81.109 105.02 76.8445C104.826 76.5244 104.568 76.2439 104.261 76.0188C103.953 75.7937 103.602 75.6285 103.228 75.5327C102.853 75.4369 102.462 75.4122 102.078 75.4602C101.693 75.5082 101.322 75.6278 100.986 75.8123C100.65 75.9968 100.356 76.2425 100.119 76.5354C99.8829 76.8283 99.7095 77.1627 99.6088 77.5195C99.5082 77.8762 99.4823 78.2483 99.5327 78.6146C99.5831 78.9809 99.7087 79.3341 99.9024 79.6542C103.414 85.4549 109.153 89.6399 115.747 91.4821C111.113 93.6783 105.798 94.1922 100.794 92.9278C100.043 92.7493 99.2474 92.8594 98.5801 93.2341C97.9128 93.6088 97.4269 94.2183 97.227 94.931C97.0271 95.6438 97.1293 96.4029 97.5115 97.0446C97.8938 97.6863 98.5255 98.1592 99.2704 98.3615C101.572 98.9479 103.916 99.232 106.246 99.232C110.804 99.224 115.288 98.1289 119.288 96.0468Z" fill="#1AC6BD"/>
<path d="M50.4668 42.7908C50.4668 43.1601 50.5432 43.5258 50.6916 43.8671C50.84 44.2083 51.0575 44.5183 51.3317 44.7795C51.606 45.0407 51.9315 45.2478 52.2898 45.3892C52.6481 45.5305 53.0321 45.6033 53.4199 45.6033H163.867C167.416 45.6033 170.305 48.368 170.305 51.7669V124.161C170.305 124.907 170.616 125.622 171.17 126.149C171.723 126.677 172.475 126.973 173.258 126.973C174.041 126.973 174.792 126.677 175.346 126.149C175.9 125.622 176.211 124.907 176.211 124.161V51.7669C176.211 45.2672 170.674 39.9783 163.867 39.9783H53.4199C52.6367 39.9783 51.8856 40.2746 51.3317 40.802C50.7779 41.3295 50.4668 42.0449 50.4668 42.7908ZM38.6543 100.489C37.8711 100.489 37.1199 100.786 36.5661 101.313C36.0123 101.84 35.7012 102.556 35.7012 103.302V137.209C35.7012 137.955 36.0123 138.671 36.5661 139.198C37.1199 139.725 37.8711 140.022 38.6543 140.022H173.258C174.041 140.022 174.792 139.725 175.346 139.198C175.9 138.671 176.211 137.955 176.211 137.209C176.211 136.463 175.9 135.748 175.346 135.22C174.792 134.693 174.041 134.397 173.258 134.397H41.6074V103.302C41.6074 102.556 41.2963 101.84 40.7425 101.313C40.1887 100.786 39.4375 100.489 38.6543 100.489Z" fill="#5277A3"/>
<path d="M23.18 106.114V137.209C23.18 137.955 23.4911 138.671 24.045 139.198C24.5988 139.725 25.3499 140.022 26.1331 140.022C26.9163 140.022 27.6675 139.725 28.2213 139.198C28.7751 138.671 29.0863 137.955 29.0863 137.209V45.6033H35.7013V76.6983C35.7013 77.4442 36.0124 78.1596 36.5662 78.687C37.12 79.2145 37.8712 79.5108 38.6544 79.5108C39.4376 79.5108 40.1887 79.2145 40.7425 78.687C41.2964 78.1596 41.6075 77.4442 41.6075 76.6983V42.7908C41.6075 42.0449 41.2964 41.3295 40.7425 40.802C40.1887 40.2746 39.4376 39.9783 38.6544 39.9783H26.1331C25.3499 39.9783 24.5988 40.2746 24.045 40.802C23.4911 41.3295 23.18 42.0449 23.18 42.7908V73.8858H16.7422C15.959 73.8858 15.2078 74.1821 14.654 74.7095C14.1002 75.237 13.7891 75.9524 13.7891 76.6983V103.303C13.7891 104.049 14.1002 104.764 14.654 105.292C15.2078 105.819 15.959 106.116 16.7422 106.116L23.18 106.114ZM19.6953 79.5108H23.18V100.491H19.6953V79.5108ZM77.2148 124.161V55.807C77.2148 55.0611 76.9037 54.3457 76.3499 53.8183C75.796 53.2908 75.0449 52.9945 74.2617 52.9945C73.4785 52.9945 72.7273 53.2908 72.1735 53.8183C71.6197 54.3457 71.3086 55.0611 71.3086 55.807V124.159C71.3084 124.905 71.6193 125.621 72.173 126.148C72.7267 126.676 73.4777 126.972 74.2609 126.972C75.0442 126.973 75.7954 126.676 76.3493 126.149C76.9033 125.622 77.2146 124.907 77.2148 124.161Z" fill="#5277A3"/>
<path d="M56.457 73.6397C60.9974 73.6397 64.6918 70.1128 64.6918 65.7788C64.6918 61.4447 60.9974 57.9178 56.457 57.9178C51.9151 57.9178 48.2207 61.4447 48.2207 65.7788C48.2207 70.1128 51.9165 73.6397 56.457 73.6397ZM56.457 63.5414C57.7416 63.5414 58.7855 64.5441 58.7855 65.7774C58.7855 67.0107 57.7401 68.0133 56.457 68.0133C55.1724 68.0133 54.127 67.0107 54.127 65.7774C54.127 64.5441 55.1724 63.5414 56.457 63.5414ZM56.457 97.5741C60.9974 97.5741 64.6918 94.0472 64.6918 89.7132C64.6918 85.3791 60.9974 81.8522 56.457 81.8522C51.9151 81.8522 48.2207 85.3791 48.2207 89.7132C48.2207 94.0472 51.9165 97.5741 56.457 97.5741ZM56.457 87.4772C57.7416 87.4772 58.7855 88.4799 58.7855 89.7132C58.7855 90.9464 57.7401 91.9491 56.457 91.9491C55.1724 91.9491 54.127 90.9464 54.127 89.7132C54.127 88.4799 55.1724 87.4772 56.457 87.4772ZM56.457 121.51C60.9974 121.51 64.6918 117.983 64.6918 113.649C64.6918 109.315 60.9974 105.788 56.457 105.788C51.9151 105.788 48.2207 109.315 48.2207 113.649C48.2207 117.983 51.9165 121.51 56.457 121.51ZM56.457 111.413C57.7416 111.413 58.7855 112.416 58.7855 113.649C58.7855 114.882 57.7401 115.885 56.457 115.885C55.1724 115.885 54.127 114.882 54.127 113.649C54.127 112.416 55.1724 111.413 56.457 111.413Z" fill="#1AC6BD"/>
</svg>
