<svg width="28" height="33" viewBox="0 0 28 33" fill="none" xmlns="http://www.w3.org/2000/svg">
<path d="M26.0003 32.5003H14.0003C13.6467 32.5003 13.3076 32.3599 13.0575 32.1098C12.8075 31.8598 12.667 31.5206 12.667 31.167V28.5003C12.667 28.1467 12.8075 27.8076 13.0575 27.5575C13.3076 27.3075 13.6467 27.167 14.0003 27.167H26.0003C26.3539 27.167 26.6931 27.3075 26.9431 27.5575C27.1932 27.8076 27.3337 28.1467 27.3337 28.5003V31.167C27.3337 31.5206 27.1932 31.8598 26.9431 32.1098C26.6931 32.3599 26.3539 32.5003 26.0003 32.5003Z" fill="#C4B5FD"/>
<path d="M26.0003 0.5H2.00033C1.6467 0.5 1.30756 0.640475 1.05752 0.890523C0.807467 1.14057 0.666992 1.47971 0.666992 1.83333V4.5C0.666992 4.85362 0.807467 5.19276 1.05752 5.44281C1.30756 5.69286 1.6467 5.83333 2.00033 5.83333H26.0003C26.3539 5.83333 26.6931 5.69286 26.9431 5.44281C27.1932 5.19276 27.3337 4.85362 27.3337 4.5V1.83333C27.3337 1.47971 27.1932 1.14057 26.9431 0.890523C26.6931 0.640475 26.3539 0.5 26.0003 0.5Z" fill="#1DB5BE"/>
<path d="M26.0003 8.5H2.00033C1.6467 8.5 1.30756 8.64047 1.05752 8.89052C0.807467 9.14057 0.666992 9.47971 0.666992 9.83333V23.1667C0.666992 23.5203 0.807467 23.8594 1.05752 24.1095C1.30756 24.3595 1.6467 24.5 2.00033 24.5H26.0003C26.3539 24.5 26.6931 24.3595 26.9431 24.1095C27.1932 23.8594 27.3337 23.5203 27.3337 23.1667V9.83333C27.3337 9.47971 27.1932 9.14057 26.9431 8.89052C26.6931 8.64047 26.3539 8.5 26.0003 8.5Z" fill="#7C3AED"/>
</svg>
