<svg width="48" height="38" viewBox="0 0 48 38" fill="none" xmlns="http://www.w3.org/2000/svg">
<path fill-rule="evenodd" clip-rule="evenodd" d="M39.6348 36.2035L42.592 31.8192L44.3458 33.0021L41.3885 37.3865L39.6348 36.2035Z" fill="black"/>
<path fill-rule="evenodd" clip-rule="evenodd" d="M43.0645 31.1182L46.0217 26.7339L47.7755 27.9168L44.8182 32.3011L43.0645 31.1182Z" fill="black"/>
<path fill-rule="evenodd" clip-rule="evenodd" d="M37.1797 34.5472L40.137 30.1628L41.8907 31.3457L38.9334 35.7301L37.1797 34.5472Z" fill="black"/>
<path fill-rule="evenodd" clip-rule="evenodd" d="M40.6094 29.4617L43.5666 25.0774L45.3204 26.2603L42.3631 30.6446L40.6094 29.4617Z" fill="black"/>
<path fill-rule="evenodd" clip-rule="evenodd" d="M34.7246 32.8918L37.6819 28.5074L39.4356 29.6904L36.4783 34.0747L34.7246 32.8918Z" fill="black"/>
<path fill-rule="evenodd" clip-rule="evenodd" d="M38.1543 27.8053L41.1116 23.421L42.8653 24.6039L39.908 28.9883L38.1543 27.8053Z" fill="black"/>
<path fill-rule="evenodd" clip-rule="evenodd" d="M1.75373 26.7339L8.14143 36.204L6.3877 37.3869L0 27.9168L1.75373 26.7339Z" fill="black"/>
<path fill-rule="evenodd" clip-rule="evenodd" d="M7.6385 30.1628L10.5958 34.5472L8.84203 35.7301L5.88477 31.3457L7.6385 30.1628Z" fill="black"/>
<path fill-rule="evenodd" clip-rule="evenodd" d="M4.20881 25.0774L7.16608 29.4617L5.41235 30.6446L2.45508 26.2603L4.20881 25.0774Z" fill="black"/>
<path fill-rule="evenodd" clip-rule="evenodd" d="M6.66389 23.421L13.0516 32.8912L11.2979 34.0741L4.91016 24.6039L6.66389 23.421Z" fill="black"/>
<path fill-rule="evenodd" clip-rule="evenodd" d="M24.0909 30.1163C17.67 30.1163 12.4648 24.9069 12.4648 18.4808C12.4648 16.4055 13.0077 14.4572 13.9591 12.7701C13.5539 13.581 13.326 14.496 13.326 15.4642C13.326 18.7963 16.025 21.0665 19.3544 21.0665C20.7926 21.0665 21.9783 20.7779 23.0144 19.5058C23.0872 19.4088 23.1598 19.3133 23.2321 19.2195L23.449 18.9432C23.5212 18.8527 23.5933 18.764 23.6654 18.677L23.8818 18.4213C25.2538 16.8357 26.6558 15.8952 28.6122 15.8952C31.8227 15.8952 34.8476 17.638 34.4252 22.1438C34.276 23.736 33.7827 25.1867 32.7423 26.2379L32.7568 26.2377C30.628 28.6182 27.5343 30.1163 24.0909 30.1163Z" fill="#0047A0"/>
<path fill-rule="evenodd" clip-rule="evenodd" d="M23.6844 7.27014C30.1054 7.27014 35.3105 12.4795 35.3105 18.9056C35.3105 20.9809 34.7677 22.9293 33.8163 24.6163C34.2214 23.8054 34.4493 22.8904 34.4493 21.9222C34.4493 18.5901 31.7504 16.3199 28.421 16.3199C26.9828 16.3199 25.7971 16.6085 24.7609 17.8806C23.0874 20.113 21.5315 21.4912 19.1632 21.4912C15.9527 21.4912 12.9278 19.7484 13.3501 15.2426C13.4994 13.6504 13.9927 12.1998 15.0331 11.1486L15.0186 11.1487C17.1474 8.76826 20.2411 7.27014 23.6844 7.27014Z" fill="#CD2E3A"/>
<path fill-rule="evenodd" clip-rule="evenodd" d="M39.908 8.39807L42.8653 12.7824L41.1116 13.9653L38.1543 9.58098L39.908 8.39807Z" fill="black"/>
<path fill-rule="evenodd" clip-rule="evenodd" d="M36.4783 3.31165L39.4356 7.69597L37.6819 8.87888L34.7246 4.49455L36.4783 3.31165Z" fill="black"/>
<path fill-rule="evenodd" clip-rule="evenodd" d="M38.9334 1.65515L45.3211 11.1253L43.5674 12.3082L37.1797 2.83806L38.9334 1.65515Z" fill="black"/>
<path fill-rule="evenodd" clip-rule="evenodd" d="M44.8182 5.08521L47.7755 9.46953L46.0217 10.6524L43.0645 6.26811L44.8182 5.08521Z" fill="black"/>
<path fill-rule="evenodd" clip-rule="evenodd" d="M41.3885 -0.00012207L44.3458 4.38421L42.592 5.56711L39.6348 1.18278L41.3885 -0.00012207Z" fill="black"/>
<path fill-rule="evenodd" clip-rule="evenodd" d="M4.91016 12.7818L11.2979 3.31165L13.0516 4.49455L6.66389 13.9647L4.91016 12.7818Z" fill="black"/>
<path fill-rule="evenodd" clip-rule="evenodd" d="M2.45508 11.1253L8.84278 1.65515L10.5965 2.83806L4.20881 12.3082L2.45508 11.1253Z" fill="black"/>
<path fill-rule="evenodd" clip-rule="evenodd" d="M0 9.47015L6.3877 0L8.14143 1.18291L1.75373 10.6531L0 9.47015Z" fill="black"/>
</svg>