<svg width="107" height="24" viewBox="0 0 107 24" fill="none" xmlns="http://www.w3.org/2000/svg">
<path d="M36.3311 4.82539C35.9925 4.78307 35.6539 4.76191 35.2941 4.76191H30.1089V19.2805H35.2941C35.6539 19.2805 35.9925 19.2593 36.3311 19.217C39.8443 18.709 42.5533 15.6826 42.5533 12.0212C42.5533 8.35984 39.8443 5.33333 36.3311 4.82539ZM35.8867 16.1059C35.6962 16.127 35.4845 16.1482 35.2941 16.1482H33.22V7.8519H35.2941C35.4845 7.8519 35.6962 7.85188 35.8867 7.89421C37.9184 8.1905 39.4422 9.94712 39.4422 12C39.4422 14.0529 37.9184 15.8096 35.8867 16.1059ZM72.6274 4.74079H75.7385V19.2593H72.6274L64.3311 9.29104V19.2593H61.22V4.74079H64.3311L72.6274 14.709V4.74079ZM86.7438 5.03705L92.3311 19.2593H88.9872L85.0719 9.29104L81.1565 19.2593H77.8126L83.3999 5.03705L83.5057 4.74079H86.6168L86.7227 5.03705H86.7438ZM106.85 9.92593C106.85 7.06879 104.522 4.74079 101.664 4.74079H97.5163H94.4052V19.2593H97.5163V15.1111H101.664C101.664 15.1111 101.791 15.1111 101.855 15.1111L103.527 19.2593H106.638L106.85 19.1746L104.797 14.0741C106.045 13.1217 106.85 11.6191 106.85 9.92593ZM103.506 10.8783C103.167 11.5344 102.469 12 101.664 12H100.606H97.5163V7.8519H101.664C102.807 7.8519 103.739 8.78308 103.739 9.92593C103.739 10.2646 103.654 10.6032 103.506 10.8783ZM49.5163 12.8254C49.2412 12.4444 49.0719 12.0212 49.0719 11.5556C49.0719 10.963 49.3047 10.4762 49.8126 10.1588C50.1089 9.9683 50.4687 9.90479 50.8285 9.94712C51.2306 9.98945 51.5692 10.1588 51.8867 10.4127C51.8867 10.4127 51.8867 10.4128 51.9078 10.4339C52.0771 10.2858 52.2465 10.1799 52.4369 10.0953C52.8814 9.90481 53.347 9.84127 53.8126 10.0529C54.384 10.328 54.7015 10.7936 54.7226 11.4286C54.7438 11.9153 54.5957 12.3387 54.3417 12.7408C54.1089 13.1006 53.8338 13.3757 53.5163 13.6508C53.1353 13.9683 52.7121 14.2434 52.2888 14.5186C52.183 14.6032 52.056 14.6667 51.9502 14.7513C51.929 14.7513 51.9078 14.7513 51.8655 14.7513C51.4422 14.455 51.0189 14.1799 50.6168 13.8836C50.1935 13.5873 49.8338 13.2276 49.5375 12.8043L49.5163 12.8254ZM59.1459 12C59.1459 16 55.8867 19.2593 51.8867 19.2593C47.8867 19.2593 44.6274 16 44.6274 12C44.6274 11.1323 45.3258 10.4339 46.1935 10.4339C47.0613 10.4339 47.7597 11.1323 47.7597 12C47.7597 14.2857 49.6221 16.1482 51.9078 16.1482C54.1935 16.1482 56.056 14.2857 56.056 12C56.056 9.71432 54.1935 7.8519 51.9078 7.8519C51.0401 7.8519 50.3417 7.15344 50.3417 6.28572C50.3417 5.41799 51.0401 4.7196 51.9078 4.7196C55.9078 4.7196 59.1671 7.97885 59.1671 11.9788L59.1459 12Z" fill="url(#paint0_linear_247_3464)"/>
<path d="M12.3945 24C19.022 24 24.3945 18.6275 24.3945 12C24.3945 5.37261 19.022 0 12.3945 0C5.76711 0 0.394531 5.37261 0.394531 12C0.394531 18.6275 5.76711 24 12.3945 24Z" fill="url(#paint1_linear_247_3464)" stroke="white" stroke-width="0.52" stroke-miterlimit="10"/>
<path d="M8.47876 12.1905L9.9814 13.2275C10.1719 13.3545 10.2777 13.5662 10.2777 13.799V16.9101C10.2777 17.3334 9.7486 17.545 9.4523 17.2275L6.53167 14.0952C6.25654 13.799 6.10838 13.418 6.10838 13.0159V8.35982C6.10838 8.02119 6.29887 7.7037 6.61633 7.53439L10.828 5.33337C11.2936 5.10057 11.484 4.50794 11.2301 4.04234C10.9973 3.57673 10.4047 3.38625 9.93908 3.64021L4.83854 6.3069C4.45759 6.51854 4.20361 6.89947 4.20361 7.34392V13.7355C4.20361 14.1376 4.35177 14.5397 4.6269 14.836L9.62162 20.2117C10.5317 21.1852 12.1613 20.5503 12.1613 19.217V12.9313C12.1613 12.6138 12.0132 12.2963 11.738 12.127L9.53696 10.6032C9.11368 10.3069 8.52109 10.4127 8.20363 10.836C7.90733 11.2593 8.01314 11.8519 8.43642 12.1693L8.47876 12.1905Z" fill="white"/>
<path d="M16.31 12.1905L14.8073 13.2275C14.6169 13.3545 14.511 13.5662 14.511 13.799V16.9101C14.511 17.3334 15.0401 17.545 15.3364 17.2275L18.2571 14.0952C18.5322 13.7989 18.6804 13.418 18.6804 13.0159V8.35981C18.6804 8.02119 18.4899 7.7037 18.1724 7.53438L13.9608 5.33337C13.4952 5.10057 13.3047 4.50794 13.5587 4.04233C13.7915 3.57672 14.3841 3.38624 14.8497 3.64021L19.9502 6.3069C20.3311 6.51854 20.5851 6.89947 20.5851 7.34392V13.7355C20.5851 14.1376 20.437 14.5397 20.1618 14.836L15.1671 20.2117C14.2571 21.1852 12.6274 20.5503 12.6274 19.217V12.9313C12.6274 12.6138 12.7756 12.2963 13.0507 12.127L15.2518 10.6032C15.6751 10.3069 16.2677 10.4127 16.5851 10.836C16.8814 11.2592 16.7756 11.8519 16.3523 12.1693L16.31 12.1905Z" fill="white"/>
<path d="M14.1914 9.22755C14.4031 8.91009 14.5089 8.57142 14.4877 8.19046C14.4454 7.68253 14.2126 7.32278 13.7682 7.11114C13.4084 6.94183 13.0486 6.98414 12.6888 7.15345C12.5406 7.21694 12.4137 7.30161 12.2867 7.42859C12.2867 7.42859 12.2867 7.42859 12.2655 7.42859C12.0327 7.21695 11.7576 7.08998 11.4401 7.04765C11.165 7.00533 10.8898 7.04762 10.6359 7.21694C10.2338 7.47091 10.0645 7.8519 10.0645 8.31751C10.0645 8.69846 10.2126 9.01588 10.4242 9.33334C10.657 9.67196 10.9533 9.94708 11.2708 10.1799C11.5883 10.4127 11.9269 10.6243 12.2655 10.8572C12.2867 10.8572 12.3078 10.8572 12.329 10.8572C12.4137 10.7937 12.5195 10.7302 12.6041 10.6667C12.9216 10.4339 13.2602 10.2223 13.5777 9.9683C13.8316 9.75666 14.0433 9.5238 14.2338 9.24867L14.1914 9.22755Z" fill="white"/>
<defs>
<linearGradient id="paint0_linear_247_3464" x1="30.1089" y1="12" x2="106.85" y2="12" gradientUnits="userSpaceOnUse">
<stop stop-color="#F39800"/>
<stop offset="1" stop-color="#E60012"/>
</linearGradient>
<linearGradient id="paint1_linear_247_3464" x1="12.3945" y1="24" x2="12.3945" y2="0" gradientUnits="userSpaceOnUse">
<stop stop-color="#F39800"/>
<stop offset="1" stop-color="#E60012"/>
</linearGradient>
</defs>
</svg>
