<svg width="24" height="24" viewBox="0 0 24 24" fill="none" xmlns="http://www.w3.org/2000/svg">
<path fill-rule="evenodd" clip-rule="evenodd" d="M20.7805 5.46936C20.8503 5.53903 20.9057 5.6218 20.9436 5.71291C20.9814 5.80403 21.0008 5.90171 21.0008 6.00036C21.0008 6.09902 20.9814 6.1967 20.9436 6.28781C20.9057 6.37893 20.8503 6.4617 20.7805 6.53136L10.2805 17.0314C10.2108 17.1012 10.1281 17.1566 10.0369 17.1944C9.94582 17.2322 9.84813 17.2517 9.74948 17.2517C9.65083 17.2517 9.55315 17.2322 9.46203 17.1944C9.37091 17.1566 9.28815 17.1012 9.21848 17.0314L3.96848 11.7814C3.82765 11.6405 3.74854 11.4495 3.74854 11.2504C3.74854 11.0512 3.82765 10.8602 3.96848 10.7194C4.10931 10.5785 4.30032 10.4994 4.49948 10.4994C4.69865 10.4994 4.88965 10.5785 5.03048 10.7194L9.74948 15.4399L19.7185 5.46936C19.7882 5.39952 19.8709 5.34411 19.962 5.3063C20.0532 5.26849 20.1508 5.24902 20.2495 5.24902C20.3481 5.24902 20.4458 5.26849 20.5369 5.3063C20.628 5.34411 20.7108 5.39952 20.7805 5.46936Z" fill="#449DFE"/>
</svg>
