<svg width="40" height="40" viewBox="0 0 40 40" fill="none" xmlns="http://www.w3.org/2000/svg">
<path d="M36.667 23.333C36.667 28.0471 36.6666 30.4047 35.2021 31.8691C33.7377 33.3334 31.3806 33.333 26.667 33.333H13.333C8.61935 33.333 6.2623 33.3334 4.79785 31.8691C3.33339 30.4047 3.33301 28.0471 3.33301 23.333V19.333H36.666L36.667 19.332V23.333ZM11.666 25.666C11.1142 25.6664 10.6664 26.1142 10.666 26.666C10.666 27.2181 11.114 27.6657 11.666 27.666H11.6826C12.2349 27.666 12.6826 27.2183 12.6826 26.666C12.6823 26.114 12.2347 25.666 11.6826 25.666H11.666ZM26.667 8.33301C31.3808 8.33301 33.7377 8.33342 35.2021 9.79785C36.5591 11.1548 36.6577 13.2782 36.665 17.333H3.33496C3.34227 13.2782 3.44086 11.1548 4.79785 9.79785C6.26228 8.33342 8.61918 8.33301 13.333 8.33301H26.667Z" fill="white"/>
</svg>
