<svg width="40" height="40" viewBox="0 0 40 40" fill="none" xmlns="http://www.w3.org/2000/svg">
<path d="M32.667 8.33301C34.5524 8.33301 35.4953 8.33319 36.0811 8.91895C36.6668 9.5047 36.667 10.4476 36.667 12.333V27.667C36.667 29.5524 36.6668 30.4953 36.0811 31.0811C35.4953 31.6668 34.5524 31.667 32.667 31.667H7.33301C5.44761 31.667 4.5047 31.6668 3.91895 31.0811C3.33319 30.4953 3.33301 29.5524 3.33301 27.667V12.333C3.33301 10.4476 3.33319 9.5047 3.91895 8.91895C4.5047 8.33319 5.44761 8.33301 7.33301 8.33301H32.667ZM28.333 25.667C27.7809 25.6672 27.333 26.1148 27.333 26.667C27.3332 27.219 27.781 27.6668 28.333 27.667H31.666C32.2182 27.667 32.6658 27.2191 32.666 26.667C32.666 26.1147 32.2183 25.667 31.666 25.667H28.333ZM20 15C17.2386 15 15 17.2386 15 20C15 22.7614 17.2386 25 20 25C22.7614 25 25 22.7614 25 20C25 17.2386 22.7614 15 20 15ZM20 17C21.6569 17 23 18.3431 23 20C23 21.6569 21.6569 23 20 23C18.3431 23 17 21.6569 17 20C17 18.3431 18.3431 17 20 17ZM8.33301 12.333C7.78098 12.3332 7.33318 12.781 7.33301 13.333C7.33301 13.8852 7.78087 14.3328 8.33301 14.333H11.666C12.2183 14.333 12.666 13.8853 12.666 13.333C12.6658 12.7809 12.2182 12.333 11.666 12.333H8.33301Z" fill="white"/>
</svg>
