<svg width="214" height="160" viewBox="0 0 214 160" fill="none" xmlns="http://www.w3.org/2000/svg">
<mask id="mask0_101_2550" style="mask-type:luminance" maskUnits="userSpaceOnUse" x="0" y="0" width="214" height="160">
<path d="M213.5 0H0.5V160H213.5V0Z" fill="white"/>
</mask>
<g mask="url(#mask0_101_2550)">
<path d="M136.092 146.43L140.034 146.112C131.338 144.675 132.953 132.933 131.036 127.654C131.073 127.61 121.158 128.858 121.019 128.845C128.095 149.323 123.671 144.909 136.092 146.43Z" fill="url(#paint0_linear_101_2550)"/>
<mask id="mask1_101_2550" style="mask-type:luminance" maskUnits="userSpaceOnUse" x="121" y="127" width="20" height="20">
<path d="M136.092 146.43L140.034 146.112C131.338 144.675 132.953 132.933 131.036 127.654C131.073 127.61 121.158 128.858 121.019 128.845C128.095 149.323 123.671 144.909 136.092 146.43Z" fill="white"/>
</mask>
<g mask="url(#mask1_101_2550)">
<path d="M121.903 140.482C127.337 142.349 138.75 134.717 133.241 134.479C128.513 135.634 122.763 134.953 122.549 137.973" fill="url(#paint1_linear_101_2550)"/>
</g>
<path d="M136.092 146.43L140.034 146.112C131.338 144.675 132.953 132.933 131.036 127.654C131.073 127.61 121.158 128.858 121.019 128.845C128.095 149.323 123.671 144.909 136.092 146.43Z" stroke="#CC3366" stroke-width="0.5" stroke-miterlimit="10"/>
<path d="M125.58 149.599L125.463 142.233C125.463 142.233 137.986 147.89 138.311 144.918C149.512 150.697 152.745 146.765 152.466 151.288H126.807C125.982 151.288 125.433 150.532 125.58 149.599Z" fill="url(#paint2_linear_101_2550)" stroke="#6181D8" stroke-width="0.5" stroke-miterlimit="10"/>
<path d="M130.53 123.771L133.676 125.422C128.111 119.831 137.667 109.442 139.426 104.403L131.171 100.553C122.73 122.191 122.257 116.34 130.53 123.771Z" fill="url(#paint3_linear_101_2550)" stroke="#CC3366" stroke-width="0.5" stroke-miterlimit="10"/>
<path d="M121.425 120.313L124.532 117.089C124.532 117.089 130.954 126.015 133.198 123.502C137.635 134.2 143.138 132.001 139.882 135.932L120.797 123.331C120.183 122.925 120.686 121.08 121.425 120.313Z" fill="url(#paint4_linear_101_2550)" stroke="#6181D8" stroke-width="0.5" stroke-miterlimit="10"/>
<path d="M116.034 37.0327C116.93 36.42 128.664 33.0929 130.309 31.2202C132.278 26.2951 134.497 26.2311 137.954 24.0739C138.762 23.7983 137.694 26.0376 135.287 27.5674C134.984 29.6215 135.17 31.5863 135.26 33.2414C135.282 33.2091 118.751 44.1515 118.682 44.1841L116.034 37.0327Z" fill="url(#paint5_linear_101_2550)"/>
<mask id="mask2_101_2550" style="mask-type:luminance" maskUnits="userSpaceOnUse" x="116" y="24" width="23" height="21">
<path d="M116.034 37.0327C116.93 36.42 128.664 33.0929 130.309 31.2202C132.278 26.2951 134.497 26.2311 137.954 24.0739C138.762 23.7983 137.694 26.0376 135.287 27.5674C134.984 29.6215 135.17 31.5863 135.26 33.2414C135.282 33.2091 118.751 44.1515 118.682 44.1841L116.034 37.0327Z" fill="white"/>
</mask>
<g mask="url(#mask2_101_2550)">
<path d="M129.826 31.1108C132.233 32.1213 131.593 35.1505 133.904 34.6297C133.29 37.3088 128.623 38.0303 128.363 35.1377" fill="url(#paint6_linear_101_2550)"/>
</g>
<path d="M116.034 37.0327C116.93 36.42 128.664 33.0929 130.309 31.2202C132.278 26.2951 134.497 26.2311 137.954 24.0739C138.762 23.7983 137.694 26.0376 135.287 27.5674C134.984 29.6215 135.17 31.5863 135.26 33.2414C135.282 33.2091 118.751 44.1515 118.682 44.1841L116.034 37.0327Z" stroke="#CC3366" stroke-width="0.5" stroke-miterlimit="10"/>
<path d="M134.748 33.5791C143.613 29.5355 140.674 17.9409 139.148 26.9897L139.019 24.4076C137.509 23.7102 137.424 27.8051 137.148 28.1291C135.266 30.1806 133.916 30.6936 133.272 32.988" fill="url(#paint7_linear_101_2550)"/>
<path d="M134.748 33.5791C143.613 29.5355 140.674 17.9409 139.148 26.9897L139.019 24.4076C137.509 23.7102 137.424 27.8051 137.148 28.1291C135.266 30.1806 133.916 30.6936 133.272 32.988" stroke="#CC3366" stroke-width="0.5" stroke-miterlimit="10"/>
<path d="M129.826 31.1108C129.826 31.1108 135.035 37.5651 135.035 44.1841C135.035 48.9442 116.146 46.1734 116.146 46.1734L114.899 38.6421L129.826 31.1108Z" fill="url(#paint8_linear_101_2550)"/>
<path d="M129.826 31.1108C129.826 31.1108 135.035 37.5651 135.035 44.1841C135.035 48.9442 116.146 46.1734 116.146 46.1734L114.899 38.6421L129.826 31.1108Z" stroke="#CC6666" stroke-width="0.5" stroke-miterlimit="10"/>
<path d="M119.702 106.898C119.702 106.898 128.307 115.057 135.264 115.374C135.264 115.374 148.281 88.5173 146.459 79.0246C143.93 65.8557 112.198 55.094 112.198 55.094L110.616 73.1401L131.202 89.058L119.702 106.898Z" fill="url(#paint9_linear_101_2550)"/>
<mask id="mask3_101_2550" style="mask-type:luminance" maskUnits="userSpaceOnUse" x="110" y="55" width="37" height="61">
<path d="M119.702 106.898C119.702 106.898 128.307 115.057 135.264 115.374C135.264 115.374 148.281 88.5173 146.459 79.0246C143.93 65.8557 112.198 55.094 112.198 55.094L110.616 73.1401L131.202 89.058L119.702 106.898Z" fill="white"/>
</mask>
<g mask="url(#mask3_101_2550)">
<path d="M128.563 111.689C147.062 78.0181 143.495 91.4239 119.211 66.5244" stroke="#3AA3FF" stroke-width="0.5" stroke-linecap="round" stroke-linejoin="round"/>
<path d="M131.097 91.8698C129.456 103.929 132.574 109.297 139.957 110.698C147.34 112.098 137.054 124.465 137.054 124.465L121.827 108.831L125.765 93.4258" fill="url(#paint10_linear_101_2550)"/>
<path d="M131.202 89.0581L131.645 87.8582C131.645 87.8582 125.445 60.0615 123.198 64.4432C118.26 74.0723 120.023 81.6777 120.023 81.6777L125.437 87.9797" fill="url(#paint11_linear_101_2550)"/>
</g>
<path d="M119.702 106.898C119.702 106.898 128.307 115.057 135.264 115.374C135.264 115.374 148.281 88.5173 146.459 79.0246C143.93 65.8557 112.198 55.094 112.198 55.094L110.616 73.1401L131.202 89.058L119.702 106.898Z" stroke="#33BACC" stroke-width="0.5" stroke-miterlimit="10"/>
<path d="M123.343 28.783C127.943 20.2028 138.957 17.6163 140.959 19.0143C141.798 19.7339 135.726 21.0099 135.237 21.5775C135.607 22.7866 131.796 25.7282 130.151 26.3561C129.325 27.6773 125.369 34.0028 125.277 34.1499L123.343 28.783Z" fill="url(#paint12_linear_101_2550)"/>
<mask id="mask4_101_2550" style="mask-type:luminance" maskUnits="userSpaceOnUse" x="123" y="18" width="19" height="17">
<path d="M123.343 28.783C127.943 20.2028 138.957 17.6163 140.959 19.0143C141.798 19.7339 135.726 21.0099 135.237 21.5775C135.607 22.7866 131.796 25.7282 130.151 26.3561C129.325 27.6773 125.369 34.0028 125.277 34.1499L123.343 28.783Z" fill="white"/>
</mask>
<g mask="url(#mask4_101_2550)">
<path d="M125 24.8289C134.321 28.436 128.385 33.1623 124.836 26.3941L125 24.8289Z" fill="url(#paint13_linear_101_2550)"/>
</g>
<path d="M123.343 28.783C127.943 20.2028 138.957 17.6163 140.959 19.0143C141.798 19.7339 135.726 21.0099 135.237 21.5775C135.607 22.7866 131.796 25.7282 130.151 26.3561C129.325 27.6773 125.369 34.0028 125.277 34.1499L123.343 28.783Z" stroke="#CC3366" stroke-width="0.5" stroke-miterlimit="10"/>
<path d="M99.938 13.7431C91.1973 25.5278 91.6716 20.9429 98.6655 27.9607L106.452 14.8907L99.938 13.7431Z" fill="url(#paint14_linear_101_2550)"/>
<mask id="mask5_101_2550" style="mask-type:luminance" maskUnits="userSpaceOnUse" x="93" y="13" width="14" height="15">
<path d="M99.938 13.7431C91.1973 25.5278 91.6716 20.9429 98.6655 27.9607L106.452 14.8907L99.938 13.7431Z" fill="white"/>
</mask>
<g mask="url(#mask5_101_2550)">
<path d="M102.407 16.8552C99.0748 17.7168 100.92 29.917 106.399 18.8291C107.122 16.1091 101.05 15.7256 99.8184 14.9099" fill="url(#paint15_linear_101_2550)"/>
</g>
<path d="M99.938 13.7431C91.1973 25.5278 91.6716 20.9429 98.6655 27.9607L106.452 14.8907L99.938 13.7431Z" stroke="#CC3366" stroke-width="0.5" stroke-miterlimit="10"/>
<path d="M133.384 31.8902L133.207 31.7864C132.919 31.6178 132.87 31.2505 133.096 30.966L144.399 16.7597C144.625 16.4752 145.042 16.3812 145.33 16.5498L145.507 16.6536C145.795 16.8222 145.845 17.1895 145.618 17.474L134.315 31.6803C134.089 31.9648 133.672 32.0588 133.384 31.8902Z" fill="url(#paint16_linear_101_2550)"/>
<mask id="mask6_101_2550" style="mask-type:luminance" maskUnits="userSpaceOnUse" x="132" y="16" width="14" height="16">
<path d="M133.384 31.8902L133.207 31.7864C132.919 31.6178 132.87 31.2505 133.096 30.966L144.399 16.7597C144.625 16.4752 145.042 16.3812 145.33 16.5498L145.507 16.6536C145.795 16.8222 145.845 17.1895 145.618 17.474L134.315 31.6803C134.089 31.9648 133.672 32.0588 133.384 31.8902Z" fill="white"/>
</mask>
<g mask="url(#mask6_101_2550)">
<path d="M132.401 31.3788L132.224 31.2751C131.936 31.1065 131.886 30.7392 132.113 30.4546L143.415 16.2484C143.642 15.9639 144.059 15.8699 144.347 16.0385L144.524 16.1422C144.811 16.3108 144.861 16.6782 144.635 16.9627L133.332 31.169C133.106 31.4535 132.689 31.5475 132.401 31.3788Z" fill="#09AFFA"/>
</g>
<path d="M133.384 31.8902L133.207 31.7864C132.919 31.6178 132.87 31.2505 133.096 30.966L144.399 16.7597C144.625 16.4752 145.042 16.3812 145.33 16.5498L145.507 16.6536C145.795 16.8222 145.845 17.1895 145.618 17.474L134.315 31.6803C134.089 31.9648 133.672 32.0588 133.384 31.8902Z" stroke="#4D4DCE" stroke-width="0.5" stroke-miterlimit="10"/>
<path d="M143.085 19.5348C143.061 19.5203 143.041 19.5008 143.026 19.4775C143.01 19.4542 143.001 19.4277 142.997 19.4001C142.993 19.3725 142.996 19.3445 143.004 19.3179C143.013 19.2914 143.027 19.2671 143.046 19.2468L144.42 17.5191C144.458 17.4709 144.511 17.4372 144.571 17.4238C144.63 17.4103 144.693 17.418 144.747 17.4455C144.771 17.4599 144.791 17.4795 144.807 17.5028C144.822 17.5261 144.832 17.5525 144.835 17.5801C144.839 17.6077 144.837 17.6358 144.828 17.6623C144.82 17.6888 144.805 17.7131 144.786 17.7334L143.412 19.4611C143.374 19.5094 143.321 19.5431 143.261 19.5565C143.202 19.5699 143.139 19.5623 143.085 19.5348Z" fill="url(#paint17_linear_101_2550)" stroke="#4D4DCE" stroke-width="0.5" stroke-miterlimit="10"/>
<path d="M141.145 21.9723C141.122 21.9579 141.101 21.9383 141.086 21.915C141.071 21.8917 141.061 21.8653 141.057 21.8377C141.054 21.8101 141.056 21.782 141.065 21.7555C141.073 21.7289 141.087 21.7046 141.106 21.6844L142.481 19.9567C142.519 19.9084 142.572 19.8747 142.631 19.8613C142.691 19.8478 142.753 19.8555 142.808 19.883C142.832 19.8975 142.852 19.917 142.867 19.9403C142.882 19.9636 142.892 19.99 142.896 20.0176C142.9 20.0452 142.897 20.0733 142.889 20.0999C142.88 20.1264 142.866 20.1507 142.847 20.171L141.472 21.8987C141.435 21.9469 141.382 21.9806 141.322 21.994C141.262 22.0075 141.2 21.9998 141.145 21.9723Z" fill="url(#paint18_linear_101_2550)" stroke="#4D4DCE" stroke-width="0.5" stroke-miterlimit="10"/>
<path d="M109.8 137.041C112.258 140.877 128.641 139.985 133.765 137.127L129.453 88.7794L119.393 50.9115C119.393 50.9115 103.363 48.4723 96.3353 56.3892C89.3072 64.3062 113.924 94.6541 113.924 94.6541C113.924 94.6541 107.342 133.205 109.8 137.041Z" fill="url(#paint19_linear_101_2550)"/>
<mask id="mask7_101_2550" style="mask-type:luminance" maskUnits="userSpaceOnUse" x="95" y="50" width="39" height="90">
<path d="M109.8 137.041C112.258 140.877 128.641 139.985 133.765 137.127L129.453 88.7794L119.393 50.9115C119.393 50.9115 103.363 48.4723 96.3353 56.3892C89.3072 64.3062 113.924 94.6541 113.924 94.6541C113.924 94.6541 107.342 133.205 109.8 137.041Z" fill="white"/>
</mask>
<g mask="url(#mask7_101_2550)">
<path d="M108.107 84.7307C99.4109 64.6577 114.771 57.5744 121.776 55.1336C128.781 52.6928 91.4213 57.4938 91.4213 57.4938L85.5156 76.5274" fill="url(#paint20_linear_101_2550)"/>
<path d="M125.463 142.233L121.019 92.0824L111.606 68.2184" stroke="#3AA3FF" stroke-width="0.5" stroke-linecap="round" stroke-linejoin="round"/>
<path d="M115.544 59.5579C114.741 68.8196 107.768 70.3756 107.768 70.3756" stroke="#3AA3FF" stroke-width="0.5" stroke-linecap="round" stroke-linejoin="round"/>
</g>
<path d="M109.8 137.041C112.258 140.877 128.641 139.985 133.765 137.127L129.453 88.7794L119.393 50.9115C119.393 50.9115 103.363 48.4723 96.3353 56.3892C89.3072 64.3062 113.924 94.6541 113.924 94.6541C113.924 94.6541 107.342 133.205 109.8 137.041Z" stroke="#33BACC" stroke-width="0.5" stroke-miterlimit="10"/>
<path d="M142.947 19.7717C142.595 19.5295 143.962 18.2705 144.298 17.72C145.3 17.2267 143.672 19.716 142.947 19.7717Z" fill="url(#paint21_linear_101_2550)" stroke="#4D4DCE" stroke-width="0.5" stroke-miterlimit="10"/>
<path d="M101.344 23.0183L102.541 21.9159C94.9486 14.4508 94.5791 19.5715 94.5791 19.5715L100.604 23.0183" fill="url(#paint22_linear_101_2550)"/>
<path d="M101.344 23.0183L102.541 21.9159C94.9486 14.4508 94.5791 19.5715 94.5791 19.5715L100.604 23.0183" stroke="#A095D7" stroke-width="0.5" stroke-miterlimit="10"/>
<path d="M92.8163 61.8246C95.0732 65.1621 118.804 59.3557 121.775 55.1336C124.746 50.9115 114.552 32.4593 114.027 31.5954C113.502 30.7315 104.785 22.3478 104.785 22.3478L94.5777 19.3422C81.9197 27.7995 87.5841 54.087 92.8163 61.8246Z" fill="url(#paint23_linear_101_2550)"/>
<mask id="mask8_101_2550" style="mask-type:luminance" maskUnits="userSpaceOnUse" x="86" y="19" width="37" height="44">
<path d="M92.8163 61.8246C95.0732 65.1621 118.804 59.3557 121.775 55.1336C124.746 50.9115 114.552 32.4593 114.027 31.5954C113.502 30.7315 104.785 22.3478 104.785 22.3478L94.5777 19.3422C81.9197 27.7995 87.5841 54.087 92.8163 61.8246Z" fill="white"/>
</mask>
<g mask="url(#mask8_101_2550)">
<path d="M93.5117 32.4651C83.6683 34.1499 98.9395 40.5678 99.8066 44.1536C102.9 56.9467 92.5466 65.4038 92.5466 65.4038L128.167 60.4244C111.44 26.5034 123.374 36.3985 94.5774 31.1108" fill="url(#paint24_linear_101_2550)"/>
</g>
<path d="M92.8163 61.8246C95.0732 65.1621 118.804 59.3557 121.775 55.1336C124.746 50.9115 114.552 32.4593 114.027 31.5954C113.502 30.7315 104.785 22.3478 104.785 22.3478L94.5777 19.3422C81.9197 27.7995 87.5841 54.087 92.8163 61.8246Z" stroke="#CC6666" stroke-width="0.5" stroke-miterlimit="10"/>
<path d="M101.176 22.7657C101.367 22.5374 114.527 35.4106 114.723 35.5177C119.506 31.4495 122.804 26.8484 125.145 25.7285C127.059 24.8126 131.839 36.9298 132.764 42.8672C128.623 46.6307 116.517 48.9299 112.005 48.8015C108.781 50.1119 94.6461 32.8182 92.3848 31.5436" fill="url(#paint25_linear_101_2550)"/>
<mask id="mask9_101_2550" style="mask-type:luminance" maskUnits="userSpaceOnUse" x="92" y="22" width="41" height="27">
<path d="M101.176 22.7657C101.367 22.5374 114.527 35.4106 114.723 35.5177C119.506 31.4495 122.804 26.8484 125.145 25.7285C127.059 24.8126 131.839 36.9298 132.764 42.8672C128.623 46.6307 116.517 48.9299 112.005 48.8015C108.781 50.1119 94.6461 32.8182 92.3848 31.5436" fill="white"/>
</mask>
<g mask="url(#mask9_101_2550)">
<path d="M117.119 48.5521C117.267 51.9214 107.141 52.707 105.647 49.1631C103.683 44.9646 117.002 44.25 117.119 48.5521Z" fill="url(#paint26_linear_101_2550)" stroke="#A095D7" stroke-width="0.5" stroke-miterlimit="10"/>
</g>
<path d="M101.176 22.7657C101.367 22.5374 114.527 35.4106 114.723 35.5177C119.506 31.4495 122.804 26.8484 125.145 25.7285C127.059 24.8126 131.839 36.9298 132.764 42.8672C128.623 46.6307 116.517 48.9299 112.005 48.8015C108.781 50.1119 94.6461 32.8182 92.3848 31.5436" stroke="#CC6666" stroke-width="0.5" stroke-miterlimit="10"/>
<path d="M114.662 35.6779L114.171 36.6122" stroke="#FF9999" stroke-width="0.5" stroke-linecap="round" stroke-linejoin="round"/>
<path d="M114.002 94.4943C115.105 94.5615 116.212 94.4565 117.283 94.1831M133.855 89.2052L135.008 88.9108" stroke="#3AA3FF" stroke-width="0.5" stroke-linecap="round" stroke-linejoin="round"/>
<path d="M137.822 142.61L138.387 146.002M141.261 142.769C139.732 143.622 138.479 144.913 137.71 146.429M133.543 124.113L135.138 122.766M133.978 124.246C135.007 124.248 136.035 124.321 137.055 124.465" stroke="#330066" stroke-width="0.5" stroke-linecap="round" stroke-linejoin="round"/>
<path d="M135.035 21.4587H134.379" stroke="#FF8DB5" stroke-width="0.5" stroke-linecap="round" stroke-linejoin="round"/>
<path d="M93.3078 26.3105C92.6171 26.9569 92.4232 28.032 92.8479 28.8594M93.1908 54.7793L94.0957 55.0036" stroke="#FF9999" stroke-width="0.5" stroke-linecap="round" stroke-linejoin="round"/>
<path d="M102.949 14.7198C110.779 14.2279 110.627 7.55688 108.246 7.18781C100.344 9.66613 103.137 9.91199 102.949 14.7198Z" fill="url(#paint27_linear_101_2550)"/>
<mask id="mask10_101_2550" style="mask-type:luminance" maskUnits="userSpaceOnUse" x="102" y="7" width="8" height="8">
<path d="M102.949 14.7198C110.779 14.2279 110.627 7.55688 108.246 7.18781C100.344 9.66613 103.137 9.91199 102.949 14.7198Z" fill="white"/>
</mask>
<g mask="url(#mask10_101_2550)">
<path d="M107.398 6.78066C107.866 8.61693 106.679 9.64179 106.679 9.64179L105.359 6.91668L106.654 5.48846" fill="url(#paint28_linear_101_2550)"/>
</g>
<path d="M102.44 17.8202C111.061 26.0895 110.868 -0.53454 99.7926 14.1461C99.1387 14.3981 100.142 14.9672 100.647 15.8035" fill="url(#paint29_linear_101_2550)"/>
<mask id="mask11_101_2550" style="mask-type:luminance" maskUnits="userSpaceOnUse" x="99" y="9" width="10" height="11">
<path d="M102.44 17.8202C111.061 26.0895 110.868 -0.53454 99.7926 14.1461C99.1387 14.3981 100.142 14.9672 100.647 15.8035" fill="white"/>
</mask>
<g mask="url(#mask11_101_2550)">
<path d="M106.679 9.64178C108.13 10.9973 102.28 13.7548 102.28 13.7548L104.205 10.1916" fill="url(#paint30_linear_101_2550)"/>
</g>
<path d="M102.44 17.8202C111.061 26.0895 110.868 -0.53454 99.7926 14.1461C99.1387 14.3981 100.142 14.9672 100.647 15.8035" stroke="#CC3366" stroke-width="0.5" stroke-miterlimit="10"/>
<path d="M98.6112 17.5264C100.94 15.3328 103.236 12.1565 105.746 11.3744C111.808 5.02609 98.0797 5.26211 97.749 6.40209C96.8377 6.17216 92.5453 13.419 95.6718 12.7133C95.3333 15.3741 98.1458 15.4762 98.6112 17.5264Z" fill="url(#paint31_linear_101_2550)"/>
<mask id="mask12_101_2550" style="mask-type:luminance" maskUnits="userSpaceOnUse" x="94" y="5" width="14" height="13">
<path d="M98.6112 17.5264C100.94 15.3328 103.236 12.1565 105.746 11.3744C111.808 5.02609 98.0797 5.26211 97.749 6.40209C96.8377 6.17216 92.5453 13.419 95.6718 12.7133C95.3333 15.3741 98.1458 15.4762 98.6112 17.5264Z" fill="white"/>
</mask>
<g mask="url(#mask12_101_2550)">
<path d="M94.1608 13.2871C94.3092 13.5647 95.6718 12.7133 95.6718 12.7133C95.6718 12.7133 97.3274 10.7687 98.3665 9.64178C99.4055 8.51491 95.6452 14.4136 95.6452 14.4136L94.5478 14.916L93.8145 14.4136" fill="url(#paint32_linear_101_2550)"/>
</g>
<path d="M102.989 13.3918C99.5639 10.2893 97.2961 14.228 100.932 16.1696L102.989 13.3918Z" fill="url(#paint33_linear_101_2550)"/>
<path d="M102.989 13.3918C99.5639 10.2893 97.2961 14.228 100.932 16.1696" stroke="#CC3366" stroke-width="0.5" stroke-miterlimit="10"/>
<path d="M106.888 14.207C106.831 14.2136 106.774 14.2088 106.719 14.1929C106.664 14.1771 106.613 14.1505 106.568 14.1147C106.523 14.0789 106.486 14.0346 106.459 13.9844C106.432 13.9342 106.415 13.879 106.409 13.8221L106.319 13.0788C106.304 12.9639 106.335 12.8476 106.405 12.7551C106.474 12.6627 106.578 12.6016 106.692 12.585C106.749 12.5785 106.807 12.5833 106.862 12.5991C106.916 12.615 106.968 12.6416 107.012 12.6773C107.057 12.7131 107.094 12.7574 107.121 12.8076C107.149 12.8579 107.166 12.913 107.172 12.9699L107.261 13.7133C107.276 13.8282 107.246 13.9445 107.176 14.0369C107.106 14.1294 107.002 14.1905 106.888 14.207Z" fill="url(#paint34_linear_101_2550)"/>
<path d="M107.566 13.194C107.806 14.9542 106.073 15.1688 105.732 13.5488C105.492 11.7886 107.224 11.574 107.566 13.194Z" fill="url(#paint35_linear_101_2550)"/>
<mask id="mask13_101_2550" style="mask-type:luminance" maskUnits="userSpaceOnUse" x="105" y="12" width="3" height="3">
<path d="M107.566 13.194C107.806 14.9542 106.073 15.1688 105.732 13.5488C105.492 11.7886 107.224 11.574 107.566 13.194Z" fill="white"/>
</mask>
<g mask="url(#mask13_101_2550)">
<path d="M107.763 13.2657C107.838 14.1177 106.963 14.3013 106.809 13.3755C106.734 12.5235 107.609 12.3399 107.763 13.2657Z" fill="url(#paint36_linear_101_2550)"/>
</g>
<path d="M107.917 13.0493C108.767 13.8841 109.412 14.003 109.458 14.3704C109.504 14.7379 108.95 15.3539 108.098 15.3986" fill="url(#paint37_linear_101_2550)"/>
<path d="M107.917 13.0493C108.767 13.8841 109.412 14.003 109.458 14.3704C109.504 14.7379 108.95 15.3539 108.098 15.3986" stroke="#CC3366" stroke-width="0.5" stroke-miterlimit="10"/>
<path d="M106.895 11.0653C105.6 11.1716 105.38 11.759 106.193 11.747C107.007 11.735 107.74 10.9958 106.895 11.0653Z" fill="url(#paint38_linear_101_2550)"/>
<path d="M105.688 14.5599C105.708 14.1495 105.287 13.7949 104.748 13.768C104.209 13.741 103.755 14.0518 103.734 14.4623C103.714 14.8727 104.135 15.2272 104.674 15.2542C105.213 15.2812 105.667 14.9703 105.688 14.5599Z" fill="url(#paint39_linear_101_2550)"/>
<path d="M105.911 15.6656C106.545 16.4647 107.397 16.2657 107.397 16.2657M100.989 13.7716C100.8 13.9309 100.8 14.2725 100.989 14.4315" stroke="#CC3366" stroke-width="0.5" stroke-miterlimit="10"/>
<path d="M73.0325 76.6657H35.2773C34.6959 76.6657 34.2246 77.1377 34.2246 77.72V83.5083C34.2246 84.0906 34.6959 84.5626 35.2773 84.5626H73.0325C73.6138 84.5626 74.0851 84.0906 74.0851 83.5083V77.72C74.0851 77.1377 73.6138 76.6657 73.0325 76.6657Z" fill="url(#paint40_linear_101_2550)" stroke="#A095D7" stroke-width="0.5" stroke-miterlimit="10"/>
<path d="M94.0472 76.6657H81.2802C80.6988 76.6657 80.2275 77.1377 80.2275 77.72V83.5083C80.2275 84.0906 80.6988 84.5626 81.2802 84.5626H94.0472C94.6285 84.5626 95.0998 84.0906 95.0998 83.5083V77.72C95.0998 77.1377 94.6285 76.6657 94.0472 76.6657Z" fill="url(#paint41_linear_101_2550)" stroke="#A095D7" stroke-width="0.5" stroke-miterlimit="10"/>
<path d="M92.7956 55.5664H82.3997C80.7163 55.5664 79.3516 56.9332 79.3516 58.6193V63.6229C79.3516 65.309 80.7163 66.6758 82.3997 66.6758H92.7956C94.479 66.6758 95.8437 65.309 95.8437 63.6229V58.6193C95.8437 56.9332 94.479 55.5664 92.7956 55.5664Z" fill="url(#paint42_linear_101_2550)" stroke="#FF8349" stroke-width="0.5" stroke-miterlimit="10"/>
<path d="M85.1711 55.5664H84.5508V61.048H85.1711V55.5664Z" fill="url(#paint43_linear_101_2550)" stroke="#FF8349" stroke-width="0.5" stroke-miterlimit="10"/>
<path d="M90.7805 61.0479H90.1602V66.5295H90.7805V61.0479Z" fill="url(#paint44_linear_101_2550)" stroke="#FF8349" stroke-width="0.5" stroke-miterlimit="10"/>
<path d="M95.8437 60.792H79.3516V61.3039H95.8437V60.792Z" fill="url(#paint45_linear_101_2550)" stroke="#FF8349" stroke-width="0.5" stroke-miterlimit="10"/>
<path d="M42.1336 68.2483C46.0637 68.2483 49.2497 65.0573 49.2497 61.1211C49.2497 57.1849 46.0637 53.9939 42.1336 53.9939C38.2035 53.9939 35.0176 57.1849 35.0176 61.1211C35.0176 65.0573 38.2035 68.2483 42.1336 68.2483Z" fill="url(#paint46_linear_101_2550)" stroke="#4ECC87" stroke-width="0.5" stroke-miterlimit="10"/>
<path d="M53.7118 68.2483C57.6419 68.2483 60.8278 65.0573 60.8278 61.1211C60.8278 57.1849 57.6419 53.9939 53.7118 53.9939C49.7817 53.9939 46.5957 57.1849 46.5957 61.1211C46.5957 65.0573 49.7817 68.2483 53.7118 68.2483Z" fill="url(#paint47_linear_101_2550)" stroke="#FF8349" stroke-width="0.5" stroke-miterlimit="10"/>
<path d="M96.4472 47.0467H32.8778C29.7006 47.0467 27.125 49.6263 27.125 52.8084V91.4132C27.125 94.5954 29.7006 97.175 32.8778 97.175H96.4472C99.6244 97.175 102.2 94.5954 102.2 91.4132V52.8084C102.2 49.6263 99.6244 47.0467 96.4472 47.0467Z" fill="url(#paint48_linear_101_2550)"/>
<mask id="mask14_101_2550" style="mask-type:luminance" maskUnits="userSpaceOnUse" x="27" y="47" width="76" height="51">
<path d="M96.4472 47.0467H32.8778C29.7006 47.0467 27.125 49.6263 27.125 52.8084V91.4132C27.125 94.5954 29.7006 97.175 32.8778 97.175H96.4472C99.6244 97.175 102.2 94.5954 102.2 91.4132V52.8084C102.2 49.6263 99.6244 47.0467 96.4472 47.0467Z" fill="white"/>
</mask>
<g mask="url(#mask14_101_2550)">
<path d="M73.0325 77.4326H35.2773C34.6959 77.4326 34.2246 77.9046 34.2246 78.4869V84.2752C34.2246 84.8575 34.6959 85.3295 35.2773 85.3295H73.0325C73.6138 85.3295 74.0851 84.8575 74.0851 84.2752V78.4869C74.0851 77.9046 73.6138 77.4326 73.0325 77.4326Z" fill="url(#paint49_linear_101_2550)"/>
<path d="M94.0472 77.4326H81.2802C80.6988 77.4326 80.2275 77.9046 80.2275 78.4869V84.2752C80.2275 84.8575 80.6988 85.3295 81.2802 85.3295H94.0472C94.6285 85.3295 95.0998 84.8575 95.0998 84.2752V78.4869C95.0998 77.9046 94.6285 77.4326 94.0472 77.4326Z" fill="url(#paint50_linear_101_2550)"/>
<path d="M24.7559 94.6773C24.7559 94.6773 93.4097 98.7422 98.8374 94.0896C101.389 91.9027 102.2 72.1843 102.2 72.1843L104.118 100.554L29.5968 102.024" fill="url(#paint51_linear_101_2550)"/>
</g>
<path d="M96.4472 47.0467H32.8778C29.7006 47.0467 27.125 49.6263 27.125 52.8084V91.4132C27.125 94.5954 29.7006 97.175 32.8778 97.175H96.4472C99.6244 97.175 102.2 94.5954 102.2 91.4132V52.8084C102.2 49.6263 99.6244 47.0467 96.4472 47.0467Z" stroke="#A095D7" stroke-width="0.5" stroke-miterlimit="10"/>
<path d="M92.7956 56.3333H82.3997C80.7163 56.3333 79.3516 57.7001 79.3516 59.3862V64.3898C79.3516 66.0759 80.7163 67.4428 82.3997 67.4428H92.7956C94.479 67.4428 95.8437 66.0759 95.8437 64.3898V59.3862C95.8437 57.7001 94.479 56.3333 92.7956 56.3333Z" fill="url(#paint52_linear_101_2550)"/>
<mask id="mask15_101_2550" style="mask-type:luminance" maskUnits="userSpaceOnUse" x="79" y="56" width="17" height="12">
<path d="M92.7956 56.3333H82.3997C80.7163 56.3333 79.3516 57.7001 79.3516 59.3862V64.3898C79.3516 66.0759 80.7163 67.4428 82.3997 67.4428H92.7956C94.479 67.4428 95.8437 66.0759 95.8437 64.3898V59.3862C95.8437 57.7001 94.479 56.3333 92.7956 56.3333Z" fill="white"/>
</mask>
<g mask="url(#mask15_101_2550)">
<path d="M97.8433 61.57H84.5826V55.0771H83.812V61.57H77.3516V62.206H90.7822V68.6989H91.5528V62.206H97.8433V61.57Z" fill="url(#paint53_linear_101_2550)" stroke="#FF8349" stroke-width="0.5" stroke-miterlimit="10"/>
</g>
<path d="M92.7956 56.3333H82.3997C80.7163 56.3333 79.3516 57.7001 79.3516 59.3862V64.3898C79.3516 66.0759 80.7163 67.4428 82.3997 67.4428H92.7956C94.479 67.4428 95.8437 66.0759 95.8437 64.3898V59.3862C95.8437 57.7001 94.479 56.3333 92.7956 56.3333Z" stroke="#FF8349" stroke-width="0.5" stroke-miterlimit="10"/>
<path d="M47.733 50.2129C47.0381 51.158 46.1428 51.9372 45.1113 52.4943M82.8921 74.0768L81.1212 76.6161" stroke="#D29EFF" stroke-width="0.5" stroke-linecap="round" stroke-linejoin="round"/>
<path d="M72.229 137.659L69.5612 139.534H51.8516L54.5193 137.659H72.229Z" fill="url(#paint54_linear_101_2550)" stroke="#FF8349" stroke-width="0.5" stroke-miterlimit="10"/>
<path d="M72.2293 137.659V152.353L69.5615 154.228V139.534L72.2293 137.659Z" fill="url(#paint55_linear_101_2550)" stroke="#FF8349" stroke-width="0.5" stroke-miterlimit="10"/>
<path d="M69.5612 139.534H51.8516V154.228H69.5612V139.534Z" fill="url(#paint56_linear_101_2550)"/>
<path d="M69.5612 139.534H51.8516V154.228H69.5612V139.534Z" stroke="#FF8349" stroke-width="0.5" stroke-miterlimit="10"/>
<path d="M98.5142 116.595L95.8463 118.251H78.1367L80.8045 116.595H98.5142Z" fill="url(#paint57_linear_101_2550)" stroke="#4ECC87" stroke-width="0.5" stroke-miterlimit="10"/>
<path d="M98.5145 116.595V139.597L95.8467 141.253V118.251L98.5145 116.595Z" fill="url(#paint58_linear_101_2550)" stroke="#FF8349" stroke-width="0.5" stroke-miterlimit="10"/>
<path d="M95.8463 118.251H78.1367V141.253H95.8463V118.251Z" fill="url(#paint59_linear_101_2550)" stroke="#FF8349" stroke-width="0.5" stroke-miterlimit="10"/>
<path d="M95.8467 118.251V131.225V154.228L98.5145 152.572V129.569V116.595L95.8467 118.251Z" fill="url(#paint60_linear_101_2550)" stroke="#4ECC87" stroke-width="0.5" stroke-miterlimit="10"/>
<path d="M78.1367 118.251V131.225V154.228H95.8463V131.225V118.251H78.1367Z" fill="url(#paint61_linear_101_2550)" stroke="#4ECC87" stroke-width="0.5" stroke-miterlimit="10"/>
<path d="M126.136 123.167L123.468 124.823H105.759L108.427 123.167H126.136Z" fill="url(#paint62_linear_101_2550)" stroke="#FF8349" stroke-width="0.5" stroke-miterlimit="10"/>
<path d="M126.137 123.167V139.598L123.469 141.254V124.823L126.137 123.167Z" fill="url(#paint63_linear_101_2550)" stroke="#FF8349" stroke-width="0.5" stroke-miterlimit="10"/>
<path d="M123.468 124.823H105.759V141.254H123.468V124.823Z" fill="url(#paint64_linear_101_2550)" stroke="#FF8349" stroke-width="0.5" stroke-miterlimit="10"/>
<path d="M123.469 124.823V137.798V154.228L126.137 152.572V136.142V123.167L123.469 124.823Z" fill="url(#paint65_linear_101_2550)" stroke="#FF8349" stroke-width="0.5" stroke-miterlimit="10"/>
<path d="M105.759 124.823V137.798V154.228H123.468V137.798V124.823H105.759Z" fill="url(#paint66_linear_101_2550)" stroke="#FF8349" stroke-width="0.5" stroke-miterlimit="10"/>
<path d="M157.323 109.283L154.655 110.744H136.945L139.613 109.283H157.323Z" fill="url(#paint67_linear_101_2550)" stroke="#33BACC" stroke-width="0.5" stroke-miterlimit="10"/>
<path d="M157.323 109.283V121.001L154.655 122.463V110.744L157.323 109.283Z" fill="url(#paint68_linear_101_2550)" stroke="#33BACC" stroke-width="0.5" stroke-miterlimit="10"/>
<path d="M154.655 110.744H136.945V122.463H154.655V110.744Z" fill="url(#paint69_linear_101_2550)" stroke="#33BACC" stroke-width="0.5" stroke-miterlimit="10"/>
<path d="M157.323 120.737V132.456L154.655 133.919V122.2L157.323 120.737Z" fill="url(#paint70_linear_101_2550)" stroke="#33BACC" stroke-width="0.5" stroke-miterlimit="10"/>
<path d="M154.655 110.744V122.2V142.51V154.228L157.323 152.766V141.048V120.737V109.282L154.655 110.744Z" fill="url(#paint71_linear_101_2550)" stroke="#33BACC" stroke-width="0.5" stroke-miterlimit="10"/>
<path d="M154.655 122.2H136.945V133.919H154.655V122.2Z" fill="url(#paint72_linear_101_2550)" stroke="#33BACC" stroke-width="0.5" stroke-miterlimit="10"/>
<path d="M154.655 131.055H136.945V142.773H154.655V131.055Z" fill="url(#paint73_linear_101_2550)" stroke="#33BACC" stroke-width="0.5" stroke-miterlimit="10"/>
<path d="M136.945 110.744V122.2V131.055V142.51V154.228H154.655V142.51V131.055V122.2V110.744H136.945Z" fill="url(#paint74_linear_101_2550)" stroke="#33BACC" stroke-width="0.5" stroke-miterlimit="10"/>
<path d="M186.875 101.966L184.208 103.429H166.498L169.166 101.966H186.875Z" fill="url(#paint75_linear_101_2550)"/>
<path d="M184.208 103.429V114.885V122.463V133.919V135.194V154.229L186.876 152.766V133.731V132.456V121V113.422V101.966L184.208 103.429Z" fill="url(#paint76_linear_101_2550)"/>
<path d="M166.498 103.429V114.885V122.463V123.738V133.919V135.194V142.773V154.229H184.208V142.773V135.194V133.919V123.738V122.463V114.885V103.429H166.498Z" fill="url(#paint77_linear_101_2550)"/>
<path d="M165.229 57.2349L161.967 51.0367L169.178 60.6134L172.44 66.8116L165.229 57.2349Z" fill="url(#paint78_linear_101_2550)" stroke="#4D4DCE" stroke-width="0.5" stroke-miterlimit="10"/>
<path d="M128.915 83.3145L125.653 77.1163L161.967 51.0367L165.229 57.2349L128.915 83.3145Z" fill="url(#paint79_linear_101_2550)" stroke="#4D4DCE" stroke-width="0.5" stroke-miterlimit="10"/>
<path d="M165.229 57.2349L172.44 66.8116L132.505 95.4924L95.1411 95.1728L54.3253 120.791L47.877 110.698L92.008 82.9982L128.915 83.3145L165.229 57.2349Z" fill="url(#paint80_linear_101_2550)"/>
<mask id="mask16_101_2550" style="mask-type:luminance" maskUnits="userSpaceOnUse" x="47" y="57" width="126" height="64">
<path d="M165.229 57.2349L172.44 66.8116L132.505 95.4924L95.1411 95.1728L54.3253 120.791L47.877 110.698L92.008 82.9982L128.915 83.3145L165.229 57.2349Z" fill="white"/>
</mask>
<g mask="url(#mask16_101_2550)">
<path d="M169.178 60.6134C161.518 56.4787 174.896 65.3463 155.988 80.9525C137.079 96.5586 168.373 83.3145 168.373 83.3145L176.685 65.251V60.5345" fill="url(#paint81_linear_101_2550)"/>
</g>
<path d="M165.229 57.2349L172.44 66.8116L132.505 95.4924L95.1411 95.1728L54.3253 120.791L47.877 110.698L92.008 82.9982L128.915 83.3145L165.229 57.2349Z" stroke="#4D4DCE" stroke-width="0.5" stroke-miterlimit="10"/>
<path d="M47.8773 110.699L44.6152 104.5L88.7463 76.8L92.0084 82.9982L47.8773 110.699Z" fill="url(#paint82_linear_101_2550)" stroke="#4D4DCE" stroke-width="0.5" stroke-miterlimit="10"/>
<path d="M92.0081 82.9982L88.7461 76.8L125.653 77.1163L128.915 83.3146L92.0081 82.9982Z" fill="url(#paint83_linear_101_2550)" stroke="#4D4DCE" stroke-width="0.5" stroke-miterlimit="10"/>
<path d="M158.228 47.9365L183.522 50.9979L179.113 75.6731L172.441 66.8116L165.229 57.2349L158.228 47.9365Z" fill="url(#paint84_linear_101_2550)" stroke="#4D4DCE" stroke-width="0.5" stroke-miterlimit="10"/>
<path d="M158.228 47.9365L154.966 41.7383L180.261 44.7996L183.523 50.9979L158.228 47.9365Z" fill="url(#paint85_linear_101_2550)" stroke="#4D4DCE" stroke-width="0.5" stroke-miterlimit="10"/>
<path d="M176.812 118.507L174.314 121.297" stroke="#FF9999" stroke-width="0.5" stroke-linecap="round" stroke-linejoin="round"/>
<path d="M61.6484 144.064L60.4834 144.998M116.529 141.234L115.597 143.412" stroke="#FF6666" stroke-width="0.5" stroke-miterlimit="10"/>
<path d="M153.184 69.801L151.792 72.1393M66.0604 94.0958L64.6621 95.4963" stroke="#4D4DCE" stroke-width="0.5" stroke-miterlimit="10"/>
</g>
<defs>
<linearGradient id="paint0_linear_101_2550" x1="124.899" y1="143.115" x2="135.703" y2="132.328" gradientUnits="userSpaceOnUse">
<stop offset="0.003" stop-color="#FFCCFF"/>
<stop offset="1" stop-color="#FF99CC"/>
</linearGradient>
<linearGradient id="paint1_linear_101_2550" x1="123.3" y1="141.881" x2="132.438" y2="132.757" gradientUnits="userSpaceOnUse">
<stop stop-color="#FF6699"/>
<stop offset="0.997" stop-color="#FF99CC"/>
</linearGradient>
<linearGradient id="paint2_linear_101_2550" x1="130.372" y1="155.366" x2="144.266" y2="141.495" gradientUnits="userSpaceOnUse">
<stop offset="0.03" stop-color="#A8ECFE"/>
<stop offset="1" stop-color="#8487FF"/>
</linearGradient>
<linearGradient id="paint3_linear_101_2550" x1="125.639" y1="119.783" x2="140.233" y2="105.212" gradientUnits="userSpaceOnUse">
<stop offset="0.003" stop-color="#FFCCFF"/>
<stop offset="1" stop-color="#FF99CC"/>
</linearGradient>
<linearGradient id="paint4_linear_101_2550" x1="128.083" y1="130.641" x2="134.214" y2="124.519" gradientUnits="userSpaceOnUse">
<stop offset="0.03" stop-color="#A8ECFE"/>
<stop offset="1" stop-color="#8487FF"/>
</linearGradient>
<linearGradient id="paint5_linear_101_2550" x1="148.108" y1="31.21" x2="132.26" y2="33.5369" gradientUnits="userSpaceOnUse">
<stop offset="0.003" stop-color="#FFCCFF"/>
<stop offset="1" stop-color="#FF99CC"/>
</linearGradient>
<linearGradient id="paint6_linear_101_2550" x1="128.775" y1="36.2509" x2="132.154" y2="32.8772" gradientUnits="userSpaceOnUse">
<stop stop-color="#FF6699"/>
<stop offset="0.997" stop-color="#FF99CC"/>
</linearGradient>
<linearGradient id="paint7_linear_101_2550" x1="147.51" y1="27.1368" x2="131.662" y2="29.4637" gradientUnits="userSpaceOnUse">
<stop offset="0.003" stop-color="#FFCCFF"/>
<stop offset="1" stop-color="#FF99CC"/>
</linearGradient>
<linearGradient id="paint8_linear_101_2550" x1="118.351" y1="48.3815" x2="132.733" y2="34.0218" gradientUnits="userSpaceOnUse">
<stop offset="0.001" stop-color="#FFFF99"/>
<stop offset="1" stop-color="#FF99CC"/>
</linearGradient>
<linearGradient id="paint9_linear_101_2550" x1="110.901" y1="98.0843" x2="139.74" y2="69.2907" gradientUnits="userSpaceOnUse">
<stop stop-color="#66EDFF"/>
<stop offset="1" stop-color="#33C4FF"/>
</linearGradient>
<linearGradient id="paint10_linear_101_2550" x1="126.484" y1="113.878" x2="139.799" y2="100.585" gradientUnits="userSpaceOnUse">
<stop stop-color="#66DDFF"/>
<stop offset="1" stop-color="#2EACFF"/>
</linearGradient>
<linearGradient id="paint11_linear_101_2550" x1="127.417" y1="102.304" x2="125.859" y2="85.4993" gradientUnits="userSpaceOnUse">
<stop stop-color="#66DDFF"/>
<stop offset="1" stop-color="#2EACFF"/>
</linearGradient>
<linearGradient id="paint12_linear_101_2550" x1="123.415" y1="32.2844" x2="138.836" y2="16.8867" gradientUnits="userSpaceOnUse">
<stop offset="0.003" stop-color="#FFCCFF"/>
<stop offset="1" stop-color="#FF99CC"/>
</linearGradient>
<linearGradient id="paint13_linear_101_2550" x1="126.181" y1="28.3584" x2="128.215" y2="26.3274" gradientUnits="userSpaceOnUse">
<stop stop-color="#FF6699"/>
<stop offset="0.997" stop-color="#FF99CC"/>
</linearGradient>
<linearGradient id="paint14_linear_101_2550" x1="101.62" y1="19.3889" x2="111.921" y2="12.907" gradientUnits="userSpaceOnUse">
<stop offset="0.003" stop-color="#FFCCFF"/>
<stop offset="1" stop-color="#FF99CC"/>
</linearGradient>
<linearGradient id="paint15_linear_101_2550" x1="99.5707" y1="21.0783" x2="104.665" y2="15.9915" gradientUnits="userSpaceOnUse">
<stop stop-color="#FF6699"/>
<stop offset="0.997" stop-color="#FF99CC"/>
</linearGradient>
<linearGradient id="paint16_linear_101_2550" x1="133.043" y1="24.1216" x2="145.448" y2="24.4721" gradientUnits="userSpaceOnUse">
<stop stop-color="#DEB7FD"/>
<stop offset="1" stop-color="#8280FE"/>
</linearGradient>
<linearGradient id="paint17_linear_101_2550" x1="142.914" y1="18.5455" x2="144.704" y2="18.5961" gradientUnits="userSpaceOnUse">
<stop stop-color="#DEB7FD"/>
<stop offset="1" stop-color="#8280FE"/>
</linearGradient>
<linearGradient id="paint18_linear_101_2550" x1="140.973" y1="20.9816" x2="142.762" y2="21.0322" gradientUnits="userSpaceOnUse">
<stop stop-color="#DEB7FD"/>
<stop offset="1" stop-color="#8280FE"/>
</linearGradient>
<linearGradient id="paint19_linear_101_2550" x1="92.2688" y1="119.56" x2="140.176" y2="71.7274" gradientUnits="userSpaceOnUse">
<stop stop-color="#66EDFF"/>
<stop offset="1" stop-color="#33C4FF"/>
</linearGradient>
<linearGradient id="paint20_linear_101_2550" x1="121.894" y1="73.4139" x2="106.35" y2="66.5852" gradientUnits="userSpaceOnUse">
<stop stop-color="#66DDFF"/>
<stop offset="1" stop-color="#2EACFF"/>
</linearGradient>
<linearGradient id="paint21_linear_101_2550" x1="142.832" y1="19.6602" x2="144.699" y2="17.7966" gradientUnits="userSpaceOnUse">
<stop stop-color="#DEB7FD"/>
<stop offset="1" stop-color="#8280FE"/>
</linearGradient>
<linearGradient id="paint22_linear_101_2550" x1="95.6297" y1="17.8089" x2="101.144" y2="23.3146" gradientUnits="userSpaceOnUse">
<stop stop-color="#D3CCFF"/>
<stop offset="1" stop-color="white"/>
</linearGradient>
<linearGradient id="paint23_linear_101_2550" x1="105.659" y1="61.4525" x2="102.387" y2="13.8382" gradientUnits="userSpaceOnUse">
<stop offset="0.001" stop-color="#FFFF99"/>
<stop offset="1" stop-color="#FF99CC"/>
</linearGradient>
<linearGradient id="paint24_linear_101_2550" x1="115.923" y1="74.1868" x2="104.241" y2="49.6154" gradientUnits="userSpaceOnUse">
<stop offset="0.001" stop-color="#FF99CC" stop-opacity="0"/>
<stop offset="1" stop-color="#FF6699"/>
</linearGradient>
<linearGradient id="paint25_linear_101_2550" x1="114.196" y1="60.8658" x2="110.923" y2="13.2515" gradientUnits="userSpaceOnUse">
<stop offset="0.001" stop-color="#FFFF99"/>
<stop offset="1" stop-color="#FF99CC"/>
</linearGradient>
<linearGradient id="paint26_linear_101_2550" x1="107.966" y1="45.1757" x2="114.624" y2="51.823" gradientUnits="userSpaceOnUse">
<stop stop-color="#D3CCFF"/>
<stop offset="1" stop-color="white"/>
</linearGradient>
<linearGradient id="paint27_linear_101_2550" x1="102.493" y1="14.2628" x2="109.096" y2="7.67021" gradientUnits="userSpaceOnUse">
<stop offset="0.001" stop-color="#333399"/>
<stop offset="0.997" stop-color="#333366"/>
</linearGradient>
<linearGradient id="paint28_linear_101_2550" x1="105.637" y1="8.59797" x2="107.701" y2="6.53683" gradientUnits="userSpaceOnUse">
<stop offset="0.001" stop-color="#333399"/>
<stop offset="0.997" stop-color="#330066"/>
</linearGradient>
<linearGradient id="paint29_linear_101_2550" x1="100.52" y1="17.6402" x2="110.822" y2="11.1582" gradientUnits="userSpaceOnUse">
<stop offset="0.003" stop-color="#FFCCFF"/>
<stop offset="1" stop-color="#FF99CC"/>
</linearGradient>
<linearGradient id="paint30_linear_101_2550" x1="102.239" y1="13.7133" x2="106.498" y2="9.4603" gradientUnits="userSpaceOnUse">
<stop stop-color="#FF6699"/>
<stop offset="0.997" stop-color="#FF99CC"/>
</linearGradient>
<linearGradient id="paint31_linear_101_2550" x1="95.8038" y1="14.7146" x2="105.003" y2="5.53016" gradientUnits="userSpaceOnUse">
<stop offset="0.001" stop-color="#333399"/>
<stop offset="0.997" stop-color="#333366"/>
</linearGradient>
<linearGradient id="paint32_linear_101_2550" x1="94.0775" y1="14.6771" x2="98.9014" y2="9.86075" gradientUnits="userSpaceOnUse">
<stop offset="0.001" stop-color="#333399"/>
<stop offset="0.997" stop-color="#330066"/>
</linearGradient>
<linearGradient id="paint33_linear_101_2550" x1="98.9717" y1="15.1803" x2="109.274" y2="8.69835" gradientUnits="userSpaceOnUse">
<stop offset="0.003" stop-color="#FFCCFF"/>
<stop offset="1" stop-color="#FF99CC"/>
</linearGradient>
<linearGradient id="paint34_linear_101_2550" x1="106.319" y1="13.8681" x2="107.263" y2="12.9254" gradientUnits="userSpaceOnUse">
<stop offset="0.001" stop-color="#333399"/>
<stop offset="0.997" stop-color="#330066"/>
</linearGradient>
<linearGradient id="paint35_linear_101_2550" x1="105.895" y1="14.1264" x2="107.405" y2="12.6188" gradientUnits="userSpaceOnUse">
<stop offset="0.006" stop-color="#D3CCFF"/>
<stop offset="1" stop-color="white"/>
</linearGradient>
<linearGradient id="paint36_linear_101_2550" x1="106.886" y1="13.7212" x2="107.687" y2="12.9213" gradientUnits="userSpaceOnUse">
<stop offset="0.001" stop-color="#333399"/>
<stop offset="0.997" stop-color="#330066"/>
</linearGradient>
<linearGradient id="paint37_linear_101_2550" x1="101.17" y1="18.6736" x2="111.472" y2="12.1917" gradientUnits="userSpaceOnUse">
<stop offset="0.003" stop-color="#FFCCFF"/>
<stop offset="1" stop-color="#FF99CC"/>
</linearGradient>
<linearGradient id="paint38_linear_101_2550" x1="105.992" y1="11.8785" x2="106.996" y2="10.8766" gradientUnits="userSpaceOnUse">
<stop offset="0.001" stop-color="#333399"/>
<stop offset="0.997" stop-color="#330066"/>
</linearGradient>
<linearGradient id="paint39_linear_101_2550" x1="104.105" y1="15.118" x2="105.319" y2="13.9063" gradientUnits="userSpaceOnUse">
<stop stop-color="#FF6699"/>
<stop offset="0.997" stop-color="#FF99CC"/>
</linearGradient>
<linearGradient id="paint40_linear_101_2550" x1="42.5269" y1="92.2603" x2="65.8191" y2="69.0045" gradientUnits="userSpaceOnUse">
<stop stop-color="#D3CCFF"/>
<stop offset="1" stop-color="white"/>
</linearGradient>
<linearGradient id="paint41_linear_101_2550" x1="82.2828" y1="86.0035" x2="93.0614" y2="75.2417" gradientUnits="userSpaceOnUse">
<stop stop-color="#D3CCFF"/>
<stop offset="1" stop-color="white"/>
</linearGradient>
<linearGradient id="paint42_linear_101_2550" x1="81.5943" y1="67.1338" x2="93.6197" y2="55.1272" gradientUnits="userSpaceOnUse">
<stop stop-color="#FFEC49"/>
<stop offset="1" stop-color="#FFC516"/>
</linearGradient>
<linearGradient id="paint43_linear_101_2550" x1="83.3376" y1="59.8329" x2="86.389" y2="56.7862" gradientUnits="userSpaceOnUse">
<stop stop-color="#FFEC49"/>
<stop offset="1" stop-color="#FFC516"/>
</linearGradient>
<linearGradient id="paint44_linear_101_2550" x1="88.947" y1="65.3144" x2="91.9984" y2="62.2678" gradientUnits="userSpaceOnUse">
<stop stop-color="#FFEC49"/>
<stop offset="1" stop-color="#FFC516"/>
</linearGradient>
<linearGradient id="paint45_linear_101_2550" x1="83.3468" y1="65.3054" x2="91.8617" y2="56.8038" gradientUnits="userSpaceOnUse">
<stop stop-color="#FFEC49"/>
<stop offset="1" stop-color="#FFC516"/>
</linearGradient>
<linearGradient id="paint46_linear_101_2550" x1="37.1013" y1="66.1613" x2="47.1818" y2="56.0966" gradientUnits="userSpaceOnUse">
<stop offset="0.026" stop-color="#A6FD90"/>
<stop offset="1" stop-color="#94FFFD"/>
</linearGradient>
<linearGradient id="paint47_linear_101_2550" x1="48.68" y1="66.1608" x2="58.7593" y2="56.0972" gradientUnits="userSpaceOnUse">
<stop stop-color="#FFEC49"/>
<stop offset="1" stop-color="#FFC516"/>
</linearGradient>
<linearGradient id="paint48_linear_101_2550" x1="35.0662" y1="101.753" x2="94.3513" y2="42.5609" gradientUnits="userSpaceOnUse">
<stop stop-color="#D3CCFF"/>
<stop offset="1" stop-color="white"/>
</linearGradient>
<linearGradient id="paint49_linear_101_2550" x1="-12.1267" y1="81.3811" x2="14.8386" y2="81.3811" gradientUnits="userSpaceOnUse">
<stop stop-color="#D3CCFF"/>
<stop offset="0.028" stop-color="#D4CDFF"/>
<stop offset="1" stop-color="white"/>
</linearGradient>
<linearGradient id="paint50_linear_101_2550" x1="52.9136" y1="81.3811" x2="65.2312" y2="81.3811" gradientUnits="userSpaceOnUse">
<stop stop-color="#D3CCFF"/>
<stop offset="0.028" stop-color="#D4CDFF"/>
<stop offset="1" stop-color="white"/>
</linearGradient>
<linearGradient id="paint51_linear_101_2550" x1="24.7559" y1="87.1039" x2="104.118" y2="87.1039" gradientUnits="userSpaceOnUse">
<stop stop-color="#D3CCFF"/>
<stop offset="0.028" stop-color="#D4CDFF"/>
<stop offset="1" stop-color="white"/>
</linearGradient>
<linearGradient id="paint52_linear_101_2550" x1="86.3211" y1="43.7151" x2="90.4414" y2="102.191" gradientUnits="userSpaceOnUse">
<stop stop-color="#FFEC49"/>
<stop offset="1" stop-color="#FFC516"/>
</linearGradient>
<linearGradient id="paint53_linear_101_2550" x1="82.3582" y1="67.2205" x2="92.9381" y2="56.6571" gradientUnits="userSpaceOnUse">
<stop stop-color="#FFEC49"/>
<stop offset="1" stop-color="#FFC516"/>
</linearGradient>
<linearGradient id="paint54_linear_101_2550" x1="62.8317" y1="130.802" x2="61.6594" y2="142.311" gradientUnits="userSpaceOnUse">
<stop stop-color="#FFEC49"/>
<stop offset="1" stop-color="#FFC516"/>
</linearGradient>
<linearGradient id="paint55_linear_101_2550" x1="70.1126" y1="127.911" x2="71.6757" y2="163.805" gradientUnits="userSpaceOnUse">
<stop stop-color="#FFEC49"/>
<stop offset="1" stop-color="#FFC516"/>
</linearGradient>
<linearGradient id="paint56_linear_101_2550" x1="66.672" y1="128.359" x2="58.859" y2="152.541" gradientUnits="userSpaceOnUse">
<stop stop-color="#FFEC49"/>
<stop offset="1" stop-color="#FFC516"/>
</linearGradient>
<linearGradient id="paint57_linear_101_2550" x1="91.7942" y1="105.188" x2="87.3015" y2="120.985" gradientUnits="userSpaceOnUse">
<stop offset="0.026" stop-color="#A6FD90"/>
<stop offset="1" stop-color="#94FFFD"/>
</linearGradient>
<linearGradient id="paint58_linear_101_2550" x1="95.8467" y1="128.924" x2="98.5145" y2="128.924" gradientUnits="userSpaceOnUse">
<stop stop-color="#FFEC49"/>
<stop offset="1" stop-color="#FFC516"/>
</linearGradient>
<linearGradient id="paint59_linear_101_2550" x1="78.1367" y1="129.752" x2="95.8463" y2="129.752" gradientUnits="userSpaceOnUse">
<stop stop-color="#FFEC49"/>
<stop offset="1" stop-color="#FFC516"/>
</linearGradient>
<linearGradient id="paint60_linear_101_2550" x1="101.556" y1="108.02" x2="96.8676" y2="137.279" gradientUnits="userSpaceOnUse">
<stop offset="0.026" stop-color="#A6FD90"/>
<stop offset="1" stop-color="#94FFFD"/>
</linearGradient>
<linearGradient id="paint61_linear_101_2550" x1="98.5007" y1="106.36" x2="83.6577" y2="144.774" gradientUnits="userSpaceOnUse">
<stop offset="0.026" stop-color="#A6FD90"/>
<stop offset="1" stop-color="#94FFFD"/>
</linearGradient>
<linearGradient id="paint62_linear_101_2550" x1="119.607" y1="108.792" x2="114.332" y2="130.637" gradientUnits="userSpaceOnUse">
<stop stop-color="#FFEC49"/>
<stop offset="1" stop-color="#FFC516"/>
</linearGradient>
<linearGradient id="paint63_linear_101_2550" x1="123.469" y1="132.211" x2="126.137" y2="132.211" gradientUnits="userSpaceOnUse">
<stop stop-color="#FFEC49"/>
<stop offset="1" stop-color="#FFC516"/>
</linearGradient>
<linearGradient id="paint64_linear_101_2550" x1="105.759" y1="133.039" x2="123.468" y2="133.039" gradientUnits="userSpaceOnUse">
<stop stop-color="#FFEC49"/>
<stop offset="1" stop-color="#FFC516"/>
</linearGradient>
<linearGradient id="paint65_linear_101_2550" x1="125.87" y1="111.822" x2="124.502" y2="146.155" gradientUnits="userSpaceOnUse">
<stop stop-color="#FFEC49"/>
<stop offset="1" stop-color="#FFC516"/>
</linearGradient>
<linearGradient id="paint66_linear_101_2550" x1="120.71" y1="126.094" x2="107.04" y2="156.119" gradientUnits="userSpaceOnUse">
<stop stop-color="#FFEC49"/>
<stop offset="1" stop-color="#FFC516"/>
</linearGradient>
<linearGradient id="paint67_linear_101_2550" x1="161.486" y1="90.1637" x2="145.091" y2="112.768" gradientUnits="userSpaceOnUse">
<stop stop-color="#66EDFF"/>
<stop offset="1" stop-color="#33C4FF"/>
</linearGradient>
<linearGradient id="paint68_linear_101_2550" x1="159.238" y1="94.8042" x2="151.423" y2="145.325" gradientUnits="userSpaceOnUse">
<stop stop-color="#66EDFF"/>
<stop offset="1" stop-color="#33C4FF"/>
</linearGradient>
<linearGradient id="paint69_linear_101_2550" x1="149.396" y1="93.2819" x2="141.582" y2="143.803" gradientUnits="userSpaceOnUse">
<stop stop-color="#66EDFF"/>
<stop offset="1" stop-color="#33C4FF"/>
</linearGradient>
<linearGradient id="paint70_linear_101_2550" x1="160.963" y1="95.071" x2="153.148" y2="145.592" gradientUnits="userSpaceOnUse">
<stop stop-color="#66EDFF"/>
<stop offset="1" stop-color="#33C4FF"/>
</linearGradient>
<linearGradient id="paint71_linear_101_2550" x1="165.39" y1="99.4982" x2="154.842" y2="135.579" gradientUnits="userSpaceOnUse">
<stop stop-color="#66EDFF"/>
<stop offset="1" stop-color="#33C4FF"/>
</linearGradient>
<linearGradient id="paint72_linear_101_2550" x1="151.122" y1="93.5489" x2="143.307" y2="144.07" gradientUnits="userSpaceOnUse">
<stop stop-color="#66EDFF"/>
<stop offset="1" stop-color="#33C4FF"/>
</linearGradient>
<linearGradient id="paint73_linear_101_2550" x1="152.455" y1="93.7551" x2="144.64" y2="144.276" gradientUnits="userSpaceOnUse">
<stop stop-color="#66EDFF"/>
<stop offset="1" stop-color="#33C4FF"/>
</linearGradient>
<linearGradient id="paint74_linear_101_2550" x1="156.477" y1="102.067" x2="136.359" y2="159.205" gradientUnits="userSpaceOnUse">
<stop stop-color="#66EDFF"/>
<stop offset="1" stop-color="#33C4FF"/>
</linearGradient>
<linearGradient id="paint75_linear_101_2550" x1="173.93" y1="116.07" x2="180.182" y2="85.8368" gradientUnits="userSpaceOnUse">
<stop offset="0.001" stop-color="#FF99CC" stop-opacity="0"/>
<stop offset="1" stop-color="#FF6699"/>
</linearGradient>
<linearGradient id="paint76_linear_101_2550" x1="183.93" y1="79.0232" x2="185.884" y2="138.326" gradientUnits="userSpaceOnUse">
<stop offset="0.001" stop-color="#FF99CC" stop-opacity="0"/>
<stop offset="1" stop-color="#FF6699"/>
</linearGradient>
<linearGradient id="paint77_linear_101_2550" x1="177.706" y1="100.185" x2="172.626" y2="161.828" gradientUnits="userSpaceOnUse">
<stop offset="0.001" stop-color="#FF99CC" stop-opacity="0"/>
<stop offset="1" stop-color="#FF6699"/>
</linearGradient>
<linearGradient id="paint78_linear_101_2550" x1="161.967" y1="58.9241" x2="172.44" y2="58.9241" gradientUnits="userSpaceOnUse">
<stop stop-color="#DEB7FD"/>
<stop offset="1" stop-color="#8280FE"/>
</linearGradient>
<linearGradient id="paint79_linear_101_2550" x1="140.26" y1="99.4374" x2="149.247" y2="43.6498" gradientUnits="userSpaceOnUse">
<stop stop-color="#DEB7FD"/>
<stop offset="1" stop-color="#8280FE"/>
</linearGradient>
<linearGradient id="paint80_linear_101_2550" x1="99.4856" y1="121.294" x2="135.034" y2="13.2542" gradientUnits="userSpaceOnUse">
<stop stop-color="#DEB7FD"/>
<stop offset="1" stop-color="#8280FE"/>
</linearGradient>
<linearGradient id="paint81_linear_101_2550" x1="164.576" y1="51.6344" x2="163.683" y2="68.9654" gradientUnits="userSpaceOnUse">
<stop offset="0.003" stop-color="#CD71DB" stop-opacity="0"/>
<stop offset="1" stop-color="#6241DC"/>
</linearGradient>
<linearGradient id="paint82_linear_101_2550" x1="44.6152" y1="93.7493" x2="92.0084" y2="93.7493" gradientUnits="userSpaceOnUse">
<stop stop-color="#DEB7FD"/>
<stop offset="1" stop-color="#8280FE"/>
</linearGradient>
<linearGradient id="paint83_linear_101_2550" x1="109.07" y1="121.953" x2="108.679" y2="53.6757" gradientUnits="userSpaceOnUse">
<stop stop-color="#DEB7FD"/>
<stop offset="1" stop-color="#8280FE"/>
</linearGradient>
<linearGradient id="paint84_linear_101_2550" x1="158.228" y1="61.8048" x2="183.522" y2="61.8048" gradientUnits="userSpaceOnUse">
<stop stop-color="#DEB7FD"/>
<stop offset="1" stop-color="#8280FE"/>
</linearGradient>
<linearGradient id="paint85_linear_101_2550" x1="168.889" y1="64.8761" x2="169.28" y2="44.5881" gradientUnits="userSpaceOnUse">
<stop stop-color="#DEB7FD"/>
<stop offset="1" stop-color="#8280FE"/>
</linearGradient>
</defs>
</svg>
