<svg width="48" height="48" viewBox="0 0 48 48" fill="none" xmlns="http://www.w3.org/2000/svg">
<g clip-path="url(#clip0_145_2811)">
<path d="M20.6128 9.24L23.9998 6L27.3868 9.24L29.4998 7.5L32.8868 10.74L31.1768 12.85L34.0198 14.5H38.7068L40.4068 17.5L38.7068 20.5H34.0198L31.1768 22.15L32.8868 24.26L29.4998 27.5L27.3868 25.76L23.9998 29L20.6128 25.76L18.4998 27.5L15.1128 24.26L16.8228 22.15L13.9798 20.5H9.29277L7.59277 17.5L9.29277 14.5H13.9798L16.8228 12.85L15.1128 10.74L18.4998 7.5L20.6128 9.24Z" fill="#8A63D2"/>
<path d="M24 22.5C26.7614 22.5 29 20.2614 29 17.5C29 14.7386 26.7614 12.5 24 12.5C21.2386 12.5 19 14.7386 19 17.5C19 20.2614 21.2386 22.5 24 22.5Z" fill="#F8F9FA"/>
<path d="M12.6128 29.24L15.9998 26L19.3868 29.24L21.4998 27.5L24.8868 30.74L23.1768 32.85L26.0198 34.5H30.7068L32.4068 37.5L30.7068 40.5H26.0198L23.1768 42.15L24.8868 44.26L21.4998 47.5L19.3868 45.76L15.9998 49L12.6128 45.76L10.4998 47.5L7.11277 44.26L8.82277 42.15L5.97977 40.5H1.29277L-0.407227 37.5L1.29277 34.5H5.97977L8.82277 32.85L7.11277 30.74L10.4998 27.5L12.6128 29.24Z" fill="#48D1CC"/>
<path d="M16 42.5C18.7614 42.5 21 40.2614 21 37.5C21 34.7386 18.7614 32.5 16 32.5C13.2386 32.5 11 34.7386 11 37.5C11 40.2614 13.2386 42.5 16 42.5Z" fill="#F8F9FA"/>
</g>
<defs>
<clipPath id="clip0_145_2811">
<rect width="48" height="48" fill="white"/>
</clipPath>
</defs>
</svg>
