<svg width="34" height="40" viewBox="0 0 34 40" fill="none" xmlns="http://www.w3.org/2000/svg">
<path d="M33.75 10.3298V29.6709L17 39.3415L0.25 29.6709V10.3298L17 0.65918L33.75 10.3298ZM2.2169 11.4649V28.5351L17 37.0705L31.7831 28.5351V11.4649L17 2.92956L2.2169 11.4649Z" fill="url(#paint0_linear_158_5541)"/>
<path d="M17.7185 29.5061L20.0001 11.1484H22.9373L20.682 29.5061H17.7185ZM8.01514 25.3101V22.4515H24.9567V25.3101H8.01514ZM10.9261 29.5061L13.2077 11.1484H16.145L13.8634 29.5061H10.9261ZM8.9068 18.203V15.3445H25.8221L25.8483 18.203H8.9068Z" fill="url(#paint1_linear_158_5541)"/>
<defs>
<linearGradient id="paint0_linear_158_5541" x1="-4.89195e-08" y1="37.0002" x2="37" y2="10.5002" gradientUnits="userSpaceOnUse">
<stop stop-color="#156DAE"/>
<stop offset="0.576923" stop-color="#77B5FD"/>
<stop offset="1" stop-color="#CAE3FF"/>
</linearGradient>
<linearGradient id="paint1_linear_158_5541" x1="27.8152" y1="11.1484" x2="7.49063" y2="28.1949" gradientUnits="userSpaceOnUse">
<stop offset="0.0262936" stop-color="#E3F3FF"/>
<stop offset="0.380813" stop-color="#90C4EA"/>
<stop offset="0.801772" stop-color="#037EBC"/>
</linearGradient>
</defs>
</svg>
