<svg width="156" height="18" viewBox="0 0 156 18" fill="none" xmlns="http://www.w3.org/2000/svg">
<path d="M141.262 3.97742C141.939 3.97742 142.597 4.09355 143.236 4.3258C143.894 4.55806 144.523 4.89677 145.123 5.34193C145.22 5.43871 145.326 5.53548 145.442 5.63226C145.539 5.53548 145.645 5.43871 145.762 5.34193C146.362 4.89677 146.981 4.55806 147.62 4.3258C148.278 4.09355 148.936 3.97742 149.594 3.97742C150.271 3.97742 150.929 4.09355 151.568 4.3258C152.226 4.55806 152.845 4.90645 153.426 5.37097C154.026 5.81613 154.549 6.41613 154.994 7.17097C155.458 7.9258 155.691 8.8258 155.691 9.87097V16.0548C155.574 17.2161 154.936 17.8452 153.774 17.9419C153.233 17.9419 152.758 17.7677 152.352 17.4194C151.965 17.0516 151.771 16.5968 151.771 16.0548V10.1032C151.771 9.63871 151.684 9.25161 151.51 8.94193C151.336 8.6129 151.142 8.36129 150.929 8.18709C150.716 7.99355 150.494 7.85806 150.262 7.78064C150.029 7.68387 149.797 7.63548 149.565 7.63548C149.333 7.63548 149.1 7.68387 148.868 7.78064C148.655 7.85806 148.442 7.99355 148.229 8.18709C148.016 8.36129 147.823 8.6129 147.649 8.94193C147.474 9.25161 147.378 9.63871 147.358 10.1032V16.0548C147.242 17.2161 146.603 17.8452 145.442 17.9419C144.9 17.9419 144.426 17.7677 144.02 17.4194C143.633 17.0516 143.439 16.5968 143.439 16.0548V10.1032C143.439 9.63871 143.352 9.25161 143.178 8.94193C143.003 8.6129 142.81 8.36129 142.597 8.18709C142.384 7.99355 142.162 7.85806 141.929 7.78064C141.697 7.68387 141.465 7.63548 141.233 7.63548C141 7.63548 140.768 7.68387 140.536 7.78064C140.323 7.85806 140.11 7.99355 139.897 8.18709C139.684 8.36129 139.491 8.6129 139.316 8.94193C139.142 9.25161 139.045 9.63871 139.026 10.1032V16.0548C138.929 17.2161 138.3 17.8452 137.139 17.9419C136.597 17.9419 136.123 17.7677 135.716 17.4194C135.329 17.0516 135.136 16.5968 135.136 16.0548V9.87097C135.174 8.8258 135.416 7.9258 135.862 7.17097C136.307 6.41613 136.829 5.81613 137.429 5.37097C138.029 4.90645 138.649 4.55806 139.287 4.3258C139.945 4.09355 140.603 3.97742 141.262 3.97742Z" fill="#00AAFF"/>
<path d="M127.441 16.0548V9.05806C127.441 8.57419 127.19 8.32258 126.687 8.30323H116.525C116.158 8.32258 115.838 8.4871 115.567 8.79677C115.296 9.0871 115.093 9.43548 114.958 9.84194C114.841 10.229 114.783 10.6258 114.783 11.0323C114.783 11.4194 114.841 11.8161 114.958 12.2226C115.093 12.6097 115.296 12.9581 115.567 13.2677C115.838 13.5581 116.158 13.7032 116.525 13.7032H123.958C124.499 13.7032 124.954 13.8968 125.322 14.2839C125.709 14.6516 125.903 15.1065 125.903 15.6484C125.903 16.1903 125.709 16.6452 125.322 17.0129C124.954 17.4 124.499 17.5935 123.958 17.5935H116.641C115.287 17.5742 114.164 17.1968 113.274 16.4613C112.403 15.7065 111.774 14.8645 111.387 13.9355C111.019 12.9871 110.835 12.0097 110.835 11.0032C110.835 10.0355 111.029 9.0871 111.416 8.15806C111.803 7.20968 112.432 6.36774 113.303 5.63226C114.174 4.87742 115.461 4.47097 117.164 4.4129H129.358C129.899 4.4129 130.364 4.59677 130.751 4.96452C131.138 5.3129 131.341 5.75806 131.361 6.3V16.0548C131.361 16.5968 131.158 17.0516 130.751 17.4194C130.364 17.7677 129.899 17.9419 129.358 17.9419C128.196 17.8452 127.558 17.2161 127.441 16.0548Z" fill="#00AAFF"/>
<path d="M102.242 0.464508C103.597 0.541927 104.71 1.06451 105.581 2.03225C106.452 2.98064 107.081 4.06451 107.468 5.28386C107.855 6.50322 108.048 7.7516 108.048 9.02902C108.048 10.3064 107.855 11.5548 107.468 12.7742C107.1 13.9935 106.471 15.0871 105.581 16.0548C104.71 17.0032 103.597 17.5161 102.242 17.5935H91.558C91.0354 17.5742 90.5903 17.3903 90.2225 17.0419C89.8741 16.6742 89.6903 16.229 89.6709 15.7064V8.50644C89.6903 7.96451 89.8935 7.51935 90.2806 7.17096C90.6677 6.80322 91.1322 6.61935 91.6741 6.61935C92.1967 6.6387 92.6419 6.83225 93.0096 7.19999C93.3773 7.54838 93.5709 7.98386 93.5903 8.50644V12.9193C93.5903 13.4419 93.8612 13.7032 94.4032 13.7032H101.255C101.99 13.6645 102.6 13.3839 103.084 12.8613C103.568 12.3387 103.916 11.7484 104.129 11.0903C104.361 10.4129 104.477 9.7258 104.477 9.02902C104.477 8.33225 104.361 7.65483 104.129 6.99677C103.916 6.31935 103.568 5.71935 103.084 5.19677C102.6 4.67419 101.99 4.39354 101.255 4.35483H91.558C90.3967 4.25806 89.7677 3.62902 89.6709 2.46773C89.6709 1.9258 89.8451 1.46128 90.1935 1.07419C90.5612 0.687089 91.0161 0.483863 91.558 0.464508H102.242Z" fill="#00AAFF"/>
<path d="M69.2317 0C69.7543 0.0193548 70.1995 0.212903 70.5672 0.580645C70.935 0.929032 71.1285 1.36452 71.1479 1.8871V4.4129H80.1479C81.5027 4.43226 82.6156 4.81935 83.4866 5.57419C84.3769 6.30968 85.0059 7.14194 85.3737 8.07097C85.7608 9.01935 85.9543 9.99677 85.9543 11.0032H85.9834V16.0548C85.9834 16.5968 85.7801 17.0516 85.3737 17.4194C84.9866 17.7677 84.5221 17.9419 83.9801 17.9419C82.8188 17.8452 82.1801 17.2161 82.064 16.0548V10.9742C82.064 10.6065 81.9866 10.2194 81.8317 9.8129C81.6963 9.40645 81.493 9.05806 81.2221 8.76774C80.9511 8.45806 80.6317 8.30323 80.264 8.30323H71.1479V16.1129C71.0317 17.2742 70.393 17.9032 69.2317 18C68.6898 18 68.2156 17.8258 67.8092 17.4774C67.4221 17.1097 67.2285 16.6548 67.2285 16.1129V1.8871C67.2479 1.34516 67.4511 0.9 67.8382 0.551613C68.2253 0.183871 68.6898 0 69.2317 0Z" fill="#0066CC"/>
<path d="M63.5128 6.09676C63.5128 6.58063 63.3193 6.98709 62.9322 7.31612C62.5644 7.6258 62.1096 7.78063 61.5677 7.78063H49.287C49.0354 7.78063 48.8322 7.82902 48.6774 7.9258C48.5225 8.02257 48.4064 8.12902 48.329 8.24515C48.2515 8.34193 48.2128 8.42902 48.2128 8.50644C48.2128 8.60322 48.2515 8.70967 48.329 8.8258C48.4064 8.92257 48.5225 9.01934 48.6774 9.11612C48.8322 9.19354 49.0354 9.24193 49.287 9.26128H58.7806C59.9999 9.28063 61.0064 9.52257 61.7999 9.98709C62.5935 10.4322 63.1548 10.9645 63.4838 11.5839C63.8322 12.1839 64.0064 12.7935 64.0064 13.4129C64.0064 14.0129 63.8322 14.6226 63.4838 15.2419C63.1354 15.8419 62.5644 16.3742 61.7709 16.8387C60.9967 17.2839 59.9999 17.5064 58.7806 17.5064C58.5677 17.5258 58.4128 17.5355 58.3161 17.5355H47.0515C46.5096 17.5355 46.0451 17.3806 45.658 17.071C45.2903 16.7419 45.1064 16.3452 45.1064 15.8806C45.1064 15.3968 45.2999 14.9903 45.687 14.6613C46.0548 14.3516 46.5096 14.1968 47.0515 14.1968H59.0128C59.3032 14.2161 59.5354 14.1774 59.7096 14.0806C59.9032 13.9839 60.0483 13.8774 60.1451 13.7613C60.2419 13.6452 60.2903 13.529 60.2903 13.4129C60.2903 13.3548 60.2419 13.2581 60.1451 13.1226C60.0483 12.9677 59.9032 12.8516 59.7096 12.7742C59.5354 12.6774 59.3032 12.6193 59.0128 12.6H49.4903C48.3677 12.5806 47.4386 12.3484 46.7032 11.9032C45.9677 11.4387 45.4451 10.9064 45.1354 10.3064C44.8257 9.70644 44.6709 9.10644 44.6709 8.50644C44.6709 7.90644 44.8257 7.31612 45.1354 6.73547C45.4644 6.13547 45.987 5.62257 46.7032 5.19676C47.4386 4.7516 48.3677 4.50967 49.4903 4.47096C49.6838 4.4516 49.829 4.44193 49.9257 4.44193H61.5677C62.1096 4.44193 62.5644 4.60644 62.9322 4.93547C63.3193 5.24515 63.5128 5.63225 63.5128 6.09676Z" fill="#0066CC"/>
<path d="M37.4131 16.0548V9.05806C37.4131 8.57419 37.1615 8.32258 36.6583 8.30323H26.497C26.1292 8.32258 25.8099 8.4871 25.5389 8.79677C25.2679 9.0871 25.0647 9.43548 24.9292 9.84194C24.8131 10.229 24.755 10.6258 24.755 11.0323C24.755 11.4194 24.8131 11.8161 24.9292 12.2226C25.0647 12.6097 25.2679 12.9581 25.5389 13.2677C25.8099 13.5581 26.1292 13.7032 26.497 13.7032H33.9292C34.4712 13.7032 34.926 13.8968 35.2937 14.2839C35.6808 14.6516 35.8744 15.1065 35.8744 15.6484C35.8744 16.1903 35.6808 16.6452 35.2937 17.0129C34.926 17.4 34.4712 17.5935 33.9292 17.5935H26.6131C25.2583 17.5742 24.1357 17.1968 23.2454 16.4613C22.3744 15.7065 21.7454 14.8645 21.3583 13.9355C20.9905 12.9871 20.8066 12.0097 20.8066 11.0032C20.8066 10.0355 21.0002 9.0871 21.3873 8.15806C21.7744 7.20968 22.4034 6.36774 23.2744 5.63226C24.1454 4.87742 25.4324 4.47097 27.1357 4.4129H39.3292C39.8712 4.4129 40.3357 4.59677 40.7228 4.96452C41.1099 5.3129 41.3131 5.75806 41.3324 6.3V16.0548C41.3324 16.5968 41.1292 17.0516 40.7228 17.4194C40.3357 17.7677 39.8712 17.9419 39.3292 17.9419C38.1679 17.8452 37.5292 17.2161 37.4131 16.0548Z" fill="#0066CC"/>
<path d="M2.3128 0C2.83538 0.0193548 3.28054 0.212903 3.64828 0.580645C4.01602 0.929032 4.20957 1.36452 4.22892 1.8871V6.73548H13.6644V1.8871C13.6838 1.34516 13.887 0.9 14.2741 0.551613C14.6612 0.183871 15.1257 0 15.6676 0C16.1902 0.0193548 16.6354 0.212903 17.0031 0.580645C17.3709 0.929032 17.5644 1.36452 17.5838 1.8871V16.1129C17.4676 17.2742 16.8289 17.9032 15.6676 18C15.1257 18 14.6515 17.8258 14.2451 17.4774C13.858 17.1097 13.6644 16.6548 13.6644 16.1129V10.6258H4.22892V16.1129C4.1128 17.2742 3.47409 17.9032 2.3128 18C1.77086 18 1.29667 17.8258 0.890215 17.4774C0.503119 17.1097 0.30957 16.6548 0.30957 16.1129V1.8871C0.328925 1.34516 0.532151 0.9 0.919248 0.551613C1.30634 0.183871 1.77086 0 2.3128 0Z" fill="#0066CC"/>
</svg>
