<svg width="35" height="35" viewBox="0 0 35 35" fill="none" xmlns="http://www.w3.org/2000/svg">
<path d="M17.5002 34.6249C26.8199 34.6249 34.3749 27.0699 34.3749 17.7502C34.3749 8.43056 26.8199 0.875488 17.5002 0.875488C8.18056 0.875488 0.625488 8.43056 0.625488 17.7502C0.625488 27.0699 8.18056 34.6249 17.5002 34.6249Z" fill="#BA9F33"/>
<path fill-rule="evenodd" clip-rule="evenodd" d="M7.47798 15.8483C7.37711 15.7562 7.27055 15.6639 7.17253 15.5717C7.07451 15.4796 6.97384 15.3873 6.87297 15.2952L6.57322 15.0102C6.52421 14.9612 6.47235 14.9181 6.42335 14.8689C6.37434 14.8258 6.31678 14.7768 6.26777 14.7335C5.87001 14.356 5.46996 13.9786 5.0777 13.601C5.48402 13.9727 5.88178 14.3418 6.2881 14.719L6.42923 14.8604C6.47824 14.9092 6.5301 14.9525 6.57911 15.0015L6.87867 15.2781C6.97954 15.3702 7.07755 15.4625 7.17842 15.563C7.27929 15.6635 7.3773 15.756 7.47817 15.8479L7.47798 15.8483ZM2.19892 15.7913C2.19892 15.7913 3.64543 15.941 4.3515 16.0419C5.00552 16.1342 7.05153 16.4482 7.05153 16.4482L2.19892 15.7913ZM2.19892 15.7913C2.60524 15.8259 3.01155 15.869 3.41787 15.9123C3.6253 15.9325 3.82418 15.9555 4.02307 15.9756L4.32832 16.0104C4.42919 16.0246 4.52721 16.039 4.62807 16.0535L5.83847 16.2465L6.44348 16.3473C6.64237 16.3819 6.84125 16.4195 7.04868 16.4541C6.8498 16.434 6.64237 16.4051 6.44348 16.3762L5.83847 16.2898L4.62807 16.1112C4.52721 16.0968 4.42919 16.0765 4.32832 16.0622L4.02288 16.0271C3.82399 16.0069 3.61656 15.9781 3.41768 15.9549C3.01136 15.9061 2.60505 15.854 2.19873 15.7908L2.19892 15.7913ZM6.90754 16.8251C6.90754 16.8251 5.36301 17.2171 4.84139 17.367C4.32851 17.5082 2.77525 17.9808 2.77525 17.9808L6.90735 16.8253L6.90754 16.8251Z" fill="#CFB66C"/>
<path fill-rule="evenodd" clip-rule="evenodd" d="M6.90812 16.8252C6.56525 16.9261 6.22428 17.0241 5.87647 17.1164L4.84482 17.393C4.50195 17.4939 4.16098 17.5919 3.81906 17.6928L3.30618 17.8339C3.13617 17.8829 2.96331 17.926 2.7876 17.9752C2.95742 17.9182 3.13047 17.8599 3.30048 17.8109L3.81336 17.6468C4.15623 17.54 4.4972 17.4392 4.83912 17.3326C5.18769 17.2462 5.53075 17.1538 5.87932 17.0702C6.2106 16.9867 6.55936 16.9033 6.90812 16.8254V16.8252ZM2.99218 18.9319C3.162 18.8684 5.12158 17.9551 5.57691 17.7418C5.80485 17.635 6.46742 17.3998 6.46742 17.3998L2.99218 18.9319Z" fill="#CFB66C"/>
<path fill-rule="evenodd" clip-rule="evenodd" d="M2.99189 18.9317C3.14157 18.8747 3.2829 18.805 3.42689 18.7387L3.85334 18.5398L4.70928 18.1278C4.99421 17.9923 5.27117 17.8428 5.56503 17.7156C5.71491 17.6523 5.86478 17.6005 6.01447 17.5515L6.24241 17.4795C6.32011 17.4593 6.39229 17.4362 6.47036 17.416C6.18543 17.5515 5.88549 17.6668 5.60017 17.7992C5.31524 17.9405 5.02385 18.0558 4.72979 18.1825L3.85961 18.5656C3.56746 18.684 3.28252 18.8107 2.9917 18.9317H2.99189ZM3.18184 19.7295C3.18184 19.7295 4.95679 18.6893 5.56769 18.355C5.88758 18.1764 6.92208 17.6633 6.92208 17.6633L3.18184 19.7295Z" fill="#CFB66C"/>
<path fill-rule="evenodd" clip-rule="evenodd" d="M3.18164 19.7298C3.4812 19.5454 3.78665 19.3581 4.09209 19.1679L4.54798 18.8912C4.70356 18.799 4.85343 18.7126 5.01204 18.6205C5.16762 18.5281 5.31749 18.436 5.47591 18.3496C5.55133 18.303 5.63035 18.2626 5.71222 18.2286L5.95422 18.1076C6.2741 17.952 6.59399 17.7934 6.93116 17.658C6.62571 17.8511 6.31152 18.0155 5.99753 18.1853C5.84196 18.2717 5.68334 18.3496 5.52777 18.436C5.3722 18.5224 5.22232 18.6148 5.06371 18.6983C4.90814 18.7905 4.75826 18.8769 4.59984 18.9605L4.13008 19.2169L3.18202 19.7298H3.18164ZM6.90741 17.8912C6.90741 17.8912 5.80378 18.7384 5.44647 19.0093C5.08917 19.2802 4.03739 20.041 4.03739 20.041L6.90741 17.8912Z" fill="#CFB66C"/>
<path fill-rule="evenodd" clip-rule="evenodd" d="M13.2415 24.7235L12.6768 23.6544L13.0052 22.3173L15.3479 21.4126L14.3508 19.3667L14.8436 17.3006L15.7687 15.4504L18.6274 15.001L20.7279 12.9983L25.2637 13.3412L26.154 18.1909L24.4395 24.2971L23.4627 27.4583L19.5032 27.6082L17.6648 26.3345L15.5122 25.4353L13.2415 24.7235Z" fill="#E2CC85"/>
<path fill-rule="evenodd" clip-rule="evenodd" d="M20.186 24.689C20.186 24.689 19.6384 24.9397 18.7044 24.882C18.4341 24.519 16.541 24.349 16.541 24.349C16.541 24.349 16.3047 24.277 15.8868 24.4498C15.4662 24.6208 15.0685 24.5997 14.6967 24.6918C14.325 24.784 13.9559 24.3 13.671 24.1991C13.3861 24.0925 13.0082 23.8361 13.0082 23.8361L12.2104 23.7582L10.6083 23.081L8.06315 20.5453L7.37152 21.628L7.1582 22.968L7.92771 24.5558L9.99954 26.4432L14.0395 27.469L16.4341 26.7635L19.4338 25.4955L20.186 24.6888V24.689Z" fill="#F1D789"/>
<path fill-rule="evenodd" clip-rule="evenodd" d="M5.83322 15.7274L6.34611 14.1744L6.95721 13.1714L8.92518 13.0071L8.33441 14.7304L6.68918 17.6581L7.37208 20.2717L6.16185 20.8768L5.78991 20.3063L5.49035 18.9981L5.47021 17.5284L5.83322 15.7274Z" fill="#F4ECB4"/>
<path fill-rule="evenodd" clip-rule="evenodd" d="M8.04045 24.5825L7.663 24.0552C7.663 24.0552 7.56214 23.8044 7.61988 23.5854C7.67687 23.3635 7.6687 23.3491 7.64002 23.2655C7.61134 23.1819 7.36914 22.8938 7.38358 22.6459C7.39783 22.3951 7.36344 22.3116 7.5477 22.1129C7.7407 21.9199 7.68314 21.5855 7.68314 21.5855L7.93388 21.7411L7.99087 21.6547C7.99087 21.6547 8.083 21.7267 8.083 21.8391C8.10313 21.6836 8.01955 20.9631 8.2097 20.7989C8.39984 20.6348 8.73701 21.5683 8.73701 21.5683L8.52958 20.2139L7.99638 18.8251L7.04831 17.5571L6.99132 16.1595V16.0385C6.99132 16.0385 6.55613 16.7071 6.43513 17.2352C6.3487 17.5982 6.55613 18.0391 6.51301 18.5607C6.47825 19.0795 6.43513 19.039 6.56183 19.2445C6.68853 19.4501 6.99702 19.8727 6.87602 20.1782C6.76945 20.4405 6.40626 20.256 6.40626 20.256C6.40626 20.256 6.33426 20.4692 6.23625 20.5471C6.20167 20.4204 6.16425 20.3396 6.09511 20.2621C6.08922 20.3111 6.07497 20.3774 6.07497 20.3774C6.07497 20.3774 6.01153 20.1785 5.94808 19.9278C5.86184 19.5937 5.76952 19.1528 5.68594 18.9165C5.65137 19.0519 5.56494 19.4639 5.56494 19.4639L5.61395 20.098L5.85026 20.9682L6.0782 21.5381L6.30007 22.2354L6.49288 22.7038L6.64845 23.0611L6.78389 23.8652L7.43791 24.5566L7.78666 24.7124L8.04007 24.5827L8.04045 24.5825Z" fill="#F3E19D"/>
<path fill-rule="evenodd" clip-rule="evenodd" d="M6.1756 14.4594C6.1756 14.4594 5.70583 15.2572 5.57058 16.0615C5.43533 16.8658 5.31414 17.7156 5.39962 18.8105C5.48605 19.9144 5.65037 20.5914 5.78296 21.0756C6.0109 21.8796 6.60129 22.9977 6.60129 22.9977L6.62143 22.9544C6.52219 22.7663 6.44299 22.5683 6.38512 22.3636C6.30724 22.0582 6.27836 21.6952 6.20637 21.5309C6.14292 21.3668 6.03636 21.2254 5.9845 21.0237C5.93549 20.8307 5.92751 20.5252 5.77707 20.2977C5.71362 20.2054 5.63574 19.9634 5.61275 19.7214C5.58388 19.3582 5.62719 18.9518 5.59262 18.6177C5.52917 18.0615 5.48605 17.6841 5.54361 17.3929C5.60117 17.1017 5.90111 16.275 6.08556 15.6179C6.20656 15.1972 6.13438 14.8427 6.35625 14.4767C6.57812 14.1137 6.71375 13.7938 6.76256 13.5719C6.81955 13.3702 6.17484 14.4594 6.17484 14.4594H6.1756Z" fill="#F2E8B0"/>
<path fill-rule="evenodd" clip-rule="evenodd" d="M8.40333 14.1395C8.40333 14.1395 8.16133 14.2117 8.04602 14.3384C7.93072 14.4594 7.88171 14.5603 7.72613 14.7649C7.57056 14.9694 7.56182 15.1366 7.43492 15.393C7.30822 15.6438 7.0286 16.0212 6.99403 16.1566C6.95946 16.2921 6.9019 16.9259 6.82991 17.2257C6.76646 17.5254 6.9019 17.8943 6.9019 17.8943L7.06602 17.8596C7.06602 17.8596 7.06602 18.0729 7.23034 18.2171C7.39446 18.3582 7.42334 17.7386 7.42334 17.7386L8.03709 15.6667L8.962 15.0386L9.06287 14.5314L8.40295 14.1395H8.40333Z" fill="#F5EEC0"/>
<path fill-rule="evenodd" clip-rule="evenodd" d="M8.85247 15.0791C8.85247 15.0791 8.41729 15.1078 8.20417 15.2635C8.11774 15.3268 8.08317 15.3786 7.99104 15.4565C7.82103 15.5977 7.64798 15.7274 7.5646 15.9124C7.47228 16.0967 7.37141 16.3763 7.30227 16.9036C7.2734 17.1255 7.2734 17.3301 7.25326 17.5088C7.22439 17.7508 7.18127 17.9438 7.20426 18.0787C7.23313 18.3552 7.51844 18.4994 7.54617 18.8134L8.13692 18.5139L8.6931 16.3208L9.87461 15.58L9.20598 14.8308L8.85171 15.0778L8.85247 15.0791Z" fill="#E6DB9D"/>
<path fill-rule="evenodd" clip-rule="evenodd" d="M5.73603 29.8464C5.7385 29.8247 5.74097 29.8031 5.74344 29.7808C5.82968 29.04 5.84431 28.4785 5.90756 28.1269C5.99969 27.6284 6.06314 27.443 6.0487 27.2565C6.02856 26.9569 6.00558 26.7379 6.03445 26.5073C6.07757 26.2019 6.37733 25.8389 6.36878 25.5881C6.36289 25.3892 6.26202 25.2597 6.17559 25.1387C6.08916 25.0177 6.02002 24.9168 6.02002 24.9168C6.02002 24.9168 6.61078 24.5105 6.60508 22.8737C6.61715 22.8771 6.62876 22.8819 6.63966 22.8881L6.93067 23.715L7.12956 23.957L7.89318 25.3805L8.87583 26.3345L10.3281 27.3112L11.2387 28.3022L11.3308 30.9447L10.1408 32.4892L9.94586 32.8422C8.39747 32.0648 6.97759 31.0544 5.73584 29.8462L5.73603 29.8464Z" fill="#E5CB7A"/>
<path fill-rule="evenodd" clip-rule="evenodd" d="M9.37158 32.3743C9.37158 32.3743 9.39172 32.0458 9.66259 31.8325C9.7059 31.9045 9.73459 31.9738 9.72604 32.0255C9.77505 31.9393 10.1179 31.3859 10.8931 31.2418C11.6683 31.1006 11.8556 30.5359 11.8556 30.5359L13.5008 29.0404L15.3825 27.3085L17.6705 26.5044L18.7398 26.2421C18.7398 26.2421 18.7599 26.32 18.7197 26.4929C18.9184 26.4786 19.3592 26.3777 19.8174 26.2163C20.0019 26.1443 20.1749 26.1154 20.267 26.2106C20.4025 26.3373 20.4226 26.637 20.4312 26.8156C20.653 26.7666 20.9095 26.5535 21.115 26.5736C21.4436 26.6082 21.7346 26.9943 22.069 26.9943C22.5098 26.9943 22.7085 26.7235 23.017 26.5101C23.2015 26.3834 23.4665 26.2252 23.6163 26.1183C23.9736 25.8559 27.7543 24.7004 27.7543 24.7004L29.0798 24.7869L29.2931 26.2104L29.1792 29.9316C29.1651 29.9451 29.1511 29.9592 29.1368 29.9727L23.1099 33.1204L14.7557 34.4011C12.8843 34.0953 11.0784 33.4742 9.41489 32.564L9.37215 32.3741L9.37158 32.3743Z" fill="#D8C173"/>
<path fill-rule="evenodd" clip-rule="evenodd" d="M6.24316 30.3197C6.36189 30.0714 6.46864 29.8638 6.48745 29.7896C6.50226 29.9392 6.52943 30.2677 6.58413 30.6168C6.46927 30.5192 6.35562 30.4201 6.24316 30.3195V30.3197Z" fill="#F1D789"/>
<path fill-rule="evenodd" clip-rule="evenodd" d="M12.3451 33.8218L13.4256 33.5213L13.5177 33.5502C13.5177 33.5502 13.5667 33.5791 13.5667 33.6769C13.7021 33.5992 13.8174 33.6135 13.901 33.5618C13.9441 33.6539 13.9873 33.9594 14.1776 33.9968C14.3763 34.0401 14.5896 33.9104 14.8058 33.7462C15.0189 33.5762 15.2617 33.3629 15.4454 33.2765C15.5128 33.4004 15.5725 33.5283 15.6241 33.6596C15.8661 33.4666 16.2869 32.6829 16.8862 32.6971C17.0594 32.2877 17.3488 31.9381 17.7186 31.6915C18.2748 31.314 18.6233 31.2851 19.0585 31.3197C19.2314 31.0952 19.4444 30.9047 19.6867 30.7578C19.7587 30.7867 19.9576 30.9077 20.2055 30.7924C20.4562 30.6773 20.7385 30.2305 21.1103 30.173C21.3106 30.1454 21.5143 30.1881 21.6866 30.294C21.6866 30.294 22.7693 29.219 23.5164 28.8617C23.4876 28.7752 23.43 28.4497 24.3059 27.7292C24.3549 27.7725 24.3203 27.8935 24.3549 27.9001C24.3692 27.9001 24.5829 27.808 24.8534 27.6004C25.1877 27.3498 25.5881 27.0875 25.8301 27.0155C26.286 26.88 26.7696 27.1566 26.7696 27.1566C26.8108 27.1278 26.8566 27.1063 26.9051 27.0932C27.0202 27.073 27.1038 27.0586 27.1672 27.0362C27.1615 27.1861 27.2451 27.4425 27.1672 27.6644C27.2574 27.7151 27.353 27.7557 27.4522 27.7854C27.4033 27.892 27.2966 28.1628 27.118 28.2926C27.2677 28.3646 27.2879 28.4481 27.5012 28.5205C27.4147 28.6415 27.2732 28.8491 27.2102 28.9764C27.1467 29.1119 26.919 29.6737 26.8181 29.8869C26.7115 30.1002 26.5675 30.4921 26.4982 30.5707C26.4289 30.6494 26.1783 30.9827 25.9853 31.1469C26.1563 31.0834 26.8557 30.8703 27.1524 30.7896C27.0641 30.9191 26.6164 31.5834 26.1859 32.2222C24.125 33.4575 21.8244 34.2393 19.4376 34.5156C17.0507 34.792 14.6324 34.5564 12.3438 33.8247L12.3451 33.8218Z" fill="#E0CD81"/>
<path fill-rule="evenodd" clip-rule="evenodd" d="M8.9236 15.001C8.9236 15.001 8.67304 15.001 8.62403 15.0356C8.57502 15.0702 8.87478 15.1424 8.96691 15.1769C9.05904 15.2115 9.25793 15.3699 9.30979 15.4968C9.3588 15.6178 11.1108 16.3237 11.1108 16.3237L12.3499 16.2602L12.7771 15.6701L11.9645 14.9583L12.5344 13.2783L11.7795 13.3993L9.96401 14.4821L9.05334 14.8308L8.9236 15.001Z" fill="#DFC57C"/>
<path fill-rule="evenodd" clip-rule="evenodd" d="M11.6449 15.5573C11.6628 15.5863 11.6881 15.6101 11.7181 15.6263C11.7481 15.6424 11.7818 15.6504 11.8159 15.6494C12.0723 15.6494 12.3084 15.7129 12.4064 15.8424C12.5708 16.0501 13.0261 16.7128 13.0261 16.7128L14.1153 17.1047L14.1856 15.8221L12.9955 14.9952L11.6411 15.4937V15.5571H11.6442L11.6449 15.5573Z" fill="#E5CC7C"/>
<path fill-rule="evenodd" clip-rule="evenodd" d="M11.4311 16.0328C11.4311 16.0328 11.6298 16.0473 11.8806 15.955C12.1313 15.8626 12.5433 15.664 12.7221 15.7418C12.9726 15.8484 12.9208 16.1827 13.1918 16.4827C13.3559 16.6671 13.6557 16.6614 13.8257 16.8603C13.9957 17.0592 14.5806 16.9669 14.5806 16.9669L14.8025 18.1636L13.9121 19.3048L13.6209 20.7225H12.417L11.3171 20.2861L10.7754 18.9754L11.0463 17.6499L11.4311 16.0328Z" fill="#D2C281"/>
<path fill-rule="evenodd" clip-rule="evenodd" d="M13.7605 16.0903C13.7904 16.0995 13.8214 16.1044 13.8527 16.1048C13.8181 16.1336 13.7459 16.1969 13.7748 16.3612C13.8037 16.5255 13.8958 16.7329 13.8181 16.8596C13.8801 16.9274 13.9264 17.0081 13.9535 17.0959C14.0025 17.2373 14.017 17.3668 14.3367 17.3871C14.2905 17.4155 14.248 17.4494 14.21 17.488C14.21 17.488 14.4318 17.681 14.5443 17.8595C14.6594 17.8546 14.9649 17.7596 14.9649 17.7596L15.0283 17.8029L15.1637 17.7459C15.1637 17.7459 15.037 17.6969 15.1292 17.3886C15.2156 17.1178 15.2935 17.1322 15.3001 17.1121C15.3068 17.0919 15.3636 16.8066 15.3636 16.6913C15.4067 16.5417 15.4413 16.0863 15.4413 16.0863L15.3491 15.0807L14.8306 14.7666L14.4089 14.3595L14.0111 15.1087L13.7491 15.3698L13.729 16.0181L13.7605 16.0903Z" fill="#E2C270"/>
<path fill-rule="evenodd" clip-rule="evenodd" d="M15.0083 15.249C15.0083 15.249 15.1004 15.5111 15.1352 15.7129C15.1474 15.6737 15.1542 15.6329 15.1553 15.5919C15.1553 15.5919 15.2273 15.9896 15.2416 16.1539C15.2704 16.1481 15.2986 16.1395 15.305 16.1682C15.3115 16.1969 15.3772 16.517 15.362 16.6955C15.482 16.4975 15.648 16.3315 15.846 16.2115C15.9613 16.1393 16.0967 16.0616 16.2381 16.0557C16.4599 16.05 16.6212 16.1971 16.8864 16.1971C17.526 16.1971 18.1053 15.7273 18.5318 15.5833C18.8458 15.4766 19.1167 15.3989 19.3068 15.2258C19.3991 15.1481 19.5634 14.9753 19.7131 14.7186C19.912 14.3767 20.1194 14.0791 20.3271 14.0416C20.2331 14.0589 20.1376 14.0657 20.0421 14.0618C20.0421 14.0618 20.1056 13.9983 20.2131 13.9119C20.3206 13.8255 20.4494 13.7189 20.6337 13.7189C20.9623 13.7189 21.1264 13.7677 21.3108 13.7677C21.4953 13.762 21.6019 13.7189 21.6019 13.7189C21.6019 13.7189 21.795 13.8543 22.23 13.8543C22.6652 13.86 22.9562 13.8975 23.184 13.9178C23.4118 13.9381 24.1752 13.8543 24.3942 13.8608C24.537 13.8663 24.6772 13.9006 24.8064 13.9617L24.1003 11.9101L21.5641 9.69336L20.0541 10.7624L17.7313 13.085L15.4838 13.9178L15.014 14.4451V15.249H15.0083Z" fill="#CCB360"/>
<path fill-rule="evenodd" clip-rule="evenodd" d="M20.0509 14.0732C20.0509 14.0732 20.1144 14.0099 20.2207 13.9235C20.3271 13.837 20.4572 13.7303 20.6415 13.7303C20.9699 13.7303 21.1343 13.7793 21.3187 13.7793C21.5032 13.7736 21.6097 13.7303 21.6097 13.7303C21.6097 13.7303 21.8031 13.8655 22.2379 13.8655C22.6731 13.8712 22.9641 13.9087 23.1919 13.9288C23.4196 13.9489 24.1831 13.8655 24.4021 13.8718C24.5449 13.8772 24.685 13.9115 24.8141 13.9727L24.4942 13.0476L24.1227 12.3417L23.0621 11.1803L21.7797 10.4254C21.774 10.4197 21.3388 10.3044 21.3388 10.3044L20.1862 11.0018L19.1403 13.7077L19.1201 14.2776L19.7971 14.5974C19.9671 14.3125 20.1546 14.0846 20.3303 14.0557C20.1717 14.073 20.0507 14.073 20.0507 14.073L20.0509 14.0732Z" fill="#D5B457"/>
<path fill-rule="evenodd" clip-rule="evenodd" d="M20.0362 14.2663C19.9353 14.272 19.8519 14.2519 19.8287 14.1799C19.7423 13.9379 19.6732 13.9033 19.6008 13.9033C19.5284 13.9033 19.4308 14.0589 19.3728 14.0732C19.3149 14.0874 19.2462 13.8946 19.2462 13.8946L19.1827 13.8657C19.1827 13.8657 18.811 14.1077 18.5488 14.393C18.2867 14.6784 17.8572 15.1626 17.6642 15.2488C17.4713 15.335 16.8083 15.3641 16.5815 15.4131C16.3547 15.4621 16.1032 15.6264 16.0687 15.6638C16.0341 15.7013 16.1697 15.7415 16.1898 15.779C16.21 15.8135 15.9678 15.7991 15.9477 15.8359C15.9334 15.8648 16.0046 16.0289 16.04 16.1125C16.1018 16.0818 16.1696 16.065 16.2387 16.0635C16.4605 16.0578 16.622 16.2048 16.887 16.2048C17.5267 16.2048 18.1059 15.7351 18.5323 15.5909C18.8465 15.4843 19.1174 15.4065 19.3075 15.2336C19.3996 15.1559 19.5639 14.9829 19.7138 14.7264C19.8232 14.5507 19.93 14.3864 20.0367 14.2654L20.0362 14.2663Z" fill="#D2B257"/>
<path fill-rule="evenodd" clip-rule="evenodd" d="M10.8609 28.5276C10.8609 28.5276 10.804 28.3142 10.2759 27.7639C10.126 27.6084 10.0339 27.479 9.933 27.3865C9.68226 27.15 9.53523 27.0867 9.35667 26.9513C8.96479 26.6603 8.53834 26.6603 8.2099 26.303C7.88147 25.9457 7.4987 25.2629 7.23276 24.5652C6.97062 23.8679 6.89844 23.646 6.89844 23.6259C6.89844 23.6057 6.97062 23.4703 7.06275 23.4904C7.15488 23.5106 7.15488 23.6891 7.17805 23.7324C7.22396 23.8031 7.27602 23.8696 7.33363 23.9311C7.46907 24.0869 7.66207 24.2731 7.76008 24.5508C7.73995 24.3145 7.65922 24.0523 7.65922 24.0523C7.65922 24.0523 8.1664 24.3722 8.59855 24.7064C9.03375 25.0407 9.2123 25.156 9.33939 25.3691C9.46647 25.5823 9.76584 26.1444 9.90926 26.3087C10.0527 26.473 12.0178 27.0924 12.0178 27.0924L12.9526 27.7894L13.4166 28.8066L13.0534 29.3765L12.3561 29.5264L11.2236 29.0192L10.8609 28.5274V28.5276Z" fill="#D2B159"/>
<path fill-rule="evenodd" clip-rule="evenodd" d="M8.3457 25.0235C8.3457 25.0235 8.58201 25.401 9.15833 25.7583C9.67709 26.0725 10.4983 26.3578 11.2304 26.5278C11.6509 26.6287 12.0717 26.7064 12.4491 26.7122C13.4663 26.7265 14.1665 26.4357 15.034 26.3405C15.5038 26.2915 16.0801 26.2541 16.6794 26.1126C17.4487 25.9281 17.904 25.7205 18.5237 25.4287C18.9731 25.2213 19.3853 25.0657 19.7194 24.8668C20.1892 24.5902 20.532 24.2819 20.9298 24.1898C20.8808 24.3253 20.8289 24.5673 20.4371 24.818C20.6445 24.8121 20.9298 24.7979 20.9298 24.7979C20.9298 24.7979 20.6532 24.962 20.1662 25.3309C19.8664 25.5588 19.4689 25.9446 19.0626 26.2011C18.8002 26.3654 18.5149 26.486 18.3276 26.5844C17.8717 26.8351 17.6879 26.9618 17.3883 27.2682C17.4949 27.2625 17.5036 27.2682 17.5036 27.2682C17.5036 27.2682 17.126 27.3173 16.8553 27.4612C16.7983 27.4612 16.6995 27.4411 16.5267 27.4901C16.3912 27.5332 16.2125 27.6314 16.0282 27.6831C15.7659 27.761 15.6797 27.7264 15.6797 27.7264L15.7228 27.8128C15.7228 27.8128 15.3809 27.807 15.2669 27.8185C15.287 27.8242 15.2813 27.833 15.2813 27.833C15.2613 27.8363 15.242 27.8431 15.2243 27.8531C15.1695 27.8887 15.1092 27.9149 15.0458 27.9308C15.0112 27.9365 14.9823 27.9365 14.939 27.9452C14.9535 27.9798 15.0659 28.1732 15.1178 28.2872C15.0746 28.316 14.4261 28.8059 14.4261 28.8059C14.4463 28.8376 14.4627 28.8714 14.4752 28.9068C14.4953 28.9701 14.504 29.0624 14.5242 29.1055C14.573 29.1919 14.6019 29.2064 14.6019 29.2064C14.6019 29.2064 14.5242 29.2208 14.3885 29.2554C14.2734 29.2842 14.1321 29.3331 13.9326 29.3619C13.8714 29.3699 13.8099 29.3747 13.7482 29.3764C13.7771 29.4398 13.9038 29.6818 13.6703 29.9612C13.4369 30.2407 13.3649 30.2813 13.2929 30.4599C13.2566 30.4325 13.2181 30.4083 13.1776 30.3877C13.0999 30.3531 12.9931 30.3015 12.9557 30.2321C12.9339 30.3245 12.905 30.4151 12.8693 30.503C12.7973 30.696 12.6907 30.8863 12.6706 31.0303C12.5927 30.9439 12.4487 30.7739 12.2498 30.8085C12.051 30.843 11.8925 31.1139 11.858 31.1918C11.858 31.1428 11.8234 31.1053 11.8148 31.1629C11.809 31.2264 11.6995 31.8889 11.0886 32.425C11.0829 32.2895 11.0829 31.9898 11.0685 31.892C11.0115 31.9489 10.9418 32.0331 10.5268 32.2118C10.1204 32.3904 10.1848 32.5691 10.1848 32.5691C10.1848 32.5691 10.1503 32.2842 10.3693 31.9841C10.5912 31.6845 10.7266 31.5432 10.7266 31.5202C10.723 31.4968 10.713 31.4748 10.6977 31.4568C10.6688 31.4279 10.6113 31.3933 10.6113 31.3703C10.6459 31.3561 10.9887 31.1918 10.9686 30.8516C10.9485 30.5463 10.8189 30.3877 10.7266 30.2754C10.7123 30.261 10.8622 30.1544 10.8419 30.1199C10.8275 30.0997 10.6432 29.9641 10.62 29.8919C10.6255 29.8488 10.6351 29.8064 10.6489 29.7652C10.669 29.7018 10.6835 29.6585 10.6778 29.6153C10.6633 29.5433 10.5855 29.3445 10.5625 29.3243C10.5826 29.33 10.7266 29.3243 10.7266 29.3243C10.7266 29.3243 10.6115 29.1399 10.5912 29.0534C10.5708 28.967 10.5277 28.7393 10.5047 28.6961C10.5537 28.7018 10.6747 28.7104 10.6747 28.6961C10.6806 28.6528 10.5682 28.5808 10.6177 28.5252C10.6523 28.5309 10.7186 28.5598 10.7819 28.6405C10.7473 28.5482 10.6897 28.3696 10.5686 28.2976C10.6255 28.2775 10.8193 28.2254 10.9893 28.3263C11.1593 28.4272 11.2172 28.5683 11.2172 28.5683C11.2172 28.5683 11.3181 28.6462 11.4739 28.7615C11.6524 28.9026 11.88 29.1034 12.2432 29.2455C12.3211 29.2888 12.5198 29.2888 12.6639 29.2599C12.7267 29.245 12.7869 29.2207 12.8425 29.1879C12.8626 29.1761 12.8838 29.1664 12.9059 29.1591C12.875 29.0969 12.8393 29.0371 12.7994 28.9803C12.8484 28.9803 12.9059 28.9862 12.9059 28.9862C12.9059 28.9862 12.9405 28.9083 12.7849 28.7583C12.8195 28.7237 12.8628 28.7013 12.8628 28.643C12.8138 28.6373 12.7274 28.5653 12.7072 28.5364C12.7359 28.5163 12.7792 28.45 12.8282 28.4298C12.7849 28.3952 12.6784 28.2511 12.6294 28.2368C12.6762 28.2194 12.7215 28.1982 12.7648 28.1734C12.7648 28.1734 12.5228 28.1099 12.4449 28.0581C12.367 28.0011 12.2519 27.9025 12.1828 27.8736C12.1106 27.8448 11.9839 27.8305 11.932 27.7728C11.9809 27.7872 12.0587 27.7728 12.1165 27.7728C12.1596 27.7728 12.1799 27.7785 12.1942 27.7785C12.1885 27.7583 12.1885 27.715 12.3009 27.7008C12.355 27.6926 12.4075 27.6761 12.4565 27.6518C12.4565 27.6518 12.3498 27.6461 12.2286 27.5308C12.1074 27.4155 12.0067 27.3233 11.9376 27.3089C11.8656 27.2945 11.7301 27.3579 11.6465 27.352C11.5312 27.3378 11.4822 27.28 11.4822 27.28C11.4822 27.28 11.0991 27.3146 10.249 26.796C9.51411 26.3464 9.19423 25.9488 9.19423 25.9488C9.12545 25.9238 9.05897 25.893 8.99554 25.8565C8.71896 25.7125 8.33564 25.4128 8.34722 25.0207L8.3457 25.0235Z" fill="#C2A44D"/>
<path fill-rule="evenodd" clip-rule="evenodd" d="M18.9467 7.72777C19.0133 7.74942 19.0726 7.78938 19.1176 7.84307C19.2531 7.99865 19.3395 8.29251 19.0312 8.60669C19.1522 8.64981 19.2021 8.66368 19.3078 8.64981C19.2012 8.7767 18.9592 9.04758 18.9448 9.28389C18.9303 9.47688 19.0513 9.53463 19.0513 9.53463C19.0513 9.53463 18.8669 9.74776 18.8583 10.1045C18.9454 10.0063 19.0408 9.91565 19.1433 9.83362C19.3566 9.66361 19.6504 9.47061 19.8493 9.34961C19.8466 9.40033 19.8535 9.4511 19.8695 9.4993C19.8695 9.4993 20.241 9.19385 20.5533 9.32948C20.6945 9.39292 20.631 9.59161 20.631 9.59161C20.631 9.59161 20.8242 9.51962 20.9596 9.65506C21.0951 9.7905 21.2866 10.1398 21.3848 10.2753C21.4279 10.3387 21.5403 10.4597 21.6555 10.647C21.8127 10.9092 21.944 11.1862 22.0475 11.4739C22.0532 11.324 22.0906 11.0907 22.5173 11.2376C22.9438 11.3875 23.4278 11.7016 23.8341 12.3203C24.2404 12.939 24.3411 13.6375 24.5457 13.9034C24.7531 14.1599 24.9664 14.5863 24.9809 14.7651C24.9953 14.9438 24.9174 15.5199 25.3439 17.0789C25.4649 16.5949 25.6493 15.5199 25.6493 15.5199L25.7502 14.5719L25.8655 11.6384L22.8022 9.09355L20.4076 7.35583L18.8486 7.50571L18.9465 7.72758L18.9467 7.72777Z" fill="#CAA13E"/>
<path fill-rule="evenodd" clip-rule="evenodd" d="M24.6378 12.0934C24.6378 12.0934 24.5945 11.8085 23.8742 11.3241C23.1537 10.8458 22.5918 10.8458 22.0733 10.4395C21.6755 10.1196 21.2606 9.38463 20.9905 9.14263C20.7282 8.90348 20.6851 8.21185 20.6851 8.21185L21.5697 7.47102L22.8853 5.56937L23.9975 4.34473L24.5305 5.08555L25.2713 5.95574L25.6834 7.70201L25.8332 10.2581L24.6365 12.0936L24.6378 12.0934Z" fill="#B59544"/>
<path fill-rule="evenodd" clip-rule="evenodd" d="M25.5291 15.1574C25.5509 14.7698 25.503 14.3814 25.3878 14.0106C25.1978 13.4199 24.7828 12.3709 24.59 11.9781C24.5121 11.5429 24.5698 11.5083 24.6534 11.4593C24.737 11.4103 25.0512 11.2314 25.2233 10.6036C25.3954 9.97578 25.9294 9.95526 25.9294 9.95526L26.2578 9.71326L26.7564 10.9609L27.1914 12.0877L27.3269 12.9493L27.4277 13.6841L27.1914 15.2374L26.0245 16.292L25.5289 15.1574H25.5291Z" fill="#C89D3A"/>
<path fill-rule="evenodd" clip-rule="evenodd" d="M9.24463 32.4697V32.4378C9.26888 32.4226 9.29029 32.4033 9.30788 32.3808C9.32802 32.3519 9.34265 32.3173 9.35689 32.3088C9.38577 32.2943 9.5212 32.2518 9.5932 32.2655C9.66519 32.2791 9.85553 32.3576 9.95639 32.3519C10.1638 32.3462 10.4058 32.1876 10.7892 32.2598C11.3655 32.3663 11.5009 32.7582 11.8352 32.9801C12.0632 33.1359 12.2991 33.0665 12.3337 33.0665H12.4114C12.4258 33.0665 12.5324 32.9455 12.5901 32.9514C12.7054 32.9571 12.7168 33.0523 12.7888 33.058C12.9588 33.0781 13.2875 32.9715 13.4518 33.0148C13.5005 33.0301 13.5448 33.0569 13.5809 33.093C13.617 33.1291 13.6439 33.1734 13.6592 33.2221C13.6938 33.3287 13.6649 33.4641 13.5813 33.542C13.4028 33.7061 13.2328 33.8619 13.1982 33.9979C13.2422 34.0314 13.2844 34.0672 13.3247 34.105C11.8989 33.7418 10.5271 33.1925 9.24463 32.4714V32.4697Z" fill="#CEB052"/>
<path fill-rule="evenodd" clip-rule="evenodd" d="M24.5889 26.7121C24.5889 26.7121 25.0383 26.1128 25.1941 25.8159C25.3496 25.5098 24.7013 21.6347 24.7013 21.6347L26.0038 17.3672L25.9691 15.9782C25.9691 15.9782 26.0325 14.6958 26.1824 14.1397C26.3611 14.4595 26.9173 14.8457 27.0383 15.0503C27.0953 14.6582 27.2889 13.8314 27.2602 12.9496C27.3668 13.1137 27.6232 14.765 27.6232 14.765L27.8796 15.8772L28.214 17.0587L28.5857 18.3065L28.8076 19.1682L28.9343 19.3756L29.041 19.7386L29.1419 20.1307L29.4329 21.0499L29.6038 21.8048L29.7393 23.1736C29.7687 23.2784 29.79 23.3853 29.8027 23.4935C29.8084 23.6433 29.7826 23.7298 29.7826 23.7558C29.7826 23.7818 29.8316 24.0842 29.8115 24.312C29.7826 24.5399 29.7826 24.7183 29.6038 24.8818C29.4251 25.0454 29.3128 26.0229 29.3128 26.0229L28.993 25.8098C28.993 25.8098 29.0564 25.5186 28.9065 25.2536C28.7567 24.9886 28.4656 24.9337 28.3013 24.977C28.1372 25.0116 27.8088 25.0633 27.702 25.1556C27.6012 25.2477 27.3535 25.533 27.1257 25.6628C26.8408 25.8337 26.3765 25.8472 26.1288 25.9048C25.8781 25.9617 25.6015 26.1327 25.3103 26.3312C25.082 26.479 24.8409 26.6062 24.59 26.7111L24.5889 26.7121Z" fill="#CCA847"/>
<path fill-rule="evenodd" clip-rule="evenodd" d="M24.5889 33.0084C24.5889 33.0084 24.6079 33.0208 24.6445 33.0409C26.6918 32.0817 28.5261 30.7221 30.0393 29.0423C30.0227 28.4592 30.0013 27.8614 29.9777 27.6399C29.9289 27.1701 29.9635 26.6918 29.949 26.4152C29.9346 26.1387 29.779 25.0118 29.707 24.7208C29.6292 24.4298 29.4791 24.2856 29.4563 24.2856C29.4362 24.2915 29.315 24.8333 29.315 24.9695C29.315 25.1057 29.2861 25.4335 29.2861 25.5171C29.266 25.5112 29.2574 25.4601 29.2574 25.4392C29.2285 25.5112 29.194 25.6381 29.1795 25.6526C29.1651 25.667 29.1997 25.5316 29.1795 25.5027C29.1594 25.4738 29.1225 25.4883 29.1305 25.4163C29.1339 25.3736 29.1407 25.3312 29.1507 25.2896C29.1507 25.2896 29.0642 25.4163 29.001 25.739C28.9375 26.0589 28.9375 26.0676 28.9145 26.0963C28.8944 26.1311 28.7791 26.2462 28.7732 26.2895C28.7675 26.3672 28.88 26.4451 28.8885 26.4882C28.8942 26.5604 28.7876 26.8945 28.7531 27.058C28.7185 27.2216 28.7329 27.5421 28.6961 27.7064C28.6672 27.8562 28.6391 27.9427 28.5405 28.0059C28.6125 28.0204 28.6817 28.0405 28.6817 28.0405C28.6817 28.0405 28.7825 28.467 28.5261 28.8301C28.4339 28.9568 28.411 29.0146 28.3129 29.1299C28.1198 29.343 27.9699 29.5858 27.9555 29.7436C27.9455 29.6971 27.9388 29.6498 27.9353 29.6023C27.9353 29.6023 27.6358 29.9511 27.5089 30.15C27.3447 30.4064 27.117 30.392 27.053 30.4554C26.989 30.5189 26.9751 30.634 26.996 30.7263C26.939 30.7405 26.8319 30.7609 26.7597 30.9827C26.7251 31.0978 26.6387 31.2107 26.5032 31.2882C26.3678 31.3657 26.2035 31.389 26.1199 31.4092C26.1919 31.4293 26.2208 31.4293 26.2553 31.4523C26.2122 31.5243 26.0133 31.6367 25.7915 31.7809C25.5696 31.9164 25.4629 32.1151 25.4081 32.2448C25.3512 32.3658 25.267 32.4437 25.1316 32.4581C25.1886 32.4927 25.2729 32.5732 25.316 32.5992C25.2526 32.6137 25.1451 32.6137 24.953 32.778C24.7513 32.9452 24.6821 32.9942 24.5898 33.0086L24.5889 33.0084Z" fill="#C39D3C"/>
<path fill-rule="evenodd" clip-rule="evenodd" d="M20.5796 34.3439C20.6899 34.2665 20.8094 34.2032 20.9353 34.1552C21.3848 33.9767 21.8602 33.9421 22.0475 33.8846C22.2263 33.8276 22.3674 33.7489 22.5893 33.7058C22.5834 33.7563 22.5785 33.8038 22.5732 33.8487C21.919 34.0543 21.2529 34.2197 20.5786 34.3439H20.5796Z" fill="#D2BA6B"/>
<path fill-rule="evenodd" clip-rule="evenodd" d="M28.869 22.5223C28.869 22.5223 28.7769 23.0208 28.6126 23.335C28.4483 23.6492 28.2707 24.0841 28.2707 24.0841C28.2717 23.9861 28.2833 23.8885 28.3052 23.7929C28.0978 23.9139 27.5935 24.2052 27.4504 24.3347C27.315 24.4557 27.0872 24.669 27.0297 24.7699C27.1651 24.3723 27.3062 24.015 27.3294 23.8507C27.122 24.0006 26.1536 24.7988 25.6495 25.3261L24.0789 26.5969C23.8977 26.6947 23.711 26.7821 23.5199 26.8586C23.2492 26.9738 22.9293 27.0718 22.693 27.1641C22.7564 26.9941 22.8571 26.844 22.9984 26.7C23.1483 26.5589 23.5977 26.0718 23.6669 25.8452C23.7303 25.6089 23.7448 25.4678 23.6612 25.2689C23.5833 25.289 23.4047 25.2978 23.2837 25.3323C23.1627 25.3669 23.033 25.4965 23.033 25.4965C23.033 25.4965 23.1251 24.9692 23.324 24.4707C23.1741 24.4764 22.9177 24.5195 22.9177 24.5195C22.9177 24.5195 23.275 23.9202 23.8865 23.5025C23.6992 23.5424 23.516 23.5992 23.339 23.6723C22.9817 23.8222 22.5898 24.0441 22.2988 24.1651C22.4629 23.9371 23.6156 22.2921 24.3015 20.759C24.9854 19.2289 25.2409 18.837 25.3907 18.0158C25.4684 17.6095 25.4477 17.0091 25.4684 16.4713C25.4886 15.9381 25.5549 15.4598 25.5117 15.1399C25.6903 15.3618 26.3589 15.9871 26.3819 17.3848C26.4021 18.7823 25.7423 20.6699 25.042 21.6869C25.2129 21.7359 25.6559 21.7937 26.111 21.0031C26.5662 20.2125 26.5607 19.9917 26.725 19.6631C26.7451 19.8274 26.7392 19.885 26.7392 19.885C26.7392 19.885 27.4022 19.0811 27.7162 18.0696C27.7796 18.5048 27.9669 18.8881 27.6729 19.6863C27.4107 20.4066 27.0679 20.5825 27.0679 20.5825C27.0679 20.5825 27.2379 20.5536 27.4884 20.4038C27.5317 20.5103 27.5232 20.6317 27.5952 20.6746C27.6672 20.7176 27.7652 20.7899 27.7796 20.8591C27.8573 20.7438 27.9783 20.5968 28.0159 20.4873C27.9871 20.7153 27.9669 21.712 28.0729 22.2192C28.295 22.199 28.5225 22.1846 28.6781 21.784C28.5715 22.176 28.5715 22.4122 28.6435 22.7465C28.7617 22.6659 28.8683 22.5218 28.8683 22.5218L28.869 22.5223Z" fill="#C0993A"/>
<path fill-rule="evenodd" clip-rule="evenodd" d="M21.3818 6.63882C21.3818 6.63882 21.1599 6.73095 20.7825 6.73095C20.454 6.73095 20.5461 6.60425 20.0333 6.60425C19.2438 6.60425 16.486 7.06014 16.0018 7.05368C15.6876 7.04799 17.0621 7.18912 17.0621 7.18912L20.575 7.23813L21.2809 7.18114L21.5432 6.64737L21.3818 6.63882Z" fill="#A88F33"/>
<path fill-rule="evenodd" clip-rule="evenodd" d="M12.2734 13.5055C12.2734 13.5055 11.8238 13.8484 11.6336 14.1107C11.4435 14.3731 11.3426 14.5457 11.1265 14.7591C11.1772 14.761 11.2279 14.7542 11.2763 14.7389C11.2763 14.7389 11.2763 14.7959 11.2418 14.8109C11.2716 14.8076 11.3019 14.811 11.3303 14.8208C11.3587 14.8307 11.3845 14.8468 11.4059 14.8679C11.3424 14.9025 11.1696 15.0755 11.305 15.2801C11.4059 15.4357 11.6192 15.4499 11.6192 15.4499C11.6192 15.4499 11.5702 15.5913 11.7748 15.5768C12.2157 15.5567 12.7084 15.3635 12.936 15.4125C13.1639 15.4695 13.2935 15.4904 13.4548 15.77C13.6257 16.0466 13.7746 16.0899 13.7746 16.0899C13.7746 16.0899 13.8755 15.8333 13.8525 15.4501C13.9352 15.2436 13.9811 15.0242 13.988 14.8018L13.8381 13.6982L13.1841 12.8711L12.3369 13.3409L12.2734 13.505V13.5055Z" fill="#E3C571"/>
<path fill-rule="evenodd" clip-rule="evenodd" d="M13.0767 13.3414C13.0767 13.3414 13.1401 13.4912 13.4053 13.5055C13.3764 13.5689 13.3764 13.5777 13.3851 13.6265C13.3908 13.6755 13.3994 13.7475 13.3994 13.7475C13.4286 13.7334 13.455 13.7141 13.4773 13.6905C13.4917 13.754 13.4628 13.8546 13.4773 13.9268C13.4862 13.9707 13.5007 14.0133 13.5204 14.0535C13.5246 14.0437 13.5294 14.0341 13.5348 14.0248C13.5405 14.0104 13.5918 14.1804 13.7337 14.3098C13.7336 14.2899 13.7385 14.2703 13.748 14.2528C13.7501 14.2889 13.7621 14.3238 13.7825 14.3536C13.7719 14.3486 13.7622 14.3418 13.7539 14.3335C13.7539 14.3335 13.7681 14.7894 13.846 15.0251C13.859 15.0099 13.8706 14.9935 13.8806 14.9761C13.8806 14.9619 13.8749 15.103 13.8604 15.2041C13.8403 15.3049 13.8547 15.4461 13.8547 15.4461C13.9067 15.4052 13.9638 15.3713 14.0245 15.3452C14.111 15.3105 14.2525 15.2039 14.3387 14.9676C14.3888 14.8338 14.4273 14.6959 14.454 14.5556C14.4819 14.6092 14.5011 14.6669 14.511 14.7265C14.5169 14.7985 14.6523 14.7611 14.6523 14.7611L14.6812 14.4469L14.8522 13.7351L15.0078 13.2943L15.7569 12.1274L17.1106 11.0849L18.2921 11.3558L19.289 10.0014L17.5716 8.96973L15.9463 9.13974L14.4713 11.1827L13.29 13.0357L13.0767 13.3412V13.3414Z" fill="#D8B65B"/>
<path fill-rule="evenodd" clip-rule="evenodd" d="M21.5896 10.3848C21.5896 10.3848 21.4888 10.4049 21.1978 10.5557C20.9068 10.7065 20.705 10.7544 20.5926 10.9763C20.4801 11.1982 20.4716 11.3741 20.4716 11.3741C20.4716 11.3741 20.6704 11.2876 20.7857 11.2587C20.9068 11.2301 21.0422 11.2386 21.0278 11.2876C21.0139 11.3212 20.9947 11.3523 20.9708 11.3797C20.9708 11.3797 21.1987 11.3741 21.1926 11.4865C21.1866 11.599 21.1495 11.7228 21.1064 11.7775C21.0631 11.8345 20.8845 11.9188 20.8644 11.9851C20.8154 12.1206 20.8845 12.1263 20.8585 12.2357C20.8384 12.3425 20.7434 12.5499 20.4321 12.9129C20.1122 13.2761 19.9762 13.5325 19.9762 13.5325C19.9762 13.5325 19.8206 13.2415 19.7398 12.9908C19.6829 13.0195 19.3768 13.1895 19.3768 13.1895L18.6679 10.72L18.6822 10.5557C18.6822 10.5557 18.7456 10.478 18.76 10.3338C18.6535 10.2993 18.639 10.2704 18.4977 10.1351C18.3564 9.9999 18.2413 9.8354 18.0052 9.72294C17.9706 9.6595 17.9273 9.57326 17.7544 9.53849C17.5816 9.50373 17.4778 9.47524 17.4778 9.47524C17.4778 9.47524 17.57 9.44048 17.6133 9.36848C17.5065 9.38292 17.4203 9.41749 17.1868 9.41179C16.9505 9.4059 16.9245 9.39736 16.7949 9.41749C16.6654 9.43763 16.51 9.49537 16.4521 9.29649C16.3886 9.24748 16.2532 9.29079 16.1379 9.46061C16.0226 9.63043 15.9823 9.76606 15.7604 9.83236C15.7448 9.93016 15.7106 10.0241 15.6596 10.1089C15.5961 10.2157 15.4953 10.3223 15.3598 10.4807C15.1465 10.7314 15.1811 11.1434 14.841 11.4576C14.4982 11.7716 14.898 10.5872 14.898 10.5872L15.4455 9.27654L17.0045 7.75214L19.4251 7.58801L19.6614 8.84173L20.8429 9.24805L21.5893 10.3863L21.5896 10.3848Z" fill="#D3AE4D"/>
<path fill-rule="evenodd" clip-rule="evenodd" d="M21.9725 10.6614L20.9553 9.19472L20.2436 8.64708C20.2436 8.64708 19.7364 7.71365 19.7019 7.68478C19.673 7.66464 19.1947 7.61279 18.8893 7.59265L18.9462 7.73379C19.0129 7.75544 19.0721 7.79539 19.1172 7.84909C19.2526 8.00466 19.3391 8.29852 19.0308 8.6127C19.1518 8.65582 19.2017 8.66969 19.3073 8.65582C19.2008 8.78271 18.9588 9.05358 18.9443 9.28989C18.9299 9.48288 19.0509 9.54043 19.0509 9.54043C19.0509 9.54043 18.8665 9.75375 18.8579 10.1103C18.945 10.0121 19.0403 9.92145 19.1428 9.83942C19.3562 9.66846 19.65 9.47623 19.8489 9.35523C19.8462 9.40601 19.853 9.45684 19.869 9.5051C19.869 9.5051 20.2406 9.19966 20.5528 9.3351C20.694 9.39854 20.6305 9.59742 20.6305 9.59742C20.6305 9.59742 20.8237 9.52543 20.9591 9.66087C21.0946 9.7963 21.2876 10.1449 21.3856 10.2805C21.4287 10.3439 21.5412 10.4649 21.6563 10.652C21.8136 10.9143 21.9449 11.1913 22.0483 11.4791C22.054 11.3638 22.0772 11.2025 22.2763 11.2025L21.9737 10.6608L21.9725 10.6614Z" fill="#CAA13E"/>
<path fill-rule="evenodd" clip-rule="evenodd" d="M6.7234 14.8283C6.7234 14.8283 6.65141 14.6496 6.7234 14.301C6.7954 13.9524 6.90785 13.7881 6.94527 13.2752C6.98269 12.7624 7.31701 12.1226 7.31701 12.1226L8.2419 11.702L8.89611 11.8806L9.0891 12.7567L8.26204 13.2126C8.26204 13.2126 8.21892 13.4055 7.98546 13.5611C7.75201 13.7167 7.42928 13.8377 7.35158 13.9963C7.30514 14.0934 7.27124 14.1961 7.25072 14.3018C7.25072 14.3018 7.01441 14.2528 6.87328 14.4083C6.7234 14.5669 6.7291 14.7081 6.7234 14.8291V14.8283Z" fill="#F4EFC8"/>
<path fill-rule="evenodd" clip-rule="evenodd" d="M8.59037 14.595C8.59037 14.595 8.51248 14.644 8.45493 14.7659C8.39794 14.6738 8.26174 14.1262 8.25604 13.6334C8.25034 13.1407 8.2209 13.0185 8.33487 12.8487C8.44885 12.6789 8.89581 12.5 8.83237 12.1941C8.76892 11.9031 8.50375 11.7821 8.17816 11.8657C7.95021 11.9227 7.78058 12.4074 7.54428 12.6495C7.36553 12.8339 7.1524 12.805 7.09484 12.9059C7.01696 13.0413 7.08895 13.1768 7.06597 13.2632C7.06008 13.2921 6.98809 13.4476 6.85835 13.6349C6.59621 14.0124 6.15247 14.5456 6.09473 15.0239C6.11486 14.753 6.10062 14.7473 6.17261 14.4476L6.1293 14.3756L6.41423 13.4419L6.59868 12.6726L7.01088 11.3844L7.73689 10.0676L8.44296 9.27795L9.17771 9.32696L9.26414 10.4306L9.68489 12.5026L10.5695 13.5918L9.15168 14.546L8.5898 14.595H8.59037Z" fill="#EBCC73"/>
<path fill-rule="evenodd" clip-rule="evenodd" d="M9.0314 14.9863C9.0314 14.9863 8.9104 15.0152 8.86709 14.9922C8.82378 14.9692 8.78085 14.9432 8.7951 14.9143C8.80935 14.8854 8.88723 14.8366 8.88723 14.8134C8.88883 14.7925 8.8822 14.7718 8.86876 14.7556C8.85532 14.7395 8.83612 14.7292 8.81523 14.727C8.74894 14.7185 8.7288 14.7616 8.7288 14.7616C8.7288 14.7616 8.66536 14.7128 8.61369 14.7046C8.64426 14.7009 8.67502 14.6989 8.70582 14.6987C8.62619 14.6626 8.54172 14.6384 8.45508 14.6267C8.52707 14.5836 8.6684 14.4567 8.76053 14.4567C8.85266 14.4567 8.9104 14.4424 8.89597 14.3934C8.88153 14.3444 8.80954 14.2724 8.73184 14.2436C8.76053 14.209 8.78085 14.1571 8.71171 14.0156C8.63952 13.8745 8.6684 13.7793 8.69157 13.7449C8.71171 13.7016 8.7837 13.6239 8.81827 13.5749C8.85285 13.5259 8.88172 13.4596 8.93928 13.425C8.96815 13.4049 9.06028 13.368 9.1526 13.3329C9.25346 13.2983 9.33704 13.255 9.3946 13.2983C9.45805 13.3414 9.42917 13.3992 9.42917 13.3992C9.42917 13.3992 9.62805 13.327 9.80661 13.4193C9.98536 13.5056 10.4206 13.5605 10.4206 13.5605L10.5765 13.8747L9.54485 14.7593L9.1184 14.9726L9.03197 14.9869L9.0314 14.9863Z" fill="#E5C66B"/>
<path fill-rule="evenodd" clip-rule="evenodd" d="M10.4636 13.5401C10.4636 13.5401 10.1437 13.7534 10.0717 13.8311C10.1148 13.837 10.1868 13.8658 10.1579 13.9089C10.1234 13.9521 9.91593 14.1019 9.80062 14.2433C9.67962 14.3844 9.56432 14.5632 9.52405 14.6496C9.48093 14.7273 9.1523 14.955 9.04004 14.9837C9.27634 14.9837 9.7518 14.6927 9.93036 14.6927C9.92466 14.7791 9.97937 14.8772 10.0802 14.8857C10.1811 14.8942 10.4721 14.9491 10.864 14.7071C11.2559 14.4708 11.1263 14.2949 11.2904 14.1798C11.6046 13.9722 11.7313 13.7878 11.9042 13.6726C12.0771 13.5575 12.1665 13.5313 12.1665 13.5313C12.1665 13.5313 12.1722 13.4449 12.2235 13.4536C12.2375 13.4552 12.2509 13.4606 12.2621 13.4693C12.2732 13.4779 12.2819 13.4895 12.287 13.5026C12.287 13.5026 12.5867 13.2893 12.9708 13.2318C12.9618 13.2277 12.9547 13.2206 12.9507 13.2116C12.9507 13.2116 12.9793 13.1972 12.9852 13.1827C12.9852 13.1827 13.0054 13.1539 13.0198 13.1683C13.0342 13.1827 13.0544 13.2893 13.0832 13.3326C13.1467 13.3037 13.2677 13.0329 13.2677 13.0329L13.5589 12.2001V11.4393L13.331 11.4826L11.6213 12.2087L10.5838 13.2836L10.4628 13.5401H10.4636Z" fill="#E6BD62"/>
<path fill-rule="evenodd" clip-rule="evenodd" d="M15.3855 9.80862C15.478 9.78618 15.5667 9.75021 15.6486 9.70187C15.6141 9.79419 15.6141 9.89505 15.4642 10.1141C15.3143 10.3331 15.3086 10.3648 15.1876 10.5924C15.0666 10.8287 15.0522 11.1687 14.9369 11.3184C14.9886 11.2933 15.044 11.2768 15.101 11.2696C15.101 11.2696 14.9859 11.3705 14.9369 11.477C14.8879 11.5836 14.8014 11.8055 14.5883 11.9411C14.3752 12.0767 14.1041 12.163 13.8131 12.4828C13.5219 12.7968 13.2223 13.1946 13.0723 13.3377C13.1501 13.2022 13.2567 12.9313 13.2856 12.7528C13.3145 12.5742 13.2797 12.3607 13.3287 12.1246C13.3777 11.8885 13.3777 11.7183 13.6136 11.3061C13.8496 10.8939 14.2534 9.46176 14.2534 9.46176L15.1236 9.18518L15.3859 9.80767L15.3855 9.80862Z" fill="#B6933F"/>
<path fill-rule="evenodd" clip-rule="evenodd" d="M14.757 9.28122C14.757 9.28122 14.4948 9.65866 14.4228 9.99298C14.3509 10.3273 14.417 10.2984 14.3738 10.4627C14.348 10.5629 14.348 10.668 14.3738 10.7682C14.4646 10.6219 14.5889 10.4994 14.7365 10.4107C14.9843 10.261 15.1861 10.1543 15.3063 10.0276C15.4273 9.89211 15.5282 9.67025 15.7903 9.50024C15.6838 9.4858 15.5339 9.43679 15.5054 9.44325C15.6121 9.32225 15.9318 9.1378 16.2546 8.91593C16.5745 8.68798 16.5543 8.59605 17.0731 8.36848C16.9031 8.39735 16.8223 8.35404 16.681 8.36848C16.738 8.24748 16.9375 8.18973 17.1369 7.99104C17.3364 7.79234 17.0102 7.49829 17.0102 7.49829L15.4906 8.41749L14.7558 9.28198L14.757 9.28122Z" fill="#C49937"/>
<path fill-rule="evenodd" clip-rule="evenodd" d="M10.6333 8.59522L10.6679 8.31864L11.1031 7.62132L11.5584 6.39667V4.7224L11.5238 3.7542L11.5958 3.12012L11.6505 2.91858L11.7083 2.8407L12.0798 3.03369L12.5929 3.73102L12.6419 5.07686L12.1433 7.20056L10.7197 8.75383L10.6333 8.59522Z" fill="#DFC068"/>
<path fill-rule="evenodd" clip-rule="evenodd" d="M11.7658 2.76288C11.7658 2.76288 11.5378 2.76877 11.4892 3.71684C11.4406 4.66491 11.417 5.16335 11.3824 5.63311C11.3479 6.10287 11.2673 6.388 11.2269 6.66476C11.1864 6.94153 11.1634 7.31878 11.0339 7.54939C10.9769 7.65595 10.8551 7.99027 10.5698 8.24101C10.2499 8.51759 9.77201 8.71078 9.69963 8.72521C9.57274 8.7539 8.93013 8.81734 8.66799 8.96152C8.57586 9.01053 8.41725 9.06808 8.24154 9.23239C7.89279 9.54639 7.42892 10.1083 7.0946 10.7855C6.58172 11.797 6.06885 14.6526 6.06885 14.6526L6.18415 14.4596C6.18415 14.4596 6.19859 14.2032 6.45503 13.7535C6.70576 13.3041 6.63377 12.7998 6.98234 11.9381C7.11778 11.6097 7.28778 11.1832 7.49521 10.82C7.82384 10.2293 8.22141 9.7221 8.62202 9.44552C9.27604 8.99609 9.99653 8.89807 9.99653 8.89807L10.7717 8.38519C10.7717 8.38519 10.9072 8.12305 11.0859 7.8233C11.3365 7.40274 11.6558 6.93298 11.7255 6.25009C11.8323 5.23857 11.5756 4.57582 11.5901 3.97651C11.6045 3.3772 11.6102 2.93631 11.7314 2.82955C11.8526 2.7228 11.766 2.76326 11.766 2.76326L11.7658 2.76288Z" fill="#A88F33"/>
<path fill-rule="evenodd" clip-rule="evenodd" d="M11.7656 7.28725C11.7656 7.28725 12.1076 6.44575 12.2641 5.69941C12.293 5.54954 12.3505 5.39985 12.365 5.27885C12.437 4.57278 12.4571 4.28177 12.365 3.89559C12.293 3.61066 12.0164 3.35384 11.8722 3.15476C11.7311 2.94714 11.6648 2.86983 11.6937 2.82614C11.7225 2.78245 11.8348 2.71103 11.9442 2.71957C12.0605 2.72296 12.1749 2.74996 12.2805 2.79895C12.386 2.84793 12.4805 2.91787 12.5582 3.00451C12.78 3.26095 12.9558 4.13133 12.9558 4.13133L13.1406 5.2798L13.6104 6.72631L11.766 7.28839L11.7656 7.28725Z" fill="#C99E3D"/>
<path fill-rule="evenodd" clip-rule="evenodd" d="M14.9787 6.4111C14.9787 6.4111 14.9153 6.43979 14.8002 6.4111C14.8051 6.45815 14.7969 6.50563 14.7766 6.54833C14.7562 6.59103 14.7245 6.62729 14.6849 6.65311C14.5639 6.6041 13.4312 6.70212 13.4312 6.70212C13.4312 6.70212 12.9039 6.6098 12.7395 5.91247C12.6244 5.44841 12.826 4.80883 12.7597 4.38808C12.6588 3.76844 12.5177 3.64725 12.5032 3.45444C12.4888 3.26164 12.4744 3.21244 12.4744 3.09144C12.4109 3.077 12.3735 3.05686 12.3102 3.05686C12.2958 2.99988 12.3245 2.95011 12.2612 2.84924C12.2958 2.86368 12.5321 2.89255 12.8087 3.15469C13.0366 3.36801 13.0366 3.4457 13.071 3.48901C13.1141 3.53213 13.4629 3.83093 13.6128 4.12879C13.7626 4.42664 14.0537 5.37642 14.1199 5.53199C14.1401 5.59543 14.1834 5.65888 14.2909 5.80287C14.4581 6.01049 14.7029 6.35374 14.9795 6.41072L14.9787 6.4111Z" fill="#B58634"/>
<path fill-rule="evenodd" clip-rule="evenodd" d="M13.1113 3.50366C13.2859 3.78565 13.4427 4.07824 13.5809 4.37974C13.7509 4.76288 13.8518 5.07707 14.0651 5.33351C13.9498 4.99937 13.7452 4.34232 13.6242 4.10886C13.4888 3.86192 13.2122 3.59598 13.1113 3.50385V3.50366Z" fill="#A88F33"/>
<path fill-rule="evenodd" clip-rule="evenodd" d="M11.1519 8.24103C11.1519 8.24103 10.8609 8.31303 10.3192 8.59834C10.1404 8.69047 9.97059 8.76816 9.80629 8.84035C9.37947 9.03334 8.92168 9.21171 8.5585 9.31011C8.58737 9.34468 8.60161 9.35892 8.60161 9.35892C8.60161 9.35892 8.60161 9.50025 8.67949 9.58079C8.63638 9.6241 8.05987 10.016 8.23007 11.3271C8.34518 11.2839 8.48061 11.2262 8.50075 11.2262C8.53551 11.2321 8.54406 11.3271 8.58718 11.3271C8.6303 11.3271 8.77162 11.2701 8.92149 11.0763C8.91579 11.1542 8.82937 11.938 9.29323 12.4653C9.37966 12.3644 9.59867 12.0301 9.59867 12.0301L9.60437 11.9235C9.60437 11.9235 9.6245 11.5518 9.74569 11.2118C9.86688 10.8717 10.103 10.621 10.103 10.621L11.336 8.86029L11.1515 8.24084L11.1519 8.24103Z" fill="#E6C367"/>
<path fill-rule="evenodd" clip-rule="evenodd" d="M9.99922 10.8265C9.94277 10.8664 9.88058 10.8974 9.81478 10.9186C9.79464 10.8466 9.76577 10.5987 9.93578 10.3567C10.1347 10.0655 10.5697 9.68805 10.6907 9.38792C10.7685 9.19473 10.734 8.71072 11.4256 8.09108C12.1172 7.47144 12.3879 7.25831 12.3879 7.25831L13.506 6.69641L14.8805 7.23817L14.1976 9.91467L13.6675 11.1684L11.5589 10.7708L9.99903 10.8265H9.99922Z" fill="#DCBA5A"/>
<path fill-rule="evenodd" clip-rule="evenodd" d="M10.8047 10.0997L11.067 9.77128V9.53782C11.067 9.53782 11.358 9.45993 11.672 9.14005C11.986 8.82016 12.4212 8.2064 12.8046 8.24382C13.1879 8.28713 13.2253 9.0766 13.2398 9.29866C13.2542 9.52072 13.3032 10.0247 13.3809 10.2957C13.4673 10.5666 12.4472 11.5924 12.4472 11.5924L11.7545 12.1197L10.8047 10.0997Z" fill="#E9CE77"/>
<path fill-rule="evenodd" clip-rule="evenodd" d="M11.6162 12.8341C11.6162 12.8341 11.8295 12.4998 11.6732 12.4278C11.7653 12.2204 11.9353 12.0014 11.9353 12.0014C11.9353 12.0014 12.0563 11.7018 12.4482 11.3329C12.8401 10.964 13.0823 10.719 13.1457 10.4713C13.1848 10.3098 13.2061 10.1446 13.2091 9.97852C13.2515 10.0131 13.2968 10.044 13.3446 10.0706C13.408 10.0995 13.7076 10.3472 13.6644 10.8459C13.6213 11.3445 13.4365 11.5519 13.4365 11.5519C13.4365 11.5519 13.258 11.7305 13.1313 11.8228C12.9956 11.9149 12.9468 12.0215 12.7191 12.0302C12.7425 12.0116 12.7688 11.997 12.7969 11.9869C12.7969 11.9869 12.5606 11.9582 12.4338 12.0733C12.3069 12.1885 12.0371 12.5431 11.9017 12.6499C11.7663 12.7363 11.6168 12.8343 11.6168 12.8343L11.6162 12.8341Z" fill="#CDAE50"/>
<path fill-rule="evenodd" clip-rule="evenodd" d="M21.1978 7.22947C20.8574 7.10539 20.4996 7.0354 20.1375 7.02204C19.5323 7.0019 18.6477 7.03648 17.7804 7.04217C16.8467 7.04787 15.9995 6.72229 14.8239 6.66473C14.6309 6.54942 14.1401 6.04509 12.6079 7.11417C12.7 7.10847 13.7203 6.87786 14.0745 7.32179C14.4318 7.76268 14.331 8.51187 14.2822 8.69043C14.1898 9.0882 13.8901 9.66739 13.7693 10.0737C13.6485 10.48 13.677 10.6935 13.5905 10.9785C13.5041 11.2634 13.314 11.4049 13.4262 11.7334C13.5761 11.6412 13.6542 11.6412 13.9045 11.0793C14.1549 10.5174 14.1034 10.1168 14.5185 9.64136C14.9248 9.16305 15.6012 8.50883 15.8584 8.34452C16.1156 8.18021 18.1578 7.11987 20.2961 8.13139C20.8118 8.07668 21.198 7.22928 21.198 7.22928L21.1978 7.22947Z" fill="#D2A83E"/>
<path fill-rule="evenodd" clip-rule="evenodd" d="M13.4688 6.83721C13.4667 6.81555 13.4619 6.79424 13.4546 6.77376C13.4346 6.73162 13.4083 6.69275 13.3767 6.65846C13.3767 6.65846 12.8695 6.56633 12.6131 6.59501C12.1634 6.64402 11.7571 7.20022 11.567 7.48554C11.3768 7.77085 11.1405 8.21156 10.8841 8.43931C10.8869 8.41713 10.8818 8.39466 10.8697 8.37587C10.8697 8.37587 10.8841 8.396 10.8554 8.42488C10.8267 8.45375 10.8265 8.468 10.841 8.48187L10.8843 8.52499C10.8985 8.52499 11.2963 8.34624 11.838 7.84114C12.4144 7.31381 12.8552 7.04331 13.0858 6.95061C13.2088 6.89835 13.3374 6.8603 13.469 6.83721H13.4688Z" fill="#C29637"/>
<path fill-rule="evenodd" clip-rule="evenodd" d="M23.307 4.67065C23.307 4.67065 23.2147 4.78577 23.0994 4.91266C22.8429 5.18354 22.5086 5.4888 22.2233 5.80299C21.9526 6.10274 21.6471 6.3362 21.3041 6.72808C20.961 7.11996 20.5633 7.55496 20.4626 7.68185C20.3705 7.80874 20.2985 8.01617 20.2985 8.12274C20.2495 8.08817 20.1919 8.05075 20.1919 8.05075C20.2161 8.09599 20.2451 8.13852 20.2783 8.17764C20.3503 8.2785 20.4626 8.40559 20.5203 8.48309C20.5912 8.58175 20.642 8.69333 20.67 8.81152C20.7046 8.81722 20.9265 8.86053 21.2032 8.40521C21.48 7.94988 21.8428 7.45143 21.8428 7.45143L22.4191 6.59549L22.7823 5.86947L23.2382 5.05684L23.3075 4.67065H23.307Z" fill="#AC8132"/>
<path fill-rule="evenodd" clip-rule="evenodd" d="M23.8976 4.0885C23.8976 4.0885 23.5489 4.37344 23.4134 4.5444C23.278 4.71537 22.9575 5.16405 22.9575 5.16405L23.0728 5.14962L23.6579 4.63103L23.8858 4.2247L23.8974 4.08926L23.8976 4.0885Z" fill="#A88F33"/>
<path fill-rule="evenodd" clip-rule="evenodd" d="M23.7906 26.9888C23.7906 26.9888 23.7849 26.7525 23.9175 26.6114C24.0529 26.47 24.3958 26.2626 24.7301 25.4846C25.0644 24.7065 25.1017 24.5308 25.1017 24.5308C25.1017 24.5308 24.5023 25.0437 24.1329 25.1647C24.2193 24.9859 24.2683 24.8592 24.3116 24.7669C24.2626 24.7238 24.0552 24.6748 24.0351 24.6518C24.1502 24.5365 24.2136 24.254 24.4471 24.0667C24.7468 23.8388 25.2943 23.4471 25.7198 23.0979C26.1453 22.7488 26.9818 21.9367 27.0886 21.7004C27.152 21.7926 27.1663 21.8501 27.1663 21.8501C27.1663 21.8501 26.7457 22.3978 26.5267 22.7463C26.3335 23.0461 26.348 23.2161 26.348 23.2161L26.7457 23.0451C26.7457 23.0451 26.8608 23.4716 26.3394 24.1201C26.5674 24.0337 26.6593 24.0855 26.7888 24.0133C26.5755 24.149 26.2817 24.3334 26.0051 24.8404C25.7342 25.3476 25.3653 25.9384 24.743 26.3071C24.1378 26.6961 23.7891 26.9871 23.7891 26.9871L23.7906 26.9888Z" fill="#A67A2E"/>
<path fill-rule="evenodd" clip-rule="evenodd" d="M22.2287 7.52922C22.2287 7.52922 21.9924 8.02177 21.9579 8.4051C21.9522 8.49742 21.929 8.56941 21.929 8.67598C21.9233 9.01884 21.9491 9.40217 21.872 9.58073C21.8431 9.50873 21.8287 9.45972 21.7998 9.43104C21.7567 9.55204 21.6788 9.92948 21.6154 10.0706C21.5867 9.97849 21.5233 9.65861 21.5291 9.28117C21.535 8.90373 21.5434 8.83155 21.5434 8.75386C21.5291 8.86897 21.4513 9.02473 21.4224 9.11686C21.3793 9.03917 21.3303 8.9383 21.2725 8.85472C21.238 8.91171 21.1948 8.99586 21.1574 9.03917C21.1515 9.0046 21.1373 8.91228 21.1285 8.78273C21.1228 8.63286 21.1141 8.43986 21.1228 8.3994C21.1371 8.32171 21.2583 8.01627 21.5147 7.73665C21.8201 7.40233 22.1343 6.75991 22.2264 6.56103C22.3186 6.36215 22.7104 5.53528 22.7104 5.53528H23.0102L22.575 6.52646C22.575 6.52646 22.3129 7.06821 22.1774 7.26728C22.042 7.46635 21.7567 8.03678 21.6298 8.25865C21.7219 8.13765 21.7998 8.0742 21.8921 7.9589C21.9814 7.87817 22.2291 7.5296 22.2291 7.5296L22.2287 7.52922Z" fill="#8C6228"/>
<path fill-rule="evenodd" clip-rule="evenodd" d="M23.9033 4.0509C23.8544 4.2016 23.777 4.34152 23.6754 4.46311C23.4967 4.67643 23.1134 4.96155 22.9263 5.18912C22.7553 5.41099 22.4134 6.01619 22.5688 6.73365C22.6258 6.57807 22.7331 6.26978 23.0184 5.92102C23.3037 5.57226 23.6091 5.17183 23.7592 4.86068C23.9089 4.5465 23.929 4.2988 23.929 4.2988L23.986 4.2268L23.9514 4.06249L23.9024 4.0509H23.9033Z" fill="#CBA94C"/>
<path fill-rule="evenodd" clip-rule="evenodd" d="M29.7391 23.1647C29.7391 23.1647 29.6238 22.8507 29.5892 22.5654C29.5546 22.2801 29.6462 22.2235 29.5402 21.8969C29.4768 21.698 29.3616 21.726 29.3328 21.698C29.3039 21.6701 29.2838 21.3696 29.2895 21.2053C29.2952 21.041 29.2838 20.8279 29.2549 20.7355C29.2118 20.701 29.1829 20.6721 29.1194 20.459C29.0475 20.2456 29.0129 20.1391 28.9783 20.0758C28.9437 20.0126 28.8427 19.9548 28.8427 19.8914C28.8427 19.7645 28.958 19.6984 28.958 19.6634C28.9523 19.5914 28.8659 19.6492 28.8427 19.6289C28.814 19.5943 28.9149 19.3869 28.8774 19.358C28.863 19.3437 28.7621 19.4647 28.7361 19.4302C28.7072 19.3954 28.6727 19.0525 28.6208 18.825C28.572 18.6031 28.5199 18.4418 28.5142 18.3755C28.5085 18.3121 28.1165 17.194 28.0215 16.9231C27.945 16.6942 27.8805 16.4615 27.8285 16.2258C27.7996 16.0904 27.7795 15.8136 27.7651 15.8425C27.7506 15.8713 27.7594 16.0125 27.7362 16.0068C27.716 16.0009 27.6441 15.5083 27.6211 15.4305C27.6009 15.3526 27.4797 15.0885 27.4501 14.8974C27.4212 14.7043 27.358 14.1999 27.3147 13.857C27.2714 13.5142 27.2512 13.373 27.2512 13.2872C27.2583 13.0772 27.2467 12.867 27.2166 12.659C27.1597 12.2958 27.0457 11.8549 26.9458 11.5987C26.7528 11.1145 26.2397 9.87539 26.1479 9.56709C26.1479 9.48921 26.2488 9.53252 26.2488 9.53252C26.2488 9.53252 26.4994 10.1607 26.6838 10.6447C26.8626 11.1289 27.0326 11.5554 27.0759 11.5987C27.1105 11.6418 27.3813 12.1172 27.5023 12.8953C27.6233 13.6734 27.6665 14.3908 27.7386 14.8691C27.7732 15.0971 27.8021 15.3389 27.8741 15.5809C27.9518 15.8432 28.0728 16.1141 28.2314 16.529C28.3668 16.8777 28.4677 17.1687 28.5224 17.4195C28.5859 17.7394 28.5859 17.9814 28.6233 18.14C28.658 18.2754 28.7097 18.5461 28.8309 18.9378C28.9521 19.3295 29.1305 19.834 29.2515 20.148C29.488 20.7762 29.5934 21.3007 29.6291 21.5803C29.6606 21.8684 29.7674 22.8655 29.7385 23.1651L29.7391 23.1647Z" fill="#A88F33"/>
<path fill-rule="evenodd" clip-rule="evenodd" d="M23.918 4.01641L23.9036 4.05098C23.9036 4.05098 23.9467 4.06542 23.9382 4.12316C23.9388 4.20217 23.934 4.28113 23.9237 4.35947C23.9095 4.46034 23.8806 4.53803 23.8749 4.60148C23.8749 4.73692 23.8951 4.89249 23.704 5.27867C23.647 5.38524 23.6118 5.47737 23.583 5.54081C23.511 5.69639 23.4965 5.71956 23.4331 5.79156C23.534 5.73457 23.8971 5.50662 24.0814 5.54081C23.9547 5.61281 23.7615 5.75413 23.6405 5.93858C23.6694 5.94428 23.7904 5.96746 23.9824 5.93858C24.3023 5.88957 24.6596 5.77427 24.9736 5.79725C25.3166 5.81739 25.1812 5.38524 25.1812 5.38524L24.7854 4.51505L24.0362 3.98792L23.918 4.0166V4.01641Z" fill="#BE9C44"/>
<path fill-rule="evenodd" clip-rule="evenodd" d="M25.8717 10.5346C25.8717 10.5346 25.5374 10.2003 25.402 9.05299C25.2665 7.90033 25.2954 6.20365 25.2954 6.20365L25.0245 5.54089C25.0245 5.54089 24.9676 5.10001 24.8257 4.93588C24.6838 4.77176 24.4051 4.495 24.2782 4.35956C24.1513 4.22412 24.0073 4.03967 23.9209 4.0108C23.964 3.93881 24.1572 3.53249 24.8977 3.52679C25.6381 3.52109 25.8664 3.93311 25.9437 4.08298C26.021 4.23286 26.3702 4.8808 26.4997 6.11551C26.6207 7.3487 26.6266 7.44102 26.6065 7.86747C26.5921 8.10378 26.5142 8.65123 26.3785 9.2361C26.2547 9.73189 26.1193 10.2852 25.8714 10.5358L25.8717 10.5346Z" fill="#A17C34"/>
<path fill-rule="evenodd" clip-rule="evenodd" d="M24.8232 11.5174C24.9346 11.5254 25.0459 11.5003 25.1431 11.4452C25.2496 11.4395 25.6358 11.4885 25.9326 11.1111C25.9527 11.1973 26.0048 11.431 25.8691 11.6384C25.9413 11.5662 26.0479 11.5375 26.0623 11.5174C26.068 11.624 26.1689 11.9524 25.7424 12.7506C25.8575 12.6239 25.993 12.6296 26.114 12.6151C26.1199 12.765 26.2004 13.2692 25.9873 13.5402C25.8461 13.7247 25.6155 13.6669 25.6155 13.6669C25.6189 13.6267 25.6189 13.5862 25.6155 13.5459C25.6098 13.468 25.5809 13.3903 25.6013 13.3385C25.4898 13.2876 25.3883 13.2173 25.3015 13.1309C25.0507 12.8946 24.7251 12.4913 24.7022 12.1915C24.6733 11.8572 24.973 11.7852 24.973 11.7852C24.9479 11.7628 24.9265 11.7365 24.9096 11.7073C24.8952 11.6585 24.8807 11.5807 24.8232 11.5174Z" fill="#8C6228"/>
<path fill-rule="evenodd" clip-rule="evenodd" d="M22.6009 7.89211C22.6009 7.89211 22.5865 7.87198 22.5088 7.96411C22.5232 7.87198 22.5377 7.78536 22.5434 7.70178C22.5801 7.6244 22.6277 7.55264 22.6847 7.48865C22.6414 7.57489 22.6125 7.65277 22.6125 7.65277C22.6125 7.65277 22.7193 7.45389 22.8748 7.33288C22.9814 7.24645 23.1168 7.20618 23.1744 7.12545C23.2378 7.03902 23.2234 7.02458 23.2378 7.01015C23.2378 7.01015 23.3791 6.91802 23.5953 6.64695C23.624 6.61238 23.6673 6.57496 23.6962 6.54039C23.745 6.52025 23.8603 6.46839 23.9957 6.39906C24.137 6.32137 24.2955 6.2148 24.3935 6.17111C24.5865 6.08468 24.7912 6.09342 24.8862 5.95779C24.9582 5.93766 25.0359 5.72149 25.0216 5.53723C25.1282 5.58035 25.6756 5.92037 25.8631 6.66386C25.9986 7.19118 25.7564 8.00381 25.6555 8.39588C25.5547 8.78794 25.5404 9.07877 25.3991 9.25733C25.2203 9.49382 24.6442 9.82719 24.5029 9.99226C24.3819 10.1277 24.0189 10.4706 24.0331 10.7183C24.0476 10.9027 24.2751 11.0032 24.3243 11.0382C24.3735 11.0731 24.3732 11.116 24.4655 11.0951C24.5578 11.0743 24.5922 11.0317 24.6298 11.0317C24.6729 11.0374 24.6729 11.0461 24.693 11.0461C24.7076 11.0457 24.7222 11.0437 24.7363 11.0403C24.7363 11.0403 24.7219 11.3026 24.1082 11.3822C24.0649 11.3881 24.0217 11.4023 23.9669 11.411C24.039 11.3765 24.0822 11.3765 24.16 11.2699C24.0736 11.2555 23.8257 11.241 23.7623 11.2209C23.7824 11.1863 23.8487 11.094 23.9034 11.0509C23.9524 11.0078 23.8977 10.9939 23.8546 11.0163C23.7804 11.0668 23.7091 11.1216 23.6413 11.1804C23.5693 11.2439 23.5058 11.3303 23.3905 11.4084C23.356 11.2931 23.3617 11.0741 23.4973 10.9156C23.4625 10.9213 23.3962 11.0222 23.333 11.0021C23.3215 10.897 23.3284 10.7907 23.3531 10.6879C23.3877 10.5581 23.575 10.3306 23.575 10.3306L24.4797 8.71386L24.6727 7.48922L22.6009 7.89173V7.89211Z" fill="#92723A"/>
<path fill-rule="evenodd" clip-rule="evenodd" d="M22.5516 7.9614C22.5516 7.9614 22.5026 7.99598 22.6006 8.06227C22.5862 8.08241 22.5516 8.1544 22.5083 8.20341C22.4595 8.26039 22.4075 8.29573 22.3873 8.34473C22.3442 8.4456 22.3096 8.51474 22.3096 8.55805C22.3096 8.60136 22.2952 8.87794 22.1742 9.0565C22.1309 9.11994 22.0818 9.22651 22.0473 9.2985C21.9753 9.4252 21.9118 9.52645 21.8974 9.58344C21.8687 9.6843 21.8486 9.96088 21.8486 9.96088C21.8486 9.96088 21.912 9.883 21.935 9.85431C21.9002 9.92631 21.8628 10.004 21.8081 10.0617C21.8427 10.0329 21.9436 9.96088 22.1136 9.811C22.3499 9.61231 22.7188 9.27799 23.1685 9.01319C23.0328 9.0622 22.9177 9.0622 22.8256 9.07663C22.8976 9.00464 23.5459 8.24387 23.886 8.17188C23.9066 8.1457 23.9169 8.11283 23.9148 8.07956L23.6236 8.05087L23.0328 8.17757L22.9466 7.72168L22.5516 7.96083V7.9614Z" fill="#B18E3E"/>
<path fill-rule="evenodd" clip-rule="evenodd" d="M23.4915 10.5548C23.4915 10.5548 23.4136 10.6325 23.3416 10.8257C23.2862 10.7678 23.2387 10.7029 23.2003 10.6325C23.0937 10.4539 22.9296 10.2262 22.5463 10.3559C22.5406 10.2349 22.5318 10.1715 22.5463 10.0851C22.6097 10.0708 22.8027 9.91523 22.9957 9.68747C23.1313 9.5319 23.258 9.35315 23.3445 9.12559C23.4014 9.08228 23.5 9.01028 23.6294 8.9267C23.8138 8.8 24.0357 8.62695 24.0703 8.43396C23.9838 8.46853 23.7994 8.55496 23.5226 8.54071C23.6294 8.4917 23.7935 8.43985 23.7734 8.22653C23.8167 8.19765 23.8513 8.17752 23.8513 8.17752C23.8188 8.16668 23.7846 8.16179 23.7504 8.16308C23.7445 8.14294 23.736 8.11426 23.6869 8.12851C23.6379 8.14275 23.63 8.14294 23.6235 8.16308C23.6034 8.16897 23.5371 8.16308 23.4881 8.19784C23.4391 8.2326 23.3036 8.34753 23.2518 8.36766C23.2719 8.33309 23.3006 8.28142 23.3006 8.28142C23.3006 8.28142 23.1594 8.29567 23.0586 8.33841C22.8741 8.40185 22.661 8.51716 22.4448 8.62942C22.465 8.59485 22.4737 8.57243 22.4879 8.56598C22.5022 8.55952 22.537 8.55173 22.537 8.54584C22.537 8.53995 22.5227 8.48885 22.5313 8.46815C22.5959 8.33124 22.6721 8.20013 22.7592 8.07627C22.8601 7.94064 22.8802 7.74765 22.8802 7.74765L23.3211 7.52578L24.5602 7.24084L25.3643 7.28985L25.2634 7.84604L24.7885 8.8171L24.3822 9.70172L23.9181 10.2437L23.4917 10.5548H23.4915Z" fill="#543E26"/>
<path fill-rule="evenodd" clip-rule="evenodd" d="M25.4998 8.14772C25.4998 8.14772 25.0156 8.74703 24.8801 8.83935C24.9666 8.6549 25.4998 7.55696 25.6928 7.25151C25.6497 7.21694 25.5919 7.21694 25.7273 6.68164C25.6122 6.95233 25.5718 7.09365 25.4768 7.16565C25.3818 7.23764 25.37 7.21466 25.3058 7.21466C25.318 7.19273 25.3229 7.16756 25.3201 7.14266C25.3201 7.14266 24.9137 7.09365 24.6362 7.09365C24.3587 7.09365 23.8093 7.24353 23.5037 7.36453C23.2617 7.4654 23.1262 7.4654 23.0398 7.52865C22.9533 7.60065 22.9043 7.67853 22.861 7.69866C22.8265 7.7188 22.6623 7.77066 22.6247 7.82536C22.5901 7.88235 22.5326 7.94637 22.5326 7.9608C22.5326 7.97524 22.5181 7.99556 22.5615 7.98094C22.5757 7.97524 22.6825 7.91749 22.8035 7.8455C22.9676 7.75337 23.1665 7.64681 23.3107 7.58336C23.7227 7.41905 23.8524 7.44792 24.0367 7.41335C24.2297 7.37878 24.5065 7.29805 24.6907 7.29805C24.8752 7.29235 25.224 7.29805 25.3047 7.31248C25.2701 7.34136 25.2412 7.37593 25.2557 7.49693C25.2557 7.5315 25.2268 7.56892 25.1987 7.6525C25.1124 7.88881 24.9481 8.28069 24.8568 8.47957C24.7301 8.75026 24.5861 8.97802 24.5148 9.11915C24.4436 9.26029 24.2869 9.63203 24.1317 9.83092C23.9765 10.0298 23.8954 10.1508 23.8467 10.1941C23.7981 10.2374 23.449 10.4937 23.475 10.586C23.5384 10.5659 23.9391 10.415 24.2299 10.0875C24.5207 9.76006 24.5787 9.56023 24.8062 9.38148C25.0338 9.20273 25.2126 8.90317 25.3191 8.65547C25.4084 8.42486 25.3883 8.35287 25.5005 8.14829L25.4998 8.14772Z" fill="#806031"/>
<path fill-rule="evenodd" clip-rule="evenodd" d="M15.0652 12.621C15.0652 12.621 15.0017 12.8832 14.8576 13.0129C14.7164 13.1398 14.4657 13.2492 14.437 13.4625C14.4024 13.6757 14.6877 13.7824 14.6877 13.7824C14.6877 13.7824 14.532 14.0388 14.532 14.2318C14.532 14.4307 14.5263 14.4681 14.5464 14.6583C14.5236 14.673 14.5041 14.6924 14.4894 14.7153C14.4894 14.7153 14.5037 14.8997 14.645 15.0148C14.7863 15.13 14.9071 15.1993 14.9791 15.1704C14.9901 15.1939 14.9998 15.218 15.008 15.2426C15.008 15.2426 15.1148 14.9717 15.1868 14.7354C15.2588 14.4934 15.3222 14.5278 15.3509 14.2022C15.3796 13.8766 15.6928 13.3176 15.6928 13.3176L15.9065 12.8398L15.558 12.569L15.0652 12.6208V12.621Z" fill="#B6903C"/>
<path fill-rule="evenodd" clip-rule="evenodd" d="M15.7139 13.0907C15.6421 13.1645 15.5757 13.2435 15.5154 13.327C15.4233 13.4539 15.3513 13.569 15.2159 13.6182C15.0804 13.6674 14.994 13.667 15.0025 13.8027C15.0111 13.9383 15.138 13.9956 15.21 14.0648C15.2879 14.1368 15.3513 14.2578 15.3167 14.3934C15.3599 14.3733 15.4377 14.3501 15.5097 14.1945C15.5817 14.039 16.0853 13.0909 16.0853 13.0909H15.7139V13.0907Z" fill="#685026"/>
<path fill-rule="evenodd" clip-rule="evenodd" d="M17.7 10.9034C17.7 10.9034 17.7431 10.7883 17.7 10.7047C17.6567 10.6183 17.3945 10.5894 17.2648 10.4914C17.1294 10.3906 16.9651 10.3205 16.8296 10.3647C16.8498 10.3157 16.9305 10.209 16.8642 10.186C16.8007 10.1658 16.5646 10.2724 16.5012 10.3214C16.4377 10.3704 16.2936 10.428 16.2649 10.4627C16.2362 10.4975 16.187 10.5636 16.1581 10.5347C16.1293 10.5146 16.115 10.4627 16.066 10.4914C16.017 10.5201 15.7811 10.7133 15.7376 10.8257C15.6941 10.9382 15.5962 11.1889 15.3024 11.4741C15.0085 11.7592 14.8816 11.9438 14.9681 12.0504C15.0545 12.1569 15.095 12.0792 15.1094 12.1714C15.1205 12.2618 15.1156 12.3535 15.095 12.4423C15.0604 12.5921 15.0028 12.7333 15.0805 12.7621C15.2794 12.8256 15.4726 12.7051 15.5157 12.742C15.6021 12.8197 15.4667 13.0993 15.6713 13.154C15.8789 13.211 16.0835 13.105 16.0835 13.105L16.8384 12.6987L17.5646 12.3156L17.9361 11.5806L17.7368 10.9669L17.6989 10.9034H17.7Z" fill="#D4B968"/>
<path fill-rule="evenodd" clip-rule="evenodd" d="M16.9872 12.6585C16.9872 12.6585 16.8603 12.4655 17.0161 12.2953C17.1718 12.1251 17.3935 12.0533 17.4799 11.9467C17.4635 11.9264 17.4414 11.9114 17.4165 11.9036C17.4739 11.801 17.5614 11.7184 17.6672 11.6671C17.6241 11.624 17.5664 11.5894 17.5031 11.5894C17.3618 11.5894 17.2752 11.6759 17.1456 11.6759C17.0189 11.6759 17.0045 11.6124 17.0045 11.6124C17.0045 11.6124 17.2178 11.5923 17.1975 11.4971C17.1773 11.3962 17.1405 11.3962 17.1405 11.3962C17.1405 11.3962 17.5525 11.2253 17.6245 11.1341C17.6965 11.0429 17.6879 10.9352 17.7024 10.8921C17.7512 10.8921 18.0365 10.7422 18.1518 10.8057C18.2671 10.8691 18.1864 11.042 18.1864 11.042C18.1864 11.042 18.5353 10.7797 18.7131 10.5225C18.8687 10.5369 18.941 10.4159 19.055 10.4159C19.1963 10.4159 19.4182 10.6089 19.4613 11.0209C19.4902 11.2572 19.5333 11.3926 19.4902 11.8105C19.4701 12.0468 19.4757 12.5514 19.5472 12.8017C19.596 13.0006 19.7113 12.9805 19.7113 12.9805C19.6936 13.0411 19.6585 13.0952 19.6104 13.136C19.5325 13.208 19.524 13.3984 19.5325 13.4704C19.544 13.523 19.5585 13.5749 19.5759 13.6259C19.5759 13.6259 19.4837 13.7325 19.4606 13.8047C19.4404 13.8767 19.3454 13.9257 19.2761 13.9257C19.2068 13.9257 19.2415 13.9198 19.1494 13.9257C19.0573 13.9316 19.0284 13.9458 18.9707 13.9257C18.9129 13.9055 18.8698 13.8824 18.893 13.6977C18.9131 13.5133 18.1812 13.084 18.1812 13.084L16.9845 12.6575L16.9872 12.6585Z" fill="#CCA849"/>
<path fill-rule="evenodd" clip-rule="evenodd" d="M15.6133 14.4796C15.6133 14.4796 15.8754 14.8283 16.9532 14.8283C17.4661 14.8283 17.6448 14.7793 17.751 14.7505C17.8663 14.7216 18.2985 14.5518 18.7337 14.0387C19.1256 13.5748 19.0391 13.3847 19.0391 13.3847L18.8112 13.3501L18.0703 13.451L15.8782 14.3846L15.6123 14.4796H15.6133Z" fill="#585136"/>
<path fill-rule="evenodd" clip-rule="evenodd" d="M16.4165 14.566C16.4165 14.566 15.4829 14.7736 15.4829 14.1829C15.4829 13.6065 16.0592 13.0014 16.2034 12.8948C16.3533 12.7881 16.7106 12.6669 16.7106 12.6669H17.5722L17.7364 13.102L17.6644 14.0413L16.4165 14.5658V14.566Z" fill="#252211"/>
<path fill-rule="evenodd" clip-rule="evenodd" d="M17.2783 12.8429C17.2783 12.8429 17.0998 12.6785 16.6935 12.8998C16.2871 13.1211 15.9585 13.5837 15.9384 14.0037C15.9182 14.3753 16.2438 14.652 16.751 14.6665C17.1285 14.6807 17.3562 14.6376 17.4715 14.6095C17.4427 14.5749 17.2928 14.3876 17.2928 14.3876L17.2785 12.843L17.2783 12.8429Z" fill="#C3B378"/>
<path fill-rule="evenodd" clip-rule="evenodd" d="M17.1031 12.9347C17.1031 12.9347 17.06 12.9001 16.9322 12.9692C16.8256 13.0262 16.6701 13.1769 16.5491 13.2834C16.4712 13.3469 16.4222 13.3755 16.3781 13.4245C16.1993 13.6379 16.0495 13.9866 16.1361 14.1595C16.2227 14.3323 16.5078 14.5312 17.234 14.3958L17.1011 12.9349L17.1031 12.9347Z" fill="#E6D89C"/>
<path fill-rule="evenodd" clip-rule="evenodd" d="M16.8668 13.2922C16.8668 13.2922 16.7515 13.471 16.7515 13.7563C16.7515 14.0473 16.9158 14.5112 17.521 14.5458C17.9848 14.5746 18.296 13.8773 18.6331 13.6064C18.8896 13.399 19.0451 13.3931 19.0451 13.3931C19.0451 13.3931 18.783 13.1082 18.0828 12.7391C17.3912 12.3673 16.6161 12.3183 16.1953 12.8889C16.3942 12.8745 17.0368 12.7102 17.0368 12.7102L17.351 12.8111L16.8668 13.2924V13.2922Z" fill="#252211"/>
<path fill-rule="evenodd" clip-rule="evenodd" d="M17.7716 13.6698C17.7514 13.6267 17.737 13.569 17.8206 13.5547C17.9041 13.5405 17.9415 13.5488 17.9704 13.6117C17.9993 13.6746 18.0274 13.727 17.9847 13.753C17.9415 13.776 17.8291 13.753 17.7714 13.6695L17.7716 13.6698ZM17.6362 13.2635C17.6362 13.2635 17.6073 13.2837 17.6217 13.2434C17.6274 13.1946 17.665 13.108 17.7571 13.1283C17.8492 13.1486 17.8293 13.2493 17.8141 13.2782C17.7989 13.307 17.722 13.3558 17.6643 13.3351C17.6569 13.3333 17.6502 13.3297 17.6445 13.3247C17.6388 13.3197 17.6344 13.3135 17.6316 13.3065C17.6288 13.2995 17.6276 13.2919 17.6283 13.2843C17.629 13.2768 17.6314 13.2696 17.6354 13.2631L17.6362 13.2635Z" fill="#6F674D"/>
<path fill-rule="evenodd" clip-rule="evenodd" d="M9.83594 13.4476C9.83594 13.4476 10.0639 13.6186 10.3287 13.6119C10.5908 13.6061 10.928 13.3354 11.0836 13.1623C11.1757 13.0614 11.2545 12.9549 11.34 12.8713C11.4122 12.7993 11.461 12.7647 11.4956 12.7157C11.5446 12.6587 11.5964 12.5516 11.6225 12.5168C11.559 12.5659 11.4669 12.6525 11.3717 12.71C11.2796 12.767 11.0807 12.8742 11 12.903C10.9223 12.9319 10.1154 13.3589 10.1154 13.3589L9.83594 13.4476Z" fill="#AC924C"/>
<path fill-rule="evenodd" clip-rule="evenodd" d="M10.1836 11.3185C10.1836 11.3185 10.3103 11.2321 10.5553 11.1772C10.7916 11.1202 11.2671 11.0763 11.2671 11.0763L11.659 11.2473L11.8146 11.838L11.5296 12.452L11.1666 12.6799L10.7544 12.0171L10.1845 11.3196L10.1836 11.3185Z" fill="#9F8E57"/>
<path fill-rule="evenodd" clip-rule="evenodd" d="M9.67127 11.8458L9.53564 11.9471C9.53564 11.9471 9.57041 11.8836 9.59909 11.6906C9.62777 11.4976 9.77784 11.0279 9.99686 10.757C10.2159 10.4861 10.2102 10.5005 10.2102 10.5005C10.19 10.4968 10.1693 10.4975 10.1494 10.5024C10.1296 10.5074 10.111 10.5165 10.0949 10.5292C10.1238 10.4654 10.3082 10.2374 10.4926 10.1235C10.6771 10.0095 10.7491 9.97358 10.9421 10.0665C11.1351 10.1594 11.1841 10.2076 11.3254 10.2019C11.4667 10.1962 11.5876 10.0463 11.5876 10.0463C11.5876 10.0463 11.6164 10.1385 11.5099 10.3518C11.4033 10.5651 10.9825 11.0001 10.9825 11.0001L10.1065 11.5994L9.67127 11.8464V11.8458Z" fill="#EAC970"/>
<path fill-rule="evenodd" clip-rule="evenodd" d="M10.3191 11.2465C10.3191 11.2465 10.9532 11.3329 11.1462 11.1544C11.1519 11.1745 11.1751 11.1745 11.1751 11.1889C11.1735 11.1998 11.1684 11.2099 11.1606 11.2176C11.1816 11.2143 11.2028 11.2124 11.2241 11.2119C11.2494 11.2195 11.2756 11.2243 11.302 11.2264C11.3232 11.2259 11.3444 11.2239 11.3654 11.2205C11.3634 11.2348 11.3585 11.2486 11.3511 11.261C11.3436 11.2734 11.3338 11.2841 11.3221 11.2926C11.351 11.2926 11.3791 11.2983 11.3791 11.3213C11.3791 11.3443 11.3848 11.4137 11.3502 11.4281C11.3216 11.436 11.2911 11.4339 11.2638 11.4222C11.2661 11.4768 11.2809 11.5301 11.3071 11.578C11.3641 11.6845 11.4856 11.8059 11.649 11.771C11.649 11.771 11.7352 11.9784 11.3722 12.4394C11.3234 12.5029 11.2714 12.5893 11.2081 12.6613C11.1831 12.7158 11.164 12.7728 11.1511 12.8313C11.1511 12.8313 11.7651 12.595 11.9408 12.0561C12.1195 11.5143 12.1541 10.9813 12.1195 10.4829C12.1136 10.3415 12.0906 10.2409 12.0561 10.1687C11.9696 9.98993 11.7275 10.0188 11.6296 10.1197C11.4883 10.261 11.252 10.6124 10.9236 10.8544C10.5892 11.0964 10.575 11.1394 10.3184 11.2465H10.3191Z" fill="#D7BC6B"/>
<path fill-rule="evenodd" clip-rule="evenodd" d="M9.55878 12.0244C9.55878 12.0244 9.43777 12.0964 9.37433 12.3663C9.31088 12.6429 9.43131 12.9801 9.50103 13.0867C9.57074 13.1932 9.72898 13.4844 10.0572 13.4989C10.1385 13.4984 10.2188 13.4818 10.2935 13.4499C10.4081 13.3973 10.5156 13.3305 10.6134 13.251C10.7548 13.1444 10.8699 13.0523 10.8554 13.0435C10.8209 13.0291 9.98523 12.3375 9.98523 12.3375L9.67104 11.9868L9.55859 12.0248L9.55878 12.0244Z" fill="#585136"/>
<path fill-rule="evenodd" clip-rule="evenodd" d="M10.3487 13.1712C10.3487 13.1712 10.5187 13.157 10.6196 13.0935C10.7205 13.0301 10.0288 12.3444 10.0288 12.3444L10.0778 13.0852L10.3487 13.1712Z" fill="#453A25"/>
<path fill-rule="evenodd" clip-rule="evenodd" d="M9.61321 11.9726C9.61321 11.9726 9.52678 12.1369 9.52678 12.1802C9.51234 12.3213 9.55565 12.765 9.59022 12.9062C9.6248 13.0561 9.81209 13.2836 10.0543 13.2836C10.204 13.2836 10.4116 13.1915 10.4116 13.1685C10.4116 13.1396 10.1983 13.1115 10.1407 13.0042C10.1061 12.9472 10.0917 12.8055 10.0837 12.6623C10.078 12.5702 10.078 12.4693 10.1126 12.4343C10.1905 12.3479 10.2047 12.1 10.2047 12.1L10.4813 11.5862H10.1175L9.68235 11.8571L9.61321 11.9726Z" fill="#84754B"/>
<path fill-rule="evenodd" clip-rule="evenodd" d="M9.50732 12.1311C9.50732 12.1311 9.79225 11.7536 10.0491 11.667C10.3059 11.5804 10.4208 11.6325 10.4208 11.6325L10.2709 12.0158L10.0576 12.2521L10.072 12.3731C10.072 12.3731 10.0373 12.693 10.2506 12.9148C10.4639 13.1367 10.6223 13.1281 10.7147 13.1281C10.807 13.1281 11.072 13.0503 11.2074 12.7304C11.3284 12.4308 11.4293 12.0466 11.1873 11.6613C10.9508 11.278 10.5331 11.2632 10.4523 11.2632C10.3716 11.2632 9.73773 11.2949 9.50732 12.1305V12.1311Z" fill="#252211"/>
<path fill-rule="evenodd" clip-rule="evenodd" d="M16.8232 13.4134C16.7166 13.3644 16.8175 13.0648 16.9241 12.9725C17.0306 12.8802 17.1661 12.7738 17.4026 12.7592C17.4888 12.7535 17.5724 12.8082 17.5581 12.866C17.538 12.9725 17.3881 13.1224 17.2527 13.229C17.0654 13.376 16.9442 13.4681 16.8232 13.4134Z" fill="#F7F7E7"/>
<path fill-rule="evenodd" clip-rule="evenodd" d="M11.0599 11.7795C11.1378 11.7738 11.2387 11.8365 11.2588 11.9209C11.279 12.013 11.2098 12.1975 11.0599 12.1975C10.9389 12.1975 10.8755 12.0476 10.8755 12.0045C10.8769 11.969 10.8868 11.9344 10.9044 11.9036C10.9101 11.8948 10.9245 11.794 11.0599 11.7795Z" fill="#F8F6DE"/>
<path fill-rule="evenodd" clip-rule="evenodd" d="M9.93601 11.8458C9.93601 11.8458 9.73713 11.9379 9.645 12.1307C9.57917 12.2731 9.55925 12.4324 9.58801 12.5866C9.60245 12.6586 9.67444 12.8372 9.72345 12.9006C9.77246 12.964 9.83875 13.0074 9.88776 13.0015C9.93677 12.9956 10.0374 12.866 10.0374 12.7883C10.0374 12.7107 10.0433 12.382 10.1383 12.2033C10.2219 12.0248 9.93658 11.846 9.93658 11.846L9.93601 11.8458Z" fill="#D4C38B"/>
<path fill-rule="evenodd" clip-rule="evenodd" d="M9.96487 11.8314C9.9303 11.8515 9.87274 11.8804 9.88699 11.9178C9.90143 11.9524 10.0224 11.9748 10.0657 12.0591C10.1147 12.1456 10.1147 12.2377 10.1003 12.281C10.138 12.2631 10.1721 12.2387 10.2012 12.2088C10.2646 12.1368 10.3423 12.039 10.4086 12.039C10.4519 12.039 10.495 12.0591 10.5355 12.0591C10.5989 12.0591 10.6622 12.039 10.6709 11.9727C10.6852 11.8863 10.5499 11.8084 10.4721 11.8228C10.4865 11.7659 10.5066 11.6817 10.4432 11.624C10.3797 11.5662 10.181 11.6673 10.1377 11.6961C10.0944 11.725 9.96487 11.8316 9.96487 11.8316V11.8314Z" fill="#E2D59D"/>
<path fill-rule="evenodd" clip-rule="evenodd" d="M14.5437 17.8857L14.9702 17.7598L15.0912 17.8462C15.0912 17.8462 15.1774 18.0306 15.3131 18.0536C15.2697 18.1458 15.1573 18.2246 15.1632 18.2899C15.1691 18.3553 15.2266 18.4052 15.2266 18.4052C15.2266 18.4052 14.8433 19.0391 15.5984 19.6779C15.4196 19.7499 15.1921 19.8489 15.071 19.9059C15.1573 19.926 15.3417 19.9629 15.4196 20.0328C15.4975 20.1027 15.4975 20.1249 15.5695 20.1682C15.6415 20.2115 15.6846 20.2691 15.6704 20.2949C15.6214 20.266 15.457 20.1798 15.4284 20.2603C15.3997 20.3409 14.7166 20.3094 14.7166 20.3094L13.5639 20.5312C13.5639 20.5312 13.6071 20.4159 13.4861 20.3094C13.3449 20.1827 13.1721 20.3151 12.9876 20.1739C12.7456 19.9895 12.7369 19.7761 12.6592 19.6956C12.7369 19.6466 12.8955 19.5746 13.2729 19.5246C13.2585 19.4958 13.2095 19.4093 13.2384 19.3317C13.2729 19.2308 13.4169 19.1673 13.3738 19.0467C13.4372 19.0323 13.4659 19.0323 13.6245 18.8334C13.7744 18.6345 13.8665 18.5914 13.9818 18.577C14.0971 18.5625 14.1663 18.577 14.3796 18.3781C14.5293 18.2369 14.4805 18.1159 14.4805 18.1159C14.4805 18.1159 14.5783 18.0842 14.5439 17.8853L14.5437 17.8857Z" fill="#CBAC5A"/>
<path fill-rule="evenodd" clip-rule="evenodd" d="M13.2852 17.9497C13.2909 17.9208 13.3141 17.9064 13.4697 17.9208C13.6253 17.9353 14.6108 17.8287 14.8788 17.8143C15.1497 17.7941 16.1035 17.8084 16.5675 17.9064C17.0316 18.0044 17.5012 18.1197 17.7287 18.1772C17.9567 18.2407 18.0285 18.2635 18.0197 18.2924C18.014 18.3212 17.9628 18.3493 17.9333 18.3414C17.9046 18.3357 17.1495 18.1051 16.9163 18.0564C16.683 18.0078 15.8759 17.8777 15.4346 17.8855C15.0226 17.8914 14.8583 17.8798 14.5097 17.9201C14.1609 17.9634 13.5846 18.0209 13.4118 17.9979C13.2408 17.9778 13.2761 17.9778 13.2849 17.9489L13.2852 17.9497Z" fill="#D6BC6F"/>
<path fill-rule="evenodd" clip-rule="evenodd" d="M15.6043 20.2082C15.6043 20.2082 16.195 20.5281 16.4084 20.92C16.5639 21.211 16.3162 21.3552 16.3162 21.3552C16.3162 21.3552 16.6505 21.3552 16.6072 21.5396C16.5871 21.6547 16.0309 21.9659 15.6592 22.1302C15.2817 22.2945 15.2962 22.2859 15.1117 22.3146C14.933 22.3435 14.4431 22.2576 14.3422 22.4011C14.2414 22.5445 14.2852 22.6923 14.3133 22.7152C14.3422 22.7354 14.5757 22.7642 14.5757 22.7642C14.5757 22.7642 14.5267 22.8997 14.0427 22.9141C13.5587 22.9286 13.4375 22.9629 13.4086 23.015C13.3797 23.0638 13.5007 23.0351 13.7228 23.072C13.9446 23.1065 14.2558 23.129 14.2558 23.129C14.2558 23.129 14.1549 23.2154 13.8928 23.2845C13.593 23.3622 13.1233 23.4344 12.9821 23.5208C13.0541 23.5698 13.1609 23.6418 13.2101 23.6475C13.0891 23.6764 12.9189 23.7398 12.8902 23.7628C12.9333 23.7917 12.9911 23.8263 12.9911 23.8263C12.9911 23.8263 12.7489 24.1173 12.6077 24.1895C12.4666 24.2616 11.654 24.6389 11.3744 24.5669C10.677 24.3825 10.5906 23.6188 10.4206 23.5613C10.1642 23.4749 10.0432 23.6475 9.81541 23.5265C9.91627 23.4545 9.97117 23.4114 10.0777 23.3624C9.96243 23.3054 9.36597 22.9272 9.36597 22.9272C9.3036 22.7913 9.23437 22.6586 9.15854 22.5297C9.04324 22.3308 8.87361 22.0656 8.74634 21.8322C8.46977 21.3193 8.45533 21.083 8.20459 20.792C8.2479 20.735 8.39758 20.743 8.39758 20.743L10.4985 21.4346L14.2237 21.5425L15.1925 20.1594L15.6045 20.2084L15.6043 20.2082Z" fill="#DFC677"/>
<path fill-rule="evenodd" clip-rule="evenodd" d="M10.0864 22.3174C10.1089 22.3424 10.1351 22.3638 10.1641 22.3808C10.2363 22.4298 10.3429 22.4876 10.4149 22.5738C10.4437 22.5307 10.5157 22.4528 10.6428 22.5738C10.7699 22.6948 10.9277 22.6086 11.0259 22.6372C11.1268 22.672 11.1325 22.6863 11.1325 22.6863C11.1325 22.6863 11.1895 22.6372 11.317 22.5854C11.3948 22.5565 11.487 22.5364 11.5878 22.5077C11.68 22.4876 11.7808 22.4587 11.8502 22.4587C11.9136 22.5018 12.1412 22.7436 13.0547 22.3867C13.9163 22.0524 14.115 22.0149 14.2592 22.0666C14.2736 22.032 14.2881 21.9658 14.5099 21.9745C14.5099 21.8824 14.3255 21.5682 14.3255 21.5682L13.3083 21.2196H12.7519L11.0835 21.5251L10.159 22.0526L10.087 22.3185L10.0864 22.3174Z" fill="#C4A859"/>
<path fill-rule="evenodd" clip-rule="evenodd" d="M9.52979 21.7326C9.52979 21.7326 9.54992 21.8882 9.78053 22.0525C10.0085 22.2166 10.0801 22.3146 10.0801 22.3146C10.0801 22.3146 10.1234 22.2576 10.158 22.1995C10.1925 22.136 10.2214 22.0641 10.279 22.0439C10.3943 21.9949 10.6564 22.087 10.7142 22.0726C10.7632 22.0584 10.7487 21.9575 10.8006 21.9575C10.9216 21.9516 10.9993 22.0352 11.0426 22.0352C11.0859 22.0352 11.1923 22.0295 11.2067 22.0065C11.2212 21.9835 11.2268 21.7442 11.3912 21.6289C11.5699 21.5022 11.7889 21.5569 11.8471 21.5857C11.8471 21.6289 11.8528 21.7356 11.9681 21.7413C12.0834 21.747 12.0948 21.7269 12.196 21.7615C12.2972 21.796 12.4179 21.7558 12.4726 21.9256C12.5216 21.9113 12.6369 21.8969 12.608 21.7326C12.665 21.6895 12.7148 21.6606 12.836 21.4906C12.8648 21.4475 12.9137 21.3984 12.9513 21.335C13.0521 21.335 13.1731 21.3149 13.3344 21.456C13.2854 21.4906 13.2565 21.513 13.2423 21.5481C13.2845 21.5899 13.323 21.6352 13.3574 21.6836C13.4007 21.7406 13.4296 21.8105 13.4843 21.8249C13.6053 21.8595 13.8042 21.8105 14.026 21.8249C14.2394 21.8393 14.4179 21.917 14.4958 21.966C14.5247 21.9518 14.5247 21.9459 14.5967 21.9603C14.6687 21.9748 14.7234 21.9805 14.6457 21.8883C14.6888 21.9085 14.7378 21.9518 14.7811 21.9085C14.8244 21.8652 14.8588 21.8019 14.9798 21.7875C15.1008 21.773 15.1441 21.7932 15.1931 21.6665C15.2566 21.5109 15.0376 21.5109 15.0376 21.5109C15.0376 21.5109 15.1384 21.4186 15.2509 21.2976C15.3863 21.1709 15.5419 21.0066 15.5793 20.8048C15.6427 20.4331 15.2797 20.3843 15.2797 20.3843L13.519 20.926L11.3665 20.8193L9.53092 21.7328L9.52979 21.7326Z" fill="#927D49"/>
<path fill-rule="evenodd" clip-rule="evenodd" d="M7.94777 16.6465C7.94777 16.6465 7.89079 16.7185 7.85564 16.8885C7.8205 17.0585 7.83551 17.0384 7.80664 17.1594C7.77776 17.2804 7.42312 18.4849 7.55609 18.8913C7.68905 19.2976 7.91928 19.4475 8.06326 19.7759C8.09214 19.8479 8.12025 19.8912 8.13526 19.9547C8.18427 20.1678 8.14115 20.3321 8.1987 20.5454C8.21884 20.6174 8.27089 20.701 8.34858 20.7874C8.51954 20.966 8.7982 21.136 8.91844 21.257C9.08826 21.4358 9.33045 21.799 9.63875 21.8334C9.80306 21.8535 10.0365 21.7844 10.2295 21.6692C10.4005 21.5625 10.5061 21.4128 10.6854 21.3273C10.8121 21.2639 10.9475 21.2409 11.0685 21.212C11.3193 21.163 11.547 21.155 11.6825 21.1831C11.8899 21.2264 12.3798 21.3763 12.6512 21.3763C12.8633 21.3729 13.0743 21.3439 13.2794 21.2899C13.6914 21.1689 14.1899 20.9613 14.5185 20.8691C14.7115 20.8121 14.8671 20.7971 15.0257 20.7626C15.2965 20.6991 15.5241 20.6127 15.6539 20.4484C15.5674 20.3475 15.4609 20.1919 14.8843 20.1976C14.2303 20.2121 13.4753 20.5751 13.1035 20.6328C12.7318 20.6906 12.5705 20.7394 12.1555 20.5895C11.7486 20.4381 11.7351 20.338 11.7351 20.338C11.7351 20.338 11.3079 20.0392 11.1291 19.2775C10.9504 18.5157 11.1291 17.9607 11.5932 17.4331C11.7142 17.2977 11.6853 17.1767 11.6853 17.1767C11.6853 17.1767 11.9908 16.7647 11.9072 16.3789C11.8151 15.9955 11.2243 16.0734 11.2243 16.0734L7.94796 16.6465H7.94777Z" fill="#6E6342"/>
<path fill-rule="evenodd" clip-rule="evenodd" d="M8.44073 17.929C8.41532 17.9767 8.40337 18.0305 8.40616 18.0845C8.41186 18.1622 8.43503 18.2631 8.6683 18.4908C8.86718 18.6895 8.82387 18.9114 8.82387 18.9114C8.82387 18.9114 8.92397 18.9315 9.19561 18.8044C9.40893 18.7036 9.48054 18.8823 9.48054 18.8823C9.54264 18.8498 9.60994 18.8283 9.67943 18.8189C9.74238 18.8131 9.80331 18.7936 9.85798 18.7619C9.85798 18.7619 10.1087 19.0183 10.3277 19.1393C10.5266 19.2461 10.6419 19.3181 10.7399 19.2461C10.8321 19.1826 10.8321 19.0529 10.8262 18.9953C10.8033 18.9422 10.7744 18.8919 10.7399 18.8455C10.6765 18.7533 10.5756 18.6466 10.569 18.5605C10.5545 18.3619 10.7189 18.1254 10.6841 18.0678C10.6493 18.0103 10.52 17.9958 10.2001 18.1111C9.86881 18.2205 8.4394 17.9295 8.4394 17.9295L8.44073 17.929Z" fill="#39331F"/>
<path fill-rule="evenodd" clip-rule="evenodd" d="M9.19591 19.2171C9.19591 19.2171 9.03185 19.0615 9.08938 18.3065C9.15904 18.3055 9.22858 18.3122 9.29674 18.3266C9.29674 18.3266 9.38618 18.9117 9.19591 19.2171Z" fill="#292311"/>
<path fill-rule="evenodd" clip-rule="evenodd" d="M8.02582 16.0701C8.04872 16.0532 8.06997 16.0341 8.08927 16.0132C8.03228 16.1197 7.76919 16.5462 7.98251 17.2176C8.19583 17.8861 8.7317 18.3845 9.3916 18.4077C10.0515 18.4309 10.3984 18.108 10.795 17.624C10.9506 17.431 11.1293 17.1888 11.2877 17.0247C11.524 16.768 11.7085 16.696 11.7085 16.4483C11.7085 15.9412 11.1897 15.7134 10.4261 15.4858C9.66248 15.2583 8.9737 15.2864 8.61639 15.4422C8.26782 15.612 8.11795 15.7907 8.02563 16.0703L8.02582 16.0701Z" fill="#252211"/>
<path fill-rule="evenodd" clip-rule="evenodd" d="M10.4776 19.4445L10.5346 19.4156C10.5346 19.4156 10.5488 19.1876 10.6412 19.1937C10.7333 19.2082 10.7766 19.3294 10.7678 19.3725C10.7621 19.4156 10.7392 19.4878 10.6468 19.4791C10.5259 19.4819 10.4771 19.4445 10.4771 19.4445H10.4776Z" fill="#3F3824"/>
<path fill-rule="evenodd" clip-rule="evenodd" d="M10.2212 18.4765C10.2212 18.4765 10.2782 18.4564 10.3479 18.5255C10.4049 18.5255 10.6533 18.4966 10.7312 18.5456C10.8091 18.5946 10.8321 18.6377 10.8321 18.6377C10.8321 18.6377 10.5411 18.7012 10.3825 18.6377C10.2212 18.583 10.2212 18.4765 10.2212 18.4765Z" fill="#2D2815"/>
<path fill-rule="evenodd" clip-rule="evenodd" d="M11.5041 18.5195C11.5041 18.5051 11.3486 18.3985 11.1843 18.3638C11.1554 18.3581 11.1495 18.3782 11.1273 18.3782C11.1128 18.3725 11.1071 18.3292 11.1071 18.3292L11.0137 18.3784C11.0137 18.3784 10.9993 18.3985 11.0483 18.4354C11.0914 18.4699 11.1636 18.4988 11.1837 18.5564C11.2038 18.6139 11.2038 18.634 11.2126 18.6428C11.2183 18.6485 11.3191 18.6428 11.3681 18.6139C11.4171 18.585 11.5094 18.5379 11.5035 18.5189L11.5041 18.5195Z" fill="#82764F"/>
<path fill-rule="evenodd" clip-rule="evenodd" d="M10.0493 19.1046C10.0493 19.1046 10.078 18.9059 10.2712 18.8971C10.4699 18.8827 10.5075 19.0757 10.5075 19.0757L10.3922 19.191C10.3922 19.1882 10.3058 19.0672 10.0503 19.1046H10.0493Z" fill="#2D2816"/>
<path fill-rule="evenodd" clip-rule="evenodd" d="M11.3024 18.2485C11.3024 18.2485 11.1956 18.3639 10.9595 18.3984C10.9394 18.3696 10.8961 18.312 10.9595 18.2198C11.0229 18.1276 11.0949 18.0988 11.1669 18.1275C11.1987 18.1326 11.2283 18.1467 11.2523 18.1682C11.2763 18.1896 11.2937 18.2175 11.3024 18.2485Z" fill="#574F35"/>
<path fill-rule="evenodd" clip-rule="evenodd" d="M11.7368 18.3901C11.7427 18.3612 11.7226 18.3555 11.7368 18.3411C11.7511 18.3266 11.8291 18.2979 11.8436 18.3122C11.8493 18.3181 11.8436 18.3411 11.8436 18.3692C11.8436 18.3973 11.8436 18.4261 11.8291 18.4469C11.809 18.4757 11.7514 18.4902 11.7226 18.4816C11.6937 18.4731 11.688 18.4326 11.688 18.4246C11.7022 18.4189 11.7368 18.4045 11.7368 18.3901ZM12.2288 18.0789C12.2288 18.0645 12.2778 18.0356 12.3067 18.0356C12.3498 18.0356 12.3498 18.0702 12.3557 18.0789C12.3699 18.0846 12.3699 18.0731 12.3844 18.0991C12.3988 18.1251 12.4191 18.1711 12.4045 18.1999C12.3899 18.2288 12.3325 18.2488 12.3183 18.2431C12.2981 18.2286 12.2347 18.0991 12.2288 18.0789Z" fill="#82764F"/>
<path fill-rule="evenodd" clip-rule="evenodd" d="M11.2383 18.4564C11.2383 18.4564 11.3017 18.4706 11.3882 18.5428C11.3593 18.5629 11.316 18.5859 11.316 18.5859C11.316 18.5859 11.3103 18.5196 11.2383 18.4562V18.4564Z" fill="#6E6342"/>
<path fill-rule="evenodd" clip-rule="evenodd" d="M11.097 17.8223C11.0826 17.8081 11.1401 17.7735 11.1747 17.7792C11.2093 17.7849 11.2237 17.8081 11.2611 17.8138C11.2986 17.8195 11.3044 17.7993 11.3181 17.7849C11.3318 17.7705 11.3816 17.7792 11.3901 17.7849C11.3954 17.7912 11.4003 17.798 11.4046 17.805C11.4052 17.7941 11.408 17.7833 11.413 17.7735C11.4179 17.7637 11.4248 17.7551 11.4332 17.748C11.4443 17.7399 11.457 17.7344 11.4705 17.7319C11.484 17.7294 11.4979 17.73 11.5111 17.7336C11.5168 17.7537 11.5457 17.8257 11.54 17.8402C11.5343 17.8546 11.4479 17.8749 11.4332 17.8603C11.4477 17.8951 11.5111 17.9671 11.5197 17.9813C11.5282 17.9956 11.4562 18.0303 11.4275 18.0246C11.3873 18.0218 11.1394 17.8776 11.0962 17.8229L11.097 17.8223ZM11.4745 17.344C11.4691 17.3294 11.4589 17.3172 11.4456 17.3094C11.4254 17.3037 11.3592 17.3094 11.3592 17.344C11.3592 17.3785 11.4161 17.5719 11.4802 17.6726C11.5523 17.7735 11.6012 17.8569 11.6502 17.8801C11.6656 17.8871 11.683 17.888 11.6991 17.8826C11.7151 17.8773 11.7285 17.866 11.7366 17.8512C11.7423 17.8368 11.7567 17.7302 11.751 17.4794C11.7453 17.2287 11.7366 16.9866 11.7222 16.9722C11.7077 16.9578 11.6502 16.9579 11.63 16.9866C11.6099 17.0153 11.4802 17.3008 11.4743 17.344H11.4745Z" fill="#585136"/>
<path fill-rule="evenodd" clip-rule="evenodd" d="M11.2185 18.8194C11.2185 18.8194 11.1177 18.756 11.0196 18.7993C10.9275 18.8426 10.9332 19.0125 10.9332 19.0125C10.9539 19.0207 10.9763 19.0236 10.9984 19.0211C11.0205 19.0186 11.0417 19.0107 11.0601 18.9981C11.1235 18.955 11.2041 18.883 11.2185 18.8196V18.8194Z" fill="#574F35"/>
<path fill-rule="evenodd" clip-rule="evenodd" d="M11.4085 19.0469C11.4029 18.9899 11.3516 18.9899 11.3516 18.9604C11.3551 18.9464 11.3632 18.9339 11.3747 18.925C11.3862 18.9161 11.4003 18.9113 11.4148 18.9114C11.4437 18.9114 11.4718 18.946 11.5071 18.9684C11.5417 18.9885 11.5936 19.0254 11.5993 19.0693C11.605 19.1132 11.5423 19.2334 11.4726 19.2334C11.4029 19.2334 11.4236 19.1037 11.4091 19.0461L11.4085 19.0469ZM11.9647 18.969C11.9647 18.969 11.8494 19.0036 11.858 18.969C11.8665 18.9344 11.8927 18.9259 11.9302 18.9259C11.9492 18.906 11.9748 18.8936 12.0022 18.8911C12.0178 18.8903 12.0332 18.8955 12.0453 18.9055C12.0453 18.9055 12.1232 18.871 12.1461 18.8911C12.1691 18.9112 12.152 18.9112 12.1663 18.9344C12.1844 18.9601 12.1963 18.9897 12.201 19.0208C12.201 19.0438 12.1146 19.0928 12.0453 19.0843C11.9647 19.067 11.979 18.9834 11.9647 18.969ZM12.636 18.8392C12.636 18.8392 12.6706 18.8594 12.6419 18.8825C12.6218 18.9027 12.5209 18.9395 12.4343 18.946C12.3479 18.946 12.2702 18.9602 12.2702 18.9316C12.2702 18.9029 12.3422 18.8451 12.3853 18.8307C12.3939 18.8199 12.4049 18.8111 12.4174 18.8051C12.4299 18.7991 12.4436 18.7961 12.4575 18.7961C12.4921 18.7961 12.6273 18.7817 12.6649 18.776C12.6995 18.7701 12.7284 18.7902 12.708 18.8191C12.6995 18.8392 12.636 18.8392 12.636 18.8392ZM12.8349 17.9494C12.8349 17.9494 12.7916 18.0416 12.7428 18.0416C12.6938 18.0359 12.6938 18.0214 12.6938 18.007C12.6938 17.9869 12.7428 17.935 12.7369 17.9206C12.7227 17.9206 12.6879 17.9206 12.6938 17.886C12.6938 17.8571 12.7428 17.8226 12.7859 17.829C12.8185 17.8022 12.8591 17.7871 12.9012 17.7859C12.9502 17.7859 12.9933 17.8001 12.9933 17.829C12.9933 17.8579 12.9364 17.9211 12.9155 17.9358C12.8925 17.9588 12.8636 17.9738 12.8349 17.95V17.9494ZM12.1779 19.6525C12.1779 19.6525 12.1209 19.6584 12.1209 19.687C12.1209 19.7015 12.1351 19.7015 12.1555 19.6929C12.1672 19.6923 12.1788 19.6903 12.19 19.687C12.1957 19.6929 12.1957 19.7216 12.239 19.7216C12.2746 19.7168 12.3089 19.7051 12.3399 19.687C12.3745 19.6728 12.4033 19.6582 12.4033 19.63C12.3889 19.581 12.36 19.5579 12.3169 19.5579C12.2948 19.5565 12.2728 19.5615 12.2535 19.5723C12.2535 19.5723 12.239 19.5434 12.19 19.5723C12.141 19.6012 12.1467 19.6012 12.1612 19.6156C12.187 19.6386 12.1784 19.6536 12.1784 19.6536L12.1779 19.6525ZM11.8523 19.9522C11.8523 19.9378 11.9243 19.9089 11.9444 19.9177C11.9645 19.9234 12.0221 20.0328 12.0221 20.0444C12.0221 20.0588 11.9501 20.0934 11.9212 20.0934C11.8924 20.0934 11.8435 20.0444 11.8435 20.0364C11.8435 20.0307 11.8781 20.0221 11.8781 20.0162C11.8867 20.002 11.8523 19.9672 11.8523 19.9528V19.9522ZM11.6243 19.5315C11.6388 19.5258 11.6388 19.5113 11.6589 19.4969C11.6652 19.4927 11.6724 19.49 11.6799 19.489C11.6874 19.488 11.695 19.4888 11.7022 19.4912C11.7073 19.4821 11.7143 19.4743 11.7228 19.4683C11.7313 19.4623 11.741 19.4582 11.7512 19.4564C11.7858 19.4507 11.8147 19.4564 11.8082 19.4709C11.8082 19.5142 11.8371 19.5429 11.8371 19.5774C11.8371 19.612 11.817 19.6553 11.745 19.6842C11.673 19.7043 11.575 19.7043 11.5605 19.6986C11.5461 19.6929 11.5316 19.6352 11.5461 19.6063C11.5605 19.5774 11.6008 19.5459 11.624 19.5315H11.6243Z" fill="#82764F"/>
<path fill-rule="evenodd" clip-rule="evenodd" d="M11.7165 19.5511C11.7165 19.5511 11.6674 19.58 11.6674 19.5944C11.6631 19.6084 11.6611 19.623 11.6617 19.6376C11.6617 19.6461 11.7252 19.6319 11.7338 19.6231C11.7366 19.6174 11.7165 19.5661 11.7165 19.5511Z" fill="#6E6342"/>
<path fill-rule="evenodd" clip-rule="evenodd" d="M11.2878 19.4157C11.3165 19.4216 11.3655 19.4157 11.4029 19.4301C11.4318 19.4446 11.4519 19.4734 11.4231 19.508C11.3942 19.5425 11.3661 19.5944 11.3021 19.5857C11.2301 19.58 11.1609 19.5425 11.1609 19.5137C11.1597 19.4954 11.1622 19.4771 11.1681 19.4598C11.174 19.4425 11.1834 19.4265 11.1955 19.4128C11.2244 19.3899 11.2386 19.4043 11.2876 19.4157H11.2878Z" fill="#585136"/>
<path fill-rule="evenodd" clip-rule="evenodd" d="M11.2528 19.4446C11.2528 19.4446 11.1607 19.5166 11.1375 19.5513C11.1086 19.5859 10.9675 19.7645 10.9243 19.8019C10.9387 19.7766 10.955 19.7525 10.9732 19.7299C10.9162 19.7663 10.8734 19.8213 10.8522 19.8855C10.8176 19.9922 11.0453 20.0498 11.195 20.0931C11.3447 20.1364 11.4027 20.1501 11.4027 20.1501C11.3476 20.0673 11.3002 19.9795 11.2613 19.8879C11.2043 19.7525 11.1749 19.7381 11.2123 19.6746C11.2412 19.6112 11.2845 19.5681 11.2845 19.519C11.2672 19.4735 11.2528 19.4446 11.2528 19.4446Z" fill="#574F35"/>
<path fill-rule="evenodd" clip-rule="evenodd" d="M7.96766 19.6724C7.98864 19.6762 8.01014 19.6762 8.03111 19.6724C8.07423 19.6665 8.52385 19.5014 8.99361 19.531C9.34528 19.5523 9.69383 19.6096 10.0338 19.702C10.6246 19.8576 11.3593 20.1659 11.8348 20.3418C11.9615 20.3906 12.0855 20.4772 12.1767 20.5116C12.5399 20.653 12.5541 20.653 12.7674 20.6904C13.0182 20.725 13.2746 20.6414 13.5426 20.5838C13.8711 20.5116 14.433 20.477 14.9257 20.4051C15.085 20.383 15.2422 20.3473 15.3955 20.2985C15.3955 20.2985 15.0036 20.6904 14.0641 20.8315C13.6843 20.8892 13.2984 20.8941 12.9173 20.846C12.6176 20.8171 12.4189 20.7738 12.269 20.7307C12.099 20.6816 11.7502 20.5519 11.3209 20.4457C11.0212 20.3678 10.6869 20.3103 10.3037 20.2383C9.35851 20.0652 8.33276 19.8665 7.96729 19.6735L7.96766 19.6724Z" fill="#252211"/>
<path fill-rule="evenodd" clip-rule="evenodd" d="M6.90727 17.8916C6.67932 18.0846 6.43751 18.269 6.2014 18.4476L5.48964 18.9945C5.24764 19.173 5.01133 19.3575 4.76914 19.5362C4.52695 19.715 4.28514 19.8848 4.02832 20.0491C4.25627 19.8561 4.49808 19.6774 4.74008 19.5017C4.98208 19.326 5.23301 19.1537 5.46647 18.9755L6.17823 18.4278C6.42308 18.2493 6.65938 18.0648 6.90727 17.892V17.8916ZM5.64806 19.9087C5.64806 19.9087 5.9045 19.6954 6.22438 19.3959C6.62196 19.0243 7.109 18.5487 7.26457 18.4624L5.64787 19.9089L5.64806 19.9087Z" fill="#CFB66C"/>
<path fill-rule="evenodd" clip-rule="evenodd" d="M5.64844 19.9086C5.77533 19.7819 5.91077 19.658 6.04621 19.5368L6.25364 19.3583C6.31708 19.3013 6.38927 19.2373 6.45252 19.1738C6.57922 19.0471 6.70326 18.9115 6.82996 18.782C6.89276 18.7168 6.95916 18.6552 7.02885 18.5975C7.06369 18.5667 7.10238 18.5405 7.14396 18.5196C7.17872 18.4995 7.21614 18.4626 7.26496 18.4562C7.23628 18.4995 7.20171 18.5196 7.17283 18.557C7.13826 18.5859 7.10939 18.6205 7.0807 18.6492C7.01726 18.7126 6.94527 18.7702 6.88182 18.8279C6.74638 18.9432 6.60524 19.0559 6.46981 19.1765C6.33437 19.2971 6.20767 19.4272 6.07204 19.5482C5.9252 19.6723 5.78976 19.7933 5.64844 19.9091V19.9086ZM7.37172 18.7559C7.37172 18.7559 6.43239 19.6753 6.2392 19.825L7.37172 18.7559Z" fill="#CFB66C"/>
<path fill-rule="evenodd" clip-rule="evenodd" d="M7.37177 18.7557C7.28727 18.8536 7.19667 18.9459 7.10052 19.0323L6.81558 19.3032C6.72346 19.3953 6.63684 19.4876 6.53901 19.5798C6.43814 19.6662 6.34601 19.7507 6.23926 19.8305L6.51583 19.5596C6.60815 19.4675 6.70902 19.3898 6.80704 19.2975L7.08361 19.0266C7.17859 18.9316 7.27091 18.8393 7.37177 18.7557ZM7.41489 19.2542C7.32831 19.4958 7.22628 19.7317 7.10945 19.9602C6.86744 20.4444 6.50444 21.0495 6.34582 21.3579L7.41489 19.2542Z" fill="#CFB66C"/>
<path fill-rule="evenodd" clip-rule="evenodd" d="M7.41437 19.2544C7.41437 19.361 7.38549 19.4533 7.35092 19.5454C7.31722 19.6376 7.2788 19.728 7.23581 19.8163C7.1925 19.9027 7.14349 19.995 7.09448 20.0786C7.04547 20.1622 6.98792 20.2484 6.94461 20.3351L6.65359 20.8479C6.55273 21.0189 6.45471 21.1908 6.34814 21.3551C6.42014 21.1707 6.51815 20.9978 6.61047 20.8278C6.71134 20.6568 6.80347 20.4859 6.89541 20.309C6.9403 20.2209 6.98068 20.1306 7.01641 20.0383C7.05953 19.946 7.10265 19.8596 7.13741 19.776C7.18053 19.6839 7.2151 19.5973 7.25841 19.5139C7.30723 19.4244 7.34769 19.338 7.41399 19.2544H7.41437Z" fill="#CFB66C"/>
<path fill-rule="evenodd" clip-rule="evenodd" d="M8.44057 21.6173C8.44057 21.6173 8.15564 21.9948 8.18413 22.4731C8.26182 22.2225 8.35984 21.8392 8.44057 21.6173ZM8.71144 21.9957C8.71144 21.9957 8.61058 23.0215 8.527 23.5258C8.64515 22.9428 8.66813 22.9918 8.71144 21.9957ZM10.5988 23.5864C10.5988 23.5864 10.1724 24.8401 10.1636 25.1885C10.256 24.8302 10.4345 24.0983 10.5988 23.5854V23.5864Z" fill="#DEC270"/>
<path fill-rule="evenodd" clip-rule="evenodd" d="M11.5957 21.5398C11.5957 21.5398 12.2873 22.6809 12.8061 23.6548C12.6657 23.1647 12.3428 22.2658 11.5957 21.5398Z" fill="#CBAF59"/>
<path fill-rule="evenodd" clip-rule="evenodd" d="M13.4546 23.2195C13.8343 23.8907 14.1768 24.5824 14.4803 25.2913C14.4228 24.8014 14.267 23.963 13.4546 23.2195Z" fill="#E3C677"/>
<path fill-rule="evenodd" clip-rule="evenodd" d="M18.9182 24.9019C19.0333 24.83 19.2611 24.4379 19.46 24.3401C19.6586 24.2392 19.8085 24.2191 19.9873 24.0202C20.1658 23.8126 20.2152 23.6859 20.6067 23.5217C21.1543 23.2852 20.7777 22.9798 20.7777 22.9798C20.838 22.9205 20.9025 22.8657 20.9707 22.8157C21.112 22.7091 21.2761 22.5794 21.2619 22.3516C21.2417 21.9685 21.1697 21.4123 20.8555 21.0895C21.161 21.0261 21.7459 20.983 22.1092 20.8908C22.5298 20.7841 22.723 20.6342 22.723 20.6342C22.723 20.6342 22.481 20.2222 22.8729 19.8073C23.2647 19.3925 23.5846 19.1446 23.8209 18.6805C23.5501 18.6459 23.1371 18.502 22.0832 18.9024C22.1401 18.9291 22.195 18.9599 22.2475 18.9945C22.2475 18.9945 21.5992 19.1733 21.3629 19.3721C20.9507 19.7207 20.8989 20.006 20.4523 20.2193C20.0057 20.4327 19.5561 20.3749 19.1845 20.5478C18.813 20.7206 18.7581 20.8677 18.6224 20.9311C18.6513 20.9657 18.6167 21.0232 18.6714 21.0723C18.6369 21.1213 18.4351 21.4497 18.2306 21.4497C18.2507 21.5276 18.4236 21.5851 18.4236 21.5851C18.4236 21.5851 18.2969 21.6774 17.9741 21.7004C18.1382 21.8714 18.294 22.0577 18.7233 22.3286C18.6887 22.4006 18.5446 22.5074 18.6023 22.6428C18.6658 22.7782 18.8302 22.9627 19.4869 23.1126C19.1526 23.1268 18.7609 23.2047 18.2332 23.1327C17.7059 23.0693 17.6195 23.0318 17.2939 23.1126C17.3285 23.1471 17.4206 23.1471 17.5013 23.2393C17.4149 23.245 16.8731 23.1758 16.6887 23.418C16.4957 23.6686 16.4121 24.0808 16.4266 24.3573C16.3257 24.4064 16.2277 24.4928 16.2767 24.6715C16.3257 24.8503 16.5821 24.9078 16.7464 25.0201C16.9106 25.1411 16.925 25.1842 17.0808 25.1555C17.2449 25.121 17.4869 24.9568 17.6282 24.9568C17.7695 24.9568 17.8702 25.0634 17.8702 25.0634C17.8702 25.0634 18.2535 24.879 18.291 24.9135C18.3255 24.9481 18.2967 25.17 18.3341 25.2045C18.3721 25.2306 18.8038 24.9741 18.9191 24.9019H18.9182Z" fill="#ECD592"/>
<path fill-rule="evenodd" clip-rule="evenodd" d="M27.2949 13.3704C25.4939 8.71955 21.0417 7.85791 21.0417 7.85791H8.33955L8.38855 12.5952H10.9182V23.1737H8.33936V27.9024H20.6901C23.6667 27.9024 26.0527 24.9112 26.0527 24.9112C29.8737 19.4881 27.2947 13.3704 27.2947 13.3704H27.2949ZM20.7564 21.7241C20.7564 21.7241 19.7876 23.1218 18.7335 23.1218H16.625L16.5751 12.6068H19.281C19.281 12.6068 20.5347 12.8689 21.4106 15.35C21.4106 15.35 22.5718 18.9021 20.7564 21.7241Z" fill="white" fill-opacity="0.8"/>
</svg>
