<svg width="240" height="160" viewBox="0 0 240 160" fill="none" xmlns="http://www.w3.org/2000/svg">
<path d="M190.051 35.8738C194.826 35.8738 198.696 31.9767 198.696 27.1694C198.696 22.362 194.826 18.4649 190.051 18.4649C185.277 18.4649 181.407 22.362 181.407 27.1694C181.407 31.9767 185.277 35.8738 190.051 35.8738Z" fill="#43B8CD"/>
<path d="M178.178 62.3144C176.251 64.0992 173.252 63.9733 171.48 62.0331L161.208 50.7895L168.185 44.3261L178.457 55.5697C180.23 57.5098 180.105 60.5296 178.178 62.3144Z" fill="#99349D"/>
<path d="M155.771 57.7975L150.821 60.6756C149.687 61.3346 148.237 60.9435 147.583 59.802L140.751 47.8866C140.096 46.7451 140.485 45.2854 141.618 44.6263L146.569 41.7482L155.771 57.7975Z" fill="#BA65BE"/>
<path d="M175.083 5.5556L201.157 51.0292C199.102 50.3161 196.848 49.8132 194.479 49.4921C185.523 48.2807 174.92 49.6762 167.199 52.1756C164.622 53.0086 162.367 53.9659 160.601 54.9895L151.399 38.9407C153.162 37.9126 155.113 36.4243 157.118 34.5942C163.128 29.1111 169.63 20.5628 173.066 12.1466C173.974 9.9208 174.669 7.70392 175.083 5.5556Z" fill="#43B8CD"/>
<path d="M157.118 34.5941L167.199 52.1755C164.622 53.0085 162.367 53.9658 160.601 54.9894L151.399 38.9406C153.162 37.9125 155.113 36.4242 157.118 34.5941Z" fill="#BA65BE"/>
<path d="M161.921 56.1678L155.642 59.8181C155.042 60.167 154.274 59.9599 153.928 59.3556L144.307 42.5768C143.96 41.9725 144.166 41.1997 144.766 40.8507L151.045 37.2005C151.645 36.8515 152.413 37.0586 152.759 37.663L162.38 54.4418C162.727 55.0461 162.521 55.8189 161.921 56.1678Z" fill="#009FBD"/>
<path d="M173.298 0.757852C174.565 0.0212123 176.185 0.458412 176.916 1.73425L205.36 51.3411C206.092 52.6169 205.658 54.2483 204.39 54.9849C203.123 55.7215 201.503 55.2843 200.772 54.0085L172.328 4.40169C171.596 3.12585 172.031 1.49441 173.298 0.757852Z" fill="#BA65BE"/>
<path d="M155.444 48.3045L152.117 50.2384C151.699 50.4814 151.165 50.3372 150.923 49.9163C150.682 49.4954 150.825 48.9572 151.243 48.7142L154.57 46.7803C154.988 46.5373 155.522 46.6815 155.764 47.1024C156.005 47.5233 155.862 48.0615 155.444 48.3045Z" fill="#BA65BE"/>
<path d="M154.054 45.8806L150.728 47.8145C150.31 48.0575 149.775 47.9133 149.534 47.4924C149.292 47.0715 149.436 46.5333 149.854 46.2903L153.18 44.3564C153.598 44.1134 154.133 44.2576 154.374 44.6785C154.616 45.0994 154.472 45.6376 154.054 45.8806Z" fill="#BA65BE"/>
<path d="M152.664 43.4565L149.337 45.3905C148.919 45.6335 148.385 45.4893 148.144 45.0684C147.902 44.6475 148.046 44.1093 148.464 43.8663L151.79 41.9324C152.208 41.6894 152.743 41.8336 152.984 42.2545C153.225 42.6754 153.082 43.2136 152.664 43.4565Z" fill="#BA65BE"/>
<path d="M151.274 41.0326L147.948 42.9666C147.53 43.2096 146.995 43.0654 146.754 42.6445C146.513 42.2236 146.656 41.6854 147.074 41.4424L150.401 39.5085C150.819 39.2654 151.353 39.4097 151.594 39.8306C151.836 40.2514 151.692 40.7897 151.274 41.0326Z" fill="#BA65BE"/>
<path d="M155.96 49.2042L152.633 51.1382C152.215 51.3812 152.072 51.9194 152.313 52.3402C152.555 52.7611 153.089 52.9054 153.507 52.6623L156.834 50.7284C157.252 50.4854 157.395 49.9472 157.154 49.5263C156.913 49.1054 156.378 48.9612 155.96 49.2042Z" fill="#BA65BE"/>
<path d="M157.35 51.6282L154.023 53.5621C153.605 53.8051 153.462 54.3433 153.703 54.7642C153.944 55.185 154.479 55.3293 154.897 55.0862L158.224 53.1523C158.642 52.9093 158.785 52.3711 158.544 51.9502C158.302 51.5294 157.768 51.3851 157.35 51.6282Z" fill="#BA65BE"/>
<path d="M158.739 54.0521L155.413 55.986C154.995 56.229 154.852 56.7672 155.093 57.1881C155.334 57.609 155.869 57.7532 156.287 57.5102L159.613 55.5762C160.031 55.3332 160.174 54.795 159.933 54.3742C159.692 53.9533 159.157 53.809 158.739 54.0521Z" fill="#BA65BE"/>
<path d="M204.677 89.9146L124.406 65.4585L122.414 71.9981L120.049 71.2775L122.041 64.738L93.3183 55.9869C92.2424 59.5185 88.5073 61.509 84.9758 60.4331L67.6411 117.33C71.1726 118.406 73.1633 122.141 72.0873 125.672L100.81 134.423L102.803 127.884L105.168 128.604L103.175 135.144L183.446 159.6C184.522 156.068 188.257 154.078 191.788 155.154L209.123 98.2571C205.592 97.1812 203.601 93.4461 204.677 89.9146ZM105.999 125.876L103.634 125.155L106.085 117.108L108.451 117.829L105.999 125.876ZM109.282 115.1L106.917 114.38L109.368 106.333L111.734 107.053L109.282 115.1ZM112.565 104.325L110.2 103.604L112.651 95.5573L115.016 96.2778L112.565 104.325ZM115.848 93.5491L113.483 92.8285L115.934 84.7817L118.299 85.5023L115.848 93.5491ZM119.131 82.7736L116.766 82.053L119.217 74.0062L121.582 74.7268L119.131 82.7736Z" fill="#99349D"/>
<path d="M188.5 52.8246H104.586V59.6609H102.114V52.8246H72.0874C72.0874 56.5163 69.0946 59.509 65.4028 59.5091V118.988C69.0946 118.988 72.0874 121.981 72.0874 125.672H102.114V118.836H104.586V125.672H188.5C188.5 121.981 191.492 118.988 195.184 118.988V59.509C191.492 59.509 188.5 56.5162 188.5 52.8246ZM104.586 115.984H102.114V107.572H104.586V115.984ZM104.586 104.719H102.114V96.307H104.586V104.719ZM104.586 93.4544H102.114V85.0424H104.586V93.4544ZM104.586 82.1898H102.114V73.7778H104.586V82.1898ZM104.586 70.9253H102.114V62.5133H104.586V70.9253Z" fill="#492B88"/>
<path d="M75.7735 123.117H74.2854L74.2348 122.953C74.1091 122.545 73.9532 122.143 73.7715 121.756L74.192 121.558C74.3585 121.913 74.5044 122.28 74.6266 122.652H75.7733V123.117L75.7735 123.117Z" fill="#009FBD"/>
<path d="M72.6455 119.94C72.2023 119.381 71.694 118.873 71.1348 118.43L71.4236 118.066C72.0107 118.531 72.5443 119.065 73.0096 119.652L72.6455 119.94Z" fill="#009FBD"/>
<path d="M69.3193 117.304C68.9328 117.122 68.5302 116.966 68.1223 116.84L67.9585 116.79V115.302H68.4232V116.448C68.7955 116.571 69.1627 116.717 69.5169 116.883L69.3194 117.303L69.3193 117.304Z" fill="#009FBD"/>
<path d="M68.4232 112.559H67.9585V109.817H68.4232V112.559ZM68.4232 107.074H67.9585V104.332H68.4232V107.074ZM68.4232 101.59H67.9585V98.8471H68.4232V101.59ZM68.4232 96.1047H67.9585V93.3622H68.4232V96.1047ZM68.4232 90.6198H67.9585V87.8773H68.4232V90.6198ZM68.4232 85.1349H67.9585V82.3924H68.4232V85.1349ZM68.4232 79.65H67.9585V76.9075H68.4232V79.65ZM68.4232 74.1651H67.9585V71.4226H68.4232V74.1651ZM68.4232 68.6802H67.9585V65.9377H68.4232V68.6802Z" fill="#009FBD"/>
<path d="M68.4232 63.1952H67.9585V61.7071L68.1223 61.6566C68.5302 61.5307 68.9328 61.3748 69.3193 61.1933L69.5168 61.6138C69.1627 61.7802 68.7955 61.9261 68.4231 62.0483V63.1951L68.4232 63.1952Z" fill="#009FBD"/>
<path d="M71.4236 60.4315L71.1348 60.0674C71.6938 59.6241 72.2021 59.1158 72.6455 58.5567L73.0096 58.8455C72.544 59.4324 72.0104 59.966 71.4236 60.4315Z" fill="#009FBD"/>
<path d="M74.1921 56.9385L73.7715 56.741C73.9532 56.3542 74.109 55.9516 74.2348 55.5441L74.2854 55.3803H75.7735V55.845H74.6268C74.5045 56.217 74.3587 56.5841 74.1923 56.9386L74.1921 56.9385Z" fill="#009FBD"/>
<path d="M95.5385 55.845H93.0679V55.3802H95.5385V55.845ZM90.5973 55.845H88.1267V55.3802H90.5973V55.845ZM85.6561 55.845H83.1854V55.3802H85.6561V55.845ZM80.7148 55.845H78.2441V55.3802H80.7148V55.845Z" fill="#009FBD"/>
<path d="M99.5582 56.9293H99.0935V55.8449H98.0093V55.3803H99.5582V56.9293Z" fill="#009FBD"/>
<path d="M99.558 118.982H99.0933V116.397H99.558V118.982ZM99.558 113.811H99.0933V111.225H99.558V113.811ZM99.558 108.64H99.0933V106.054H99.558V108.64ZM99.558 103.469H99.0933V100.883H99.558V103.469ZM99.558 98.2977H99.0933V95.7121H99.558V98.2977ZM99.558 93.1266H99.0933V90.541H99.558V93.1266ZM99.558 87.9555H99.0933V85.37H99.558V87.9555ZM99.558 82.7844H99.0933V80.1989H99.558V82.7844ZM99.558 77.6133H99.0933V75.0277H99.558V77.6133ZM99.558 72.4422H99.0933V69.8566H99.558V72.4422ZM99.558 67.2711H99.0933V64.6856H99.558V67.2711ZM99.558 62.1H99.0933V59.5145H99.558V62.1Z" fill="#009FBD"/>
<path d="M99.5582 123.117H98.0093V122.652H99.0936V121.568H99.5582V123.117Z" fill="#009FBD"/>
<path d="M95.5385 123.117H93.0679V122.652H95.5385V123.117ZM90.5973 123.117H88.1266V122.652H90.5973V123.117ZM85.656 123.117H83.1854V122.652H85.656V123.117ZM80.7148 123.117H78.2441V122.652H80.7148V123.117Z" fill="#009FBD"/>
<path d="M108.691 123.117H107.142V121.568H107.607V122.652H108.691V123.117Z" fill="#009FBD"/>
<path d="M107.607 118.982H107.142V116.397H107.607V118.982ZM107.607 113.811H107.142V111.226H107.607V113.811ZM107.607 108.64H107.142V106.054H107.607V108.64ZM107.607 103.469H107.142V100.883H107.607V103.469ZM107.607 98.2978H107.142V95.7123H107.607V98.2978ZM107.607 93.1267H107.142V90.5411H107.607V93.1267ZM107.607 87.9556H107.142V85.37H107.607V87.9556ZM107.607 82.7845H107.142V80.1989H107.607V82.7845ZM107.607 77.6134H107.142V75.0279H107.607V77.6134ZM107.607 72.4423H107.142V69.8567H107.607V72.4423ZM107.607 67.2712H107.142V64.6856H107.607V67.2712ZM107.607 62.1001H107.142V59.5146H107.607V62.1001Z" fill="#009FBD"/>
<path d="M107.607 56.9293H107.142V55.3803H108.691V55.8449H107.607V56.9293Z" fill="#009FBD"/>
<path d="M182.189 55.845H179.564V55.3802H182.189V55.845ZM176.939 55.845H174.314V55.3802H176.939V55.845ZM171.689 55.845H169.064V55.3802H171.689V55.845ZM166.439 55.845H163.814V55.3802H166.439V55.845ZM161.189 55.845H158.565V55.3802H161.189V55.845ZM155.94 55.845H153.315V55.3802H155.94V55.845ZM150.69 55.845H148.065V55.3802H150.69V55.845ZM145.44 55.845H142.815V55.3802H145.44V55.845ZM140.19 55.845H137.565V55.3802H140.19V55.845ZM134.94 55.845H132.315V55.3802H134.94V55.845ZM129.69 55.845H127.065V55.3802H129.69V55.845ZM124.44 55.845H121.816V55.3802H124.44V55.845ZM119.191 55.845H116.566V55.3802H119.191V55.845ZM113.941 55.845H111.316V55.3802H113.941V55.845Z" fill="#009FBD"/>
<path d="M186.395 56.9386C186.228 56.5842 186.082 56.2171 185.96 55.845H184.813V55.3802H186.302L186.352 55.5441C186.478 55.9515 186.634 56.3542 186.815 56.741L186.395 56.9385L186.395 56.9386Z" fill="#009FBD"/>
<path d="M189.163 60.4314C188.576 59.9661 188.043 59.4325 187.577 58.8454L187.941 58.5566C188.385 59.1158 188.893 59.6241 189.452 60.0673L189.163 60.4314Z" fill="#009FBD"/>
<path d="M192.628 63.1952H192.163V62.0485C191.791 61.9261 191.424 61.7803 191.07 61.6139L191.267 61.1934C191.654 61.3749 192.056 61.5308 192.464 61.6567L192.628 61.7073V63.1953L192.628 63.1952Z" fill="#009FBD"/>
<path d="M192.628 112.559H192.164V109.817H192.628V112.559ZM192.628 107.074H192.164V104.332H192.628V107.074ZM192.628 101.59H192.164V98.847H192.628V101.59ZM192.628 96.1046H192.164V93.3622H192.628V96.1046ZM192.628 90.6197H192.164V87.8772H192.628V90.6197ZM192.628 85.1348H192.164V82.3923H192.628V85.1348ZM192.628 79.6499H192.164V76.9074H192.628V79.6499ZM192.628 74.165H192.164V71.4226H192.628V74.165ZM192.628 68.6802H192.164V65.9377H192.628V68.6802Z" fill="#009FBD"/>
<path d="M191.268 117.304L191.07 116.883C191.424 116.717 191.792 116.571 192.164 116.449V115.302H192.629V116.79L192.465 116.84C192.057 116.966 191.654 117.122 191.268 117.304L191.268 117.304Z" fill="#009FBD"/>
<path d="M187.941 119.94L187.577 119.651C188.042 119.065 188.576 118.531 189.163 118.065L189.452 118.43C188.893 118.873 188.384 119.381 187.941 119.94Z" fill="#009FBD"/>
<path d="M186.302 123.117H184.813V122.652H185.96C186.082 122.28 186.228 121.913 186.395 121.558L186.815 121.756C186.634 122.143 186.478 122.545 186.352 122.953L186.301 123.116L186.302 123.117Z" fill="#009FBD"/>
<path d="M182.189 123.117H179.564V122.652H182.189V123.117ZM176.939 123.117H174.314V122.652H176.939V123.117ZM171.689 123.117H169.064V122.652H171.689V123.117ZM166.439 123.117H163.814V122.652H166.439V123.117ZM161.189 123.117H158.565V122.652H161.189V123.117ZM155.94 123.117H153.315V122.652H155.94V123.117ZM150.69 123.117H148.065V122.652H150.69V123.117ZM145.44 123.117H142.815V122.652H145.44V123.117ZM140.19 123.117H137.565V122.652H140.19V123.117ZM134.94 123.117H132.315V122.652H134.94V123.117ZM129.69 123.117H127.065V122.652H129.69V123.117ZM124.44 123.117H121.816V122.652H124.44V123.117ZM119.191 123.117H116.566V122.652H119.191V123.117ZM113.941 123.117H111.316V122.652H113.941V123.117Z" fill="#009FBD"/>
<path d="M185.696 93.4717H147.182C146.583 93.4717 146.096 93.9581 146.096 94.558C146.096 95.1579 146.583 95.6442 147.182 95.6442H185.696C186.296 95.6442 186.782 95.1579 186.782 94.558C186.782 93.9581 186.296 93.4717 185.696 93.4717Z" fill="#F7F0E2"/>
<path d="M185.696 98.5522H147.182C146.583 98.5522 146.096 99.0386 146.096 99.6385C146.096 100.238 146.583 100.725 147.182 100.725H185.696C186.296 100.725 186.782 100.238 186.782 99.6385C186.782 99.0386 186.296 98.5522 185.696 98.5522Z" fill="#F7F0E2"/>
<path d="M185.696 103.633H147.182C146.583 103.633 146.096 104.119 146.096 104.719C146.096 105.319 146.583 105.805 147.182 105.805H185.696C186.296 105.805 186.782 105.319 186.782 104.719C186.782 104.119 186.296 103.633 185.696 103.633Z" fill="#F7F0E2"/>
<path d="M185.696 108.713H147.182C146.583 108.713 146.096 109.2 146.096 109.799C146.096 110.399 146.583 110.886 147.182 110.886H185.696C186.296 110.886 186.782 110.399 186.782 109.799C186.782 109.2 186.296 108.713 185.696 108.713Z" fill="#F7F0E2"/>
<path d="M185.696 113.794H147.182C146.583 113.794 146.096 114.28 146.096 114.88C146.096 115.48 146.583 115.966 147.182 115.966H185.696C186.296 115.966 186.782 115.48 186.782 114.88C186.782 114.28 186.296 113.794 185.696 113.794Z" fill="#F7F0E2"/>
<path d="M88.8187 78.0013H73.1585C72.5586 78.0013 72.0723 78.4876 72.0723 79.0875C72.0723 79.6874 72.5586 80.1738 73.1585 80.1738H88.8187C89.4186 80.1738 89.9049 79.6874 89.9049 79.0875C89.9049 78.4876 89.4186 78.0013 88.8187 78.0013Z" fill="#F7F0E2"/>
<path d="M95.5383 83.0818H73.1585C72.5586 83.0818 72.0723 83.5681 72.0723 84.168C72.0723 84.7679 72.5586 85.2543 73.1585 85.2543H95.5383C96.1383 85.2543 96.6246 84.7679 96.6246 84.168C96.6246 83.5681 96.1383 83.0818 95.5383 83.0818Z" fill="#F7F0E2"/>
<path d="M85.6559 88.1622H73.1585C72.5586 88.1622 72.0723 88.6486 72.0723 89.2485C72.0723 89.8484 72.5586 90.3347 73.1585 90.3347H85.6559C86.2559 90.3347 86.7422 89.8484 86.7422 89.2485C86.7422 88.6486 86.2559 88.1622 85.6559 88.1622Z" fill="#F7F0E2"/>
<path d="M95.5383 93.2427H73.1585C72.5586 93.2427 72.0723 93.7291 72.0723 94.329C72.0723 94.9289 72.5586 95.4152 73.1585 95.4152H95.5383C96.1383 95.4152 96.6246 94.9289 96.6246 94.329C96.6246 93.7291 96.1383 93.2427 95.5383 93.2427Z" fill="#F7F0E2"/>
<path d="M78.9363 98.3232H73.1585C72.5586 98.3232 72.0723 98.8096 72.0723 99.4095C72.0723 100.009 72.5586 100.496 73.1585 100.496H78.9363C79.5362 100.496 80.0225 100.009 80.0225 99.4095C80.0225 98.8096 79.5362 98.3232 78.9363 98.3232Z" fill="#F7F0E2"/>
<path d="M116.924 69.5133C115.771 69.5133 114.759 69.2941 113.889 68.856C113.018 68.4178 112.342 67.8182 111.86 67.0563C111.377 66.2949 111.136 65.4444 111.136 64.5054C111.136 63.5665 111.377 62.7214 111.86 61.9702C112.342 61.219 113.018 60.6243 113.889 60.1861C114.759 59.748 115.771 59.5289 116.924 59.5289C118.076 59.5289 119.082 59.748 119.941 60.1861C120.8 60.6243 121.47 61.219 121.953 61.9702C122.434 62.7213 122.676 63.5665 122.676 64.5054C122.676 65.4444 122.434 66.2949 121.953 67.0563C121.47 67.8182 120.8 68.4178 119.941 68.856C119.082 69.2941 118.076 69.5133 116.924 69.5133ZM116.888 66.8841C117.641 66.8841 118.259 66.665 118.741 66.2269C119.223 65.7887 119.465 65.2253 119.465 64.5367C119.465 63.8276 119.223 63.2534 118.741 62.8153C118.259 62.3771 117.641 62.158 116.888 62.158C116.159 62.158 115.553 62.3771 115.071 62.8153C114.589 63.2534 114.348 63.8276 114.348 64.5367C114.348 65.2253 114.588 65.7886 115.071 66.2269C115.553 66.665 116.159 66.8841 116.888 66.8841ZM115.336 83.0031L129.663 59.8418H133.616L119.253 83.0031H115.336ZM132.028 83.3161C130.875 83.3161 129.863 83.097 128.993 82.6589C128.122 82.2207 127.445 81.626 126.964 80.8749C126.481 80.1237 126.24 79.2683 126.24 78.3084C126.24 77.3694 126.481 76.5243 126.964 75.7732C127.446 75.022 128.122 74.4273 128.993 73.9892C129.863 73.551 130.875 73.3319 132.028 73.3319C133.18 73.3319 134.186 73.551 135.045 73.9892C135.903 74.4273 136.574 75.0221 137.056 75.7732C137.538 76.5243 137.78 77.3694 137.78 78.3084C137.78 79.2473 137.544 80.0978 137.074 80.8592C136.603 81.6211 135.933 82.2207 135.063 82.6589C134.192 83.097 133.18 83.3161 132.028 83.3161ZM132.028 80.7183C132.757 80.7183 133.363 80.4943 133.845 80.0453C134.327 79.5969 134.568 79.0281 134.568 78.3395C134.568 77.6304 134.327 77.0562 133.845 76.6181C133.363 76.1799 132.757 75.9608 132.028 75.9608C131.274 75.9608 130.657 76.1799 130.175 76.6181C129.692 77.0562 129.451 77.6304 129.451 78.3395C129.451 79.0281 129.692 79.5969 130.175 80.0453C130.657 80.4943 131.274 80.7183 132.028 80.7183Z" fill="#F7F0E2"/>
<path d="M33.0026 28.6843H79.1707C81.2103 28.6843 82.8637 30.3378 82.8637 32.3774V58.8318C82.8637 60.8714 81.2103 62.5247 79.1707 62.5247H72.9468V70.0555L63.8452 62.5247H33.0026C30.963 62.5247 29.3096 60.8714 29.3096 58.8318V32.3774C29.3096 30.3378 30.963 28.6843 33.0026 28.6843Z" fill="#DC96E0"/>
<path d="M56.0862 48.0215C57.6679 48.0215 58.9502 46.7393 58.9502 45.1575C58.9502 43.5758 57.6679 42.2935 56.0862 42.2935C54.5044 42.2935 53.2222 43.5758 53.2222 45.1575C53.2222 46.7393 54.5044 48.0215 56.0862 48.0215Z" fill="#F7F0E2"/>
<path d="M66.3952 48.0215C67.977 48.0215 69.2593 46.7393 69.2593 45.1575C69.2593 43.5758 67.977 42.2935 66.3952 42.2935C64.8135 42.2935 63.5312 43.5758 63.5312 45.1575C63.5312 46.7393 64.8135 48.0215 66.3952 48.0215Z" fill="#F7F0E2"/>
<path d="M45.7776 48.0215C47.3593 48.0215 48.6416 46.7393 48.6416 45.1575C48.6416 43.5758 47.3593 42.2935 45.7776 42.2935C44.1958 42.2935 42.9136 43.5758 42.9136 45.1575C42.9136 46.7393 44.1958 48.0215 45.7776 48.0215Z" fill="#F7F0E2"/>
<path d="M208.2 62.9541H177.058C175.682 62.9541 174.566 64.0694 174.566 65.4452V83.2898C174.566 84.6656 175.682 85.7808 177.058 85.7808H181.256V90.8607L187.395 85.7808H208.2C209.576 85.7808 210.691 84.6655 210.691 83.2898V65.4452C210.691 64.0694 209.576 62.9541 208.2 62.9541Z" fill="#77037B"/>
<path d="M197.65 75.9979C198.717 75.9979 199.582 75.133 199.582 74.066C199.582 72.999 198.717 72.1341 197.65 72.1341C196.583 72.1341 195.718 72.999 195.718 74.066C195.718 75.133 196.583 75.9979 197.65 75.9979Z" fill="#F7F0E2"/>
<path d="M190.697 75.9979C191.764 75.9979 192.628 75.133 192.628 74.066C192.628 72.999 191.764 72.1341 190.697 72.1341C189.63 72.1341 188.765 72.999 188.765 74.066C188.765 75.133 189.63 75.9979 190.697 75.9979Z" fill="#F7F0E2"/>
<path d="M204.604 75.9979C205.671 75.9979 206.536 75.133 206.536 74.066C206.536 72.999 205.671 72.1341 204.604 72.1341C203.537 72.1341 202.672 72.999 202.672 74.066C202.672 75.133 203.537 75.9979 204.604 75.9979Z" fill="#F7F0E2"/>
<path d="M86.2472 100.958L85.2612 108.678L81.6225 137.171C81.2994 139.7 79.391 141.576 77.1416 141.576H44.7361C42.4867 141.576 40.5783 139.7 40.2552 137.171L36.6165 108.678L35.6305 100.958C35.4137 99.253 36.5778 97.7272 38.0941 97.7272H83.7851C85.3013 97.7272 86.464 99.2531 86.2472 100.958Z" fill="#43B8CD"/>
<path d="M83.7851 97.7271H83.4951C83.4971 97.8762 83.4892 98.0274 83.4697 98.1803L82.4837 105.901L80.1181 124.101C79.0254 132.508 71.8642 138.798 63.3867 138.798H41.9586C41.4929 138.798 41.0421 138.717 40.6167 138.567C41.3365 140.36 42.9255 141.576 44.7361 141.576H77.1415C79.3909 141.576 81.2993 139.7 81.6225 137.171L85.2612 108.678L86.2472 100.958C86.464 99.253 85.3013 97.7271 83.7851 97.7271Z" fill="#009FBD"/>
<path d="M86.2473 100.958L85.2613 108.678H36.6165L35.6305 100.958C35.4137 99.253 36.5778 97.7272 38.0941 97.7272H83.7851C85.3013 97.7272 86.4641 99.2531 86.2473 100.958Z" fill="#99349D"/>
<path d="M83.785 97.7271H83.495C83.497 97.8762 83.4891 98.0274 83.4696 98.1803L82.4836 105.901L82.1289 108.678H85.2611L86.2471 100.958C86.2674 100.798 86.2756 100.64 86.2725 100.484C86.2695 100.329 86.2551 100.176 86.2303 100.027C86.222 99.977 86.2126 99.9277 86.202 99.8789C85.9383 98.6585 84.9695 97.7272 83.7849 97.7272L83.785 97.7271Z" fill="#77037B"/>
<path d="M62.2435 123.618C67.438 123.618 71.649 119.407 71.649 114.212L70.3442 102.015H67.8349L69.1397 114.212C69.1397 118.015 66.046 121.109 62.2434 121.109C58.4409 121.109 55.3472 118.015 55.3472 114.212L54.0424 102.015H51.5332L52.838 114.212C52.838 119.407 57.049 123.618 62.2434 123.618H62.2435Z" fill="#009FBD"/>
<path d="M70.3442 102.015H67.835L68.5478 108.678H71.057L70.3442 102.015Z" fill="#77037B"/>
<path d="M54.0424 102.015H51.5332L52.2459 108.678H54.7551L54.0424 102.015Z" fill="#77037B"/>
<path d="M60.9387 123.618C66.1332 123.618 70.3442 119.407 70.3442 114.212V102.015H67.8349V114.212C67.8349 118.015 64.7412 121.109 60.9386 121.109C57.1361 121.109 54.0424 118.015 54.0424 114.212V102.015H51.5332V114.212C51.5332 119.407 55.7442 123.618 60.9387 123.618Z" fill="#BA65BE"/>
<path d="M60.5685 137.785V136.649C59.9298 136.598 59.4081 136.462 59.0037 136.24C58.5992 136.019 58.2841 135.757 58.0585 135.454C57.8328 135.152 57.6709 134.856 57.5731 134.567C57.4751 134.277 57.4049 133.941 57.3623 133.558H59.0357C59.0781 133.856 59.1462 134.105 59.2401 134.305C59.3337 134.505 59.4847 134.694 59.6935 134.873C59.902 135.052 60.1936 135.176 60.5685 135.244V132.37L60.4918 132.344C60.0064 132.242 59.5445 132.095 59.106 131.903C58.6673 131.712 58.3118 131.442 58.0393 131.092C57.7667 130.743 57.6306 130.279 57.6306 129.7C57.6306 129.163 57.7648 128.699 58.033 128.308C58.3013 127.916 58.6567 127.607 59.0996 127.382C59.5423 127.156 60.0321 127.018 60.5685 126.966V125.855H61.5777V126.992C62.1311 127.052 62.5867 127.186 62.9444 127.394C63.302 127.603 63.583 127.841 63.7874 128.11C63.9918 128.378 64.1429 128.638 64.2409 128.889C64.3386 129.14 64.4133 129.436 64.4644 129.776H62.8166C62.7739 129.547 62.7144 129.351 62.6377 129.189C62.5612 129.027 62.4376 128.87 62.2673 128.716C62.0969 128.563 61.867 128.448 61.5777 128.371V131.066L61.7181 131.105C62.033 131.173 62.3568 131.26 62.6889 131.367C63.0209 131.473 63.3295 131.624 63.6149 131.82C63.9001 132.016 64.1322 132.274 64.311 132.593C64.4898 132.912 64.5793 133.315 64.5793 133.8C64.5793 134.32 64.4535 134.782 64.2025 135.186C63.9512 135.59 63.6 135.92 63.1487 136.176C62.6972 136.431 62.1735 136.589 61.5776 136.648V137.785H60.5685V137.785ZM59.2528 129.649C59.2528 129.956 59.3592 130.2 59.5721 130.383C59.7848 130.567 60.1169 130.718 60.5684 130.837V128.321C60.1597 128.389 59.8381 128.544 59.604 128.787C59.3697 129.029 59.2528 129.317 59.2528 129.649ZM62.9442 133.826C62.9442 133.477 62.8249 133.211 62.5865 133.027C62.3481 132.844 62.0117 132.697 61.5775 132.587V135.244C61.9776 135.167 62.3056 135.003 62.561 134.752C62.8165 134.501 62.9442 134.192 62.9442 133.826Z" fill="#9981D3"/>
<path d="M181.699 80.8605V79.5656C180.971 79.5074 180.377 79.3524 179.916 79.1C179.456 78.8479 179.097 78.5496 178.84 78.2053C178.583 77.8611 178.398 77.524 178.287 77.1941C178.175 76.8645 178.095 76.4811 178.047 76.0446H179.953C180.001 76.3843 180.079 76.668 180.186 76.8958C180.292 77.1238 180.464 77.3395 180.702 77.5432C180.94 77.7469 181.272 77.8877 181.699 77.9652V74.6915L181.612 74.6625C181.059 74.546 180.532 74.3787 180.033 74.1605C179.533 73.9422 179.128 73.6344 178.818 73.2366C178.508 72.839 178.352 72.3104 178.352 71.6507C178.352 71.0396 178.505 70.511 178.811 70.0648C179.116 69.6187 179.521 69.267 180.026 69.0099C180.53 68.753 181.088 68.5953 181.699 68.5371V67.2714H182.848V68.5662C183.479 68.6342 183.998 68.7869 184.405 69.0245C184.812 69.2622 185.132 69.5337 185.365 69.8392C185.598 70.1447 185.77 70.4408 185.882 70.7267C185.993 71.013 186.078 71.3501 186.136 71.7379H184.26C184.211 71.4761 184.143 71.253 184.056 71.0686C183.969 70.8845 183.828 70.705 183.634 70.5304C183.44 70.3558 183.178 70.2249 182.848 70.1375V73.2074L183.008 73.251C183.367 73.3289 183.736 73.4282 184.114 73.5494C184.492 73.6708 184.844 73.8429 185.169 74.0658C185.494 74.2891 185.758 74.5824 185.962 74.9461C186.166 75.3098 186.267 75.7682 186.267 76.321C186.267 76.9128 186.124 77.439 185.838 77.8996C185.552 78.3604 185.152 78.7362 184.638 79.0271C184.124 79.3182 183.527 79.4975 182.848 79.5654V80.8603H181.699L181.699 80.8605ZM180.2 71.5926C180.2 71.9418 180.321 72.2207 180.564 72.4292C180.806 72.6378 181.184 72.8099 181.699 72.9457V70.0795C181.233 70.1572 180.867 70.3342 180.6 70.6106C180.333 70.887 180.2 71.2143 180.2 71.5926V71.5926ZM184.405 76.3502C184.405 75.9526 184.269 75.6496 183.998 75.441C183.726 75.2325 183.343 75.0651 182.848 74.939V77.9653C183.304 77.878 183.677 77.6913 183.968 77.4051C184.259 77.1191 184.405 76.7674 184.405 76.3502Z" fill="#F7F0E2"/>
</svg>
