<svg width="85" height="29" viewBox="0 0 85 29" fill="none" xmlns="http://www.w3.org/2000/svg">
<path d="M6.41828 4.24285C6.43645 4.6098 6.37976 4.9766 6.25164 5.32093C6.12353 5.66527 5.92668 5.97992 5.67308 6.24575C5.38886 6.54051 5.04562 6.77195 4.6658 6.92492C4.28598 7.07789 3.87815 7.14895 3.46898 7.13345C3.0572 7.13714 2.64883 7.05847 2.26789 6.90208C1.88694 6.74569 1.5411 6.51472 1.2507 6.22276C0.960291 5.9308 0.731182 5.58373 0.576827 5.20196C0.422473 4.82018 0.345991 4.41141 0.351878 3.99965C0.346037 3.58788 0.422546 3.1791 0.576911 2.79732C0.731276 2.41554 0.96038 2.06846 1.25077 1.77647C1.54116 1.48447 1.88698 1.25346 2.26791 1.097C2.64883 0.940533 3.05719 0.861776 3.46898 0.865351C3.89236 0.864071 4.3115 0.94967 4.70048 1.11685C5.06174 1.26329 5.3833 1.493 5.63898 1.78725L5.11158 2.31505C4.9106 2.0785 4.65797 1.89129 4.37316 1.76786C4.08836 1.64442 3.77901 1.58807 3.46898 1.60315C3.1569 1.60154 2.8477 1.66292 2.55991 1.78363C2.27211 1.90435 2.01164 2.0819 1.79409 2.30566C1.57653 2.52942 1.40638 2.79478 1.29381 3.08586C1.18125 3.37694 1.12858 3.68774 1.13898 3.99965C1.13154 4.46685 1.263 4.92573 1.5167 5.31811C1.7704 5.7105 2.13491 6.0187 2.564 6.20365C2.9931 6.3886 3.46745 6.44197 3.92691 6.35697C4.38637 6.27198 4.81024 6.05246 5.14478 5.72625C5.45267 5.39449 5.63114 4.96317 5.64768 4.51085H3.46898V3.79015H6.37628C6.40377 3.93949 6.41782 4.091 6.41828 4.24285Z" fill="white"/>
<path d="M11.0276 1.73695H8.29518V3.63925H10.7591V4.36005H8.29518V6.26235H11.0276V6.99965H7.52468V0.999651H11.0276V1.73695Z" fill="white"/>
<path d="M14.2786 6.99965H13.5071V1.73695H11.8313V0.999651H15.9544V1.73695H14.2786V6.99965Z" fill="white"/>
<path d="M18.9378 6.99965V0.999651H19.7083V6.99965H18.9378Z" fill="white"/>
<path d="M23.1282 6.99965H22.3567V1.73695H20.681V0.999651H24.804V1.73695H23.1282V6.99965Z" fill="white"/>
<path d="M32.6092 6.22425C32.0252 6.8065 31.2341 7.13345 30.4095 7.13345C29.5848 7.13345 28.7938 6.8065 28.2098 6.22425C27.9209 5.93162 27.6937 5.58389 27.5419 5.20172C27.3901 4.81956 27.3167 4.41077 27.326 3.99965C27.3167 3.58854 27.3901 3.17974 27.5419 2.79758C27.6937 2.41541 27.9209 2.06768 28.2098 1.77505C28.4984 1.48632 28.8412 1.25735 29.2185 1.10125C29.5957 0.945152 30.0001 0.86499 30.4083 0.865352C30.8166 0.865714 31.2208 0.946594 31.5978 1.10336C31.9748 1.26013 32.3171 1.48971 32.6053 1.77895C32.8944 2.07081 33.122 2.41776 33.2744 2.79923C33.4269 3.1807 33.5013 3.58892 33.493 3.99965C33.5021 4.41073 33.4285 4.81945 33.2767 5.20158C33.1249 5.58371 32.8979 5.93147 32.6092 6.22425ZM28.7791 5.72185C29.2116 6.15364 29.7978 6.39616 30.409 6.39616C31.0202 6.39616 31.6063 6.15364 32.0389 5.72185C32.2607 5.49477 32.4341 5.22508 32.5488 4.92907C32.6634 4.63307 32.7169 4.31689 32.7059 3.99965C32.7169 3.68241 32.6634 3.36624 32.5488 3.07023C32.4341 2.77422 32.2607 2.50453 32.0389 2.27745C31.6063 1.84566 31.0202 1.60314 30.409 1.60314C29.7978 1.60314 29.2116 1.84566 28.7791 2.27745C28.5576 2.50471 28.3844 2.77446 28.2699 3.07044C28.1555 3.36641 28.1021 3.6825 28.1131 3.99965C28.1021 4.3168 28.1555 4.63289 28.2699 4.92887C28.3844 5.22484 28.5576 5.49459 28.7791 5.72185Z" fill="white"/>
<path d="M34.575 6.99965V0.999651H35.5135L38.4295 5.66715H38.4627L38.4295 4.51085V0.999651H39.201V6.99965H38.3963L35.3455 2.10605H35.3123L35.3455 3.26235V6.99965H34.575Z" fill="white"/>
<path d="M6.41828 4.24285C6.43645 4.6098 6.37976 4.9766 6.25164 5.32093C6.12353 5.66527 5.92668 5.97992 5.67308 6.24575C5.38886 6.54051 5.04562 6.77195 4.6658 6.92492C4.28598 7.07789 3.87815 7.14895 3.46898 7.13345C3.0572 7.13714 2.64883 7.05847 2.26789 6.90208C1.88694 6.74569 1.5411 6.51472 1.2507 6.22276C0.960291 5.9308 0.731182 5.58373 0.576827 5.20196C0.422473 4.82018 0.345991 4.41141 0.351878 3.99965C0.346037 3.58788 0.422546 3.1791 0.576911 2.79732C0.731276 2.41554 0.96038 2.06846 1.25077 1.77647C1.54116 1.48447 1.88698 1.25346 2.26791 1.097C2.64883 0.940533 3.05719 0.861776 3.46898 0.865351C3.89236 0.864071 4.3115 0.94967 4.70048 1.11685C5.06174 1.26329 5.3833 1.493 5.63898 1.78725L5.11158 2.31505C4.9106 2.0785 4.65797 1.89129 4.37316 1.76786C4.08836 1.64442 3.77901 1.58807 3.46898 1.60315C3.1569 1.60154 2.8477 1.66292 2.55991 1.78363C2.27211 1.90435 2.01164 2.0819 1.79409 2.30566C1.57653 2.52942 1.40638 2.79478 1.29381 3.08586C1.18125 3.37694 1.12858 3.68774 1.13898 3.99965C1.13154 4.46685 1.263 4.92573 1.5167 5.31811C1.7704 5.7105 2.13491 6.0187 2.564 6.20365C2.9931 6.3886 3.46745 6.44197 3.92691 6.35697C4.38637 6.27198 4.81024 6.05246 5.14478 5.72625C5.45267 5.39449 5.63114 4.96317 5.64768 4.51085H3.46898V3.79015H6.37628C6.40377 3.93949 6.41782 4.091 6.41828 4.24285Z" stroke="white" stroke-width="0.2" stroke-miterlimit="10"/>
<path d="M11.0276 1.73695H8.29518V3.63925H10.7591V4.36005H8.29518V6.26235H11.0276V6.99965H7.52468V0.999651H11.0276V1.73695Z" stroke="white" stroke-width="0.2" stroke-miterlimit="10"/>
<path d="M14.2786 6.99965H13.5071V1.73695H11.8313V0.999651H15.9544V1.73695H14.2786V6.99965Z" stroke="white" stroke-width="0.2" stroke-miterlimit="10"/>
<path d="M18.9378 6.99965V0.999651H19.7083V6.99965H18.9378Z" stroke="white" stroke-width="0.2" stroke-miterlimit="10"/>
<path d="M23.1282 6.99965H22.3567V1.73695H20.681V0.999651H24.804V1.73695H23.1282V6.99965Z" stroke="white" stroke-width="0.2" stroke-miterlimit="10"/>
<path d="M32.6092 6.22425C32.0252 6.8065 31.2341 7.13345 30.4095 7.13345C29.5848 7.13345 28.7938 6.8065 28.2098 6.22425C27.9209 5.93162 27.6937 5.58389 27.5419 5.20172C27.3901 4.81956 27.3167 4.41077 27.326 3.99965C27.3167 3.58854 27.3901 3.17974 27.5419 2.79758C27.6937 2.41541 27.9209 2.06768 28.2098 1.77505C28.4984 1.48632 28.8412 1.25735 29.2185 1.10125C29.5957 0.945152 30.0001 0.86499 30.4083 0.865352C30.8166 0.865714 31.2208 0.946594 31.5978 1.10336C31.9748 1.26013 32.3171 1.48971 32.6053 1.77895C32.8944 2.07081 33.122 2.41776 33.2744 2.79923C33.4269 3.1807 33.5013 3.58892 33.493 3.99965C33.5021 4.41073 33.4285 4.81945 33.2767 5.20158C33.1249 5.58371 32.8979 5.93147 32.6092 6.22425ZM28.7791 5.72185C29.2116 6.15364 29.7978 6.39616 30.409 6.39616C31.0202 6.39616 31.6063 6.15364 32.0389 5.72185C32.2607 5.49477 32.4341 5.22508 32.5488 4.92907C32.6634 4.63307 32.7169 4.31689 32.7059 3.99965C32.7169 3.68241 32.6634 3.36624 32.5488 3.07023C32.4341 2.77422 32.2607 2.50453 32.0389 2.27745C31.6063 1.84566 31.0202 1.60314 30.409 1.60314C29.7978 1.60314 29.2116 1.84566 28.7791 2.27745C28.5576 2.50471 28.3844 2.77446 28.2699 3.07044C28.1555 3.36641 28.1021 3.6825 28.1131 3.99965C28.1021 4.3168 28.1555 4.63289 28.2699 4.92887C28.3844 5.22484 28.5576 5.49459 28.7791 5.72185Z" stroke="white" stroke-width="0.2" stroke-miterlimit="10"/>
<path d="M34.575 6.99965V0.999651H35.5135L38.4295 5.66715H38.4627L38.4295 4.51085V0.999651H39.201V6.99965H38.3963L35.3455 2.10605H35.3123L35.3455 3.26235V6.99965H34.575Z" stroke="white" stroke-width="0.2" stroke-miterlimit="10"/>
<path d="M27.1354 15.751C26.2949 15.7542 25.4741 16.0063 24.7768 16.4756C24.0795 16.9449 23.5369 17.6102 23.2175 18.3877C22.898 19.1651 22.8161 20.0198 22.982 20.8438C23.148 21.6677 23.5543 22.4241 24.1498 23.0173C24.7452 23.6105 25.5031 24.014 26.3277 24.1768C27.1523 24.3396 28.0066 24.2544 28.7829 23.932C29.5591 23.6096 30.2224 23.0644 30.689 22.3654C31.1557 21.6663 31.4047 20.8446 31.4047 20.0041C31.4129 19.4419 31.308 18.8838 31.0962 18.363C30.8844 17.8422 30.5699 17.3693 30.1716 16.9725C29.7733 16.5757 29.2992 16.2631 28.7776 16.0532C28.256 15.8434 27.6975 15.7406 27.1354 15.751ZM27.1354 22.5818C26.6178 22.6187 26.101 22.4989 25.6524 22.238C25.2038 21.9771 24.8442 21.5872 24.6203 21.1191C24.3964 20.6509 24.3186 20.1262 24.3971 19.6132C24.4756 19.1002 24.7068 18.6228 25.0604 18.243C25.4141 17.8633 25.8739 17.5988 26.3799 17.484C26.886 17.3692 27.4149 17.4094 27.8978 17.5994C28.3807 17.7894 28.7952 18.1204 29.0874 18.5493C29.3795 18.9782 29.5358 19.4851 29.5358 20.0041C29.5515 20.3319 29.5015 20.6596 29.3886 20.9678C29.2758 21.276 29.1024 21.5585 28.8787 21.7987C28.6551 22.0389 28.3856 22.2319 28.0862 22.3664C27.7868 22.5009 27.4635 22.5741 27.1354 22.5818ZM17.822 15.751C16.9815 15.7541 16.1607 16.0063 15.4634 16.4755C14.7661 16.9448 14.2234 17.6102 13.904 18.3876C13.5845 19.1651 13.5026 20.0197 13.6685 20.8437C13.8344 21.6677 14.2408 22.424 14.8362 23.0173C15.4317 23.6105 16.1896 24.0139 17.0142 24.1768C17.8388 24.3396 18.6931 24.2544 19.4694 23.932C20.2456 23.6096 20.9089 23.0645 21.3755 22.3654C21.8422 21.6663 22.0912 20.8446 22.0912 20.0041C22.0994 19.4419 21.9945 18.8838 21.7827 18.363C21.5709 17.8422 21.2565 17.3693 20.8582 16.9725C20.4598 16.5757 19.9858 16.2631 19.4642 16.0532C18.9426 15.8434 18.3841 15.7406 17.822 15.751ZM17.822 22.5818C17.3044 22.6187 16.7876 22.4989 16.339 22.238C15.8904 21.9771 15.5308 21.5872 15.3069 21.1191C15.083 20.6509 15.0052 20.1262 15.0837 19.6132C15.1622 19.1002 15.3934 18.6228 15.747 18.243C16.1007 17.8633 16.5605 17.5988 17.0665 17.484C17.5726 17.3692 18.1015 17.4094 18.5844 17.5994C19.0673 17.7894 19.4818 18.1204 19.774 18.5493C20.0661 18.9782 20.2224 19.4851 20.2224 20.0041C20.2381 20.3319 20.1881 20.6596 20.0752 20.9678C19.9624 21.276 19.789 21.5585 19.5654 21.7987C19.3417 22.0389 19.0722 22.232 18.7728 22.3664C18.4734 22.5009 18.1501 22.5741 17.822 22.5818ZM6.74318 17.056V18.8603H11.0609C10.9986 19.7066 10.6523 20.507 10.0781 21.1319C9.6454 21.5729 9.12506 21.9183 8.55065 22.1459C7.97624 22.3734 7.36051 22.478 6.74318 22.4529C5.48116 22.4358 4.27662 21.9225 3.39022 21.024C2.50381 20.1255 2.00684 18.9141 2.00684 17.652C2.00684 16.3898 2.50381 15.1785 3.39022 14.28C4.27662 13.3815 5.48116 12.8682 6.74318 12.8511C7.95539 12.8352 9.12489 13.2984 9.99758 14.1399L11.2703 12.8672C10.6748 12.2777 9.9677 11.813 9.19032 11.5004C8.41293 11.1878 7.58096 11.0335 6.74318 11.0467C5.86767 11.0339 4.99836 11.1954 4.18579 11.5216C3.37323 11.8478 2.63363 12.3323 2.00999 12.9469C1.38635 13.5616 0.89113 14.294 0.553108 15.1018C0.215087 15.9095 0.0410156 16.7764 0.0410156 17.652C0.0410156 18.5276 0.215087 19.3944 0.553108 20.2022C0.89113 21.0099 1.38635 21.7424 2.00999 22.357C2.63363 22.9716 3.37323 23.4561 4.18579 23.7824C4.99836 24.1086 5.86767 24.27 6.74318 24.2573C7.59864 24.2927 8.45187 24.1459 9.24625 23.8265C10.0406 23.5071 10.758 23.0224 11.3508 22.4046C12.4032 21.2558 12.9641 19.7408 12.9136 18.1837C12.9177 17.8055 12.8853 17.4279 12.8168 17.056H6.74318ZM52.0515 18.4575C51.7959 17.6871 51.3093 17.0141 50.6579 16.5299C50.0065 16.0457 49.2218 15.7737 48.4105 15.751C47.864 15.7544 47.3239 15.8685 46.8228 16.0866C46.3217 16.3046 45.8701 16.622 45.4951 17.0195C45.1201 17.4171 44.8297 17.8865 44.6413 18.3995C44.4529 18.9125 44.3705 19.4583 44.3991 20.0041C44.3868 20.5633 44.4873 21.1192 44.6946 21.6386C44.902 22.1581 45.2119 22.6304 45.6059 23.0274C45.9999 23.4244 46.4698 23.738 46.9877 23.9493C47.5056 24.1606 48.0607 24.2653 48.62 24.2573C49.3206 24.2612 50.0113 24.091 50.6299 23.762C51.2485 23.433 51.7757 22.9555 52.1642 22.3724L50.7143 21.4058C50.4971 21.7665 50.1898 22.0646 49.8227 22.2707C49.4555 22.4769 49.0411 22.5841 48.62 22.5818C48.1867 22.5983 47.7584 22.4843 47.3907 22.2545C47.023 22.0247 46.7328 21.6897 46.5578 21.293L52.2449 18.9409L52.0515 18.4575ZM46.2518 19.8753C46.2317 19.5657 46.2737 19.2553 46.3751 18.9621C46.4765 18.6689 46.6353 18.399 46.8423 18.1679C47.0493 17.9369 47.3003 17.7495 47.5807 17.6166C47.861 17.4838 48.165 17.4082 48.4749 17.3943C48.7976 17.373 49.1194 17.4473 49.4001 17.6077C49.6809 17.7681 49.9082 18.0077 50.0538 18.2965L46.2518 19.8753ZM41.628 23.9995H43.4968V11.4979H41.628V23.9995ZM38.567 16.7015H38.5026C38.2185 16.3928 37.8717 16.1483 37.4855 15.9844C37.0993 15.8205 36.6826 15.7409 36.2632 15.751C35.1665 15.7976 34.1302 16.2661 33.3707 17.0587C32.6112 17.8512 32.1872 18.9064 32.1872 20.0041C32.1872 21.1018 32.6112 22.1571 33.3707 22.9496C34.1302 23.7421 35.1665 24.2106 36.2632 24.2573C36.6843 24.2685 37.1027 24.1878 37.4895 24.0209C37.8762 23.854 38.2219 23.6048 38.5026 23.2907H38.567V23.9029C38.567 25.5301 37.6971 26.4 36.2954 26.4C35.8282 26.3888 35.375 26.2388 34.9934 25.9691C34.6119 25.6994 34.3192 25.3222 34.1528 24.8856L32.5256 25.5623C32.8323 26.3089 33.3549 26.947 34.0265 27.3948C34.6982 27.8425 35.4882 28.0796 36.2954 28.0755C38.4865 28.0755 40.3392 26.7867 40.3392 23.6451V16.0087H38.567V16.7015ZM36.4244 22.5818C35.7784 22.527 35.1766 22.2317 34.738 21.7544C34.2994 21.277 34.056 20.6524 34.056 20.0041C34.056 19.3559 34.2994 18.7312 34.738 18.2539C35.1766 17.7765 35.7784 17.4812 36.4244 17.4265C36.7457 17.4422 37.0606 17.5224 37.3503 17.6624C37.64 17.8024 37.8986 17.9993 38.1105 18.2413C38.3225 18.4833 38.4836 18.7656 38.5841 19.0712C38.6847 19.3768 38.7227 19.6996 38.6959 20.0202C38.721 20.3388 38.6816 20.6592 38.58 20.9623C38.4785 21.2653 38.3168 21.5448 38.1048 21.7839C37.8927 22.0231 37.6346 22.217 37.3459 22.3541C37.0571 22.4912 36.7437 22.5686 36.4244 22.5818ZM60.8054 11.4981H56.3342V23.9995H58.1999V19.2631H60.8054C61.3331 19.292 61.8612 19.213 62.3575 19.031C62.8537 18.849 63.3076 18.5677 63.6914 18.2043C64.0752 17.8409 64.3809 17.4031 64.5899 16.9176C64.7988 16.4321 64.9066 15.9091 64.9066 15.3806C64.9066 14.852 64.7988 14.329 64.5899 13.8435C64.3809 13.358 64.0752 12.9202 63.6914 12.5569C63.3076 12.1935 62.8537 11.9122 62.3575 11.7302C61.8612 11.5481 61.3331 11.4691 60.8054 11.4981ZM60.8536 17.5233H58.1999V13.238H60.8536C61.1387 13.2321 61.4221 13.2831 61.6872 13.3881C61.9524 13.4932 62.1939 13.65 62.3976 13.8496C62.6013 14.0491 62.7632 14.2873 62.8737 14.5502C62.9842 14.8131 63.0411 15.0954 63.0411 15.3806C63.0411 15.6658 62.9842 15.9481 62.8737 16.211C62.7632 16.4739 62.6013 16.7121 62.3976 16.9116C62.1939 17.1112 61.9524 17.2681 61.6872 17.3731C61.4221 17.4781 61.1387 17.5292 60.8536 17.5233ZM72.3853 15.728C71.7043 15.6882 71.0265 15.8481 70.435 16.1881C69.8436 16.5281 69.3643 17.0334 69.056 17.6419L70.7126 18.3335C70.8768 18.0314 71.1256 17.7839 71.4284 17.621C71.7311 17.4582 72.0749 17.3872 72.4174 17.4167C72.8907 17.3705 73.3631 17.5138 73.7309 17.8153C74.0987 18.1168 74.332 18.5518 74.3796 19.025V19.1537C73.7804 18.8353 73.112 18.6696 72.4335 18.6712C70.6483 18.6712 68.8309 19.6523 68.8309 21.4858C68.8482 21.8722 68.943 22.2512 69.1096 22.6002C69.2762 22.9493 69.5113 23.2614 69.8008 23.5179C70.0903 23.7744 70.4284 23.9701 70.795 24.0935C71.1616 24.2168 71.5492 24.2653 71.9349 24.236C72.4047 24.2636 72.8733 24.1648 73.292 23.9499C73.7106 23.7349 74.064 23.4116 74.3153 23.0137H74.3796V23.9787H76.1809V19.1859C76.1809 16.9664 74.5243 15.728 72.3853 15.728ZM72.1601 22.5794C71.5489 22.5794 70.6965 22.2739 70.6965 21.5179C70.6965 20.553 71.758 20.183 72.6748 20.183C73.2703 20.1671 73.859 20.3116 74.3796 20.6012C74.3111 21.1434 74.0485 21.6425 73.6405 22.0062C73.2325 22.3698 72.7066 22.5734 72.1601 22.5794ZM82.7429 16.0014L80.6038 21.4214H80.5394L78.32 16.0014H76.3096L79.6388 23.5766L77.741 27.7904H79.687L84.8176 16.0014H82.7429ZM65.9359 23.9995H67.8015V11.4981H65.9359V23.9995Z" fill="white"/>
</svg>
