<svg width="76" height="26" viewBox="0 0 76 26" fill="none" xmlns="http://www.w3.org/2000/svg">
<path d="M8.33105 19.1387H3.59766L2.46094 22.4952H0.456055L4.93946 10.0772H7.02246L11.5059 22.4952H9.46679L8.33105 19.1387ZM4.08789 17.5899H7.83989L5.99028 12.1426H5.93851L4.08789 17.5899Z" fill="white"/>
<path d="M21.1885 17.9688C21.1885 20.7823 19.6826 22.5899 17.4102 22.5899C16.8345 22.62 16.262 22.4874 15.7582 22.2073C15.2544 21.9271 14.8397 21.5108 14.5615 21.0059H14.5185V25.4903H12.6601V13.4415H14.459V14.9473H14.4932C14.7841 14.4449 15.2058 14.0307 15.7135 13.7488C16.2211 13.467 16.7957 13.328 17.376 13.3467C19.6738 13.3467 21.1885 15.1631 21.1885 17.9688ZM19.2783 17.9688C19.2783 16.1358 18.331 14.9307 16.8857 14.9307C15.4658 14.9307 14.5107 16.1612 14.5107 17.9688C14.5107 19.793 15.4658 21.0147 16.8857 21.0147C18.3311 21.0147 19.2783 19.8184 19.2783 17.9688Z" fill="white"/>
<path d="M31.1533 17.9688C31.1533 20.7823 29.6475 22.5899 27.375 22.5899C26.7993 22.62 26.2268 22.4874 25.7231 22.2073C25.2193 21.9271 24.8045 21.5108 24.5264 21.0059H24.4834V25.4903H22.625V13.4415H24.4238V14.9473H24.458C24.7489 14.4449 25.1707 14.0307 25.6783 13.7488C26.1859 13.467 26.7605 13.328 27.3408 13.3467C29.6387 13.3467 31.1533 15.1631 31.1533 17.9688ZM29.2432 17.9688C29.2432 16.1358 28.2959 14.9307 26.8506 14.9307C25.4307 14.9307 24.4756 16.1612 24.4756 17.9688C24.4756 19.793 25.4307 21.0147 26.8506 21.0147C28.2959 21.0147 29.2432 19.8184 29.2432 17.9688Z" fill="white"/>
<path d="M37.7393 19.0352C37.877 20.2667 39.0733 21.0752 40.708 21.0752C42.2744 21.0752 43.4014 20.2666 43.4014 19.1563C43.4014 18.1924 42.7217 17.6153 41.1123 17.2197L39.5029 16.832C37.2227 16.2813 36.1641 15.2148 36.1641 13.4844C36.1641 11.3418 38.0313 9.87012 40.6826 9.87012C43.3066 9.87012 45.1055 11.3418 45.166 13.4844H43.29C43.1777 12.2451 42.1533 11.4971 40.6562 11.4971C39.1592 11.4971 38.1347 12.2539 38.1347 13.3555C38.1347 14.2334 38.789 14.75 40.3896 15.1455L41.7578 15.4814C44.3056 16.084 45.3642 17.1074 45.3642 18.9238C45.3642 21.247 43.5136 22.7021 40.5703 22.7021C37.8164 22.7021 35.957 21.2812 35.8369 19.0351L37.7393 19.0352Z" fill="white"/>
<path d="M49.375 11.2989V13.4415H51.0967V14.9131H49.375V19.9043C49.375 20.6797 49.7197 21.0411 50.4766 21.0411C50.6809 21.0375 50.885 21.0231 51.0879 20.9981V22.461C50.7476 22.5245 50.4018 22.5533 50.0557 22.5469C48.2227 22.5469 47.5078 21.8584 47.5078 20.1026V14.9131H46.1914V13.4415H47.5078V11.2989H49.375Z" fill="white"/>
<path d="M52.0938 17.9688C52.0938 15.1202 53.7715 13.3301 56.3877 13.3301C59.0127 13.3301 60.6827 15.1201 60.6827 17.9688C60.6827 20.8253 59.0215 22.6075 56.3877 22.6075C53.7549 22.6075 52.0938 20.8252 52.0938 17.9688ZM58.7891 17.9688C58.7891 16.0147 57.8936 14.8614 56.3877 14.8614C54.8819 14.8614 53.9873 16.0235 53.9873 17.9688C53.9873 19.9307 54.8819 21.0753 56.3877 21.0753C57.8936 21.0753 58.7891 19.9307 58.7891 17.9688Z" fill="white"/>
<path d="M62.2148 13.4415H63.9873V14.9825H64.0303C64.1502 14.5012 64.4322 14.0758 64.8288 13.778C65.2253 13.4801 65.7124 13.3278 66.208 13.3467C66.4222 13.346 66.6358 13.3692 66.8448 13.4161V15.1543C66.5744 15.0717 66.2924 15.0338 66.0098 15.042C65.7398 15.0311 65.4706 15.0787 65.2208 15.1816C64.9709 15.2845 64.7463 15.4402 64.5623 15.6381C64.3784 15.836 64.2394 16.0713 64.155 16.328C64.0705 16.5847 64.0427 16.8566 64.0732 17.125V22.4952H62.2148L62.2148 13.4415Z" fill="white"/>
<path d="M75.4131 19.836C75.1631 21.4795 73.5625 22.6075 71.5146 22.6075C68.8809 22.6075 67.2461 20.8428 67.2461 18.0118C67.2461 15.1719 68.8896 13.3301 71.4365 13.3301C73.9414 13.3301 75.5166 15.0508 75.5166 17.7959V18.4327H69.1221V18.545C69.0926 18.8782 69.1343 19.2138 69.2445 19.5297C69.3546 19.8455 69.5308 20.1343 69.7611 20.3768C69.9915 20.6194 70.2708 20.8102 70.5805 20.9365C70.8903 21.0628 71.2233 21.1217 71.5576 21.1094C71.9968 21.1506 72.4375 21.0489 72.8142 20.8194C73.1909 20.59 73.4835 20.2451 73.6484 19.836L75.4131 19.836ZM69.1309 17.1338H73.6572C73.6739 16.8342 73.6285 16.5344 73.5238 16.2532C73.4191 15.972 73.2575 15.7155 73.0489 15.4997C72.8404 15.2839 72.5895 15.1136 72.3121 14.9994C72.0346 14.8852 71.7365 14.8295 71.4365 14.836C71.1339 14.8342 70.8339 14.8923 70.5539 15.0071C70.2738 15.1218 70.0193 15.2909 69.8049 15.5045C69.5905 15.7181 69.4206 15.9721 69.3049 16.2518C69.1892 16.5314 69.1301 16.8312 69.1309 17.1338Z" fill="white"/>
<path d="M3.85449 0.730523C4.2441 0.702564 4.63506 0.761424 4.99918 0.902857C5.36329 1.04429 5.69148 1.26477 5.96006 1.54839C6.22864 1.83202 6.43093 2.17172 6.55234 2.54299C6.67374 2.91426 6.71123 3.30785 6.66211 3.69536C6.66211 5.60161 5.63184 6.69736 3.85449 6.69736H1.69922V0.730523H3.85449ZM2.62597 5.85352H3.75097C4.02937 5.87016 4.30799 5.82452 4.56652 5.7199C4.82506 5.61529 5.05702 5.45434 5.24552 5.24877C5.43401 5.04321 5.57429 4.7982 5.65615 4.53158C5.73802 4.26496 5.7594 3.98345 5.71874 3.70752C5.75645 3.43269 5.7329 3.15292 5.64978 2.88825C5.56666 2.62359 5.42603 2.38059 5.23797 2.17666C5.04991 1.97273 4.81906 1.81292 4.56198 1.70868C4.3049 1.60445 4.02795 1.55836 3.75097 1.57373H2.62597V5.85352Z" fill="white"/>
<path d="M7.70898 4.44386C7.68067 4.14794 7.71452 3.84938 7.80836 3.56731C7.9022 3.28524 8.05396 3.0259 8.2539 2.80591C8.45384 2.58593 8.69756 2.41017 8.96941 2.28989C9.24126 2.16961 9.53524 2.10748 9.83251 2.10748C10.1298 2.10748 10.4238 2.16961 10.6956 2.28989C10.9675 2.41017 11.2112 2.58593 11.4111 2.80591C11.6111 3.0259 11.7628 3.28524 11.8567 3.56731C11.9505 3.84938 11.9844 4.14794 11.956 4.44386C11.9849 4.74009 11.9514 5.03907 11.8579 5.32159C11.7643 5.60412 11.6126 5.86393 11.4126 6.08435C11.2126 6.30476 10.9687 6.4809 10.6966 6.60143C10.4245 6.72197 10.1301 6.78424 9.83251 6.78424C9.53489 6.78424 9.24056 6.72197 8.96843 6.60143C8.69631 6.4809 8.45242 6.30476 8.25242 6.08435C8.05243 5.86393 7.90076 5.60412 7.80717 5.32159C7.71358 5.03907 7.68013 4.74009 7.70898 4.44386ZM11.042 4.44386C11.042 3.46779 10.6035 2.89699 9.83398 2.89699C9.06152 2.89699 8.62698 3.46779 8.62698 4.44387C8.62698 5.42776 9.06155 5.99416 9.83398 5.99416C10.6035 5.99415 11.042 5.42384 11.042 4.44386Z" fill="white"/>
<path d="M17.6016 6.69727H16.6797L15.749 3.38086H15.6787L14.752 6.69727H13.8389L12.5977 2.19434H13.499L14.3057 5.63034H14.3721L15.2979 2.19434H16.1504L17.0762 5.63034H17.1465L17.9492 2.19434H18.8379L17.6016 6.69727Z" fill="white"/>
<path d="M19.8818 2.19434H20.7373V2.90967H20.8037C20.9164 2.65275 21.1064 2.43738 21.3472 2.29357C21.5881 2.14977 21.8678 2.08469 22.1475 2.10742C22.3666 2.09095 22.5866 2.12399 22.7912 2.20408C22.9958 2.28418 23.1797 2.40928 23.3294 2.57013C23.4791 2.73097 23.5906 2.92343 23.6558 3.13325C23.7211 3.34307 23.7382 3.56487 23.706 3.78222V6.69722H22.8174V4.00538C22.8174 3.28175 22.5029 2.92188 21.8457 2.92188C21.6969 2.91496 21.5484 2.94027 21.4104 2.9961C21.2723 3.05193 21.148 3.13696 21.0459 3.24534C20.9437 3.35373 20.8662 3.48291 20.8187 3.62404C20.7712 3.76517 20.7547 3.91491 20.7705 4.06299V6.69727H19.8818L19.8818 2.19434Z" fill="white"/>
<path d="M25.1221 0.436523H26.0107V6.69726H25.1221V0.436523Z" fill="white"/>
<path d="M27.2461 4.44386C27.2178 4.14792 27.2517 3.84934 27.3455 3.56726C27.4394 3.28518 27.5912 3.02583 27.7911 2.80584C27.9911 2.58585 28.2348 2.41009 28.5067 2.28981C28.7786 2.16953 29.0726 2.1074 29.3699 2.1074C29.6672 2.1074 29.9612 2.16953 30.233 2.28981C30.5049 2.41009 30.7486 2.58585 30.9486 2.80584C31.1486 3.02583 31.3003 3.28518 31.3942 3.56726C31.4881 3.84934 31.5219 4.14792 31.4936 4.44386C31.5225 4.7401 31.489 5.03908 31.3954 5.32161C31.3017 5.60413 31.15 5.86394 30.95 6.08435C30.75 6.30476 30.5061 6.48088 30.234 6.60141C29.9618 6.72194 29.6675 6.78421 29.3699 6.78421C29.0722 6.78421 28.7779 6.72194 28.5058 6.60141C28.2336 6.48088 27.9897 6.30476 27.7897 6.08435C27.5897 5.86394 27.438 5.60413 27.3444 5.32161C27.2508 5.03908 27.2173 4.7401 27.2461 4.44386ZM30.5791 4.44386C30.5791 3.46779 30.1406 2.89699 29.3711 2.89699C28.5986 2.89699 28.1641 3.46779 28.1641 4.44387C28.1641 5.42776 28.5987 5.99416 29.3711 5.99416C30.1406 5.99415 30.5791 5.42384 30.5791 4.44386Z" fill="white"/>
<path d="M32.4292 5.42384C32.4292 4.61329 33.0327 4.14601 34.104 4.0796L35.3237 4.00929V3.62062C35.3237 3.14503 35.0093 2.87648 34.4019 2.87648C33.9058 2.87648 33.562 3.05861 33.4634 3.37697H32.603C32.6938 2.60353 33.4214 2.10744 34.4429 2.10744C35.5718 2.10744 36.2085 2.66944 36.2085 3.62062V6.69728H35.353V6.06447H35.2827C35.14 6.29147 34.9396 6.47651 34.702 6.60073C34.4643 6.72494 34.198 6.78386 33.9302 6.77147C33.7411 6.79114 33.5501 6.77097 33.3693 6.71227C33.1886 6.65357 33.0221 6.55764 32.8807 6.43068C32.7393 6.30371 32.626 6.14851 32.5483 5.9751C32.4705 5.80168 32.4299 5.61389 32.4292 5.42384ZM35.3237 5.03907V4.66261L34.2241 4.73292C33.604 4.77442 33.3227 4.98536 33.3227 5.38233C33.3227 5.7876 33.6743 6.02344 34.1577 6.02344C34.2994 6.03778 34.4425 6.02348 34.5785 5.98139C34.7145 5.9393 34.8406 5.87028 34.9494 5.77844C35.0582 5.6866 35.1474 5.57381 35.2117 5.44679C35.276 5.31977 35.3141 5.18112 35.3237 5.03907Z" fill="white"/>
<path d="M37.3765 4.44386C37.3765 3.02101 38.1079 2.11964 39.2456 2.11964C39.527 2.10668 39.8063 2.17408 40.0508 2.31397C40.2954 2.45387 40.495 2.66048 40.6265 2.90964H40.6929V0.436523H41.5815V6.69726H40.73V5.98583H40.6597C40.5181 6.23332 40.3114 6.43736 40.0622 6.57584C39.8129 6.71432 39.5306 6.78198 39.2456 6.77147C38.1001 6.77152 37.3765 5.87013 37.3765 4.44386ZM38.2945 4.44386C38.2945 5.39894 38.7447 5.97365 39.4976 5.97365C40.2466 5.97365 40.7095 5.39065 40.7095 4.44777C40.7095 3.50929 40.2417 2.91798 39.4976 2.91798C38.7495 2.91798 38.2945 3.49659 38.2945 4.44386Z" fill="white"/>
<path d="M45.2583 4.44386C45.23 4.14794 45.2638 3.84938 45.3577 3.56731C45.4515 3.28524 45.6033 3.0259 45.8032 2.80591C46.0032 2.58593 46.2469 2.41017 46.5187 2.28989C46.7906 2.16961 47.0846 2.10748 47.3818 2.10748C47.6791 2.10748 47.9731 2.16961 48.2449 2.28989C48.5168 2.41017 48.7605 2.58593 48.9604 2.80591C49.1604 3.0259 49.3121 3.28524 49.406 3.56731C49.4998 3.84938 49.5337 4.14794 49.5054 4.44386C49.5342 4.74009 49.5008 5.03907 49.4072 5.32159C49.3136 5.60412 49.1619 5.86393 48.9619 6.08435C48.7619 6.30476 48.518 6.4809 48.2459 6.60143C47.9738 6.72197 47.6795 6.78424 47.3818 6.78424C47.0842 6.78424 46.7899 6.72197 46.5177 6.60143C46.2456 6.4809 46.0017 6.30476 45.8017 6.08435C45.6017 5.86393 45.4501 5.60412 45.3565 5.32159C45.2629 5.03907 45.2295 4.74009 45.2583 4.44386ZM48.5913 4.44386C48.5913 3.46779 48.1528 2.89699 47.3833 2.89699C46.6108 2.89699 46.1763 3.46779 46.1763 4.44387C46.1763 5.42776 46.6109 5.99416 47.3833 5.99416C48.1528 5.99415 48.5913 5.42384 48.5913 4.44386Z" fill="white"/>
<path d="M50.6977 2.19434H51.5532V2.90967H51.6196C51.7323 2.65275 51.9223 2.43738 52.1632 2.29357C52.404 2.14977 52.6838 2.08469 52.9634 2.10742C53.1825 2.09095 53.4025 2.12399 53.6071 2.20408C53.8117 2.28418 53.9956 2.40928 54.1453 2.57013C54.295 2.73097 54.4066 2.92343 54.4718 3.13325C54.537 3.34307 54.5541 3.56487 54.522 3.78222V6.69722H53.6333V4.00538C53.6333 3.28175 53.3189 2.92188 52.6616 2.92188C52.5129 2.91496 52.3644 2.94027 52.2263 2.9961C52.0882 3.05193 51.9639 3.13696 51.8618 3.24534C51.7596 3.35373 51.6822 3.48291 51.6346 3.62404C51.5871 3.76517 51.5707 3.91491 51.5864 4.06299V6.69727H50.6977V2.19434Z" fill="white"/>
<path d="M59.5435 1.07325V2.21485H60.5191V2.96339H59.5435V5.27882C59.5435 5.7505 59.7378 5.95704 60.1802 5.95704C60.2934 5.95668 60.4066 5.94983 60.5191 5.93653V6.67676C60.3595 6.70531 60.1978 6.7205 60.0356 6.72217C59.0474 6.72217 58.6538 6.37451 58.6538 5.50635V2.96335H57.939V2.21481H58.6538V1.07325H59.5435Z" fill="white"/>
<path d="M61.7329 0.436523H62.6138V2.91797H62.6841C62.8022 2.65865 62.9974 2.44206 63.2431 2.29771C63.4888 2.15337 63.773 2.08828 64.0571 2.11133C64.275 2.09947 64.4929 2.13586 64.6952 2.2179C64.8975 2.29995 65.0792 2.42562 65.2273 2.58596C65.3754 2.74629 65.4863 2.93735 65.5521 3.14548C65.6179 3.35362 65.6369 3.5737 65.6079 3.79004V6.69727H64.7183V4.00927C64.7183 3.29003 64.3833 2.92577 63.7554 2.92577C63.6027 2.91325 63.449 2.93424 63.3053 2.9873C63.1615 3.04035 63.031 3.12418 62.923 3.23292C62.815 3.34165 62.7321 3.47268 62.6801 3.61681C62.628 3.76095 62.608 3.91472 62.6216 4.06737V6.69725H61.7329L61.7329 0.436523Z" fill="white"/>
<path d="M70.7896 5.48145C70.6688 5.89299 70.4072 6.24898 70.0505 6.48713C69.6938 6.72528 69.2648 6.83043 68.8384 6.78418C68.5417 6.79201 68.2469 6.73519 67.9744 6.61767C67.7019 6.50014 67.4582 6.32472 67.2603 6.10358C67.0624 5.88244 66.915 5.62088 66.8283 5.33706C66.7416 5.05324 66.7177 4.75395 66.7583 4.45997C66.7188 4.16509 66.7431 3.86516 66.8296 3.58048C66.9161 3.29581 67.0627 3.03304 67.2596 2.80997C67.4565 2.5869 67.699 2.40873 67.9707 2.28752C68.2424 2.16631 68.537 2.1049 68.8345 2.10743C70.0874 2.10743 70.8433 2.96343 70.8433 4.37743V4.68752H67.6636V4.73732C67.6497 4.90257 67.6704 5.0689 67.7245 5.22565C67.7787 5.3824 67.865 5.52611 67.9779 5.64756C68.0908 5.76902 68.2278 5.86554 68.3802 5.93094C68.5326 5.99634 68.697 6.02916 68.8628 6.02732C69.0754 6.05284 69.2907 6.01457 69.4815 5.91736C69.6722 5.82015 69.8298 5.66841 69.9341 5.48142L70.7896 5.48145ZM67.6635 4.03028H69.938C69.9492 3.87916 69.9286 3.72736 69.8777 3.58464C69.8267 3.44192 69.7465 3.31144 69.6421 3.20158C69.5377 3.09172 69.4115 3.00492 69.2715 2.94674C69.1316 2.88857 68.9811 2.86031 68.8296 2.86378C68.6759 2.86185 68.5233 2.89071 68.381 2.94865C68.2386 3.0066 68.1093 3.09246 68.0006 3.20117C67.8919 3.30989 67.8061 3.43925 67.7482 3.58165C67.6904 3.72404 67.6615 3.87659 67.6635 4.03028Z" fill="white"/>
</svg>
