<svg width="212" height="117" viewBox="0 0 212 117" fill="none" xmlns="http://www.w3.org/2000/svg">
<path d="M212 0H213.5V-1.5H212V0ZM212 85.2222V86.7222H213.5V85.2222H212ZM0 85.2222V83.7222H-1.5V85.2222H0ZM-1.06066 118.061C-0.474874 118.646 0.474874 118.646 1.06066 118.061L10.6066 108.515C11.1924 107.929 11.1924 106.979 10.6066 106.393C10.0208 105.808 9.07107 105.808 8.48528 106.393L0 114.879L-8.48528 106.393C-9.07107 105.808 -10.0208 105.808 -10.6066 106.393C-11.1924 106.979 -11.1924 107.929 -10.6066 108.515L-1.06066 118.061ZM0 117H1.5V113.028H0H-1.5V117H0ZM0 105.083H1.5V97.1389H0H-1.5V105.083H0ZM0 89.1945H1.5V85.2222H0H-1.5V89.1945H0ZM0 85.2222V86.7222H4.81818V85.2222V83.7222H0V85.2222ZM14.4545 85.2222V86.7222H24.0909V85.2222V83.7222H14.4545V85.2222ZM33.7273 85.2222V86.7222H43.3636V85.2222V83.7222H33.7273V85.2222ZM53 85.2222V86.7222H62.6364V85.2222V83.7222H53V85.2222ZM72.2727 85.2222V86.7222H81.9091V85.2222V83.7222H72.2727V85.2222ZM91.5455 85.2222V86.7222H101.182V85.2222V83.7222H91.5455V85.2222ZM110.818 85.2222V86.7222H120.455V85.2222V83.7222H110.818V85.2222ZM130.091 85.2222V86.7222H139.727V85.2222V83.7222H130.091V85.2222ZM149.364 85.2222V86.7222H159V85.2222V83.7222H149.364V85.2222ZM168.636 85.2222V86.7222H178.273V85.2222V83.7222H168.636V85.2222ZM187.909 85.2222V86.7222H197.546V85.2222V83.7222H187.909V85.2222ZM207.182 85.2222V86.7222H212V85.2222V83.7222H207.182V85.2222ZM212 85.2222H213.5V79.8958H212H210.5V85.2222H212ZM212 69.2431H213.5V58.5903H212H210.5V69.2431H212ZM212 47.9375H213.5V37.2847H212H210.5V47.9375H212ZM212 26.6319H213.5V15.9792H212H210.5V26.6319H212ZM212 5.32638H213.5V0H212H210.5V5.32638H212ZM212 0V-1.5H207.141V0V1.5H212V0ZM197.422 0V-1.5H187.703V0V1.5H197.422V0ZM177.984 0V-1.5H168.265V0V1.5H177.984V0ZM158.546 0V-1.5H153.686V0V1.5H158.546V0Z" fill="#0066CC"/>
</svg>
