<svg width="78" height="24" viewBox="0 0 78 24" fill="none" xmlns="http://www.w3.org/2000/svg">
<path d="M17.6432 10.622H19.1552C20.0164 10.622 20.4471 10.9187 20.4471 11.5024C20.4471 11.9234 20.2939 12.2584 19.9973 12.488C19.7006 12.7273 19.27 12.8421 18.7246 12.8421H16.9542C16.3035 12.8421 15.8059 12.7081 15.4614 12.4402C15.1073 12.1723 14.9351 11.7799 14.9351 11.2823C14.9351 10.957 15.0691 10.488 15.3274 9.86604L17.7198 4.25836L15.9207 6.1914C15.4901 6.6603 15.0882 6.88994 14.6959 6.88994C14.1887 6.88994 13.8633 6.54546 13.7198 5.85646L13.4614 4.69857L11.1839 10.3062C10.3992 12.2297 9.80589 13.5407 9.39441 14.2297C8.98293 14.9187 8.45662 15.5215 7.8059 16.0287C6.85853 16.7656 5.77719 17.1292 4.55231 17.1292C3.25087 17.1292 2.18867 16.7177 1.37527 15.8947C0.561873 15.0718 0.150391 14 0.150391 12.6794C0.150391 10.9474 0.791534 9.42585 2.07383 8.10527C2.76283 7.40671 3.62408 6.83255 4.65757 6.40192C5.69106 5.9713 6.70542 5.75121 7.70063 5.75121C8.20781 5.75121 8.61929 5.85647 8.92551 6.07657C9.23173 6.29666 9.38484 6.58375 9.38484 6.94739C9.38484 7.33016 9.22217 7.63637 8.89681 7.86604C8.71499 8.00001 8.35135 8.09571 7.81546 8.14356C6.58101 8.25839 5.5858 8.53589 4.82982 8.99522C4.19824 9.37799 3.70063 9.86602 3.33699 10.4785C2.96378 11.0909 2.78197 11.7225 2.78197 12.3923C2.78197 13.1005 2.96379 13.6555 3.31785 14.067C3.67192 14.4785 4.16953 14.6794 4.80111 14.6794C5.54752 14.6794 6.20781 14.3541 6.76283 13.7129C7.31785 13.0718 7.9303 11.933 8.59059 10.3062L12.2844 1.20576C12.6097 0.401927 13.0404 3.8147e-06 13.5858 3.8147e-06C13.9303 3.8147e-06 14.2078 0.114842 14.4088 0.334938C14.6097 0.555034 14.782 0.94736 14.9351 1.51195L15.4997 3.65552L18.2939 0.909078C18.9064 0.306207 19.4805 0.00958254 20.0164 0.00958254C20.3896 0.00958254 20.7054 0.124401 20.9638 0.354066C21.2222 0.583732 21.3466 0.85166 21.3466 1.17702C21.3466 1.37798 21.2987 1.60765 21.1935 1.84689L20.9829 2.37319L17.6336 10.6316L17.6432 10.622Z" fill="#EB5C13" stroke="#EB5C13" stroke-width="0.21"/>
<path d="M26.8103 12.8517H24.1118C23.3366 12.8517 22.7051 12.5742 22.217 12.0287C21.729 11.4833 21.4897 10.7751 21.4897 9.90432C21.4897 8.74643 21.8917 7.73207 22.6955 6.88039C23.4993 6.01915 24.4371 5.5981 25.5185 5.5981C26.2553 5.5981 26.8486 5.79904 27.3079 6.21052C27.7673 6.62201 27.9969 7.15791 27.9969 7.80862C27.9969 8.26795 27.8821 8.64115 27.6524 8.9378C27.4228 9.23446 27.1261 9.37799 26.772 9.37799C26.1979 9.37799 25.9108 9.11005 25.9108 8.57416V8.37321C25.9108 8.30623 25.9108 8.23923 25.9108 8.18181C25.9108 7.74162 25.7003 7.5311 25.2697 7.5311C24.8677 7.5311 24.4945 7.74164 24.1692 8.17227C23.8342 8.60289 23.6716 9.08136 23.6716 9.60767C23.6716 10.0479 23.8055 10.3636 24.0735 10.5455C24.3414 10.7273 24.8008 10.823 25.4515 10.823H27.2122C27.9969 10.823 28.3988 11.1005 28.3988 11.6555C28.3988 12.0287 28.2553 12.3254 27.9778 12.5359C27.6907 12.7464 27.3079 12.8613 26.8295 12.8613L26.8103 12.8517Z" fill="#EB5C13" stroke="#EB5C13" stroke-width="0.21"/>
<path d="M45.2028 10.622H46.7148C47.576 10.622 48.0066 10.9187 48.0066 11.5024C48.0066 11.9234 47.8535 12.2584 47.5569 12.488C47.2602 12.7273 46.8296 12.8421 46.2841 12.8421H44.5138C43.8631 12.8421 43.3655 12.7081 43.021 12.4402C42.6669 12.1723 42.4947 11.7799 42.4947 11.2823C42.4947 10.957 42.6286 10.488 42.887 9.86604L45.2794 4.25836L43.4803 6.1914C43.0497 6.6603 42.6478 6.88994 42.2554 6.88994C41.7483 6.88994 41.4229 6.54546 41.2793 5.85646L41.021 4.69857L38.7435 10.3062C37.9588 12.2297 37.3655 13.5407 36.954 14.2297C36.5425 14.9187 36.0162 15.5215 35.3655 16.0287C34.4181 16.7656 33.3368 17.1292 32.1119 17.1292C30.8104 17.1292 29.7482 16.7177 28.9348 15.8947C28.1214 15.0718 27.71 14 27.71 12.6794C27.71 10.9474 28.3511 9.42585 29.6334 8.10527C30.3224 7.40671 31.1836 6.83255 32.2171 6.40192C33.2506 5.9713 34.265 5.75121 35.2602 5.75121C35.7674 5.75121 36.1789 5.85647 36.4851 6.07657C36.7913 6.29666 36.9444 6.58375 36.9444 6.94739C36.9444 7.33016 36.7817 7.63637 36.4564 7.86604C36.2746 8.00001 35.9109 8.09571 35.375 8.14356C34.1406 8.25839 33.1454 8.53589 32.3894 8.99522C31.7578 9.37799 31.2602 9.86602 30.8966 10.4785C30.5234 11.0909 30.3415 11.7225 30.3415 12.3923C30.3415 13.1005 30.5234 13.6555 30.8774 14.067C31.2315 14.4785 31.7291 14.6794 32.3607 14.6794C33.1071 14.6794 33.7674 14.3541 34.3224 13.7129C34.8774 13.0718 35.4899 11.933 36.1502 10.3062L39.8439 1.20576C40.1693 0.401927 40.5999 3.8147e-06 41.1454 3.8147e-06C41.4899 3.8147e-06 41.7674 0.114842 41.9683 0.334938C42.1693 0.555034 42.3416 0.94736 42.4947 1.51195L43.0593 3.65552L45.8535 0.909078C46.466 0.306207 47.0401 0.00958254 47.576 0.00958254C47.9492 0.00958254 48.265 0.124401 48.5234 0.354066C48.7817 0.583732 48.9061 0.85166 48.9061 1.17702C48.9061 1.37798 48.8583 1.60765 48.753 1.84689L48.5425 2.37319L45.1932 10.6316L45.2028 10.622Z" fill="#EB5C13" stroke="#EB5C13" stroke-width="0.21"/>
<path d="M51.6238 10.823H52.6764C53.4611 10.823 53.8534 11.1005 53.8534 11.6555C53.8534 12.0383 53.7195 12.3254 53.442 12.5455C53.1644 12.756 52.7817 12.8613 52.2841 12.8613H50.8008C50.2553 12.8613 49.8247 12.7464 49.5089 12.5263C49.1932 12.3062 49.04 12 49.04 11.6172C49.04 11.4163 49.107 11.1483 49.2314 10.8326L50.7721 7.05263L50.8774 6.79427C51.1644 6.09571 51.6238 5.74163 52.2554 5.74163C52.5137 5.74163 52.7434 5.82775 52.9348 6C53.1262 6.17225 53.2219 6.38277 53.2219 6.622C53.2219 6.82296 53.1357 7.11962 52.9731 7.5311L51.6429 10.8326L51.6238 10.823ZM52.8486 2.75599C53.2123 2.75599 53.5185 2.88038 53.7673 3.12918C54.0161 3.37799 54.1405 3.6842 54.1405 4.04783C54.1405 4.41147 54.0161 4.71771 53.7673 4.96652C53.5185 5.21532 53.2123 5.33971 52.8486 5.33971C52.485 5.33971 52.1788 5.21532 51.93 4.96652C51.6812 4.71771 51.5568 4.41147 51.5568 4.04783C51.5568 3.6842 51.6812 3.37799 51.93 3.12918C52.1788 2.88038 52.485 2.75599 52.8486 2.75599Z" fill="#EB5C13" stroke="#EB5C13" stroke-width="0.21"/>
<path d="M56.6962 10.823H57.6723C58.457 10.823 58.8589 11.1005 58.8589 11.6555C58.8589 12.0383 58.7249 12.3254 58.4474 12.5455C58.1699 12.7655 57.7871 12.8613 57.2895 12.8613H55.6149C55.1556 12.8613 54.7919 12.756 54.524 12.5359C54.256 12.3158 54.1221 12.0287 54.1221 11.6651C54.1221 11.4737 54.2082 11.1579 54.39 10.7081L58.1508 1.44499L58.2561 1.19618C58.5431 0.497612 59.0025 0.153118 59.6245 0.153118C59.8828 0.153118 60.1029 0.239232 60.2943 0.411481C60.4761 0.58373 60.5718 0.79425 60.5718 1.03349C60.5718 1.2153 60.524 1.42583 60.4283 1.66507L60.323 1.91388L56.6962 10.8326V10.823Z" fill="#EB5C13" stroke="#EB5C13" stroke-width="0.21"/>
<path d="M65.6341 10.823H66.6581C67.4428 10.823 67.8351 11.1005 67.8351 11.6459C67.8351 12.0287 67.6916 12.3158 67.414 12.5359C67.1365 12.756 66.7538 12.8613 66.2562 12.8613H65.06C64.5241 12.8613 64.1605 12.6507 63.9691 12.2393C63.5002 12.6603 63.0504 12.8613 62.6198 12.8613H61.5576C60.8782 12.8613 60.3231 12.622 59.9021 12.134C59.481 11.6459 59.2705 11.0048 59.2705 10.2201C59.2705 9.02393 59.682 7.96173 60.505 7.02393C61.3279 6.08613 62.2561 5.61723 63.2992 5.61723C64.0935 5.61723 64.6772 5.89474 65.0408 6.44976C65.3471 5.98086 65.7585 5.75121 66.2657 5.75121C66.5432 5.75121 66.7633 5.83733 66.9547 6.00958C67.1365 6.18182 67.2322 6.4019 67.2322 6.65071C67.2322 6.82296 67.1844 7.03351 67.0791 7.27274L66.9739 7.52153L65.6341 10.8421V10.823ZM62.2466 10.8708H62.4763C62.9834 10.8708 63.3279 10.6603 63.4906 10.2488L64.1413 8.64116C64.2274 8.43063 64.2753 8.24881 64.2753 8.10527C64.2753 7.94259 64.1892 7.78949 64.0265 7.66509C63.8638 7.54069 63.6629 7.47369 63.4332 7.47369C62.9834 7.47369 62.5432 7.74162 62.1126 8.26794C61.682 8.79425 61.4715 9.33973 61.4715 9.90432C61.4715 10.5455 61.7298 10.8613 62.2466 10.8613V10.8708Z" fill="#EB5C13" stroke="#EB5C13" stroke-width="0.21"/>
<path d="M75.0882 10.823H76.2078C76.9925 10.823 77.3944 11.1005 77.3944 11.6555C77.3944 12.0383 77.2509 12.3254 76.9733 12.5455C76.6958 12.7655 76.313 12.8613 75.8154 12.8613H73.8729C73.4901 12.8613 73.1743 12.7464 72.9159 12.5167C72.6575 12.2871 72.5332 12 72.5332 11.6555C72.5332 11.445 72.6193 11.1292 72.7915 10.7081L73.6145 8.67944C73.7006 8.46892 73.7485 8.29667 73.758 8.17227C73.758 8.01916 73.7006 7.89473 73.5762 7.78947C73.4518 7.6842 73.2891 7.6268 73.0882 7.6268C72.447 7.6268 71.9303 8.10525 71.5379 9.07176L70.4375 11.7703C70.1121 12.5933 69.6145 13.0048 68.9638 13.0048C68.6958 13.0048 68.4662 12.9282 68.2843 12.7656C68.1025 12.6029 68.0068 12.4019 68.0068 12.1723C68.0068 12 68.0547 11.7895 68.1599 11.5503L68.2652 11.3014L70.1504 6.66029C70.3896 6.05742 70.8011 5.76076 71.3848 5.76076C71.8633 5.76076 72.2078 5.97129 72.4087 6.39235C73.069 5.88517 73.7102 5.62681 74.3131 5.62681C74.9159 5.62681 75.3753 5.78948 75.758 6.1244C76.1408 6.45933 76.3226 6.88994 76.3226 7.39712C76.3226 7.6842 76.2556 8 76.1217 8.33493L75.1073 10.8421L75.0882 10.823Z" fill="#EB5C13" stroke="#EB5C13" stroke-width="0.21"/>
<path d="M44.6663 20.1818L45.3265 20.3828C45.183 21.0622 44.9246 21.5694 44.561 21.9139C44.1973 22.2488 43.7476 22.4211 43.2213 22.4211C42.7619 22.4211 42.3696 22.3062 42.0347 22.0861C41.6997 21.866 41.4414 21.5024 41.2308 21.0048C41.0203 20.5072 40.915 19.9235 40.915 19.244C40.915 18.5646 41.0203 18.0096 41.2308 17.5503C41.4414 17.0909 41.7189 16.7369 42.0825 16.4976C42.4366 16.2584 42.8385 16.1436 43.2787 16.1436C43.7571 16.1436 44.1686 16.2967 44.5227 16.5933C44.8672 16.89 45.1064 17.3302 45.25 17.9139L44.5993 18.1053C44.3792 17.2632 43.9294 16.8421 43.2691 16.8421C42.9342 16.8421 42.6471 16.9282 42.4079 17.1005C42.1686 17.2727 41.9677 17.5311 41.8241 17.8947C41.6806 18.2584 41.604 18.7082 41.604 19.2632C41.604 20.0957 41.7476 20.7177 42.0442 21.1388C42.3409 21.5598 42.7237 21.7608 43.2117 21.7608C43.5753 21.7608 43.8816 21.6364 44.1399 21.378C44.3983 21.1196 44.5801 20.7369 44.6663 20.2105V20.1818Z" fill="#EB5C13" stroke="#EB5C13" stroke-width="0.12"/>
<path d="M45.8335 20.1148C45.8335 19.3589 45.9962 18.7847 46.312 18.3924C46.6278 18 47.0392 17.8086 47.5273 17.8086C48.0153 17.8086 48.4077 18 48.733 18.3924C49.0584 18.7847 49.2211 19.3397 49.2211 20.067C49.2211 20.8613 49.0584 21.445 48.7426 21.8278C48.4268 22.2105 48.0249 22.4115 47.5273 22.4115C47.0297 22.4115 46.6373 22.2201 46.3215 21.8278C45.9962 21.445 45.8431 20.8708 45.8431 20.1148H45.8335ZM46.4555 20.1148C46.4555 20.6794 46.5608 21.1101 46.7617 21.3876C46.9723 21.6651 47.2306 21.8086 47.5369 21.8086C47.8239 21.8086 48.0727 21.6651 48.2737 21.3876C48.4842 21.1101 48.5799 20.6794 48.5799 20.1244C48.5799 19.5694 48.4746 19.1388 48.2737 18.8613C48.0727 18.5837 47.8144 18.4402 47.4986 18.4402C47.2115 18.4402 46.9627 18.5837 46.7522 18.8613C46.5416 19.1388 46.446 19.5598 46.446 20.1244L46.4555 20.1148Z" fill="#EB5C13" stroke="#EB5C13" stroke-width="0.12"/>
<path d="M49.9388 22.3158V17.9139H50.4938V18.5837C50.6373 18.2775 50.7617 18.067 50.8766 17.9713C50.9914 17.8756 51.1254 17.8182 51.2689 17.8182C51.4699 17.8182 51.6804 17.8948 51.8909 18.0574L51.6804 18.7464C51.5273 18.6412 51.3837 18.5837 51.2402 18.5837C51.1062 18.5837 50.9914 18.6316 50.8861 18.7177C50.7809 18.8134 50.7043 18.9378 50.6565 19.1005C50.5799 19.3876 50.5416 19.6842 50.5416 20.0096V22.3158H49.9292H49.9388Z" fill="#EB5C13" stroke="#EB5C13" stroke-width="0.12"/>
<path d="M52.2544 24V17.9139H52.819V18.4881C52.953 18.2488 53.1061 18.0766 53.2783 17.9713C53.4506 17.866 53.642 17.8182 53.8525 17.8182C54.1396 17.8182 54.3884 17.9043 54.618 18.067C54.8477 18.2297 55.0295 18.4881 55.1731 18.8325C55.3166 19.177 55.3836 19.5885 55.3836 20.0766C55.3836 20.823 55.2305 21.3972 54.9147 21.8086C54.5989 22.2106 54.2353 22.4115 53.8142 22.4115C53.6228 22.4115 53.4506 22.3636 53.2879 22.268C53.1252 22.1723 52.9817 22.0383 52.8668 21.8565V24H52.2544ZM52.8094 20.134C52.8094 20.6986 52.9051 21.1196 53.0965 21.3876C53.2879 21.6555 53.5176 21.7895 53.7855 21.7895C54.0534 21.7895 54.2735 21.6459 54.4649 21.3684C54.6563 21.0909 54.7616 20.6603 54.7616 20.0766C54.7616 19.4928 54.6659 19.0718 54.4745 18.8038C54.2831 18.5263 54.0534 18.3924 53.7759 18.3924C53.5271 18.3924 53.307 18.5359 53.1061 18.8421C52.9051 19.1388 52.7999 19.5694 52.7999 20.134H52.8094Z" fill="#EB5C13" stroke="#EB5C13" stroke-width="0.12"/>
<path d="M55.8916 20.1148C55.8916 19.3589 56.0543 18.7847 56.3701 18.3924C56.6859 18 57.0973 17.8086 57.5854 17.8086C58.0734 17.8086 58.4658 18 58.7911 18.3924C59.1165 18.7847 59.2792 19.3397 59.2792 20.067C59.2792 20.8613 59.1165 21.445 58.8007 21.8278C58.4849 22.2105 58.083 22.4115 57.5854 22.4115C57.0878 22.4115 56.6954 22.2201 56.3796 21.8278C56.0543 21.445 55.9012 20.8708 55.9012 20.1148H55.8916ZM56.5136 20.1148C56.5136 20.6794 56.6189 21.1101 56.8198 21.3876C57.0304 21.6651 57.2887 21.8086 57.595 21.8086C57.882 21.8086 58.1308 21.6651 58.3318 21.3876C58.5423 21.1101 58.638 20.6794 58.638 20.1244C58.638 19.5694 58.5328 19.1388 58.3318 18.8613C58.1308 18.5837 57.8725 18.4402 57.5567 18.4402C57.2696 18.4402 57.0208 18.5837 56.8103 18.8613C56.5997 19.1388 56.504 19.5598 56.504 20.1244L56.5136 20.1148Z" fill="#EB5C13" stroke="#EB5C13" stroke-width="0.12"/>
<path d="M59.9964 22.3158V17.9139H60.5514V18.5837C60.6949 18.2775 60.8194 18.067 60.9342 17.9713C61.049 17.8756 61.183 17.8182 61.3265 17.8182C61.5275 17.8182 61.738 17.8948 61.9485 18.0574L61.738 18.7464C61.5849 18.6412 61.4414 18.5837 61.2978 18.5837C61.1638 18.5837 61.049 18.6316 60.9438 18.7177C60.8385 18.8134 60.7619 18.9378 60.7141 19.1005C60.6375 19.3876 60.5993 19.6842 60.5993 20.0096V22.3158H59.9868H59.9964Z" fill="#EB5C13" stroke="#EB5C13" stroke-width="0.12"/>
<path d="M64.6564 21.7704C64.4554 21.9809 64.2353 22.1436 64.0152 22.2488C63.7951 22.3541 63.5655 22.4115 63.3263 22.4115C62.953 22.4115 62.6468 22.2967 62.4267 22.067C62.2066 21.8373 62.0918 21.5311 62.0918 21.1484C62.0918 20.89 62.1396 20.6699 62.2449 20.4689C62.3502 20.2775 62.4937 20.1149 62.6755 20.0096C62.8573 19.9043 63.1349 19.8182 63.5081 19.7608C64.0057 19.6842 64.3693 19.5981 64.599 19.5024V19.311C64.599 19.0048 64.5511 18.7943 64.4459 18.6794C64.2928 18.5072 64.0631 18.4115 63.7473 18.4115C63.4602 18.4115 63.2497 18.4689 63.1061 18.5837C62.9626 18.6986 62.8574 18.9282 62.7999 19.244L62.1971 19.1484C62.2832 18.6795 62.4554 18.3349 62.7138 18.1148C62.9722 17.8947 63.3454 17.7895 63.8334 17.7895C64.2162 17.7895 64.5129 17.8565 64.7234 18C64.9339 18.1436 65.0775 18.3158 65.1349 18.5263C65.1923 18.7368 65.221 19.0431 65.221 19.445V20.4402C65.221 21.1388 65.2306 21.579 65.2593 21.7608C65.288 21.9426 65.3358 22.1149 65.4124 22.2871H64.7712C64.7042 22.134 64.666 21.9522 64.6468 21.7416L64.6564 21.7704ZM64.6085 20.1053C64.3885 20.2106 64.0535 20.3062 63.6133 20.3828C63.355 20.4306 63.1731 20.4785 63.0774 20.5359C62.9817 20.5933 62.8956 20.6699 62.8382 20.7751C62.7808 20.8804 62.7521 20.9952 62.7521 21.1292C62.7521 21.3397 62.8191 21.512 62.9435 21.6364C63.0679 21.7608 63.2497 21.8278 63.4794 21.8278C63.6995 21.8278 63.8908 21.7704 64.0727 21.6555C64.2545 21.5407 64.3885 21.3876 64.4746 21.2058C64.5607 21.0144 64.6085 20.7369 64.6085 20.3828V20.1053Z" fill="#EB5C13" stroke="#EB5C13" stroke-width="0.12"/>
<path d="M67.5367 21.6459L67.6229 22.3062C67.4506 22.3541 67.3071 22.3732 67.1635 22.3732C66.953 22.3732 66.7808 22.3254 66.6468 22.2488C66.5128 22.1627 66.4267 22.0479 66.3788 21.9043C66.331 21.7608 66.3023 21.4641 66.3023 21.0335V18.4976H65.8525V17.9139H66.3023V16.823L66.9147 16.3732V17.9139H67.5367V18.4976H66.9147V21.0718C66.9147 21.311 66.9339 21.4641 66.9722 21.5311C67.02 21.6268 67.1253 21.6842 67.2688 21.6842C67.3358 21.6842 67.4315 21.6747 67.5367 21.6555V21.6459Z" fill="#EB5C13" stroke="#EB5C13" stroke-width="0.12"/>
<path d="M68.1113 17.1005V16.2393H68.7238V17.1005H68.1113ZM68.1113 22.3158V17.9139H68.7238V22.3158H68.1113Z" fill="#EB5C13" stroke="#EB5C13" stroke-width="0.12"/>
<path d="M69.4224 20.1148C69.4224 19.3589 69.585 18.7847 69.9008 18.3924C70.2166 18.0096 70.6281 17.8086 71.1161 17.8086C71.6042 17.8086 71.9965 18 72.3219 18.3924C72.6472 18.7847 72.8099 19.3397 72.8099 20.067C72.8099 20.8613 72.6472 21.445 72.3314 21.8278C72.0157 22.2105 71.6138 22.4115 71.1161 22.4115C70.6185 22.4115 70.2262 22.2201 69.9104 21.8278C69.585 21.445 69.4319 20.8708 69.4319 20.1148H69.4224ZM70.0539 20.1148C70.0539 20.6794 70.1592 21.1101 70.3602 21.3876C70.5707 21.6651 70.8291 21.8086 71.1353 21.8086C71.4224 21.8086 71.6712 21.6651 71.8721 21.3876C72.0826 21.1101 72.1784 20.6794 72.1784 20.1244C72.1784 19.5694 72.0731 19.1388 71.8721 18.8613C71.6712 18.5837 71.4128 18.4402 71.097 18.4402C70.8099 18.4402 70.5611 18.5837 70.3506 18.8613C70.1401 19.1388 70.0444 19.5598 70.0444 20.1244L70.0539 20.1148Z" fill="#EB5C13" stroke="#EB5C13" stroke-width="0.12"/>
<path d="M73.5278 22.3158V17.9139H74.0829V18.5359C74.2168 18.2967 74.3795 18.1148 74.5709 17.9904C74.7623 17.866 74.9824 17.8086 75.2312 17.8086C75.4226 17.8086 75.6044 17.8469 75.7671 17.9234C75.9298 18 76.0637 18.0957 76.1594 18.2201C76.2647 18.3445 76.3317 18.5072 76.3891 18.6986C76.4369 18.8995 76.4656 19.1962 76.4656 19.5981V22.3062H75.8532V19.6268C75.8532 19.3015 75.8245 19.0622 75.7671 18.9187C75.7097 18.7751 75.6235 18.6507 75.5087 18.5742C75.3939 18.4881 75.2599 18.4498 75.0972 18.4498C74.8006 18.4498 74.5709 18.555 74.3986 18.7751C74.2264 18.9952 74.1403 19.3684 74.1403 19.8948V22.2967H73.5278V22.3158Z" fill="#EB5C13" stroke="#EB5C13" stroke-width="0.12"/>
</svg>
