<svg width="40" height="40" viewBox="0 0 40 40" fill="none" xmlns="http://www.w3.org/2000/svg">
<rect x="0.5" y="0.5" width="39" height="39" rx="4.5" fill="#E7EAF1"/>
<rect x="0.5" y="0.5" width="39" height="39" rx="4.5" stroke="#0066CC"/>
<path fill-rule="evenodd" clip-rule="evenodd" d="M14.9796 7.91C16.8411 7.4316 18.8168 7 20.0001 7C21.1816 7 23.1591 7.4316 25.0205 7.91C26.6809 8.34294 28.3305 8.81396 29.9679 9.32267C30.9102 9.61387 31.6205 10.4025 31.758 11.3749C32.7806 18.6497 30.4087 24.0404 27.5335 27.6076C26.3082 29.1385 24.8535 30.4823 23.218 31.5943C22.6492 31.9812 22.048 32.3209 21.4207 32.61C20.9388 32.8249 20.4248 33 20.0001 33C19.5753 33 19.0613 32.8249 18.5794 32.61C17.9519 32.3212 17.3507 31.9814 16.7822 31.5943C15.1472 30.4822 13.6932 29.1383 12.4684 27.6076C9.58964 24.0404 7.21949 18.6497 8.24215 11.3749C8.31053 10.9036 8.51495 10.4607 8.83174 10.0975C9.14854 9.7343 9.56477 9.46566 10.0323 9.32267C11.6697 8.81398 13.3192 8.34296 14.9796 7.91Z" fill="black"/>
</svg>
