<svg width="136" height="16" viewBox="0 0 136 16" fill="none" xmlns="http://www.w3.org/2000/svg">
<path d="M123.271 3.60742C123.864 3.60742 124.439 3.70898 124.998 3.91211C125.574 4.11523 126.124 4.41146 126.648 4.80078C126.733 4.88542 126.826 4.97005 126.928 5.05469C127.012 4.97005 127.105 4.88542 127.207 4.80078C127.732 4.41146 128.273 4.11523 128.832 3.91211C129.408 3.70898 129.983 3.60742 130.559 3.60742C131.151 3.60742 131.727 3.70898 132.285 3.91211C132.861 4.11523 133.402 4.41992 133.91 4.82617C134.435 5.21549 134.892 5.74023 135.281 6.40039C135.688 7.06055 135.891 7.84766 135.891 8.76172V14.1699C135.789 15.1855 135.23 15.7357 134.215 15.8203C133.741 15.8203 133.326 15.668 132.971 15.3633C132.632 15.0417 132.463 14.6439 132.463 14.1699V8.96484C132.463 8.55859 132.387 8.22005 132.234 7.94922C132.082 7.66146 131.913 7.44141 131.727 7.28906C131.54 7.11979 131.346 7.0013 131.143 6.93359C130.939 6.84896 130.736 6.80664 130.533 6.80664C130.33 6.80664 130.127 6.84896 129.924 6.93359C129.738 7.0013 129.551 7.11979 129.365 7.28906C129.179 7.44141 129.01 7.66146 128.857 7.94922C128.705 8.22005 128.62 8.55859 128.604 8.96484V14.1699C128.502 15.1855 127.943 15.7357 126.928 15.8203C126.454 15.8203 126.039 15.668 125.684 15.3633C125.345 15.0417 125.176 14.6439 125.176 14.1699V8.96484C125.176 8.55859 125.1 8.22005 124.947 7.94922C124.795 7.66146 124.626 7.44141 124.439 7.28906C124.253 7.11979 124.059 7.0013 123.855 6.93359C123.652 6.84896 123.449 6.80664 123.246 6.80664C123.043 6.80664 122.84 6.84896 122.637 6.93359C122.451 7.0013 122.264 7.11979 122.078 7.28906C121.892 7.44141 121.723 7.66146 121.57 7.94922C121.418 8.22005 121.333 8.55859 121.316 8.96484V14.1699C121.232 15.1855 120.682 15.7357 119.666 15.8203C119.192 15.8203 118.777 15.668 118.422 15.3633C118.083 15.0417 117.914 14.6439 117.914 14.1699V8.76172C117.948 7.84766 118.16 7.06055 118.549 6.40039C118.938 5.74023 119.395 5.21549 119.92 4.82617C120.445 4.41992 120.986 4.11523 121.545 3.91211C122.12 3.70898 122.696 3.60742 123.271 3.60742Z" fill="#00AAFF"/>
<path d="M111.186 14.1699V8.05078C111.186 7.6276 110.965 7.40755 110.525 7.39062H101.639C101.317 7.40755 101.038 7.55143 100.801 7.82227C100.564 8.07617 100.386 8.38086 100.268 8.73633C100.166 9.07487 100.115 9.42188 100.115 9.77734C100.115 10.1159 100.166 10.4629 100.268 10.8184C100.386 11.1569 100.564 11.4616 100.801 11.7324C101.038 11.9863 101.317 12.1133 101.639 12.1133H108.139C108.613 12.1133 109.01 12.2826 109.332 12.6211C109.671 12.9427 109.84 13.3405 109.84 13.8145C109.84 14.2884 109.671 14.6862 109.332 15.0078C109.01 15.3464 108.613 15.5156 108.139 15.5156H101.74C100.555 15.4987 99.5736 15.1686 98.7949 14.5254C98.0332 13.8652 97.4831 13.1289 97.1445 12.3164C96.8229 11.487 96.6621 10.6322 96.6621 9.75195C96.6621 8.9056 96.8314 8.07617 97.1699 7.26367C97.5085 6.43424 98.0586 5.69792 98.8203 5.05469C99.582 4.39453 100.708 4.03906 102.197 3.98828H112.861C113.335 3.98828 113.742 4.14909 114.08 4.4707C114.419 4.77539 114.596 5.16471 114.613 5.63867V14.1699C114.613 14.6439 114.436 15.0417 114.08 15.3633C113.742 15.668 113.335 15.8203 112.861 15.8203C111.846 15.7357 111.287 15.1855 111.186 14.1699Z" fill="#00AAFF"/>
<path d="M89.1465 0.535156C90.3314 0.602865 91.3047 1.0599 92.0664 1.90625C92.8281 2.73568 93.3783 3.68359 93.7168 4.75C94.0553 5.81641 94.2246 6.9082 94.2246 8.02539C94.2246 9.14258 94.0553 10.2344 93.7168 11.3008C93.3952 12.3672 92.8451 13.3236 92.0664 14.1699C91.3047 14.9993 90.3314 15.4479 89.1465 15.5156H79.8027C79.3457 15.4987 78.9564 15.3379 78.6348 15.0332C78.3301 14.7116 78.1693 14.3223 78.1523 13.8652V7.56836C78.1693 7.0944 78.347 6.70508 78.6855 6.40039C79.0241 6.07878 79.4303 5.91797 79.9043 5.91797C80.3613 5.9349 80.7507 6.10417 81.0723 6.42578C81.3939 6.73047 81.5632 7.11133 81.5801 7.56836V11.4277C81.5801 11.8848 81.8171 12.1133 82.291 12.1133H88.2832C88.9264 12.0794 89.4596 11.834 89.8828 11.377C90.306 10.9199 90.6107 10.4036 90.7969 9.82812C91 9.23568 91.1016 8.63477 91.1016 8.02539C91.1016 7.41602 91 6.82357 90.7969 6.24805C90.6107 5.6556 90.306 5.13086 89.8828 4.67383C89.4596 4.2168 88.9264 3.97135 88.2832 3.9375H79.8027C78.7871 3.85286 78.237 3.30273 78.1523 2.28711C78.1523 1.81315 78.3047 1.4069 78.6094 1.06836C78.931 0.729818 79.3288 0.552083 79.8027 0.535156H89.1465Z" fill="#00AAFF"/>
<path d="M60.2773 0.128906C60.7344 0.145833 61.1237 0.315104 61.4453 0.636719C61.7669 0.941406 61.9362 1.32227 61.9531 1.7793V3.98828H69.8242C71.0091 4.00521 71.9824 4.34375 72.7441 5.00391C73.5228 5.64714 74.0729 6.375 74.3945 7.1875C74.7331 8.01693 74.9023 8.87175 74.9023 9.75195H74.9277V14.1699C74.9277 14.6439 74.75 15.0417 74.3945 15.3633C74.056 15.668 73.6497 15.8203 73.1758 15.8203C72.1602 15.7357 71.6016 15.1855 71.5 14.1699V9.72656C71.5 9.40495 71.4323 9.06641 71.2969 8.71094C71.1784 8.35547 71.0007 8.05078 70.7637 7.79688C70.5267 7.52604 70.2474 7.39062 69.9258 7.39062H61.9531V14.2207C61.8516 15.2363 61.293 15.7865 60.2773 15.8711C59.8034 15.8711 59.3887 15.7188 59.0332 15.4141C58.6947 15.0924 58.5254 14.6947 58.5254 14.2207V1.7793C58.5423 1.30534 58.7201 0.916016 59.0586 0.611328C59.3971 0.289714 59.8034 0.128906 60.2773 0.128906Z" fill="#0066CC"/>
<path d="M55.2754 5.46094C55.2754 5.88411 55.1061 6.23958 54.7676 6.52734C54.446 6.79818 54.0482 6.93359 53.5742 6.93359H42.834C42.6139 6.93359 42.4362 6.97591 42.3008 7.06055C42.1654 7.14518 42.0638 7.23828 41.9961 7.33984C41.9284 7.42448 41.8945 7.50065 41.8945 7.56836C41.8945 7.65299 41.9284 7.74609 41.9961 7.84766C42.0638 7.93229 42.1654 8.01693 42.3008 8.10156C42.4362 8.16927 42.6139 8.21159 42.834 8.22852H51.1367C52.2031 8.24544 53.0833 8.45703 53.7773 8.86328C54.4714 9.2526 54.9622 9.7181 55.25 10.2598C55.5547 10.7845 55.707 11.3177 55.707 11.8594C55.707 12.3841 55.5547 12.9173 55.25 13.459C54.9453 13.9837 54.446 14.4492 53.752 14.8555C53.0749 15.2448 52.2031 15.4395 51.1367 15.4395C50.9505 15.4564 50.8151 15.4648 50.7305 15.4648H40.8789C40.4049 15.4648 39.9987 15.3294 39.6602 15.0586C39.3385 14.7708 39.1777 14.4238 39.1777 14.0176C39.1777 13.5944 39.347 13.2389 39.6855 12.9512C40.0072 12.6803 40.4049 12.5449 40.8789 12.5449H51.3398C51.5938 12.5618 51.7969 12.528 51.9492 12.4434C52.1185 12.3587 52.2454 12.2656 52.3301 12.1641C52.4147 12.0625 52.457 11.9609 52.457 11.8594C52.457 11.8086 52.4147 11.724 52.3301 11.6055C52.2454 11.4701 52.1185 11.3685 51.9492 11.3008C51.7969 11.2161 51.5938 11.1654 51.3398 11.1484H43.0117C42.0299 11.1315 41.2174 10.9284 40.5742 10.5391C39.931 10.1328 39.474 9.66732 39.2031 9.14258C38.9323 8.61784 38.7969 8.0931 38.7969 7.56836C38.7969 7.04362 38.9323 6.52734 39.2031 6.01953C39.4909 5.49479 39.9479 5.04622 40.5742 4.67383C41.2174 4.28451 42.0299 4.07292 43.0117 4.03906C43.181 4.02214 43.3079 4.01367 43.3926 4.01367H53.5742C54.0482 4.01367 54.446 4.15755 54.7676 4.44531C55.1061 4.71615 55.2754 5.05469 55.2754 5.46094Z" fill="#0066CC"/>
<path d="M32.4492 14.1699V8.05078C32.4492 7.6276 32.2292 7.40755 31.7891 7.39062H22.9023C22.5807 7.40755 22.3014 7.55143 22.0645 7.82227C21.8275 8.07617 21.6497 8.38086 21.5312 8.73633C21.4297 9.07487 21.3789 9.42188 21.3789 9.77734C21.3789 10.1159 21.4297 10.4629 21.5312 10.8184C21.6497 11.1569 21.8275 11.4616 22.0645 11.7324C22.3014 11.9863 22.5807 12.1133 22.9023 12.1133H29.4023C29.8763 12.1133 30.2741 12.2826 30.5957 12.6211C30.9342 12.9427 31.1035 13.3405 31.1035 13.8145C31.1035 14.2884 30.9342 14.6862 30.5957 15.0078C30.2741 15.3464 29.8763 15.5156 29.4023 15.5156H23.0039C21.819 15.4987 20.8372 15.1686 20.0586 14.5254C19.2969 13.8652 18.7467 13.1289 18.4082 12.3164C18.0866 11.487 17.9258 10.6322 17.9258 9.75195C17.9258 8.9056 18.0951 8.07617 18.4336 7.26367C18.7721 6.43424 19.3223 5.69792 20.084 5.05469C20.8457 4.39453 21.9714 4.03906 23.4609 3.98828H34.125C34.599 3.98828 35.0052 4.14909 35.3438 4.4707C35.6823 4.77539 35.86 5.16471 35.877 5.63867V14.1699C35.877 14.6439 35.6992 15.0417 35.3438 15.3633C35.0052 15.668 34.599 15.8203 34.125 15.8203C33.1094 15.7357 32.5508 15.1855 32.4492 14.1699Z" fill="#0066CC"/>
<path d="M1.75195 0.128906C2.20898 0.145833 2.59831 0.315104 2.91992 0.636719C3.24154 0.941406 3.41081 1.32227 3.42773 1.7793V6.01953H11.6797V1.7793C11.6966 1.30534 11.8743 0.916016 12.2129 0.611328C12.5514 0.289714 12.9577 0.128906 13.4316 0.128906C13.8887 0.145833 14.278 0.315104 14.5996 0.636719C14.9212 0.941406 15.0905 1.32227 15.1074 1.7793V14.2207C15.0059 15.2363 14.4473 15.7865 13.4316 15.8711C12.9577 15.8711 12.543 15.7188 12.1875 15.4141C11.849 15.0924 11.6797 14.6947 11.6797 14.2207V9.42188H3.42773V14.2207C3.32617 15.2363 2.76758 15.7865 1.75195 15.8711C1.27799 15.8711 0.863281 15.7188 0.507812 15.4141C0.169271 15.0924 0 14.6947 0 14.2207V1.7793C0.0169271 1.30534 0.194661 0.916016 0.533203 0.611328C0.871745 0.289714 1.27799 0.128906 1.75195 0.128906Z" fill="#0066CC"/>
</svg>
